<svg xmlns="http://www.w3.org/2000/svg" xmlns:xlink="http://www.w3.org/1999/xlink" width="400" height="366" viewBox="0 0 400 366">
  <defs>
    <clipPath id="clip-path">
      <rect id="Rectángulo_336192" data-name="Rectángulo 336192" width="400" height="366" transform="translate(180 399)" fill="#fff" stroke="#707070" stroke-width="1"/>
    </clipPath>
    <clipPath id="clip-path-2">
      <rect id="Rectángulo_336177" data-name="Rectángulo 336177" width="400" height="158.495" fill="none"/>
    </clipPath>
    <clipPath id="clip-path-3">
      <rect id="Rectángulo_336187" data-name="Rectángulo 336187" width="159.246" height="348.775" fill="none"/>
    </clipPath>
    <clipPath id="clip-path-5">
      <rect id="Rectángulo_336178" data-name="Rectángulo 336178" width="71.259" height="14.564" fill="none"/>
    </clipPath>
    <clipPath id="clip-path-6">
      <rect id="Rectángulo_336179" data-name="Rectángulo 336179" width="17.331" height="25.87" fill="none"/>
    </clipPath>
    <clipPath id="clip-path-7">
      <rect id="Rectángulo_336180" data-name="Rectángulo 336180" width="43.136" height="22.166" fill="none"/>
    </clipPath>
    <clipPath id="clip-path-8">
      <rect id="Rectángulo_336181" data-name="Rectángulo 336181" width="19.45" height="29.81" fill="none"/>
    </clipPath>
    <clipPath id="clip-path-9">
      <rect id="Rectángulo_336182" data-name="Rectángulo 336182" width="15.807" height="17.765" fill="none"/>
    </clipPath>
    <clipPath id="clip-path-10">
      <rect id="Rectángulo_336184" data-name="Rectángulo 336184" width="16.994" height="37.215" fill="none"/>
    </clipPath>
    <clipPath id="clip-path-11">
      <rect id="Rectángulo_336185" data-name="Rectángulo 336185" width="22.737" height="5.913" fill="none"/>
    </clipPath>
    <clipPath id="clip-path-12">
      <rect id="Rectángulo_336191" data-name="Rectángulo 336191" width="460.28" height="146.775" fill="none"/>
    </clipPath>
    <clipPath id="clip-path-15">
      <rect id="Rectángulo_336189" data-name="Rectángulo 336189" width="28.479" height="28.479" transform="translate(361.844 49.82)" fill="none"/>
    </clipPath>
  </defs>
  <g id="Enmascarar_grupo_927332" data-name="Enmascarar grupo 927332" transform="translate(-180 -399)" clip-path="url(#clip-path)">
    <g id="Grupo_947745" data-name="Grupo 947745" transform="translate(180 489.752)">
      <g id="Grupo_947744" data-name="Grupo 947744" clip-path="url(#clip-path-2)">
        <path id="Trazado_655323" data-name="Trazado 655323" d="M80.053,7.035H78.842a3.414,3.414,0,0,1-3.414-3.414V3.414A3.415,3.415,0,0,1,78.842,0h1.211a3.415,3.415,0,0,1,3.414,3.415v.207a3.414,3.414,0,0,1-3.414,3.414" transform="translate(-9.193 0)" fill="#f5f5f5"/>
        <path id="Trazado_655324" data-name="Trazado 655324" d="M83.3,10.318H74.762A2.757,2.757,0,0,1,72,7.561v-.8a2.757,2.757,0,0,1,2.757-2.757H83.3a2.757,2.757,0,0,1,2.757,2.757v.8A2.757,2.757,0,0,1,83.3,10.318" transform="translate(-8.776 -0.488)" fill="#e0e0e0"/>
        <path id="Trazado_655325" data-name="Trazado 655325" d="M7.834,91.257H2.763A2.762,2.762,0,0,1,0,88.494v-.168a2.763,2.763,0,0,1,2.763-2.763H7.834Z" transform="translate(0 -10.429)" fill="#e0e0e0"/>
        <rect id="Rectángulo_336162" data-name="Rectángulo 336162" width="379.168" height="44.501" transform="translate(9.63 87.005)" fill="#ebebeb"/>
        <path id="Trazado_655326" data-name="Trazado 655326" d="M194.751,135.444c-.184.285,100.724-1.137,100.724-1.137s2.714-36.521,37.959-37.122,37.928,35.984,37.928,35.984h48.32V26.3H194.751Z" transform="translate(-23.737 -3.206)" fill="#ebebeb"/>
        <path id="Trazado_655327" data-name="Trazado 655327" d="M22.109,12.8,4.722,66.462v66.171H38.461s.057-39.4,37.061-38.751,38.034,38.751,38.034,38.751h20.025V14.384a5.139,5.139,0,0,0-5.14-5.14H27A5.14,5.14,0,0,0,22.109,12.8" transform="translate(-0.576 -1.127)" fill="#f5f5f5"/>
        <path id="Trazado_655328" data-name="Trazado 655328" d="M19.6,22.334s4.911-.4,3.455,4.985c-1.477,5.465-11.036,37.2-11.036,37.2l-6.767,2.1Z" transform="translate(-0.64 -2.721)" fill="#ebebeb"/>
        <path id="Trazado_655329" data-name="Trazado 655329" d="M19.551,22.331a1.485,1.485,0,0,1-.059.243c-.053.177-.119.4-.2.678-.191.621-.458,1.483-.8,2.581-.715,2.259-1.733,5.479-2.992,9.459L5.42,66.687,5.135,66.4l3.222-1L11.9,64.3l-.15.152c3.7-12.381,7.008-23.438,9.4-31.436.6-1.986,1.147-3.782,1.625-5.364a7.835,7.835,0,0,0,.385-2.219,3.108,3.108,0,0,0-.5-1.769,2.608,2.608,0,0,0-1.141-.931,4.119,4.119,0,0,0-1.059-.314,5.755,5.755,0,0,0-.681-.075,1.4,1.4,0,0,1-.234-.016.742.742,0,0,1,.234-.028,4.222,4.222,0,0,1,.694.032,3.964,3.964,0,0,1,1.1.283,2.715,2.715,0,0,1,1.228.951,3.268,3.268,0,0,1,.567,1.863,7.947,7.947,0,0,1-.357,2.287c-.46,1.587-.983,3.389-1.562,5.382-2.357,8.011-5.616,19.084-9.264,31.485l-.034.116-.117.036-3.545,1.1-3.222,1-.421.131.137-.419L15.27,35.083,18.382,25.7l.854-2.52.228-.645a.93.93,0,0,1,.087-.208" transform="translate(-0.591 -2.718)" fill="#e0e0e0"/>
        <path id="Trazado_655330" data-name="Trazado 655330" d="M40.067,25.9,30.653,53.031a5.581,5.581,0,0,0,5.272,7.412H64.889A3.807,3.807,0,0,0,68.7,56.637V25.452a3.125,3.125,0,0,0-3.124-3.124H45.092A5.319,5.319,0,0,0,40.067,25.9" transform="translate(-3.698 -2.721)" fill="#ebebeb"/>
        <path id="Trazado_655331" data-name="Trazado 655331" d="M40.041,25.878a3.916,3.916,0,0,1,.589-1.269,5.336,5.336,0,0,1,3.249-2.262,14.56,14.56,0,0,1,2.9-.154l3.442-.018,8.39-.034,4.88-.015,1.286,0a8.513,8.513,0,0,1,1.339.05A3.3,3.3,0,0,1,68.4,23.745a3.245,3.245,0,0,1,.45,1.383c.031.5.01.942.018,1.422q0,1.417.005,2.878.005,2.921.01,6.007c0,4.11.009,8.425.014,12.9q0,3.355,0,6.822c-.006.585.016,1.141-.014,1.755a3.913,3.913,0,0,1-.549,1.754,4.049,4.049,0,0,1-3.036,1.96l-26.776.006c-1.034-.013-2.028.023-3.058-.032A5.754,5.754,0,0,1,32.6,59.59a5.835,5.835,0,0,1-2.461-5.047,9.337,9.337,0,0,1,.678-2.649l.858-2.45,1.614-4.6,4.9-13.888,1.353-3.768c.154-.413.274-.736.363-.976a2.059,2.059,0,0,1,.139-.328,2.108,2.108,0,0,1-.094.342l-.321.991-1.272,3.8C37.223,34.322,35.6,39.077,33.6,44.944q-.759,2.206-1.586,4.615-.415,1.2-.845,2.454a8.982,8.982,0,0,0-.646,2.549,5.451,5.451,0,0,0,2.313,4.7,5.354,5.354,0,0,0,2.662.926c.969.049,2.007.011,3.028.021l26.726-.04A3.593,3.593,0,0,0,67.94,58.43a3.439,3.439,0,0,0,.487-1.555c.027-.548.008-1.152.014-1.722q0-3.464,0-6.822c.005-4.472.01-8.786.014-12.9q0-3.084.009-6.007,0-1.459.006-2.878c-.005-.464.015-.958-.011-1.387a2.868,2.868,0,0,0-.393-1.225,2.925,2.925,0,0,0-2.013-1.4,8.208,8.208,0,0,0-1.276-.051l-1.286,0-4.88-.015-8.39-.033-3.442-.019a14.721,14.721,0,0,0-2.864.11,5.3,5.3,0,0,0-3.212,2.14,8.019,8.019,0,0,0-.666,1.217" transform="translate(-3.672 -2.696)" fill="#e0e0e0"/>
        <path id="Trazado_655332" data-name="Trazado 655332" d="M136.313,18.343c0,.126-25.393.228-56.708.228s-56.714-.1-56.714-.228,25.387-.228,56.714-.228,56.708.1,56.708.228" transform="translate(-2.79 -2.208)" fill="#e0e0e0"/>
        <path id="Trazado_655333" data-name="Trazado 655333" d="M83.7,86.779c-.126,0-.228-15.23-.228-34.013s.1-34.016.228-34.016.228,15.227.228,34.016-.1,34.013-.228,34.013" transform="translate(-10.174 -2.285)" fill="#e0e0e0"/>
        <path id="Trazado_655334" data-name="Trazado 655334" d="M68.617,76.655a2.961,2.961,0,0,0,1.285-.515,2.149,2.149,0,0,0,.8-1.344,2.266,2.266,0,0,0-.551-1.941,2.058,2.058,0,0,0-1.021-.593,6.276,6.276,0,0,0-1.355-.053l-3.1.021-7.1.018a2.1,2.1,0,0,0-.09,4.191l5.789.054,3.909.073a8.628,8.628,0,0,1,1.434.089,8.629,8.629,0,0,1-1.434.089l-3.909.073-5.808.044A2.47,2.47,0,0,1,55.1,74.414a2.521,2.521,0,0,1,.649-1.816,2.472,2.472,0,0,1,1.825-.807l7.1.018,3.1.021a6.346,6.346,0,0,1,1.442.09,2.367,2.367,0,0,1,1.171.716,2.526,2.526,0,0,1,.565,2.206,2.3,2.3,0,0,1-.945,1.44,2.141,2.141,0,0,1-1.014.385.825.825,0,0,1-.376-.012" transform="translate(-6.715 -8.75)" fill="#e0e0e0"/>
        <path id="Trazado_655335" data-name="Trazado 655335" d="M19.768,133.746a1.492,1.492,0,0,1-.024-.3c-.005-.224-.013-.517-.023-.888-.01-.809-.025-1.954-.042-3.413-.018-2.993-.042-7.274-.073-12.553-.018-10.623-.041-25.254-.068-41.414,0-3.517,0-6.963,0-10.269v-.031l.008-.03c3.714-13.21,6.979-24.826,9.326-33.171,1.181-4.133,2.131-7.455,2.794-9.773l.771-2.625c.087-.28.156-.5.21-.676a1.017,1.017,0,0,1,.085-.227,1.144,1.144,0,0,1-.045.238l-.17.687c-.166.63-.4,1.515-.7,2.646-.631,2.327-1.537,5.66-2.663,9.809L19.985,64.968l.008-.061c0,3.306,0,6.752,0,10.269-.025,16.16-.049,30.79-.067,41.414-.031,5.278-.055,9.56-.073,12.553-.018,1.459-.032,2.6-.043,3.413-.009.371-.017.664-.022.888a1.492,1.492,0,0,1-.024.3" transform="translate(-2.381 -2.24)" fill="#e0e0e0"/>
        <path id="Trazado_655336" data-name="Trazado 655336" d="M34.982,149.476H5.991A5.99,5.99,0,0,1,0,143.486v-.364a5.99,5.99,0,0,1,5.991-5.991H34.982a5.99,5.99,0,0,1,5.991,5.991v.364a5.99,5.99,0,0,1-5.991,5.991" transform="translate(0 -16.714)" fill="#e0e0e0"/>
        <path id="Trazado_655337" data-name="Trazado 655337" d="M119.717,61.224h-15.76A11.568,11.568,0,0,1,92.388,49.656V33.9a11.568,11.568,0,0,1,11.568-11.568h15.76A11.568,11.568,0,0,1,131.285,33.9v15.76a11.568,11.568,0,0,1-11.568,11.568" transform="translate(-11.261 -2.721)" fill="#e0e0e0"/>
        <rect id="Rectángulo_336163" data-name="Rectángulo 336163" width="42.304" height="45.97" transform="translate(133.006 75.135)" fill="#ebebeb"/>
        <path id="Trazado_655338" data-name="Trazado 655338" d="M259.09,130.089H203.6a6.472,6.472,0,0,1-6.472-6.472V80.179a6.472,6.472,0,0,1,6.472-6.473H259.09a6.472,6.472,0,0,1,6.472,6.473v43.439a6.472,6.472,0,0,1-6.472,6.472" transform="translate(-24.027 -8.983)" fill="#e0e0e0"/>
        <path id="Trazado_655339" data-name="Trazado 655339" d="M252.159,130.193H210.673A8.2,8.2,0,0,1,202.478,122V86.824a8.2,8.2,0,0,1,8.195-8.195h41.487a8.194,8.194,0,0,1,8.195,8.195V122a8.2,8.2,0,0,1-8.195,8.195" transform="translate(-24.679 -9.584)" fill="#f5f5f5"/>
        <path id="Trazado_655340" data-name="Trazado 655340" d="M214.207,105.257h-.147a2.42,2.42,0,0,1-2.42-2.419V95.622a2.42,2.42,0,0,1,2.42-2.42h.147a2.42,2.42,0,0,1,2.42,2.42v7.215a2.42,2.42,0,0,1-2.42,2.419" transform="translate(-25.795 -11.36)" fill="#ebebeb"/>
        <path id="Trazado_655341" data-name="Trazado 655341" d="M223.754,105.257h-.148a2.42,2.42,0,0,1-2.419-2.419V95.622a2.42,2.42,0,0,1,2.419-2.42h.148a2.419,2.419,0,0,1,2.419,2.42v7.215a2.419,2.419,0,0,1-2.419,2.419" transform="translate(-26.959 -11.36)" fill="#ebebeb"/>
        <path id="Trazado_655342" data-name="Trazado 655342" d="M233.3,105.257h-.148a2.42,2.42,0,0,1-2.419-2.419V95.622a2.42,2.42,0,0,1,2.419-2.42h.148a2.419,2.419,0,0,1,2.419,2.42v7.215a2.419,2.419,0,0,1-2.419,2.419" transform="translate(-28.122 -11.36)" fill="#ebebeb"/>
        <path id="Trazado_655343" data-name="Trazado 655343" d="M259.037,97.963a8.055,8.055,0,1,1-8.054-8.054,8.054,8.054,0,0,1,8.054,8.054" transform="translate(-29.609 -10.958)" fill="#e0e0e0"/>
        <path id="Trazado_655344" data-name="Trazado 655344" d="M220.4,122.1a4.792,4.792,0,1,1-4.792-4.792A4.792,4.792,0,0,1,220.4,122.1" transform="translate(-25.695 -14.298)" fill="#e0e0e0"/>
        <path id="Trazado_655345" data-name="Trazado 655345" d="M238.251,122.1a4.792,4.792,0,1,1-4.792-4.792,4.792,4.792,0,0,1,4.792,4.792" transform="translate(-27.871 -14.298)" fill="#e0e0e0"/>
        <path id="Trazado_655346" data-name="Trazado 655346" d="M256.1,122.1a4.792,4.792,0,1,1-4.792-4.792A4.792,4.792,0,0,1,256.1,122.1" transform="translate(-30.046 -14.298)" fill="#e0e0e0"/>
        <path id="Trazado_655347" data-name="Trazado 655347" d="M256,98.453a4.528,4.528,0,1,1-4.528-4.528A4.528,4.528,0,0,1,256,98.453" transform="translate(-30.098 -11.448)" fill="#f5f5f5"/>
        <path id="Trazado_655348" data-name="Trazado 655348" d="M430.778,82.869H291.31a5.529,5.529,0,0,1-5.529-5.529V77a5.529,5.529,0,0,1,5.529-5.53H430.778Z" transform="translate(-34.832 -8.711)" fill="#e0e0e0"/>
        <path id="Trazado_655349" data-name="Trazado 655349" d="M300.495,116.117c-.052,0-.025-.578-.289-1.56a6.466,6.466,0,0,0-2.367-3.461,6.3,6.3,0,0,0-5.957-.865,6.205,6.205,0,0,0-2.9,2.189,6.24,6.24,0,0,0,0,7.393,6.2,6.2,0,0,0,2.9,2.19,6.3,6.3,0,0,0,5.957-.866,6.455,6.455,0,0,0,2.367-3.461c.263-.983.237-1.563.289-1.56a1.439,1.439,0,0,1,.025.415,5.148,5.148,0,0,1-.141,1.188,6.447,6.447,0,0,1-2.345,3.674,6.556,6.556,0,0,1-2.787,1.272,6.661,6.661,0,0,1-3.509-.268,6.586,6.586,0,0,1-3.119-2.321,6.648,6.648,0,0,1,0-7.923,6.588,6.588,0,0,1,3.119-2.32,6.661,6.661,0,0,1,3.509-.268,6.55,6.55,0,0,1,2.787,1.272,6.445,6.445,0,0,1,2.344,3.674,5.11,5.11,0,0,1,.142,1.188,1.439,1.439,0,0,1-.025.415" transform="translate(-35.018 -13.34)" fill="#e0e0e0"/>
        <path id="Trazado_655350" data-name="Trazado 655350" d="M441.111,150.462H399.917a6.8,6.8,0,0,1-6.8-6.8v-.414a6.8,6.8,0,0,1,6.8-6.8h41.194a6.8,6.8,0,0,1,6.8,6.8v.414a6.8,6.8,0,0,1-6.8,6.8" transform="translate(-47.914 -16.63)" fill="#e0e0e0"/>
        <path id="Trazado_655351" data-name="Trazado 655351" d="M319.661,141.491a30.188,30.188,0,1,0,30.619-29.749,30.187,30.187,0,0,0-30.619,29.749" transform="translate(-38.961 -13.619)" fill="#e0e0e0"/>
        <path id="Trazado_655352" data-name="Trazado 655352" d="M319.667,145.533c0,.026-.005.052-.005.078a30.187,30.187,0,1,0,60.368.87c0-.026,0-.052,0-.078Z" transform="translate(-38.961 -17.738)" fill="#e0e0e0"/>
        <path id="Trazado_655353" data-name="Trazado 655353" d="M329.9,142.87a21.193,21.193,0,1,0,21.5-20.886,21.193,21.193,0,0,0-21.5,20.886" transform="translate(-40.209 -14.867)" fill="#fafafa"/>
        <path id="Trazado_655354" data-name="Trazado 655354" d="M351.4,121.984a21.193,21.193,0,0,0-21.5,20.886l42.382.611a21.194,21.194,0,0,0-20.886-21.5" transform="translate(-40.209 -14.867)" fill="#f5f5f5"/>
        <path id="Trazado_655355" data-name="Trazado 655355" d="M339.335,144.139a12.91,12.91,0,1,0,13.094-12.722,12.909,12.909,0,0,0-13.094,12.722" transform="translate(-41.359 -16.017)" fill="#e0e0e0"/>
        <path id="Trazado_655356" data-name="Trazado 655356" d="M52.655,141.491a30.188,30.188,0,1,0,30.62-29.749,30.187,30.187,0,0,0-30.62,29.749" transform="translate(-6.417 -13.619)" fill="#e0e0e0"/>
        <path id="Trazado_655357" data-name="Trazado 655357" d="M52.66,145.533c0,.026,0,.052-.005.078a30.188,30.188,0,0,0,60.369.87c0-.026,0-.052,0-.078Z" transform="translate(-6.417 -17.738)" fill="#e0e0e0"/>
        <path id="Trazado_655358" data-name="Trazado 655358" d="M62.9,142.87a21.193,21.193,0,1,0,21.5-20.886A21.193,21.193,0,0,0,62.9,142.87" transform="translate(-7.666 -14.867)" fill="#fafafa"/>
        <path id="Trazado_655359" data-name="Trazado 655359" d="M84.393,121.984A21.193,21.193,0,0,0,62.9,142.87l42.382.611a21.194,21.194,0,0,0-20.886-21.5" transform="translate(-7.666 -14.867)" fill="#f5f5f5"/>
        <path id="Trazado_655360" data-name="Trazado 655360" d="M72.329,144.139a12.91,12.91,0,1,0,13.094-12.722,12.91,12.91,0,0,0-13.094,12.722" transform="translate(-8.815 -16.017)" fill="#e0e0e0"/>
        <path id="Trazado_655361" data-name="Trazado 655361" d="M285.929,149.476H137.006a10.531,10.531,0,0,1-10.531-10.53v-1.815H290.831v7.443a4.9,4.9,0,0,1-4.9,4.9" transform="translate(-15.415 -16.714)" fill="#e0e0e0"/>
        <path id="Trazado_655362" data-name="Trazado 655362" d="M408.035,38.11H185.972a3.1,3.1,0,0,1-3.1-3.1v-.188a3.1,3.1,0,0,1,3.1-3.1H408.035a3.1,3.1,0,0,1,3.1,3.1v.188a3.1,3.1,0,0,1-3.1,3.1" transform="translate(-22.289 -3.866)" fill="#e0e0e0"/>
        <path id="Trazado_655363" data-name="Trazado 655363" d="M408.035,65.554H185.972a3.1,3.1,0,0,1-3.1-3.1v-.188a3.1,3.1,0,0,1,3.1-3.1H408.035a3.1,3.1,0,0,1,3.1,3.1v.188a3.1,3.1,0,0,1-3.1,3.1" transform="translate(-22.289 -7.211)" fill="#e0e0e0"/>
        <rect id="Rectángulo_336164" data-name="Rectángulo 336164" width="4.416" height="21.714" transform="translate(171.269 31.05)" fill="#e0e0e0"/>
        <rect id="Rectángulo_336165" data-name="Rectángulo 336165" width="4.415" height="21.714" transform="translate(189.666 31.05)" fill="#e0e0e0"/>
        <rect id="Rectángulo_336166" data-name="Rectángulo 336166" width="4.416" height="21.714" transform="translate(208.061 31.05)" fill="#e0e0e0"/>
        <rect id="Rectángulo_336167" data-name="Rectángulo 336167" width="4.415" height="21.714" transform="translate(226.459 31.05)" fill="#e0e0e0"/>
        <rect id="Rectángulo_336168" data-name="Rectángulo 336168" width="4.416" height="21.714" transform="translate(244.854 31.05)" fill="#e0e0e0"/>
        <rect id="Rectángulo_336169" data-name="Rectángulo 336169" width="4.415" height="21.714" transform="translate(263.252 31.05)" fill="#e0e0e0"/>
        <rect id="Rectángulo_336170" data-name="Rectángulo 336170" width="4.416" height="21.714" transform="translate(281.646 31.05)" fill="#e0e0e0"/>
        <rect id="Rectángulo_336171" data-name="Rectángulo 336171" width="4.415" height="21.714" transform="translate(300.044 31.05)" fill="#e0e0e0"/>
        <rect id="Rectángulo_336172" data-name="Rectángulo 336172" width="4.416" height="21.714" transform="translate(318.44 31.05)" fill="#e0e0e0"/>
        <rect id="Rectángulo_336173" data-name="Rectángulo 336173" width="4.416" height="21.714" transform="translate(335.9 31.05)" fill="#e0e0e0"/>
        <rect id="Rectángulo_336174" data-name="Rectángulo 336174" width="4.416" height="21.714" transform="translate(353.36 31.05)" fill="#e0e0e0"/>
        <rect id="Rectángulo_336175" data-name="Rectángulo 336175" width="4.416" height="21.714" transform="translate(370.82 31.05)" fill="#e0e0e0"/>
        <path id="Trazado_655364" data-name="Trazado 655364" d="M122.337,132.861a1.521,1.521,0,0,1-.1-.3c-.061-.22-.141-.509-.242-.875-.111-.384-.217-.867-.394-1.423s-.4-1.194-.642-1.909-.591-1.486-.927-2.344-.811-1.743-1.259-2.72a55.1,55.1,0,0,0-3.747-6.265,49.6,49.6,0,0,0-13.355-13.342,33.794,33.794,0,0,0-4.808-2.605c-1.726-.719-3.514-1.4-5.375-1.97a51.841,51.841,0,0,0-5.748-1.445,45.3,45.3,0,0,0-6.057-.7,38.866,38.866,0,0,0-11.91,1.242,38.086,38.086,0,0,0-10.207,4.5,47.54,47.54,0,0,0-17.137,19.5c-.426.986-.835,1.9-1.161,2.762-.3.872-.6,1.658-.813,2.384l-.532,1.942c-.143.566-.216,1.055-.3,1.445-.077.372-.138.666-.185.89a1.569,1.569,0,0,1-.078.3,1.563,1.563,0,0,1,.032-.308l.14-.9c.071-.393.13-.887.26-1.458s.309-1.228.493-1.962c.2-.734.5-1.528.78-2.41.315-.87.716-1.795,1.133-2.792a46.95,46.95,0,0,1,3.6-6.4,47.591,47.591,0,0,1,13.547-13.35,38.3,38.3,0,0,1,10.315-4.58,39.175,39.175,0,0,1,12.05-1.266,45.6,45.6,0,0,1,6.119.713,51.926,51.926,0,0,1,5.8,1.464,57.554,57.554,0,0,1,5.414,2,34.144,34.144,0,0,1,4.866,2.653,49.432,49.432,0,0,1,13.391,13.513A53.644,53.644,0,0,1,119,123.181c.441.987.89,1.889,1.232,2.749s.658,1.646.894,2.369l.605,1.929c.164.562.256,1.05.353,1.438.083.372.148.666.2.889a1.558,1.558,0,0,1,.053.306" transform="translate(-4.553 -11.756)" fill="#e0e0e0"/>
        <path id="Trazado_655365" data-name="Trazado 655365" d="M40.532,40.447H39.2a3.91,3.91,0,0,1-3.906-3.9V18.375h2.634V36.542A1.273,1.273,0,0,0,39.2,37.813h1.329Z" transform="translate(-4.302 -2.24)" fill="#e0e0e0"/>
        <rect id="Rectángulo_336176" data-name="Rectángulo 336176" width="15.681" height="10.4" transform="translate(1.705 98.121)" fill="#e0e0e0"/>
        <path id="Trazado_655366" data-name="Trazado 655366" d="M27.162,86.673c-.373.373,0,32.411,0,32.411H40.221s9.143-19.6,29.809-23.068V86.673Z" transform="translate(-3.29 -10.564)" fill="#e0e0e0"/>
        <path id="Trazado_655367" data-name="Trazado 655367" d="M46.7,49.888h-.313a5.14,5.14,0,0,1-5.14-5.14V31.439a5.14,5.14,0,0,1,5.14-5.14H46.7a5.141,5.141,0,0,1,5.14,5.14V44.747a5.141,5.141,0,0,1-5.14,5.14" transform="translate(-5.027 -3.205)" fill="#f5f5f5"/>
        <path id="Trazado_655368" data-name="Trazado 655368" d="M155.8,130.549c-.126,0-.228-10.082-.228-22.516s.1-22.518.228-22.518.228,10.08.228,22.518-.1,22.516-.228,22.516" transform="translate(-18.961 -10.423)" fill="#e0e0e0"/>
        <path id="Trazado_655369" data-name="Trazado 655369" d="M164.967,130.549c-.126,0-.228-10.082-.228-22.516s.1-22.518.228-22.518.228,10.08.228,22.518-.1,22.516-.228,22.516" transform="translate(-20.079 -10.423)" fill="#e0e0e0"/>
        <path id="Trazado_655370" data-name="Trazado 655370" d="M174.134,130.549c-.126,0-.228-10.082-.228-22.516s.1-22.518.228-22.518.228,10.08.228,22.518-.1,22.516-.228,22.516" transform="translate(-21.196 -10.423)" fill="#e0e0e0"/>
        <path id="Trazado_655371" data-name="Trazado 655371" d="M183.3,130.549c-.126,0-.228-10.082-.228-22.516s.1-22.518.228-22.518.228,10.08.228,22.518-.1,22.516-.228,22.516" transform="translate(-22.314 -10.423)" fill="#e0e0e0"/>
        <path id="Trazado_655372" data-name="Trazado 655372" d="M192.469,130.549c-.126,0-.228-10.082-.228-22.516s.1-22.518.228-22.518.228,10.08.228,22.518-.1,22.516-.228,22.516" transform="translate(-23.431 -10.423)" fill="#e0e0e0"/>
        <path id="Trazado_655373" data-name="Trazado 655373" d="M215.819,86.486a1.644,1.644,0,1,1-1.644-1.644,1.644,1.644,0,0,1,1.644,1.644" transform="translate(-25.904 -10.341)" fill="#e0e0e0"/>
        <path id="Trazado_655374" data-name="Trazado 655374" d="M220.962,86.486a1.644,1.644,0,1,1-1.644-1.644,1.644,1.644,0,0,1,1.644,1.644" transform="translate(-26.531 -10.341)" fill="#e0e0e0"/>
        <path id="Trazado_655375" data-name="Trazado 655375" d="M226.1,86.486a1.644,1.644,0,1,1-1.644-1.644,1.644,1.644,0,0,1,1.644,1.644" transform="translate(-27.158 -10.341)" fill="#e0e0e0"/>
        <path id="Trazado_655376" data-name="Trazado 655376" d="M351.183,104.349c-.126,0-.228-4.209-.228-9.4s.1-9.4.228-9.4.228,4.208.228,9.4-.1,9.4-.228,9.4" transform="translate(-42.775 -10.427)" fill="#e0e0e0"/>
        <path id="Trazado_655377" data-name="Trazado 655377" d="M430.747,82.838s-.011-.259-.017-.753-.011-1.231-.02-2.187c-.011-1.928-.027-4.765-.049-8.455l.086.086-55.566.1L334.5,71.66l-22.609.009-11.751,0h-5.972l-3,.006a5.265,5.265,0,0,0-2.736.833,5.342,5.342,0,0,0-2.234,2.986,5.759,5.759,0,0,0-.208,1.891,5.134,5.134,0,0,0,.361,1.845,5.367,5.367,0,0,0,2.446,2.756,5.14,5.14,0,0,0,1.772.567,16.277,16.277,0,0,0,1.911.055l15.277,0,28.88.019,48.927.065,33.029.072,9,.033,2.349.017c.531.005.811.017.811.017s-.258.011-.779.017l-2.317.017L418.7,82.9l-32.981.072-48.989.065-28.945.019-15.313,0a16.694,16.694,0,0,1-1.975-.058,5.623,5.623,0,0,1-1.926-.617,5.816,5.816,0,0,1-2.655-2.993,5.588,5.588,0,0,1-.393-2,6.252,6.252,0,0,1,.227-2.025,5.8,5.8,0,0,1,2.426-3.243,5.714,5.714,0,0,1,2.972-.905l3.013-.006h5.972l11.751,0,22.609.008,40.685.029,55.566.1h.086v.085c-.022,3.713-.038,6.566-.049,8.5q-.013,1.423-.02,2.169c-.006.484-.017.722-.017.722" transform="translate(-34.8 -8.68)" fill="#e0e0e0"/>
      </g>
    </g>
    <g id="Grupo_947770" data-name="Grupo 947770" transform="translate(290 399)">
      <g id="Grupo_947769" data-name="Grupo 947769" clip-path="url(#clip-path-3)">
        <g id="Grupo_947768" data-name="Grupo 947768">
          <g id="Grupo_947767" data-name="Grupo 947767" clip-path="url(#clip-path-3)">
            <path id="Trazado_655378" data-name="Trazado 655378" d="M76.429,352.372l1.033,20.393s-20.38,7.9-20.557,11.686l39.612-.583-.306-31.84Z" transform="translate(-7.516 -46.496)" fill="#263238"/>
            <path id="Trazado_655379" data-name="Trazado 655379" d="M94.383,373.725a1.617,1.617,0,0,1,1.146,1.83,1.556,1.556,0,0,1-1.8,1.152,1.707,1.707,0,0,1-1.2-1.944,1.613,1.613,0,0,1,2.009-.989" transform="translate(-12.213 -49.354)" fill="#e0e0e0"/>
            <path id="Trazado_655380" data-name="Trazado 655380" d="M96.514,388.224l-.156-3.208-37.92,1.758s-1.752.793-1.534,2.033Z" transform="translate(-7.513 -50.854)" fill="#455a64"/>
            <path id="Trazado_655381" data-name="Trazado 655381" d="M79.847,375.669c.01.194.978.267,1.939.875.976.582,1.479,1.414,1.656,1.334.178-.04-.128-1.193-1.3-1.908s-2.336-.478-2.291-.3" transform="translate(-10.546 -49.594)" fill="#fff"/>
            <path id="Trazado_655382" data-name="Trazado 655382" d="M75.09,377.737c-.042.187.8.5,1.47,1.313.693.789.871,1.671,1.064,1.659.182.028.3-1.107-.552-2.1s-1.981-1.061-1.982-.877" transform="translate(-9.918 -49.881)" fill="#fff"/>
            <path id="Trazado_655383" data-name="Trazado 655383" d="M72.212,383.013c.176.038.431-.932-.081-1.984s-1.423-1.46-1.5-1.3c-.107.161.489.72.9,1.591.428.859.495,1.674.687,1.691" transform="translate(-9.327 -50.151)" fill="#fff"/>
            <path id="Trazado_655384" data-name="Trazado 655384" d="M80.169,370.2c.083.175.967-.105,2.061-.047,1.1.036,1.952.391,2.05.223.11-.141-.731-.845-2.021-.9s-2.187.569-2.09.72" transform="translate(-10.588 -48.802)" fill="#fff"/>
            <path id="Trazado_655385" data-name="Trazado 655385" d="M162.057,347.844l2.7,24.555,7.738,18.8a2.53,2.53,0,0,1-3.828,3.01c-4.215-3.085-19.663-14.513-19.759-16.321-.112-2.093-4.571-25.711-4.571-25.711Z" transform="translate(-19.065 -45.944)" fill="#263238"/>
            <path id="Trazado_655386" data-name="Trazado 655386" d="M171.621,398.889l-22.269-18.327.138,1.037a3.81,3.81,0,0,0,1.222,2.329c1.8,1.62,6.862,5.984,18.545,14.617a2.529,2.529,0,0,0,2.364.343" transform="translate(-19.727 -50.265)" fill="#455a64"/>
            <path id="Trazado_655387" data-name="Trazado 655387" d="M166.913,389.705a5.463,5.463,0,0,1,4.64-3.106c.014-.062-.322-.212-.905-.216a4.034,4.034,0,0,0-3.59,2.4c-.219.542-.208.908-.145.92" transform="translate(-22.041 -51.034)" fill="#fff"/>
            <path id="Trazado_655388" data-name="Trazado 655388" d="M169.429,393.387c.131.09.811-.811,2.028-1.342a20.719,20.719,0,0,1,2.35-.628,2.806,2.806,0,0,0-2.573.133c-1.385.614-1.942,1.788-1.806,1.837" transform="translate(-22.376 -51.669)" fill="#fff"/>
            <path id="Trazado_655389" data-name="Trazado 655389" d="M162.531,385.3a25.107,25.107,0,0,1,2.991-2.283,25.233,25.233,0,0,1,3.519-1.331,6.922,6.922,0,0,0-6.509,3.614" transform="translate(-21.466 -50.404)" fill="#fff"/>
            <path id="Trazado_655390" data-name="Trazado 655390" d="M160.866,377.11c.085.138,1.363-.608,3.114-.906,1.748-.322,3.2-.061,3.236-.22a6.282,6.282,0,0,0-6.35,1.126" transform="translate(-21.247 -49.604)" fill="#fff"/>
            <path id="Trazado_655391" data-name="Trazado 655391" d="M159.741,368.822a12.355,12.355,0,0,1,3.216-1.029,12.4,12.4,0,0,1,3.355.383c.034-.056-.275-.328-.883-.579a5.514,5.514,0,0,0-4.936.485c-.548.365-.8.691-.753.74" transform="translate(-21.098 -48.504)" fill="#fff"/>
            <path id="Trazado_655392" data-name="Trazado 655392" d="M162.592,365.624a2.131,2.131,0,0,0-.09-.93,6.476,6.476,0,0,0-1.059-2.327,2.874,2.874,0,0,0-1.406-1.2,1.015,1.015,0,0,0-1.106.375,1.657,1.657,0,0,0-.24,1.158,3.577,3.577,0,0,0,3.545,2.867,4.15,4.15,0,0,0,3.754-2.69,1.446,1.446,0,0,0-.091-1.2,1,1,0,0,0-1.1-.384,3.531,3.531,0,0,0-1.5,1.054,7.217,7.217,0,0,0-1.417,2.125,2.218,2.218,0,0,0-.264.895,11.559,11.559,0,0,1,1.953-2.75,3.3,3.3,0,0,1,1.331-.886.53.53,0,0,1,.6.206.986.986,0,0,1,.014.791,3.705,3.705,0,0,1-3.281,2.295,3.106,3.106,0,0,1-3.045-2.39,1.2,1.2,0,0,1,.133-.815.552.552,0,0,1,.608-.216,2.6,2.6,0,0,1,1.208.993,9.586,9.586,0,0,1,1.456,3.028" transform="translate(-20.958 -47.698)" fill="#fff"/>
            <path id="Trazado_655393" data-name="Trazado 655393" d="M77.792,214.473l-1.835,48.98-.225,40.915s-1.342,34.045.6,42.562c0,0,25.144.851,25.144,0s3.469-57.3,3.469-57.3,6.6-43.009,6.813-48.119,1.6-13.2,1.6-13.2,9.475,41.944,9.688,53.015,13.2,65.791,13.2,65.791l21.078-1.7L152,256.843s-4.045-56.849-3.832-57.487-66.349,3.166-66.349,2.967-4.023,12.149-4.023,12.149" transform="translate(-9.943 -26.322)" fill="#ff725e"/>
            <g id="Grupo_947748" data-name="Grupo 947748" transform="translate(67.471 179.98)" opacity="0.3">
              <g id="Grupo_947747" data-name="Grupo 947747">
                <g id="Grupo_947746" data-name="Grupo 947746" clip-path="url(#clip-path-5)">
                  <path id="Trazado_655394" data-name="Trazado 655394" d="M77.74,217.652s1.9,1.98,15.794,3.586a151.382,151.382,0,0,0,17.841.668l.481-4.255,1.2,4.255c5.471-.147,12.733-1.013,17.344-1.392a62.227,62.227,0,0,0,18.6-5H115.487l-4.307-8.143-2.687,8.874Z" transform="translate(-77.74 -207.37)"/>
                </g>
              </g>
            </g>
            <path id="Trazado_655395" data-name="Trazado 655395" d="M133.859,274.094l4.371,41.224a26.415,26.415,0,0,0,15.71,1.535c8.706-1.866,8.623-3.261,8.623-3.261l-2.474-41.16c-8.161,2.307-16.973,2.653-26.23,1.661" transform="translate(-17.68 -35.984)" fill="#263238"/>
            <path id="Trazado_655396" data-name="Trazado 655396" d="M102.307,273.446l-2.117,41.4a26.417,26.417,0,0,1-15.6,2.389c-8.8-1.389-8.788-2.786-8.788-2.786l.227-41.234c8.274,1.859,17.092,1.725,26.281.229" transform="translate(-10.012 -36.087)" fill="#263238"/>
            <path id="Trazado_655397" data-name="Trazado 655397" d="M138.145,336.779l25.741-2.407.545,9.07-24.369,2.012-1.916-8.337" transform="translate(-18.246 -44.165)" fill="#e0e0e0"/>
            <path id="Trazado_655398" data-name="Trazado 655398" d="M165.049,348.635l-23.73,2.428,1.958,8.563,22.318-1.9Z" transform="translate(-18.666 -46.049)" fill="#e0e0e0"/>
            <path id="Trazado_655399" data-name="Trazado 655399" d="M138.892,340.423l25.283-2.388.179,2.978-24.787,2.348Z" transform="translate(-18.345 -44.648)" fill="#fff"/>
            <path id="Trazado_655400" data-name="Trazado 655400" d="M142.172,354.62l23.158-2.189.179,2.979-22.661,2.148Z" transform="translate(-18.778 -46.55)" fill="#fff"/>
            <path id="Trazado_655401" data-name="Trazado 655401" d="M74.843,335.174l.188,8.93,27.516,1.694.58-9.529Z" transform="translate(-9.885 -44.27)" fill="#e0e0e0"/>
            <path id="Trazado_655402" data-name="Trazado 655402" d="M74.9,337.948l28.042,1.838-.142,3.245L75.012,341.56Z" transform="translate(-9.893 -44.637)" fill="#fff"/>
            <path id="Trazado_655403" data-name="Trazado 655403" d="M75.162,349.786c.026,2.748.156,5.833.35,9.121l26.313,1.5.453-7.542.056-1.354Z" transform="translate(-9.928 -46.2)" fill="#e0e0e0"/>
            <path id="Trazado_655404" data-name="Trazado 655404" d="M75.22,352.56l26.994,1.861-.2,3.241-26.7-1.493Z" transform="translate(-9.935 -46.567)" fill="#fff"/>
            <g id="Grupo_947751" data-name="Grupo 947751" transform="translate(66.981 193.86)" opacity="0.3">
              <g id="Grupo_947750" data-name="Grupo 947750">
                <g id="Grupo_947749" data-name="Grupo 947749" clip-path="url(#clip-path-6)">
                  <path id="Trazado_655405" data-name="Trazado 655405" d="M77.765,223.361l16.74,3.112q-2.375,11.38-4.751,22.759-6.289-3.011-12.58-6.02l.242-9.538,2.327-4.254L77.665,226.8Z" transform="translate(-77.174 -223.362)"/>
                </g>
              </g>
            </g>
            <path id="Trazado_655406" data-name="Trazado 655406" d="M173.611,135.414s.724-3.859.844-4.945S166.5,102.49,163.6,96.1a18.141,18.141,0,0,0-6.112-6.739,16.326,16.326,0,0,0-11.92-2.815l-.179.027,5.668,43.054-.63.053a142,142,0,0,1,3.645,14.42c1.521,7.75,6.15,33.044,6.15,33.858s17.969,3.407,17.969,3.407c1.568-12.422-4.583-45.948-4.583-45.948" transform="translate(-19.204 -11.406)" fill="#ff725e"/>
            <path id="Trazado_655407" data-name="Trazado 655407" d="M163.027,195.359c.07.588.7,4.156.7,4.156s-1.348,1.961-2.389,3.466-4.687,10.894-4.687,10.894a1.791,1.791,0,0,0,2.036,1.79c2.03-.121,6.019-4.811,6.859-4.951s2.73,2.869,2.73,2.869.07,3.5-.98,4.48-5.119,4.76-4.834,6.509,3.155,1.26,4.765.771,4.13-.771,4.9-1.75,5.809-6.021,6.229-6.72-.07-8.468,0-10.638.77-8.05.77-8.05l.556-2.827-17.219-3.033Z" transform="translate(-20.691 -25.403)" fill="#263238"/>
            <path id="Trazado_655408" data-name="Trazado 655408" d="M162.482,191.9l.75,3.407,17.219,3.006V195.3Z" transform="translate(-21.461 -25.346)" fill="#455a64"/>
            <path id="Trazado_655409" data-name="Trazado 655409" d="M178.636,166.626s-3.384-3.854-10.858-2.839c-6.7.91-9.352,4.511-9.352,4.511l1.371,7.726s9.866-5.771,19.722-.9Z" transform="translate(-20.925 -21.611)" fill="#e0e0e0"/>
            <path id="Trazado_655410" data-name="Trazado 655410" d="M178.951,169.2s-3.456-3.346-10.93-2.332c-6.7.91-8.931,4.3-8.931,4.3l.424,2.665s9.9-6.464,19.753-1.6Z" transform="translate(-21.013 -22.015)" fill="#fff"/>
            <path id="Trazado_655411" data-name="Trazado 655411" d="M159.095,105.736a7,7,0,0,1,0,1.289c-.023.83-.1,2.027-.227,3.5a93.5,93.5,0,0,1-4.908,22.6c-.5,1.4-.924,2.519-1.248,3.282a6.86,6.86,0,0,1-.538,1.171,7.117,7.117,0,0,1,.374-1.232c.272-.782.654-1.916,1.109-3.322.914-2.812,2.057-6.736,3.017-11.143s1.541-8.452,1.876-11.389c.169-1.469.292-2.66.368-3.484a7.012,7.012,0,0,1,.172-1.278" transform="translate(-20.1 -13.966)" fill="#263238"/>
            <path id="Trazado_655412" data-name="Trazado 655412" d="M162.6,125a12.373,12.373,0,0,1-1.024,2.446,46.876,46.876,0,0,1-7.162,10.573,12.428,12.428,0,0,1-1.891,1.858,20.164,20.164,0,0,1,1.649-2.067c1.034-1.258,2.417-3.032,3.811-5.087s2.525-4,3.309-5.424A20.253,20.253,0,0,1,162.6,125" transform="translate(-20.146 -16.51)" fill="#263238"/>
            <path id="Trazado_655413" data-name="Trazado 655413" d="M92.372,66.179a61.15,61.15,0,0,1,40.434-1.506,3.39,3.39,0,0,1,1.811,1.035c.892,1.212-.074,2.882-1.024,4.05-4.239,5.209-8.877,10.406-15,13.172a9.939,9.939,0,0,1-6.057,1.035,12.506,12.506,0,0,1-5.02-2.913c-5.654-4.6-11.374-9.262-15.684-15.138" transform="translate(-12.13 -8.181)" fill="#ff725e"/>
            <g id="Grupo_947754" data-name="Grupo 947754" transform="translate(79.704 53.761)" opacity="0.3">
              <g id="Grupo_947753" data-name="Grupo 947753">
                <g id="Grupo_947752" data-name="Grupo 947752" clip-path="url(#clip-path-7)">
                  <path id="Trazado_655414" data-name="Trazado 655414" d="M92.372,66.179a61.15,61.15,0,0,1,40.434-1.506,3.39,3.39,0,0,1,1.811,1.035c.892,1.212-.074,2.882-1.024,4.05-4.239,5.209-8.877,10.406-15,13.172a9.939,9.939,0,0,1-6.057,1.035,12.506,12.506,0,0,1-5.02-2.913c-5.654-4.6-11.374-9.262-15.684-15.138" transform="translate(-91.834 -61.943)"/>
                </g>
              </g>
            </g>
            <path id="Trazado_655415" data-name="Trazado 655415" d="M140.669,43a29.934,29.934,0,0,0,3.591-14.933,10.917,10.917,0,0,0-1.454-5.81c-1.176-1.776-5.395-3.775-7.259-4.8l.97,6.871s3.829,4.465,4.064,4.962S140.669,43,140.669,43" transform="translate(-17.903 -2.306)" fill="#263238"/>
            <path id="Trazado_655416" data-name="Trazado 655416" d="M104.222,46.1a68.26,68.26,0,0,1-2.806-11.436,23.836,23.836,0,0,1,1.1-11.616c.215-.555,2.038-4.276,2.63-4.209.424.048-.716,3.527-.507,3.9a20.216,20.216,0,0,1,2.106,11.818A53.248,53.248,0,0,1,104.222,46.1" transform="translate(-13.362 -2.488)" fill="#263238"/>
            <path id="Trazado_655417" data-name="Trazado 655417" d="M104.456,30.218c-.18-9.855,5.406-18.173,15.262-18.08l.91.062a17.621,17.621,0,0,1,16.428,17.354c.108,8.543.118,17.982-.247,22.537-.758,9.428-10.3,10.254-10.3,10.254-.021,0,.122,15.523.122,15.523l-22.382.578Z" transform="translate(-13.77 -1.603)" fill="#e49384"/>
            <path id="Trazado_655418" data-name="Trazado 655418" d="M128.071,69.306a22.844,22.844,0,0,1-12.039-4.466s2.5,7.862,11.971,7.652Z" transform="translate(-15.326 -8.564)" fill="#a86b62"/>
            <path id="Trazado_655419" data-name="Trazado 655419" d="M136.291,40.878a1.351,1.351,0,0,1-1.392,1.271,1.292,1.292,0,0,1-1.306-1.31,1.352,1.352,0,0,1,1.39-1.272,1.293,1.293,0,0,1,1.308,1.311" transform="translate(-17.645 -5.226)" fill="#263238"/>
            <path id="Trazado_655420" data-name="Trazado 655420" d="M138.609,36.315c-.179.164-1.148-.66-2.6-.755-1.447-.115-2.562.558-2.707.37-.072-.083.12-.39.606-.7a3.71,3.71,0,0,1,2.183-.514,3.565,3.565,0,0,1,2.053.82c.423.373.552.7.464.774" transform="translate(-17.605 -4.585)" fill="#263238"/>
            <path id="Trazado_655421" data-name="Trazado 655421" d="M121.385,40.382a1.351,1.351,0,0,1-1.392,1.271,1.291,1.291,0,0,1-1.306-1.31,1.352,1.352,0,0,1,1.39-1.272,1.293,1.293,0,0,1,1.308,1.311" transform="translate(-15.676 -5.161)" fill="#263238"/>
            <path id="Trazado_655422" data-name="Trazado 655422" d="M122.2,35.88c-.18.164-1.15-.66-2.6-.755-1.447-.115-2.562.558-2.708.37-.071-.083.119-.389.607-.7a3.709,3.709,0,0,1,2.182-.514,3.572,3.572,0,0,1,2.054.82c.421.373.551.7.464.774" transform="translate(-15.437 -4.527)" fill="#263238"/>
            <path id="Trazado_655423" data-name="Trazado 655423" d="M128.13,47.523a9.64,9.64,0,0,1,2.383-.265c.372-.013.728-.063.808-.312a1.894,1.894,0,0,0-.173-1.114q-.431-1.38-.9-2.894c-1.247-4.117-2.125-7.494-1.958-7.542s1.312,3.249,2.56,7.367q.448,1.522.856,2.908a2.14,2.14,0,0,1,.094,1.466.931.931,0,0,1-.646.5,2.535,2.535,0,0,1-.634.044,9.473,9.473,0,0,1-2.387-.159" transform="translate(-16.924 -4.675)" fill="#263238"/>
            <path id="Trazado_655424" data-name="Trazado 655424" d="M123.089,50.19c.237,0,.133,1.576,1.4,2.785s2.959,1.149,2.956,1.37c.015.1-.395.28-1.1.252a3.929,3.929,0,0,1-2.474-1.055,3.42,3.42,0,0,1-1.076-2.328c-.016-.662.187-1.041.293-1.024" transform="translate(-16.219 -6.629)" fill="#263238"/>
            <path id="Trazado_655425" data-name="Trazado 655425" d="M122.363,29.142c-.17.384-1.6.1-3.32.189-1.718.055-3.123.459-3.325.091-.089-.176.175-.531.756-.875a5.78,5.78,0,0,1,5.062-.214c.608.294.9.625.827.808" transform="translate(-15.282 -3.679)" fill="#263238"/>
            <path id="Trazado_655426" data-name="Trazado 655426" d="M138.357,30.7c-.278.312-1.253-.1-2.454-.2-1.2-.14-2.233.07-2.444-.29-.091-.174.092-.493.557-.775a3.565,3.565,0,0,1,3.946.391c.4.367.517.716.394.869" transform="translate(-17.625 -3.833)" fill="#263238"/>
            <path id="Trazado_655427" data-name="Trazado 655427" d="M103.826,41.012c-.156-.081-6.353-2.358-6.586,4.107s6.307,5.365,6.325,5.18.261-9.287.261-9.287" transform="translate(-12.843 -5.357)" fill="#e49384"/>
            <path id="Trazado_655428" data-name="Trazado 655428" d="M101.928,48.092c-.028-.022-.115.075-.309.155a1.13,1.13,0,0,1-.843-.013,2.789,2.789,0,0,1-1.2-2.546,3.735,3.735,0,0,1,.373-1.6,1.3,1.3,0,0,1,.878-.834.574.574,0,0,1,.654.332c.08.184.034.312.069.324.017.017.142-.1.1-.371a.721.721,0,0,0-.24-.415.851.851,0,0,0-.617-.187,1.583,1.583,0,0,0-1.212.96,3.824,3.824,0,0,0-.455,1.788,2.924,2.924,0,0,0,1.542,2.851A1.208,1.208,0,0,0,101.7,48.4c.206-.153.245-.3.223-.308" transform="translate(-13.093 -5.671)" fill="#a86b62"/>
            <path id="Trazado_655429" data-name="Trazado 655429" d="M132.791,18.549c1.062-.549-1.987-4.024-4.527-5.26-3.84-1.869-9.746-3.115-13.357-2.2-4.348,1.107-7.992,3.157-10.264,7.026a25.439,25.439,0,0,0-3.207,12.909,7.73,7.73,0,0,0,.8,3.976c.864,1.454,2.573,2.4,2.443,4.372a2.708,2.708,0,0,0,.619,1.992c1.149,1.291,2.629.148,3.326-1.02,1.49-2.494,1.731-5.515,1.934-8.413a18.913,18.913,0,0,0-.242-6.161c-.287-1.087-.768-2.119-.995-3.219a3.886,3.886,0,0,1,.546-3.217,4.05,4.05,0,0,1,.539-.517,6.745,6.745,0,0,1,6.725-1.092c3.607,1.386,9.774,3.479,11.431,2.287a9.97,9.97,0,0,0,2.975-2.859Z" transform="translate(-13.398 -1.424)" fill="#263238"/>
            <path id="Trazado_655430" data-name="Trazado 655430" d="M115.96,10.035a14.207,14.207,0,0,1,10.909.895,7.393,7.393,0,0,1,3.782,4.4,4.238,4.238,0,0,1-2.257,4.964l-.129.076c-2.784.854-4.567.436-7.292-.59-2.293-.864-4.314-2.349-6.61-3.2a13.142,13.142,0,0,0-7.686-.432,21.461,21.461,0,0,1,9.283-6.111" transform="translate(-14.09 -1.236)" fill="#263238"/>
            <path id="Trazado_655431" data-name="Trazado 655431" d="M103.829,38.771a.933.933,0,0,1-.02-.217c-.006-.168-.014-.382-.023-.651-.012-.6-.03-1.451-.054-2.54-.031-2.253-.076-5.494-.132-9.565v-.04l.022-.036,6.264-10.086.049-.08.1-.006L130.1,14.435l.1-.005.07.073,7.956,8.388.066.069,0,.1c-.061,1.3-.126,2.7-.191,4.1-.2,4.18-.389,8.26-.575,12.2q-.07,1.478-.139,2.929a12.828,12.828,0,0,1-.352,2.895,11.1,11.1,0,0,1-2.64,4.956,10.583,10.583,0,0,1-4.554,2.788,15.509,15.509,0,0,1-2.5.6c-.836.09-1.663.154-2.476.188a17.392,17.392,0,0,1-8.627-2.409,29.529,29.529,0,0,1-5.915-4.476,41.58,41.58,0,0,1-3.766-4.143c-.957-1.2-1.639-2.183-2.085-2.856-.221-.338-.385-.6-.49-.779a1.518,1.518,0,0,1-.148-.277,1.829,1.829,0,0,1,.187.252l.527.752c.47.656,1.171,1.617,2.146,2.8a43.185,43.185,0,0,0,3.8,4.07,29.655,29.655,0,0,0,5.9,4.38,17.125,17.125,0,0,0,8.467,2.314c.794-.038,1.607-.1,2.424-.2a15.28,15.28,0,0,0,2.429-.589,10.2,10.2,0,0,0,4.376-2.7,10.713,10.713,0,0,0,2.524-4.772,12.388,12.388,0,0,0,.333-2.8q.066-1.452.134-2.93c.183-3.944.371-8.027.565-12.208.066-1.405.131-2.8.193-4.1l.061.165-7.945-8.4.17.069-20.07,1.043.144-.085c-2.4,3.8-4.542,7.2-6.336,10.041l.021-.075v9.537l-.018,2.55c-.006.273-.01.49-.014.66a1.1,1.1,0,0,1-.017.227" transform="translate(-13.684 -1.906)" fill="#e0e0e0"/>
            <path id="Trazado_655432" data-name="Trazado 655432" d="M138.139,20.054,131.4,17.237a1.243,1.243,0,0,0-.209-.065l-10.931-2.329a1.175,1.175,0,0,0-.652.046l-7.7,2.836a1.18,1.18,0,0,0-.245.124l-7.476,4.971a1.179,1.179,0,0,0-.522.888l-.29,3.693a1.2,1.2,0,0,0,0,.148l.713,15.146a1.177,1.177,0,0,0,2.352-.1l-.166-4.07c-.031-4.629-1.419-13.349,4.861-16.943s13.264-2.7,16.525-2.093,7.556,2.5,8.363,4.493c.682,1.683.915,14.7.97,18.682a1.174,1.174,0,0,0,1.177,1.157h.03a1.177,1.177,0,0,0,1.175-1.107l1.055-17.574a1.178,1.178,0,0,0-.082-.508l-1.57-3.924a1.175,1.175,0,0,0-.639-.649" transform="translate(-13.654 -1.957)" fill="#455a64"/>
            <path id="Trazado_655433" data-name="Trazado 655433" d="M138.18,23.306c-.525-2.612-3.175-7.3-16.822-7.827-10.031-.384-14.088,3.55-16.562,6.329a5.983,5.983,0,0,0-1.446,3.759s-.234,4.233-.234,5.569l.047,4.347-4.017-1.74c-3.216-1.74-3.617-4.187-2.3-5.869,0,0,0-2.408.333-7,.424-5.769,3.476-12.133,8.331-14.615a46.091,46.091,0,0,1,11.126-3.58L117.2.618A.841.841,0,0,1,118.011,0h4.756a.841.841,0,0,1,.81.616l.537,1.938s8.986,3.231,12.135,7.54,4.371,12.065,4.371,12.065a49.1,49.1,0,0,1,.07,6.85,3.647,3.647,0,0,1,.075,5.16c-1.053,1.077-2.073,1.959-2.073,1.959l-.056-4.892Z" transform="translate(-12.699 0)" fill="#ff725e"/>
            <path id="Trazado_655434" data-name="Trazado 655434" d="M101.905,31.991c-.012.01-.1-.09-.261-.3s-.38-.514-.647-.925a14.874,14.874,0,0,1-1.831-3.739,7.234,7.234,0,0,1,1.37-5.945,18.186,18.186,0,0,1,2.537-2.643,32.385,32.385,0,0,1,6.417-4.467c1.12-.6,2.237-1.073,3.225-1.639a7.306,7.306,0,0,0,2.428-2.036A7.514,7.514,0,0,0,116.2,7.737c.39-1.685.515-3.1.677-4.066.075-.483.142-.858.2-1.111a1.279,1.279,0,0,1,.109-.379,14.66,14.66,0,0,1-.134,1.512,38.25,38.25,0,0,1-.54,4.116,7.7,7.7,0,0,1-1.062,2.708,7.619,7.619,0,0,1-2.527,2.181c-1.012.592-2.129,1.076-3.225,1.669a33.2,33.2,0,0,0-6.331,4.406,18.325,18.325,0,0,0-2.494,2.556,6.981,6.981,0,0,0-1.4,5.619,16.347,16.347,0,0,0,1.672,3.729c.489.844.785,1.295.759,1.313" transform="translate(-13.073 -0.288)" fill="#263238"/>
            <g id="Grupo_947757" data-name="Grupo 947757" transform="translate(84.663 1.893)" opacity="0.3">
              <g id="Grupo_947756" data-name="Grupo 947756">
                <g id="Grupo_947755" data-name="Grupo 947755" clip-path="url(#clip-path-8)">
                  <path id="Trazado_655435" data-name="Trazado 655435" d="M101.716,31.991s-2.771-3.83-2.771-6.19a7.189,7.189,0,0,1,.121-1.285,8.482,8.482,0,0,1,2.344-4.368,32.844,32.844,0,0,1,8.683-6.335c1.777-.894,3.718-1.691,4.913-3.258,1.524-2,1.508-5.718,1.99-8.374,0,0-1.348,5.566-2.855,7.467-1.467,1.85-7.911,3.407-13.583,9.287s-1.874,10.265-.337,11.691c.648.6,1.495,1.365,1.495,1.365" transform="translate(-97.547 -2.181)"/>
                </g>
              </g>
            </g>
            <path id="Trazado_655436" data-name="Trazado 655436" d="M144.753,21.955a11.484,11.484,0,0,0-1.966-3.413,22.731,22.731,0,0,0-7.809-5.413,10.281,10.281,0,0,1-2.439-1.384,6.469,6.469,0,0,1-1.567-2.117c-.7-1.508-1.219-2.865-1.7-4.014-.461-1.15-.8-2.1-1-2.76a4.289,4.289,0,0,1-.257-1.048,5.763,5.763,0,0,1,.423.989c.253.641.633,1.564,1.13,2.695s1.076,2.5,1.773,3.949a6.162,6.162,0,0,0,1.481,1.966,10.171,10.171,0,0,0,2.342,1.313,21.563,21.563,0,0,1,7.867,5.62A8.665,8.665,0,0,1,144.5,20.9a4.569,4.569,0,0,1,.216.773c.037.18.049.275.035.279" transform="translate(-16.908 -0.239)" fill="#263238"/>
            <path id="Trazado_655437" data-name="Trazado 655437" d="M116.324,47.3a3.062,3.062,0,0,1-.319-.784c-.175-.513-.413-1.261-.684-2.192-.546-1.861-1.219-4.457-1.83-7.353-.666-3.146-1.107-6-1.347-7.91l.293-.053c.258,1.383.406,2.286.411,2.532l-.054.006c.006-.1.014-.128.023-.128s.019.025.03.127l.022.185-.075-.179c-.1-.226-.325-1.112-.649-2.481l.293-.053c.332,1.894.831,4.726,1.494,7.862.608,2.887,1.231,5.484,1.7,7.363a25.183,25.183,0,0,1,.693,3.059" transform="translate(-14.812 -3.832)" fill="#e0e0e0"/>
            <path id="Trazado_655438" data-name="Trazado 655438" d="M118.488,45.605a55.238,55.238,0,0,1-1.71-6.854,55.5,55.5,0,0,1-1.269-6.95,55.263,55.263,0,0,1,1.711,6.855,55.336,55.336,0,0,1,1.268,6.949" transform="translate(-15.255 -4.2)" fill="#e0e0e0"/>
            <path id="Trazado_655439" data-name="Trazado 655439" d="M139.744,47.47a57.782,57.782,0,0,1-.024-7.218,57.809,57.809,0,0,1,.428-7.206,57.786,57.786,0,0,1,.024,7.218,57.818,57.818,0,0,1-.428,7.205" transform="translate(-18.444 -4.365)" fill="#e0e0e0"/>
            <g id="Grupo_947760" data-name="Grupo 947760" transform="translate(111.413 2.483)" opacity="0.3">
              <g id="Grupo_947759" data-name="Grupo 947759">
                <g id="Grupo_947758" data-name="Grupo 947758" clip-path="url(#clip-path-9)">
                  <path id="Trazado_655440" data-name="Trazado 655440" d="M141.331,15.638c-1.576-1.209-3.434-1.992-5.113-3.055-3.467-2.2-5.748-6.227-7.85-9.722,1.173,3.064,1.825,5.684,3.5,7.848,1.851,2.4,5.116,3.085,7.691,4.675a12.076,12.076,0,0,1,4.616,5.24,6.447,6.447,0,0,0-2.842-4.987" transform="translate(-128.368 -2.861)"/>
                </g>
              </g>
            </g>
            <path id="Trazado_655441" data-name="Trazado 655441" d="M83.037,146.108v10.875a264.664,264.664,0,0,1,30.279,1.824c17.313,1.991,30.033-1.493,30.033-1.493V147.029Z" transform="translate(-10.968 -19.298)" fill="#263238"/>
            <path id="Trazado_655442" data-name="Trazado 655442" d="M88.2,78.636s-1.6-2.887-.5-4.794a8.4,8.4,0,0,1,2.609-2.81V66.013s11.041,1,16.26,5.219a48.5,48.5,0,0,1,8.932,9.936s6.423-6.121,9.836-8.33,8.33-8.832,8.33-8.832l3.011,1.506-.6,2.509s5.419,5.821,6.122,9.334a1.825,1.825,0,0,1-1,2.007c-1.3.6-5.839,1.869-5.839,1.869s5.6,5.457,6.873,9.572,4.186,32.116,2.379,37.636-3.409,7.737-3.409,7.737l-54.4-.913L84.122,79.458l4.465-.864" transform="translate(-11.111 -8.454)" fill="#ff725e"/>
            <path id="Trazado_655443" data-name="Trazado 655443" d="M85.9,118.012c27.288-14.474,59.126,0,59.126,0l-.835-9.948s-10.133-5.466-27.51-6.717A63.675,63.675,0,0,0,85.4,107.483Z" transform="translate(-11.28 -13.367)" fill="#e0e0e0"/>
            <path id="Trazado_655444" data-name="Trazado 655444" d="M88.362,114.6c26.241-11.794,56.751,1.309,56.751,1.309l-.227-5.464s-10.8-5.714-28.176-6.489-29.371,5.237-29.371,5.237Z" transform="translate(-11.536 -13.722)" fill="#fff"/>
            <path id="Trazado_655445" data-name="Trazado 655445" d="M91.9,80.652s-10.783-.5-12.94,4.314L82.5,143.843l8.075,1.009Z" transform="translate(-10.429 -10.651)" fill="#263238"/>
            <path id="Trazado_655446" data-name="Trazado 655446" d="M141.241,84.14a15.433,15.433,0,0,1,7.429.666c4.055,1.582,4.3,2.664,4.816,7.583s.82,11.682.82,19.675-3.571,28.869-3.571,33.226l-9.239-.265s4.339-29.02,3.347-36.558-3.6-24.326-3.6-24.326" transform="translate(-18.655 -11.089)" fill="#263238"/>
            <path id="Trazado_655447" data-name="Trazado 655447" d="M142.134,83.251a4.987,4.987,0,0,1-1.042.293l-2.869.656c-2.423.548-5.766,1.319-9.44,2.244s-6.985,1.831-9.378,2.5l-2.837.782a5.021,5.021,0,0,1-1.057.235,4.936,4.936,0,0,1,1.005-.4c.655-.233,1.612-.548,2.8-.92,2.374-.745,5.676-1.7,9.359-2.629s7.042-1.65,9.485-2.118c1.221-.234,2.212-.41,2.9-.516a5,5,0,0,1,1.076-.121" transform="translate(-15.257 -10.995)" fill="#263238"/>
            <path id="Trazado_655448" data-name="Trazado 655448" d="M141.908,67.481a2.946,2.946,0,0,1-.351.793,16.588,16.588,0,0,1-1.268,1.993,26.037,26.037,0,0,1-5.558,5.436,51.227,51.227,0,0,1-6.629,4.052c-.88.46-1.6.817-2.1,1.054a3.209,3.209,0,0,1-.8.328,24.508,24.508,0,0,1,2.748-1.662,68.535,68.535,0,0,0,6.515-4.135,29.491,29.491,0,0,0,5.574-5.267c1.227-1.541,1.8-2.631,1.872-2.592" transform="translate(-16.537 -8.913)" fill="#263238"/>
            <path id="Trazado_655449" data-name="Trazado 655449" d="M106.828,77.636c-.059.054-.716-.668-1.939-1.635a18.9,18.9,0,0,0-11.23-4.056c-1.559-.037-2.525.1-2.536.019a2.031,2.031,0,0,1,.668-.168,11.926,11.926,0,0,1,1.868-.171,17.06,17.06,0,0,1,11.434,4.13,11.83,11.83,0,0,1,1.327,1.324c.286.339.431.535.408.556" transform="translate(-12.036 -9.46)" fill="#263238"/>
            <path id="Trazado_655450" data-name="Trazado 655450" d="M103.954,88.373a12.316,12.316,0,0,1-1.933-1.917A20.036,20.036,0,0,0,97.2,82.167a12.842,12.842,0,0,0-6.2-1.5c-1.661.016-2.662.334-2.682.254a2.023,2.023,0,0,1,.688-.263,9.5,9.5,0,0,1,1.982-.311,12.151,12.151,0,0,1,6.429,1.422,17.884,17.884,0,0,1,4.84,4.473,23.894,23.894,0,0,1,1.692,2.127" transform="translate(-11.666 -10.61)" fill="#263238"/>
            <path id="Trazado_655451" data-name="Trazado 655451" d="M157.23,216.117a1.847,1.847,0,0,1-.466.069l-1.34.11-4.936.322-16.291.892-15.157.712-.14.007-.033-.134c-.569-2.316-1.037-4.218-1.379-5.61-.142-.623-.259-1.132-.352-1.535a2.368,2.368,0,0,1-.09-.545,2.343,2.343,0,0,1,.186.52l.44,1.513c.378,1.383.894,3.272,1.523,5.573l-.173-.127,15.152-.825,16.3-.76,4.942-.178,1.345-.026a1.85,1.85,0,0,1,.47.022" transform="translate(-15.459 -27.791)" fill="#263238"/>
            <path id="Trazado_655452" data-name="Trazado 655452" d="M82.91,157.981S76,171.96,75.188,185.352a157.662,157.662,0,0,0,.646,25.333H109.4s1.775-9.681,1.775-9.2,2.3,9.2,2.3,9.2l38.2-1.936s-3.04-32.463-9.389-50.31l-14.492-3.815H84.017Z" transform="translate(-9.899 -20.423)" fill="#ff725e"/>
            <path id="Trazado_655453" data-name="Trazado 655453" d="M110.812,202.579H75.043c-.135-2.933-.129-5.966,0-9.086H110.7Z" transform="translate(-9.899 -25.557)" fill="#e0e0e0"/>
            <rect id="Rectángulo_336183" data-name="Rectángulo 336183" width="35.868" height="3.369" transform="translate(65.045 170.79)" fill="#fff"/>
            <path id="Trazado_655454" data-name="Trazado 655454" d="M154.525,192.989l-37.99.437c-.148,2.933-.141,5.966,0,9.087l39.393-.111Z" transform="translate(-15.378 -25.49)" fill="#e0e0e0"/>
            <path id="Trazado_655455" data-name="Trazado 655455" d="M155.018,196.791H116.428v3.369h39.129Z" transform="translate(-15.378 -25.993)" fill="#fff"/>
            <path id="Trazado_655456" data-name="Trazado 655456" d="M121.521,76.654s-.085.092-.266.255l-.812.72-3.168,2.755L105.41,90.6l.053-.121c.183,3.719.3,7.877.581,12.4.3,4.523.626,9.413.971,14.6.733,10.377,1.551,21.939,2.412,34.119.5,7.378.965,14.532,1.352,21.326.354,6.8.713,13.229.636,19.187v.016l0,.018c-.6,2.9-1.164,5.659-1.7,8.283l-.03.146h-.148l-24.443-.078-6.748-.049-1.766-.026c-.4-.009-.6-.028-.6-.028s.2-.018.6-.027l1.766-.027,6.748-.049,24.443-.078-.178.145c.53-2.625,1.088-5.381,1.674-8.289l0,.034c.058-5.924-.315-12.362-.68-19.151-.4-6.791-.864-13.941-1.366-21.319-.847-12.181-1.651-23.745-2.372-34.122-.354-5.188-.665-10.081-.924-14.607s-.358-8.693-.518-12.408l0-.074.056-.047,11.953-10.108,3.22-2.694.839-.688c.19-.154.294-.223.294-.223" transform="translate(-10.034 -10.125)" fill="#263238"/>
            <g id="Grupo_947763" data-name="Grupo 947763" transform="translate(92.759 125.965)" opacity="0.3">
              <g id="Grupo_947762" data-name="Grupo 947762">
                <g id="Grupo_947761" data-name="Grupo 947761" clip-path="url(#clip-path-10)">
                  <path id="Trazado_655457" data-name="Trazado 655457" d="M123.824,151.426a7.614,7.614,0,0,0-1.378-4.617,5.408,5.408,0,0,0-4.245-1.672,13.463,13.463,0,0,0-4.553,1.126c-2.336.915-4.767,2.128-5.956,4.34-1.27,2.363-.8,5.243-.3,7.879l3.755,19.774-1.2,4.051c2.507.38,4.82-1.755,5.631-4.157s.53-5.013.428-7.547.038-5.247,1.518-7.307c1.354-1.883,3.641-2.941,4.959-4.849,1.381-2,1.482-4.6,1.345-7.021" transform="translate(-106.875 -145.135)"/>
                </g>
              </g>
            </g>
            <path id="Trazado_655458" data-name="Trazado 655458" d="M92.238,144.68a33.946,33.946,0,0,1,2.131-8.1c1.432-2.954,19.326-1.969,21.748-1.433s4.03,5.365,4.84,9.434-.553,9.823-.553,9.823l-19.053-3.166Z" transform="translate(-12.183 -17.771)" fill="#263238"/>
            <path id="Trazado_655459" data-name="Trazado 655459" d="M122.075,134.006l9.5-48.013L135,85.186l-11.209,51.758Z" transform="translate(-16.124 -11.252)" fill="#455a64"/>
            <path id="Trazado_655460" data-name="Trazado 655460" d="M92.864,135.419,90.958,80.636h3.078l.836,52.07Z" transform="translate(-12.014 -10.651)" fill="#455a64"/>
            <path id="Trazado_655461" data-name="Trazado 655461" d="M109.522,160.1h-6.4a10.881,10.881,0,0,1-10.881-10.882v-.66a10.881,10.881,0,0,1,10.881-10.882h6.4A10.882,10.882,0,0,1,120.4,148.554v.66A10.882,10.882,0,0,1,109.522,160.1" transform="translate(-12.183 -18.184)" fill="#e0e0e0"/>
            <path id="Trazado_655462" data-name="Trazado 655462" d="M109.49,160.062a16.328,16.328,0,0,0,3.169-.562,11.3,11.3,0,0,0,3.311-1.749A10.822,10.822,0,0,0,120,151.215a13.79,13.79,0,0,0,.164-3.122,10.653,10.653,0,0,0-8.812-10.062,23.639,23.639,0,0,0-4.045-.169H103.09A10.7,10.7,0,0,0,92.466,147.5a14.391,14.391,0,0,0,.112,3.539,10.9,10.9,0,0,0,1.066,3.15,11.6,11.6,0,0,0,1.833,2.515,11.168,11.168,0,0,0,2.271,1.761,10.586,10.586,0,0,0,4.708,1.434c1.466.077,2.754.043,3.794.071l2.4.043.625.021a.853.853,0,0,1,.213.023.757.757,0,0,1-.213.023c-.168.007-.373.013-.625.022l-2.4.043c-1.046,0-2.313.058-3.808.005a10.757,10.757,0,0,1-4.853-1.41,11.393,11.393,0,0,1-2.36-1.794,11.907,11.907,0,0,1-1.916-2.582,11.249,11.249,0,0,1-1.126-3.256c-.042-.3-.1-.589-.129-.891s-.032-.6-.049-.91c-.026-.6.01-1.216.043-1.848a11.1,11.1,0,0,1,11.039-10.054q2.134,0,4.215,0a23.783,23.783,0,0,1,4.123.183,11.162,11.162,0,0,1,6.657,3.92,11.033,11.033,0,0,1,2.452,6.562,14,14,0,0,1-.2,3.2,10.925,10.925,0,0,1-.968,2.8,10.787,10.787,0,0,1-3.25,3.869,10.426,10.426,0,0,1-5.792,2.115l-.627.008a.732.732,0,0,1-.214-.012" transform="translate(-12.152 -18.15)" fill="#455a64"/>
            <path id="Trazado_655463" data-name="Trazado 655463" d="M112.72,163.076a5.224,5.224,0,1,0-10.446,0V176.82h10.447Z" transform="translate(-13.508 -20.839)" fill="#455a64"/>
            <path id="Trazado_655464" data-name="Trazado 655464" d="M113.152,172.911H101.607a1.04,1.04,0,0,1-1.04-1.041v-.062a1.04,1.04,0,0,1,1.04-1.041h11.545a1.041,1.041,0,0,1,1.041,1.041v.062a1.041,1.041,0,0,1-1.041,1.041" transform="translate(-13.283 -22.555)" fill="#455a64"/>
            <path id="Trazado_655465" data-name="Trazado 655465" d="M113.117,172.876c0-.019.106-.023.285-.088a1.009,1.009,0,0,0,.344-1.678.928.928,0,0,0-.694-.234l-.961.016c-2.691.041-6.41.066-10.517.066a.822.822,0,0,0-.811.726.84.84,0,0,0,.553.929.872.872,0,0,0,.286.043l.358,0,.706,0,1.366.008,4.728.049,3.188.072a5.836,5.836,0,0,1,1.169.088,5.841,5.841,0,0,1-1.169.088l-3.188.072-4.728.049-1.366.008-.706,0-.358,0a1.357,1.357,0,0,1-.425-.063,1.29,1.29,0,0,1-.86-1.4,1.272,1.272,0,0,1,1.258-1.129c4.107,0,7.826.025,10.517.066l.961.016a1.2,1.2,0,0,1,.869.339,1.211,1.211,0,0,1,.214,1.4,1.068,1.068,0,0,1-.706.553c-.2.041-.312.011-.311,0" transform="translate(-13.248 -22.521)" fill="#263238"/>
            <path id="Trazado_655466" data-name="Trazado 655466" d="M113.747,180.408a6.289,6.289,0,1,1-6.289-6.289,6.289,6.289,0,0,1,6.289,6.289" transform="translate(-13.363 -22.998)" fill="#455a64"/>
            <path id="Trazado_655467" data-name="Trazado 655467" d="M114.637,144.822c.021.023-.169.23-.532.586s-.9.851-1.592,1.443a56.628,56.628,0,0,1-11.831,7.768c-.817.4-1.486.7-1.957.886a2.666,2.666,0,0,1-.748.256,24.9,24.9,0,0,1,2.559-1.427c1.588-.858,3.754-2.1,6.057-3.607s4.3-3.007,5.716-4.123a25,25,0,0,1,2.327-1.782" transform="translate(-12.941 -19.128)" fill="#fff"/>
            <path id="Trazado_655468" data-name="Trazado 655468" d="M109.368,146.11a56.164,56.164,0,0,1-4.91,2.984,56.093,56.093,0,0,1-4.979,2.868,27.45,27.45,0,0,1,4.748-3.257,27.424,27.424,0,0,1,5.141-2.6" transform="translate(-13.139 -19.298)" fill="#fff"/>
            <path id="Trazado_655469" data-name="Trazado 655469" d="M113.028,179.062a1.07,1.07,0,0,1,.111.343,4.064,4.064,0,0,1,.063,1.034,7.358,7.358,0,0,1-1.329,3.539,6.155,6.155,0,0,1-1.9,1.847,5.229,5.229,0,0,1-2.983.638,5.663,5.663,0,0,1-3.128-1.253,5.6,5.6,0,0,1-1.854-3.1,6.058,6.058,0,0,1,1.224-5.221,6.13,6.13,0,0,1,4.191-2.139l.017,0h.011a7.407,7.407,0,0,1,3.034.794,4.951,4.951,0,0,1,1.789,1.606,5.049,5.049,0,0,1,.649,1.389,1.668,1.668,0,0,1,.105.528,9.545,9.545,0,0,0-.928-1.794,4.875,4.875,0,0,0-1.753-1.462,7.263,7.263,0,0,0-2.915-.691h.029a5.8,5.8,0,0,0-3.9,2.045,5.663,5.663,0,0,0-1.115,4.848,5.188,5.188,0,0,0,1.7,2.861,5.28,5.28,0,0,0,2.88,1.179,4.894,4.894,0,0,0,2.763-.549,5.938,5.938,0,0,0,1.824-1.705,7.586,7.586,0,0,0,1.415-3.37,8.433,8.433,0,0,0,0-1.36" transform="translate(-13.453 -23.081)" fill="#263238"/>
            <g id="Grupo_947766" data-name="Grupo 947766" transform="translate(101.048 72.831)" opacity="0.3">
              <g id="Grupo_947765" data-name="Grupo 947765">
                <g id="Grupo_947764" data-name="Grupo 947764" clip-path="url(#clip-path-11)">
                  <path id="Trazado_655470" data-name="Trazado 655470" d="M116.426,89.8a49.081,49.081,0,0,0,12.145-.922c3.969-.9,7.616-2.183,10.592-4.96-7.455,1.806-14.65,3.4-21.978,5.668" transform="translate(-116.426 -83.915)"/>
                </g>
              </g>
            </g>
            <path id="Trazado_655471" data-name="Trazado 655471" d="M75.452,85.623A31.3,31.3,0,0,0,68.982,91.6c-1.991,2.488-11.613,25.381-13.935,41.97s-2.654,44.293-2.654,44.293l18.58-.83,7.133-49.6-.4-4.248Z" transform="translate(-6.92 -11.309)" fill="#ff725e"/>
            <path id="Trazado_655472" data-name="Trazado 655472" d="M53.27,164.555s4.062-2.83,11.535-1.817c6.7.91,9.1,4.425,9.1,4.425l-1.123,7.812s-10.108-5.654-19.963-.787Z" transform="translate(-6.977 -21.466)" fill="#e0e0e0"/>
            <path id="Trazado_655473" data-name="Trazado 655473" d="M53.139,167.642s4.062-2.831,11.535-1.817c6.7.91,8.931,4.3,8.931,4.3l-.424,2.665S62.854,165.782,53,170.649Z" transform="translate(-7 -21.874)" fill="#fff"/>
            <path id="Trazado_655474" data-name="Trazado 655474" d="M73.375,96.474a7.006,7.006,0,0,1,.4,1.226c.227.8.535,1.955.891,3.393.721,2.874,1.634,6.862,2.619,11.269.988,4.365,1.882,8.313,2.553,11.279l.8,3.414a6.956,6.956,0,0,1,.245,1.265,6.973,6.973,0,0,1-.415-1.22c-.24-.792-.561-1.948-.936-3.381-.753-2.866-1.7-6.848-2.684-11.258-.963-4.37-1.834-8.323-2.488-11.3L73.6,97.743a7.037,7.037,0,0,1-.227-1.269" transform="translate(-9.691 -12.742)" fill="#263238"/>
            <path id="Trazado_655475" data-name="Trazado 655475" d="M5.622,171.609s-7.706,6.417-5.073,8.749,42.117,23.587,50.125,28.031c8.4,4.661,8,4.436,20.875,15.074l3.137-9.169S47.63,201.682,41.439,196.72,5.622,171.609,5.622,171.609" transform="translate(0 -22.666)" fill="#455a64"/>
            <path id="Trazado_655476" data-name="Trazado 655476" d="M85.273,217.252l3.872,2.413,6.024-9.9s2.989,7.664,1.821,10.724-9.021,16.1-10.55,19.492-2.682,6.106-2.682,6.106L71.574,238.44a17.645,17.645,0,0,1,3.853-5.192c2.294-1.906,9.847-16,9.847-16" transform="translate(-9.454 -27.706)" fill="#e0e0e0"/>
            <path id="Trazado_655477" data-name="Trazado 655477" d="M85.234,217.193a3.025,3.025,0,0,1-.194.428c-.156.3-.364.7-.627,1.212-.557,1.057-1.386,2.6-2.473,4.538s-2.42,4.283-4.094,6.881c-.422.648-.868,1.31-1.368,1.968a8.2,8.2,0,0,1-.833.962c-.309.307-.623.558-.917.872a18.325,18.325,0,0,0-3.013,4.412l-.074-.254,12.2,7.624-.323.1,1.613-3.679c.557-1.242,1.07-2.531,1.734-3.775,2.875-5.391,5.884-10.384,8.408-15.1.316-.588.621-1.174.909-1.757a8.429,8.429,0,0,0,.713-1.746,10.2,10.2,0,0,0-.1-3.626,38,38,0,0,0-1.819-6.489l.3.027c-2.553,4.137-4.629,7.5-6.088,9.865l-.051.083-.081-.052-2.827-1.826-.738-.487a2.592,2.592,0,0,1-.256-.181,1.649,1.649,0,0,1,.246.132l.742.437,2.934,1.764-.132.031c1.429-2.382,3.462-5.773,5.962-9.942l.18-.3.122.326a37.814,37.814,0,0,1,1.884,6.547,10.506,10.506,0,0,1,.115,3.78,8.737,8.737,0,0,1-.737,1.839c-.289.592-.594,1.181-.91,1.773-2.513,4.737-5.516,9.743-8.378,15.11-.653,1.222-1.166,2.507-1.724,3.749l-1.615,3.672-.105.239-.219-.137L71.429,238.55l-.154-.1.08-.157a18.555,18.555,0,0,1,3.11-4.5c.3-.315.652-.6.939-.881a7.87,7.87,0,0,0,.8-.911c.495-.641.943-1.294,1.369-1.935,1.689-2.569,3.041-4.9,4.163-6.817,1.092-1.905,1.958-3.415,2.568-4.481l.68-1.184a2.777,2.777,0,0,1,.251-.4" transform="translate(-9.414 -27.647)" fill="#263238"/>
            <path id="Trazado_655478" data-name="Trazado 655478" d="M68.658,210.9l5.733,2.638a16.563,16.563,0,0,0-1.745-8.21c-1.657-3.4-4.148-7.768-4.148-7.768a7.124,7.124,0,0,1,.815-3.625c.2-.386.406-.771.565-1.068a7.137,7.137,0,0,0-4.326-.938c-1.9.144-4.232-.11-6.108.226l-7.052,1.328s.492,6.594.493,9.285c0,.64-.493,7.954-.493,7.954l.542,3.129s8.933,7.795,10.13,7.611,1.2-.644,1.2-.644,1.288,1.841,2.3,1.841,2.761,1.012,3.129,0-.092-3.022-1.013-4.457a7.488,7.488,0,0,0-2.23-1.931,3.269,3.269,0,0,1-1.518-2.816L65,207.377s3.539,1.058,3.657,3.521" transform="translate(-6.92 -25.347)" fill="#263238"/>
            <path id="Trazado_655479" data-name="Trazado 655479" d="M52.393,191.769v2.454l16.921-.417,1.659-2.867Z" transform="translate(-6.92 -25.22)" fill="#455a64"/>
          </g>
        </g>
      </g>
    </g>
    <g id="Grupo_947779" data-name="Grupo 947779" transform="translate(149.86 601)">
      <g id="Grupo_947778" data-name="Grupo 947778" clip-path="url(#clip-path-12)">
        <g id="Grupo_947772" data-name="Grupo 947772">
          <g id="Grupo_947771" data-name="Grupo 947771" clip-path="url(#clip-path-12)">
            <path id="Trazado_655480" data-name="Trazado 655480" d="M460.28,134.921c0,.144-103.046.26-230.129.26C103.023,135.181,0,135.065,0,134.921s103.023-.26,230.151-.26c127.083,0,230.129.116,230.129.26" fill="#263238"/>
            <path id="Trazado_655481" data-name="Trazado 655481" d="M460.28,146.515c0,.144-103.046.26-230.129.26C103.023,146.775,0,146.659,0,146.515s103.023-.26,230.151-.26c127.083,0,230.129.116,230.129.26" fill="#263238"/>
            <path id="Trazado_655482" data-name="Trazado 655482" d="M57.008,146.753a31.767,31.767,0,0,1-.261-5.736,31.765,31.765,0,0,1,.261-5.737,31.825,31.825,0,0,1,.26,5.737,31.827,31.827,0,0,1-.26,5.736" fill="#263238"/>
            <path id="Trazado_655483" data-name="Trazado 655483" d="M102.415,146.753a31.827,31.827,0,0,1-.26-5.736,31.825,31.825,0,0,1,.26-5.737,31.825,31.825,0,0,1,.26,5.737,31.827,31.827,0,0,1-.26,5.736" fill="#263238"/>
            <path id="Trazado_655484" data-name="Trazado 655484" d="M147.823,146.753a31.828,31.828,0,0,1-.26-5.736,31.826,31.826,0,0,1,.26-5.737,31.826,31.826,0,0,1,.26,5.737,31.828,31.828,0,0,1-.26,5.736" fill="#263238"/>
            <path id="Trazado_655485" data-name="Trazado 655485" d="M193.231,146.753a31.827,31.827,0,0,1-.26-5.736,31.825,31.825,0,0,1,.26-5.737,31.826,31.826,0,0,1,.26,5.737,31.828,31.828,0,0,1-.26,5.736" fill="#263238"/>
            <path id="Trazado_655486" data-name="Trazado 655486" d="M238.639,146.753a31.825,31.825,0,0,1-.26-5.736,31.823,31.823,0,0,1,.26-5.737,31.826,31.826,0,0,1,.26,5.737,31.828,31.828,0,0,1-.26,5.736" fill="#263238"/>
            <path id="Trazado_655487" data-name="Trazado 655487" d="M284.047,146.753a31.828,31.828,0,0,1-.26-5.736,31.826,31.826,0,0,1,.26-5.737,31.823,31.823,0,0,1,.26,5.737,31.825,31.825,0,0,1-.26,5.736" fill="#263238"/>
            <path id="Trazado_655488" data-name="Trazado 655488" d="M329.455,146.753a31.83,31.83,0,0,1-.26-5.736,31.828,31.828,0,0,1,.26-5.737,31.823,31.823,0,0,1,.26,5.737,31.825,31.825,0,0,1-.26,5.736" fill="#263238"/>
            <path id="Trazado_655489" data-name="Trazado 655489" d="M374.862,146.753a31.825,31.825,0,0,1-.26-5.736,31.823,31.823,0,0,1,.26-5.737,31.823,31.823,0,0,1,.26,5.737,31.825,31.825,0,0,1-.26,5.736" fill="#263238"/>
            <path id="Trazado_655490" data-name="Trazado 655490" d="M420.27,146.753a31.83,31.83,0,0,1-.26-5.736,31.828,31.828,0,0,1,.26-5.737,31.823,31.823,0,0,1,.26,5.737,31.825,31.825,0,0,1-.26,5.736" fill="#263238"/>
            <path id="Trazado_655491" data-name="Trazado 655491" d="M11.165,146.753a31.827,31.827,0,0,1-.26-5.736,31.825,31.825,0,0,1,.26-5.737,32,32,0,0,1,.259,5.737,32,32,0,0,1-.259,5.736" fill="#263238"/>
          </g>
        </g>
        <path id="Trazado_655492" data-name="Trazado 655492" d="M396.319,50.278,407.8,52.163v18.51L396.319,72.9Z" fill="#455a64"/>
        <g id="Grupo_947777" data-name="Grupo 947777">
          <g id="Grupo_947776" data-name="Grupo 947776" clip-path="url(#clip-path-12)">
            <path id="Trazado_655493" data-name="Trazado 655493" d="M408.98,72.565h-.261a1.327,1.327,0,0,1-1.326-1.327V51.268a1.326,1.326,0,0,1,1.326-1.326h.261a1.326,1.326,0,0,1,1.326,1.326V71.239a1.326,1.326,0,0,1-1.326,1.326" fill="#e0e0e0"/>
            <path id="Trazado_655494" data-name="Trazado 655494" d="M410.576,64.756h-.859v-8.74h.859a3.978,3.978,0,0,1,3.979,3.979v.782a3.978,3.978,0,0,1-3.979,3.979" fill="#e0e0e0"/>
            <path id="Trazado_655495" data-name="Trazado 655495" d="M407.309,70.751a75.437,75.437,0,0,1-.286-9.274,75.41,75.41,0,0,1,.286-9.274,75.4,75.4,0,0,1,.286,9.274,75.426,75.426,0,0,1-.286,9.274" fill="#263238"/>
            <path id="Trazado_655496" data-name="Trazado 655496" d="M410.151,70.877a75.433,75.433,0,0,1-.286-9.274,75.406,75.406,0,0,1,.286-9.274,75.406,75.406,0,0,1,.286,9.274,75.433,75.433,0,0,1-.286,9.274" fill="#263238"/>
            <path id="Trazado_655497" data-name="Trazado 655497" d="M355.1,122.519V28.545a20.608,20.608,0,0,1,41.216,0v93.974Z" fill="#455a64"/>
            <path id="Trazado_655498" data-name="Trazado 655498" d="M398.034,42.18H353.8a5.187,5.187,0,0,1-5.187-5.187V35.974a5.186,5.186,0,0,1,5.187-5.186h44.238a5.187,5.187,0,0,1,5.187,5.186v1.019a5.187,5.187,0,0,1-5.187,5.187" fill="#455a64"/>
            <path id="Trazado_655499" data-name="Trazado 655499" d="M369.349,9.424l-.041-.815a5.9,5.9,0,0,1,5.547-6.239l1.6-.08a5.9,5.9,0,0,1,6.146,5.649l.071,1.407Z" fill="#455a64"/>
            <path id="Trazado_655500" data-name="Trazado 655500" d="M377.944,3.3h-3.911V1.436A1.436,1.436,0,0,1,375.469,0h1.039a1.436,1.436,0,0,1,1.436,1.436Z" fill="#455a64"/>
            <path id="Trazado_655501" data-name="Trazado 655501" d="M396.319,30.608c0,.159-9.209.287-20.565.287s-20.568-.128-20.568-.287,9.207-.285,20.568-.285,20.565.128,20.565.285" fill="#263238"/>
            <path id="Trazado_655502" data-name="Trazado 655502" d="M369.924,10.188c.035.087-1.186.58-3.039,1.582a20.809,20.809,0,0,0-6.328,5.095,18.244,18.244,0,0,0-3.381,7.351c-.44,2.055-.347,3.376-.45,3.378a2.577,2.577,0,0,1-.124-.922,12.608,12.608,0,0,1,.177-2.531,17.034,17.034,0,0,1,3.331-7.634,19.129,19.129,0,0,1,6.589-5.1,22.4,22.4,0,0,1,2.328-.978,2.815,2.815,0,0,1,.9-.244" fill="#fafafa"/>
            <path id="Trazado_655503" data-name="Trazado 655503" d="M382.677,8.993c-.056.2-2.974-.974-6.733-1.033-3.765-.038-6.673,1.182-6.73.981a5.681,5.681,0,0,1,1.866-.817,15.736,15.736,0,0,1,4.87-.736,16.875,16.875,0,0,1,4.857.8,5.891,5.891,0,0,1,1.87.805" fill="#263238"/>
            <path id="Trazado_655504" data-name="Trazado 655504" d="M378.356,2.649c-.063.153-1.017-.126-2.211-.148s-2.161.2-2.216.039c-.063-.136.91-.648,2.23-.611s2.267.587,2.2.72" fill="#263238"/>
            <g id="Grupo_947775" data-name="Grupo 947775" opacity="0.3">
              <g id="Grupo_947774" data-name="Grupo 947774">
                <g id="Grupo_947773" data-name="Grupo 947773" clip-path="url(#clip-path-15)">
                  <path id="Trazado_655505" data-name="Trazado 655505" d="M390.323,64.059A14.24,14.24,0,1,1,376.084,49.82a14.239,14.239,0,0,1,14.239,14.239"/>
                </g>
              </g>
            </g>
            <path id="Trazado_655506" data-name="Trazado 655506" d="M390.323,61.59a14.24,14.24,0,1,1-14.239-14.239A14.239,14.239,0,0,1,390.323,61.59" fill="#f5f5f5"/>
            <path id="Trazado_655507" data-name="Trazado 655507" d="M390.323,61.59a26.165,26.165,0,0,0-.553-3.45,14.2,14.2,0,0,0-5.194-7.708,13.991,13.991,0,0,0-13.253-1.968,14,14,0,0,0-6.48,4.875,13.9,13.9,0,0,0,0,16.5,14,14,0,0,0,6.481,4.877,14.109,14.109,0,0,0,18.447-9.677,26.141,26.141,0,0,0,.553-3.449,5.4,5.4,0,0,1,.012.911,6.475,6.475,0,0,1-.085,1.1,9.945,9.945,0,0,1-.264,1.489,14.342,14.342,0,0,1-11.23,10.717,14.49,14.49,0,0,1-7.613-.6,14.482,14.482,0,0,1-6.753-5.04,14.421,14.421,0,0,1,0-17.164,14.486,14.486,0,0,1,6.752-5.038,14.485,14.485,0,0,1,7.612-.6,14.342,14.342,0,0,1,11.231,10.716,9.956,9.956,0,0,1,.264,1.49,6.475,6.475,0,0,1,.085,1.1,5.4,5.4,0,0,1-.012.911" fill="#263238"/>
            <path id="Trazado_655508" data-name="Trazado 655508" d="M381.926,58.593a6.567,6.567,0,1,1-8.84-2.846,6.567,6.567,0,0,1,8.84,2.846" fill="#e0e0e0"/>
            <path id="Trazado_655509" data-name="Trazado 655509" d="M380.571,61.59a4.488,4.488,0,1,1-4.488-4.488,4.488,4.488,0,0,1,4.488,4.488" fill="#f5f5f5"/>
            <path id="Trazado_655510" data-name="Trazado 655510" d="M380.571,61.59c-.053,0-.053-.4-.248-1.069a4.478,4.478,0,0,0-1.647-2.337,4.242,4.242,0,1,0,0,6.812,4.481,4.481,0,0,0,1.647-2.337c.2-.67.2-1.071.248-1.069a2.332,2.332,0,0,1-.032,1.123,4.47,4.47,0,0,1-1.618,2.6,4.675,4.675,0,0,1-4.457.735,4.734,4.734,0,0,1,0-8.926,4.673,4.673,0,0,1,4.457.735,4.47,4.47,0,0,1,1.618,2.6,2.332,2.332,0,0,1,.032,1.123" fill="#263238"/>
            <path id="Trazado_655511" data-name="Trazado 655511" d="M396.319,42.332c0,.158-9.3.286-20.777.286s-20.779-.128-20.779-.286,9.3-.286,20.779-.286,20.777.128,20.777.286" fill="#263238"/>
            <path id="Trazado_655512" data-name="Trazado 655512" d="M354.762,32.078a12.336,12.336,0,0,1-1.344.36,5.063,5.063,0,0,0-3.585,4.857,12.078,12.078,0,0,1,.051,1.39c-.059.026-.361-.465-.455-1.374a4.892,4.892,0,0,1,3.886-5.263c.9-.178,1.455-.035,1.447.03" fill="#fafafa"/>
            <path id="Trazado_655513" data-name="Trazado 655513" d="M369.491,50.812c.049.089-.94.577-2.226,1.749A12.193,12.193,0,0,0,363.63,64.85c.441,1.682,1.005,2.63.916,2.678-.031.018-.2-.2-.458-.628a9.931,9.931,0,0,1-.847-1.937A11.731,11.731,0,0,1,367,52.255a9.808,9.808,0,0,1,1.764-1.165c.447-.223.71-.31.726-.278" fill="#fafafa"/>
            <path id="Trazado_655514" data-name="Trazado 655514" d="M396.319,81.093c-.158,0-.286-8.732-.286-19.5s.128-19.5.286-19.5.286,8.731.286,19.5-.128,19.5-.286,19.5" fill="#263238"/>
            <path id="Trazado_655515" data-name="Trazado 655515" d="M342.66,134.04v-4.554a3.415,3.415,0,0,1,3.416-3.416v-1.462a6.508,6.508,0,0,1,6.508-6.508h46.189c3.594,0,6.456,4.062,6.456,7.656h1.642c1.886,0,3.42.381,3.42,2.268v6.016Z" fill="#455a64"/>
            <path id="Trazado_655516" data-name="Trazado 655516" d="M355.186,72.4,343.7,70.511V52l11.483-2.228Z" fill="#455a64"/>
            <path id="Trazado_655517" data-name="Trazado 655517" d="M342.525,50.11h.26a1.327,1.327,0,0,1,1.327,1.326V71.407a1.327,1.327,0,0,1-1.327,1.326h-.26a1.327,1.327,0,0,1-1.327-1.326V51.436a1.327,1.327,0,0,1,1.327-1.326" fill="#e0e0e0"/>
            <path id="Trazado_655518" data-name="Trazado 655518" d="M340.929,57.919h.859v8.74h-.859a3.979,3.979,0,0,1-3.979-3.979V61.9a3.978,3.978,0,0,1,3.979-3.979" fill="#e0e0e0"/>
            <path id="Trazado_655519" data-name="Trazado 655519" d="M344.2,51.924a75.437,75.437,0,0,1,.286,9.274,75.41,75.41,0,0,1-.286,9.274,75.4,75.4,0,0,1-.286-9.274,75.426,75.426,0,0,1,.286-9.274" fill="#263238"/>
            <path id="Trazado_655520" data-name="Trazado 655520" d="M341.354,51.8a75.42,75.42,0,0,1,.286,9.274,75.406,75.406,0,0,1-.286,9.274,75.406,75.406,0,0,1-.286-9.274,75.42,75.42,0,0,1,.286-9.274" fill="#263238"/>
            <path id="Trazado_655521" data-name="Trazado 655521" d="M355.19,92.594c-.158,0-.286-11.036-.286-24.647s.128-24.65.286-24.65.286,11.034.286,24.65-.128,24.647-.286,24.647" fill="#263238"/>
            <path id="Trazado_655522" data-name="Trazado 655522" d="M397.059,118.1c0,.144-9.331.26-20.839.26s-20.84-.116-20.84-.26,9.329-.26,20.84-.26,20.839.116,20.839.26" fill="#263238"/>
            <path id="Trazado_655523" data-name="Trazado 655523" d="M407.441,126.07c0,.144-13.865.26-30.964.26s-30.967-.116-30.967-.26,13.862-.26,30.967-.26,30.964.116,30.964.26" fill="#263238"/>
          </g>
        </g>
      </g>
    </g>
  </g>
</svg>
