<svg xmlns="http://www.w3.org/2000/svg" xmlns:xlink="http://www.w3.org/1999/xlink" width="53.919" height="53.92" viewBox="0 0 53.919 53.92">
  <defs>
    <clipPath id="clip-path">
      <rect id="Rectángulo_336195" data-name="Rectángulo 336195" width="53.918" height="53.92" fill="none"/>
    </clipPath>
  </defs>
  <g id="Grupo_947785" data-name="Grupo 947785" transform="translate(0 0)" opacity="0.5">
    <g id="Grupo_947784" data-name="Grupo 947784" transform="translate(0 0)" clip-path="url(#clip-path)">
      <path id="Trazado_655554" data-name="Trazado 655554" d="M40.443,26.95V52.61c0,1.076-.223,1.294-1.319,1.294H1.277C.239,53.9.01,53.671.01,52.614c0-4.192.007-8.385-.01-12.577,0-.417.092-.528.515-.519,1.292.026,1.292.006,1.292,1.3,0,3.593.009,7.187-.011,10.78,0,.422.1.515.518.515q17.914-.019,35.827,0c.421,0,.516-.1.515-.517q-.018-24.649,0-49.3c0-.418-.1-.517-.516-.517q-17.913.019-35.826,0c-.5,0-.513.194-.513.575q.011,17.379.018,34.756c0,.506-.117.65-.63.632C.011,37.7.01,37.733.01,36.553V1.292C.01.231.236,0,1.274,0h37.9c1.038,0,1.265.232,1.265,1.29V26.95" transform="translate(0 0)" fill="#e6571e"/>
      <path id="Trazado_655555" data-name="Trazado 655555" d="M20.449,10.984a.945.945,0,0,1,.557-1.053q4-1.786,8.007-3.568a1.067,1.067,0,0,1,.916.039q3.9,1.738,7.8,3.477a.93.93,0,0,1,.669,1.041c-.321,1.816-.467,3.665-.947,5.451a14.481,14.481,0,0,1-5.37,7.971c-.669.508-1.361.987-2.036,1.487a.882.882,0,0,1-1.092.089,20.144,20.144,0,0,1-5.535-5.093,16.048,16.048,0,0,1-2.522-6.973c-.131-1.016-.312-2.027-.443-2.869" transform="translate(-8.751 -2.686)" fill="#e6571e"/>
      <path id="Trazado_655556" data-name="Trazado 655556" d="M75.313,63.9a8.736,8.736,0,0,0-1.01.008c-.415.047-.48-.124-.476-.5.017-1.306,0-1.345,1.286-1.288.551.025.669-.193.747-.656q1.326-7.884,2.678-15.764,1.425-8.406,2.842-16.813c.292-1.727.6-3.452.879-5.181.054-.336.191-.376.479-.347,1.388.14,1.419.139,1.194,1.49-.6,3.621-1.234,7.238-1.852,10.857q-.87,5.1-1.734,10.2T78.61,56.1q-.584,3.417-1.177,6.832c-.128.74-.38.962-1.11.966-.336,0-.673,0-1.01,0" transform="translate(-31.597 -9.993)" fill="#e6571e"/>
      <path id="Trazado_655557" data-name="Trazado 655557" d="M7.871,50.9c0-.767-.006-1.534,0-2.3A3.112,3.112,0,0,1,10.9,45.545c1.254-.011,2.508.008,3.761-.01.314,0,.4.079.4.4.016,1.406.027,1.405-1.356,1.405-.823,0-1.646-.005-2.47,0A1.406,1.406,0,0,0,9.67,48.889q-.012,2.049,0,4.1A1.4,1.4,0,0,0,11.2,54.524q2.048.015,4.1,0a1.375,1.375,0,0,0,1.548-1.452c.015-.327.138-.364.4-.346.205.014.412,0,.618,0,.893,0,.893,0,.785.887a3.162,3.162,0,0,1-3.035,2.7q-2.33.016-4.659,0a3.112,3.112,0,0,1-3.075-3.065c-.007-.786,0-1.571,0-2.357" transform="translate(-3.368 -19.488)" fill="#e6571e"/>
      <path id="Trazado_655558" data-name="Trazado 655558" d="M7.871,74.47c0-.767-.006-1.534,0-2.3A3.111,3.111,0,0,1,10.945,69.1c1.235-.009,2.47.006,3.7-.009.3,0,.414.045.419.385.019,1.418.032,1.418-1.4,1.418-.824,0-1.647-.007-2.47,0A1.4,1.4,0,0,0,9.67,72.435q-.014,2.049,0,4.1a1.406,1.406,0,0,0,1.571,1.551c1.328.007,2.657,0,3.985,0a1.4,1.4,0,0,0,1.621-1.5c.019-.251.089-.321.324-.3s.448,0,.673,0c.9,0,.925.028.793.931a3.164,3.164,0,0,1-3.074,2.66q-2.3.012-4.6,0a3.111,3.111,0,0,1-3.089-3.108c-.005-.767,0-1.534,0-2.3" transform="translate(-3.368 -29.571)" fill="#e6571e"/>
      <path id="Trazado_655559" data-name="Trazado 655559" d="M85.425,7.517c-.194,1.148-.4,2.378-.61,3.608-.131.771-.285,1.539-.39,2.314-.039.287-.148.317-.4.3-1.473-.107-1.525-.181-1.253-1.611.227-1.189.417-2.384.632-3.576.064-.355-.011-.5-.423-.57-2.974-.5-5.942-1.039-8.914-1.55-.368-.063-.515-.2-.425-.573.1-.415.038-.979.292-1.216s.8.043,1.208.115q4.729.828,9.456,1.678c.61.11.84.421.824,1.082" transform="translate(-31.508 -1.944)" fill="#e6571e"/>
      <path id="Trazado_655560" data-name="Trazado 655560" d="M39.684,47.336c-2.078,0-4.155-.009-6.232.009-.358,0-.467-.08-.464-.454.009-1.351-.007-1.351,1.355-1.351,3.874,0,7.749.007,11.622-.01.411,0,.531.082.523.512-.027,1.294-.006,1.3-1.3,1.3Z" transform="translate(-14.118 -19.485)" fill="#e6571e"/>
      <path id="Trazado_655561" data-name="Trazado 655561" d="M39.679,70.895c-2.078,0-4.155-.01-6.232.009-.367,0-.462-.094-.459-.459C33,69.1,32.982,69.1,34.348,69.1c3.874,0,7.748.007,11.622-.011.42,0,.526.1.518.517-.026,1.29-.006,1.29-1.305,1.29Z" transform="translate(-14.118 -29.568)" fill="#e6571e"/>
      <path id="Trazado_655562" data-name="Trazado 655562" d="M16.367,51.7c1.506-1.758,2.993-3.484,4.465-5.225.224-.264.37-.352.643-.062.3.324.874.566.932.91s-.482.688-.768,1.023q-2.164,2.539-4.336,5.07c-.589.686-1.06.707-1.69.08-.755-.752-1.5-1.517-2.266-2.255-.232-.223-.239-.352,0-.56.352-.3.674-.891,1.01-.891s.681.564,1.012.891.653.668,1,1.019" transform="translate(-5.637 -19.787)" fill="#e6571e"/>
      <path id="Trazado_655563" data-name="Trazado 655563" d="M16.359,75.268c1.516-1.766,2.982-3.462,4.429-5.174.243-.287.4-.442.718-.09.3.329.9.537.912.915.01.32-.493.657-.772.983q-2.167,2.535-4.337,5.069c-.6.705-1.066.72-1.729.059-.741-.739-1.473-1.488-2.225-2.216-.216-.208-.277-.339-.018-.561.355-.3.655-.874,1.015-.906s.674.567,1.007.889.651.67,1,1.031" transform="translate(-5.635 -29.873)" fill="#e6571e"/>
      <path id="Trazado_655564" data-name="Trazado 655564" d="M47.577,55.187c-1.048,0-2.1-.01-3.144.006-.308.005-.454-.023-.455-.407,0-1.4-.02-1.4,1.368-1.4,1.778,0,3.556.017,5.333-.012.435-.007.517.12.51.525-.023,1.283-.006,1.284-1.31,1.284Z" transform="translate(-18.822 -22.845)" fill="#e6571e"/>
      <path id="Trazado_655565" data-name="Trazado 655565" d="M47.559,78.75c-1.067,0-2.134-.009-3.2.006-.284,0-.374-.063-.38-.366-.031-1.437-.042-1.437,1.38-1.437,1.8,0,3.593.009,5.389-.008.337,0,.438.067.438.424,0,1.38.014,1.38-1.382,1.38H47.559" transform="translate(-18.819 -32.931)" fill="#e6571e"/>
      <path id="Trazado_655566" data-name="Trazado 655566" d="M10.55,8.073c-.786,0-1.572-.011-2.357.006-.269.006-.336-.075-.346-.343-.055-1.46-.064-1.46,1.412-1.46,1.2,0,2.4.011,3.592-.007.317-.005.4.084.4.4.016,1.4.027,1.4-1.357,1.4H10.55" transform="translate(-3.351 -2.683)" fill="#e6571e"/>
      <path id="Trazado_655567" data-name="Trazado 655567" d="M35.288,55.191c-.617,0-1.236-.015-1.852.006-.314.011-.451-.032-.451-.41,0-1.393-.019-1.393,1.37-1.393.9,0,1.8.012,2.694-.006.314-.007.451.032.452.41,0,1.393.019,1.393-1.371,1.393Z" transform="translate(-14.117 -22.849)" fill="#e6571e"/>
      <path id="Trazado_655568" data-name="Trazado 655568" d="M35.217,78.751c-.636,0-1.273-.01-1.908.005-.239.005-.357-.056-.315-.309a.306.306,0,0,0,0-.056c-.051-1.436-.051-1.436,1.371-1.436.917,0,1.834.01,2.75-.006.285-.005.373.064.38.367.031,1.436.042,1.436-1.38,1.436h-.9" transform="translate(-14.114 -32.932)" fill="#e6571e"/>
      <path id="Trazado_655569" data-name="Trazado 655569" d="M9.611,14.354H9.218c-1.367,0-1.353,0-1.361-1.343,0-.358.08-.475.454-.464.935.029,1.871.019,2.806,0,.263,0,.34.064.351.338.058,1.465.067,1.464-1.408,1.464Z" transform="translate(-3.363 -5.37)" fill="#e6571e"/>
      <path id="Trazado_655570" data-name="Trazado 655570" d="M56.793,7.14c0,.939,0,.939-.97.939-.827,0-.827,0-.827-.8,0-.995,0-.995.97-.995.827,0,.827,0,.827.857" transform="translate(-23.537 -2.689)" fill="#e6571e"/>
      <path id="Trazado_655571" data-name="Trazado 655571" d="M62.179,6.282c.9,0,.9,0,.9.9s0,.9-.9.9-.9,0-.9-.9,0-.9.9-.9" transform="translate(-26.226 -2.688)" fill="#e6571e"/>
      <path id="Trazado_655572" data-name="Trazado 655572" d="M37.863,13.14a25.032,25.032,0,0,1-1.391,6.114,14.237,14.237,0,0,1-5.387,6.076.327.327,0,0,1-.438,0,13.712,13.712,0,0,1-6.02-7.8c-.414-1.476-.518-3.01-.816-4.508-.046-.232.086-.28.252-.354q3.262-1.45,6.518-2.914a.629.629,0,0,1,.573.008q3.182,1.429,6.373,2.838c.313.137.456.295.334.539" transform="translate(-10.187 -4.147)" fill="#fafafa"/>
      <path id="Trazado_655573" data-name="Trazado 655573" d="M32.09,23.155a.78.78,0,0,1-.659-.268c-.822-.817-1.635-1.643-2.464-2.452-.19-.186-.194-.3.006-.476.363-.32.676-.88,1.063-.929.291-.038.665.565,1,.884s.678.9,1.053.936c.394.034.706-.585,1.049-.922,1.145-1.128,2.285-2.261,3.408-3.411.243-.249.384-.269.611,0,.288.341.828.627.866.979.04.374-.535.657-.847.972-1.407,1.421-2.825,2.83-4.239,4.245-.24.24-.475.485-.848.442" transform="translate(-12.336 -6.986)" fill="#e6571e"/>
    </g>
  </g>
</svg>
