<svg xmlns="http://www.w3.org/2000/svg" xmlns:xlink="http://www.w3.org/1999/xlink" width="73" height="73" viewBox="0 0 73 73">
  <defs>
    <filter id="Trazado_640294" x="0" y="0" width="73" height="73" filterUnits="userSpaceOnUse">
      <feOffset dy="3" input="SourceAlpha"/>
      <feGaussianBlur stdDeviation="3" result="blur"/>
      <feFlood flood-opacity="0.161"/>
      <feComposite operator="in" in2="blur"/>
      <feComposite in="SourceGraphic"/>
    </filter>
    <clipPath id="clip-path">
      <rect id="Rectángulo_336201" data-name="Rectángulo 336201" width="39.26" height="39.246" fill="none"/>
    </clipPath>
  </defs>
  <g id="Grupo_947856" data-name="Grupo 947856" transform="translate(-276 -2939)">
    <g id="Grupo_154215" data-name="Grupo 154215" transform="translate(0 891)">
      <g transform="matrix(1, 0, 0, 1, 276, 2048)" filter="url(#Trazado_640294)">
        <path id="Trazado_640294-2" data-name="Trazado 640294" d="M27.5,0A27.5,27.5,0,1,1,0,27.5,27.5,27.5,0,0,1,27.5,0Z" transform="translate(9 6)" fill="#4d793f"/>
      </g>
    </g>
    <g id="Grupo_947824" data-name="Grupo 947824" transform="translate(292 2953)">
      <g id="Grupo_947823" data-name="Grupo 947823" transform="translate(0 0)" clip-path="url(#clip-path)">
        <path id="Trazado_655642" data-name="Trazado 655642" d="M38.725,39.246H12.778c-.466-.159-.573-.516-.572-.965q.009-4.286,0-8.573c0-.62-.02-.627-.632-.69-1.421-.147-2.844-.277-4.254-.494A4.566,4.566,0,0,1,3.587,25.5c-.807-2.054-1.571-4.124-2.354-6.188-.339-.895-.728-1.774-1-2.688a3.5,3.5,0,0,1,.5-3.439,2.926,2.926,0,0,1,1.086-.828.691.691,0,0,0,.452-.74C2.255,8.169,2.259,4.725,2.259,1.28c0-.153-.005-.306.005-.459a.77.77,0,0,1,.864-.8c3.049,0,6.1.021,9.146-.016a.86.86,0,0,1,.78,1.322c-.416.731-.813,1.474-1.215,2.214a.647.647,0,0,0,0,.68c.372.7.773,1.38,1.137,2.082.077.148.156.3.368.273.788-.092,1.58-.025,2.37-.044.447-.01.469-.033.48-.481a9.164,9.164,0,0,1,.094-1.792A4.081,4.081,0,0,1,20.3,1.015q2.927,0,5.854,0a4.07,4.07,0,0,1,4.033,4.018c0,.357.01.715,0,1.071-.011.317.131.429.436.424.6-.01,1.2,0,1.8,0a2.536,2.536,0,0,1,2.469,2.007,2.594,2.594,0,0,1-1.3,2.783,3.392,3.392,0,0,1-.716.265,4.268,4.268,0,0,1-.748.073c-.035.129.049.185.1.254a4.731,4.731,0,0,1,.776,4.139,1.1,1.1,0,0,0,.1.909,5.338,5.338,0,0,1,.746,2.662,6.229,6.229,0,0,1-.38,2.213c-.147.409-.136.409.266.593a9.363,9.363,0,0,1,5.354,6.267,4.66,4.66,0,0,1,.142,1.25c.019.141-.042.289.04.424V38.71a.6.6,0,0,1-.536.536" transform="translate(0 0)" fill="#fff"/>
        <path id="Trazado_655643" data-name="Trazado 655643" d="M99.645,100.145a1.281,1.281,0,0,0,.536-.536c0,.536,0,.536-.536.536" transform="translate(-60.921 -60.899)" fill="#ecebed"/>
        <path id="Trazado_655644" data-name="Trazado 655644" d="M100.816,77.131a.07.07,0,0,0,.07.009v.383a.409.409,0,0,1-.07-.392" transform="translate(-61.626 -47.156)" fill="#545257"/>
        <path id="Trazado_655645" data-name="Trazado 655645" d="M50.633,62.82v2.971c0,1.1-.008,2.194.006,3.291,0,.238-.059.3-.3.293-.79-.016-1.581-.009-2.372-.005a.78.78,0,0,0-.864.763.761.761,0,0,0,.851.77c.791,0,1.582.008,2.372,0,.216,0,.314.025.309.283-.017.969-.012,1.939,0,2.908,0,.2-.043.259-.25.258q-5.433-.01-10.867,0c-.183,0-.242-.05-.235-.234.014-.357.007-.714,0-1.071a.823.823,0,0,0-.776-.909c-.455-.005-.769.347-.784.895-.009.344-.012.689,0,1.033.008.2-.024.3-.26.288-.535-.018-1.072-.017-1.607,0-.218.007-.246-.08-.244-.264.008-.727,0-1.454,0-2.181,0-3.865,0-7.73-.008-11.6,0-.318.072-.415.393-.392a8.2,8.2,0,0,0,1.3,0c.373-.033.429.117.426.447-.015,1.76-.007,3.521-.007,5.281,0,.1,0,.2,0,.306a.783.783,0,1,0,1.558-.023c.007-.919,0-1.837,0-2.755v-.35c.147-.016.15.117.2.187.481.734.954,1.474,1.433,2.209.411.631.9.677,1.437.139.785-.783,1.579-1.56,2.347-2.36.219-.228.328-.19.526.013.783.8,1.582,1.593,2.378,2.384a.8.8,0,0,0,1.386-.155c.527-.81,1.048-1.623,1.571-2.435l.069.016" transform="translate(-21.775 -36.629)" fill="#4d793f"/>
        <path id="Trazado_655646" data-name="Trazado 655646" d="M20.725,23.639a4.833,4.833,0,0,0-1,4.817.381.381,0,0,1-.026.359,5.645,5.645,0,0,0-.591,4.933.341.341,0,0,1-.008.1c-1.246,0-2.494-.006-3.742,0-.248,0-.239-.178-.291-.32q-1.3-3.55-2.6-7.1a3.17,3.17,0,0,0-2.2-2.087A.292.292,0,0,1,10.019,24q.016-1.95,0-3.9c0-.206.038-.281.265-.281,2.574.008,5.149.005,7.762.005a2.486,2.486,0,0,0,.076,2.768,2.668,2.668,0,0,0,2.6,1.046" transform="translate(-6.125 -12.118)" fill="#4d793f"/>
        <path id="Trazado_655647" data-name="Trazado 655647" d="M51.738,29.658c1.567,0,3.134.008,4.7-.007.274,0,.339.073.328.337a17.289,17.289,0,0,1-.155,3.159,5.036,5.036,0,0,1-9.892-.5c-.114-.928-.026-1.858-.065-2.786-.011-.27.17-.2.3-.2q2.389,0,4.778,0" transform="translate(-28.524 -18.128)" fill="#4d793f"/>
        <path id="Trazado_655648" data-name="Trazado 655648" d="M16.561,54.4c-1.647-.2-3.266-.356-4.874-.589a2.762,2.762,0,0,1-2.258-1.835c-.835-2.135-1.629-4.286-2.453-6.426-.077-.2-.031-.257.146-.329.857-.349,1.712-.7,2.557-1.074.255-.113.307-.024.386.194.623,1.727,1.257,3.451,1.889,5.174.228.621.4.741,1.074.741,1.058,0,2.116.014,3.174-.008.312-.007.369.094.366.38-.015,1.247-.007,2.5-.007,3.771" transform="translate(-4.243 -26.96)" fill="#4d793f"/>
        <path id="Trazado_655649" data-name="Trazado 655649" d="M87.651,62.989A7.8,7.8,0,0,1,91.143,68.1a9.5,9.5,0,0,1,.156,1.937c-.006,1.95-.009,3.9.005,5.849,0,.29-.072.355-.354.35-1.019-.019-2.039-.014-3.058,0-.215,0-.275-.054-.274-.272q.01-6.422.006-12.845a.889.889,0,0,1,.027-.125" transform="translate(-53.568 -38.51)" fill="#4d793f"/>
        <path id="Trazado_655650" data-name="Trazado 655650" d="M51.235,10.774c-1.67,0-3.341-.006-5.011.006-.27,0-.355-.075-.336-.342.036-.508-.03-1.018.053-1.527a2.45,2.45,0,0,1,2.436-2.1q2.869-.008,5.738,0A2.474,2.474,0,0,1,56.6,9.282c0,.4-.017.792.007,1.186.016.263-.08.313-.322.312-1.683-.01-3.366-.005-5.049-.005" transform="translate(-28.053 -4.165)" fill="#4d793f"/>
        <path id="Trazado_655651" data-name="Trazado 655651" d="M43.764,21q4.57,0,9.139,0a.9.9,0,0,1,.879,1.277.808.808,0,0,1-.632.5,3.811,3.811,0,0,1-.532.039q-8.852,0-17.7,0a2.862,2.862,0,0,1-.532-.042.9.9,0,0,1-.7-.917.929.929,0,0,1,.8-.849A3.679,3.679,0,0,1,34.854,21h8.91" transform="translate(-20.588 -12.837)" fill="#4d793f"/>
        <path id="Trazado_655652" data-name="Trazado 655652" d="M78.259,67.159c0-2.269.007-4.538-.009-6.806,0-.326.11-.39.389-.344a14.693,14.693,0,0,1,1.452.3c.249.067.279.207.278.436q-.012,6.042-.005,12.083c0,.446-.009.893,0,1.338.006.188-.057.236-.237.232-.522-.011-1.046-.021-1.567,0-.265.012-.311-.083-.31-.322.008-2.307,0-4.614,0-6.921" transform="translate(-47.841 -36.68)" fill="#4d793f"/>
        <path id="Trazado_655653" data-name="Trazado 655653" d="M71.05,30.654a3.243,3.243,0,0,1,1.443,4.209,1.047,1.047,0,0,0,.133,1.191,4.183,4.183,0,0,1,.378,4.4.21.21,0,0,1-.258.154,35.812,35.812,0,0,0-4.926-.137c-.228,0-.309-.045-.3-.29.021-.5.02-1,0-1.492a.4.4,0,0,1,.245-.409,6.5,6.5,0,0,0,3.282-5.793c0-.6,0-1.193,0-1.835" transform="translate(-41.281 -18.741)" fill="#4d793f"/>
        <path id="Trazado_655654" data-name="Trazado 655654" d="M38.962,30.77c.063.97-.065,1.916.084,2.854a6.453,6.453,0,0,0,3.176,4.7.491.491,0,0,1,.283.506c-.02.484-.014.969,0,1.453,0,.188-.034.263-.247.262q-2.485-.014-4.971,0a.3.3,0,0,1-.336-.227,4.13,4.13,0,0,1,.491-4.22,1,1,0,0,0,.112-1.158,3.217,3.217,0,0,1,1.411-4.168" transform="translate(-22.372 -18.812)" fill="#4d793f"/>
        <path id="Trazado_655655" data-name="Trazado 655655" d="M17.132,4.067c-.344.626-.651,1.208-.981,1.776a.951.951,0,0,0,0,1.04c.33.568.637,1.15.982,1.776h-.416c-2.117,0-4.234-.006-6.351.007-.284,0-.357-.063-.353-.351.017-1.326.012-2.653,0-3.979,0-.214.054-.276.272-.275,2.257.008,4.513.005,6.844.005" transform="translate(-6.122 -2.483)" fill="#4d793f"/>
        <path id="Trazado_655656" data-name="Trazado 655656" d="M47.672,63.729l-2.454-3.8c.747,0,1.44.028,2.128-.01a1.243,1.243,0,0,1,1.128.462c.335.4.73.747,1.1,1.113.1.1.156.175.023.307-.643.634-1.277,1.278-1.928,1.932" transform="translate(-27.645 -36.629)" fill="#4d793f"/>
        <path id="Trazado_655657" data-name="Trazado 655657" d="M67.089,59.944,64.634,63.75c-.651-.656-1.285-1.3-1.925-1.936-.1-.1-.113-.17,0-.277.5-.491.993-.989,1.486-1.486a.355.355,0,0,1,.272-.107c.853,0,1.707,0,2.626,0" transform="translate(-38.289 -36.648)" fill="#4d793f"/>
        <path id="Trazado_655658" data-name="Trazado 655658" d="M58.791,52.131c0,.676,0,1.324,0,1.972a.428.428,0,0,1-.158.328c-.4.394-.8.785-1.186,1.19-.135.141-.218.161-.363.009-.395-.415-.8-.816-1.212-1.218a.427.427,0,0,1-.134-.338c.006-.573.009-1.146,0-1.718,0-.194.039-.217.236-.179a6.8,6.8,0,0,0,2.815-.047" transform="translate(-34.079 -31.872)" fill="#4d793f"/>
        <path id="Trazado_655659" data-name="Trazado 655659" d="M5.839,35.146a1.629,1.629,0,0,1,1.553,1.08c.356.869.356.869-.5,1.228-.677.284-1.357.56-2.029.855-.185.081-.265.051-.319-.14-.161-.563-.518-1.076-.351-1.717a1.648,1.648,0,0,1,1.647-1.306" transform="translate(-2.537 -21.487)" fill="#4d793f"/>
        <path id="Trazado_655660" data-name="Trazado 655660" d="M41.857,82.5a.814.814,0,0,1,.769.79.79.79,0,0,1-.791.76.771.771,0,0,1-.759-.783.789.789,0,0,1,.781-.768" transform="translate(-25.113 -50.436)" fill="#fff"/>
        <path id="Trazado_655661" data-name="Trazado 655661" d="M57.581,40.5a1.437,1.437,0,0,1-1.066-.447.776.776,0,0,1-.08-1.007.738.738,0,0,1,.947-.23.435.435,0,0,0,.448-.01.745.745,0,0,1,.942.255.775.775,0,0,1-.075.979,1.479,1.479,0,0,1-1.115.46" transform="translate(-34.412 -23.678)" fill="#fff"/>
      </g>
    </g>
  </g>
</svg>
