<svg xmlns="http://www.w3.org/2000/svg" xmlns:xlink="http://www.w3.org/1999/xlink" width="55" height="55" viewBox="0 0 55 55">
  <defs>
    <clipPath id="clip-path">
      <rect id="Rectángulo_336203" data-name="Rectángulo 336203" width="38.781" height="38.782" transform="translate(0 0)" fill="none"/>
    </clipPath>
  </defs>
  <g id="Grupo_154217" data-name="Grupo 154217" transform="translate(-285 -1924)">
    <circle id="Elipse_4813" data-name="Elipse 4813" cx="27.5" cy="27.5" r="27.5" transform="translate(285 1924)" fill="#4d793f"/>
    <g id="Grupo_947828" data-name="Grupo 947828" transform="translate(291.489 1929)">
      <g id="Grupo_947827" data-name="Grupo 947827" transform="translate(0 0)" clip-path="url(#clip-path)">
        <path id="Trazado_655668" data-name="Trazado 655668" d="M27.762,38.778c-.02-.1-.117-.079-.18-.105a1.889,1.889,0,0,1-1.3-1.783c-.021-1.878-.111-3.76.046-5.635a3.188,3.188,0,0,1,2.777-2.768c.311-.033.409-.121.407-.452-.018-2.447-.013-4.895,0-7.342a1.026,1.026,0,0,0-.221-.654c-.5-.678-.959-1.39-1.477-2.054A6.239,6.239,0,0,1,31.3,8.049a10.486,10.486,0,0,1,2.09-.313,5.224,5.224,0,0,1-.33-4.381A4.968,4.968,0,0,1,34.99.9a5.18,5.18,0,0,1,5.976.1,5.069,5.069,0,0,1,2,3.1,5.113,5.113,0,0,1-.563,3.64,8.676,8.676,0,0,1,3.256.736,6.17,6.17,0,0,1,2.621,9.119c-.773,1.149-1.6,2.259-2.416,3.381a.881.881,0,0,0-.177.555c.006,2.183.009,4.365,0,6.548,0,.281.064.353.349.351,2.056-.013,4.114.027,6.169-.02a2.289,2.289,0,0,1,2.513,1.513v7.343a1.68,1.68,0,0,1-1.59,1.514Z" transform="translate(-15.94 0)" fill="#fff"/>
        <path id="Trazado_655669" data-name="Trazado 655669" d="M3.8,84.775a8.64,8.64,0,0,1-1.714-.712A4.533,4.533,0,0,1,3.8,75.775a4.53,4.53,0,1,1,1.451,8.944c-.031.006-.058.037-.087.057Z" transform="translate(0 -45.998)" fill="#fff"/>
        <path id="Trazado_655670" data-name="Trazado 655670" d="M94.726,96.435a2.178,2.178,0,0,0,1.59-1.514c0,.454-.007.909,0,1.363,0,.132-.024.159-.156.156-.479-.011-.959,0-1.438,0" transform="translate(-57.539 -57.658)" fill="#fdfdfd"/>
        <path id="Trazado_655671" data-name="Trazado 655671" d="M43.328,39.5a5.408,5.408,0,0,0-.928-1.557c-.373-.523-.742-1.05-1.133-1.558a.355.355,0,0,1-.007-.513q2.329-3.189,4.638-6.391a.825.825,0,0,0,.249-.684.633.633,0,0,0-.493-.517.666.666,0,0,0-.721.3c-.544.756-1.094,1.509-1.641,2.264-.932,1.285-1.867,2.566-2.789,3.857-.169.237-.245.3-.451.016-1.42-1.989-2.858-3.964-4.291-5.944-.059-.082-.117-.164-.18-.243a.649.649,0,0,0-.929-.167.637.637,0,0,0-.124.934c.523.74,1.059,1.471,1.591,2.206,1.868,2.581,3.719,5.174,5.612,7.736a1.937,1.937,0,1,1-3.053,2.377c-2.565-3.569-5.15-7.124-7.67-10.725a4.866,4.866,0,0,1,2.509-7.393,8.9,8.9,0,0,1,3.2-.394.529.529,0,0,1,.328.153,5.148,5.148,0,0,0,6.43.011c.088-.067.158-.157.287-.163a6.784,6.784,0,0,1,4.847,1.278,4.822,4.822,0,0,1,.949,6.489c-2.009,2.881-4.082,5.718-6.129,8.573-.013.018-.042.024-.1.058" transform="translate(-18.303 -14.023)" fill="#4d793f"/>
        <path id="Trazado_655672" data-name="Trazado 655672" d="M47.611,85.65q4.181,0,8.364,0a1.923,1.923,0,0,1,.6,3.747,2.445,2.445,0,0,1-.78.114l-16.426,0a1.323,1.323,0,0,1-1.484-1.458c0-.378-.016-.758.006-1.135a1.259,1.259,0,0,1,1.351-1.267q4.182,0,8.365,0" transform="translate(-23.011 -52.025)" fill="#4d793f"/>
        <path id="Trazado_655673" data-name="Trazado 655673" d="M31.9,83.507c-.522,0-1.036.018-1.548-.005a.651.651,0,0,1-.654-.723c0-1.69-.009-3.38,0-5.07a1.918,1.918,0,0,1,1.919-1.925c2.434-.014,4.868-.006,7.3-.006,4.1,0,8.2.005,12.3-.009.357,0,.44.1.426.438-.027.617-.016,1.236,0,1.853.005.235-.034.342-.308.307a7.711,7.711,0,0,0-.981-.037c-5.3,0-10.595.011-15.892-.009a2.565,2.565,0,0,0-2.742,1.9,5.123,5.123,0,0,0,.171,3.15.491.491,0,0,1,.011.133" transform="translate(-18.038 -46.024)" fill="#4d793f"/>
        <path id="Trazado_655674" data-name="Trazado 655674" d="M50,11.06A3.832,3.832,0,0,1,46.11,7.234,3.865,3.865,0,1,1,50,11.06" transform="translate(-28.008 -2.024)" fill="#4d793f"/>
        <path id="Trazado_655675" data-name="Trazado 655675" d="M89.57,83.516a3.42,3.42,0,0,0,.641-1.942,3.138,3.138,0,0,0-1.089-2.4.486.486,0,0,1-.2-.407c.01-.908.012-1.816,0-2.724,0-.221.067-.273.276-.267.492.015.983,0,1.476.005.618,0,.825.214.826.848q0,2.46,0,4.919c0,.4.007.807,0,1.211a.681.681,0,0,1-.75.752c-.373.008-.745,0-1.173,0" transform="translate(-54.011 -46.03)" fill="#4d793f"/>
        <path id="Trazado_655676" data-name="Trazado 655676" d="M42.372,62.73c-1.462,0-2.848,0-4.235,0-.209,0-.248-.079-.247-.267.005-1.854,0-3.707,0-5.562v-.422l4.48,6.246" transform="translate(-23.015 -34.31)" fill="#4d793f"/>
        <path id="Trazado_655677" data-name="Trazado 655677" d="M66.465,59.079q0,2.509,0,5.018c0,.143-.039.2-.19.2-1.192,0-2.385,0-3.642,0l3.757-5.237.073.025" transform="translate(-38.046 -35.871)" fill="#4d793f"/>
        <path id="Trazado_655678" data-name="Trazado 655678" d="M9.761,82.3a3.225,3.225,0,0,1-3.218,3.221,3.266,3.266,0,0,1-3.221-3.235,3.227,3.227,0,0,1,3.236-3.2,3.184,3.184,0,0,1,3.2,3.217" transform="translate(-2.018 -48.037)" fill="#4d793f"/>
      </g>
    </g>
  </g>
</svg>
