<svg xmlns="http://www.w3.org/2000/svg" xmlns:xlink="http://www.w3.org/1999/xlink" width="39.363" height="39.359" viewBox="0 0 39.363 39.359">
  <defs>
    <clipPath id="clip-path">
      <rect id="Rectángulo_336198" data-name="Rectángulo 336198" width="39.363" height="39.359" fill="none"/>
    </clipPath>
  </defs>
  <g id="Grupo_947818" data-name="Grupo 947818" transform="translate(0 0)">
    <g id="Grupo_947818-2" data-name="Grupo 947818" transform="translate(0 0)" clip-path="url(#clip-path)">
      <path id="Trazado_655612" data-name="Trazado 655612" d="M39.356,19.7q0,5.415.006,10.828a.468.468,0,0,1-.334.517q-9.476,4.094-18.941,8.214a.878.878,0,0,1-.771.014Q9.841,35.153.353,31.056A.49.49,0,0,1,0,30.512Q.013,19.684,0,8.855a.49.49,0,0,1,.353-.544q9.507-4.1,19-8.232a.741.741,0,0,1,.659,0q9.521,4.138,19.053,8.254a.419.419,0,0,1,.3.464q-.013,5.454-.006,10.908" transform="translate(0 0)" fill="#fff"/>
      <path id="Trazado_655613" data-name="Trazado 655613" d="M22.318,37.3c0-1-.01-1.955.007-2.906,0-.26-.068-.325-.325-.324-.95.006-.951,0-.951.961V37.3c-.7-.3-1.375-.587-2.044-.877q-6.435-2.791-12.872-5.579a.438.438,0,0,1-.323-.48q.015-8.348.007-16.7c0-.195-.022-.353.233-.463q7.365-3.168,14.719-6.362a.424.424,0,0,1,.28-.069c0,.948.007,1.9,0,2.849,0,.235.024.342.309.34.965-.008.965.006.965-.948V6.793c.167-.065.284.049.4.1q7.24,3.131,14.481,6.264a.494.494,0,0,1,.355.545q-.016,8.309,0,16.618a.492.492,0,0,1-.348.549Q29.948,34,22.7,37.154c-.107.046-.218.083-.378.144" transform="translate(-2.001 -2.333)" fill="#4d793f"/>
      <path id="Trazado_655614" data-name="Trazado 655614" d="M19.71,2.507a3.414,3.414,0,0,1-.033,1.263c-.157.349-.679.381-1.045.54q-7.54,3.281-15.089,6.54a.468.468,0,0,0-.336.515q.013,9.182,0,18.364a.468.468,0,0,0,.336.515q7.93,3.423,15.852,6.862c.239.1.353.206.327.481-.029.314-.007.633-.007.982a5.528,5.528,0,0,1-.99-.4Q10.482,34.6,2.237,31.038a.412.412,0,0,1-.3-.457q.01-10.035,0-20.069c0-.212.026-.343.259-.444q8.59-3.709,17.173-7.436c.094-.041.193-.072.338-.125" transform="translate(-0.668 -0.864)" fill="#4d793f"/>
      <path id="Trazado_655615" data-name="Trazado 655615" d="M30.991,38.531c0-.37.012-.749,0-1.127-.01-.237.176-.233.305-.289q4.1-1.784,8.2-3.561,3.849-1.669,7.7-3.329a.418.418,0,0,0,.3-.46q-.011-9.222,0-18.443a.442.442,0,0,0-.331-.48Q39.231,7.412,31.3,3.974a.421.421,0,0,1-.312-.49c.022-.314.005-.63.005-1,.579.248,1.12.477,1.659.709Q40.522,6.6,48.4,10a.523.523,0,0,1,.376.572q-.019,9.955,0,19.911a.522.522,0,0,1-.363.579q-8.529,3.678-17.05,7.376c-.1.045-.2.136-.365.088" transform="translate(-10.675 -0.854)" fill="#4d793f"/>
      <path id="Trazado_655616" data-name="Trazado 655616" d="M21.246,19.363c0-.888,0-1.7,0-2.516a1.878,1.878,0,0,1,2.386-1.941c.162.033.233,0,.3-.148a1.9,1.9,0,0,1,3.509-.011c.075.168.157.189.331.151a1.885,1.885,0,0,1,2.36,1.9c0,.21,0,.421,0,.663a2.315,2.315,0,0,1,1.174-.009,1.884,1.884,0,0,1,1.363,1.827c0,3.45.009,6.9,0,10.349a5.607,5.607,0,0,1-4.742,5.423,12.267,12.267,0,0,1-5.181-.222,6.429,6.429,0,0,1-4.367-5.863,39.028,39.028,0,0,0-.7-7.318,8.615,8.615,0,0,1-.229-1,1.814,1.814,0,0,1,2.291-1.97,3.522,3.522,0,0,1,1.506.686" transform="translate(-6.007 -4.676)" fill="#fff"/>
      <path id="Trazado_655617" data-name="Trazado 655617" d="M32.086,25.19c0,1.6.008,3.2,0,4.8a4.45,4.45,0,0,1-3.5,4.447,7.835,7.835,0,0,1-1.854.116,8.85,8.85,0,0,1-2.9-.271,5.165,5.165,0,0,1-3.489-4.8c-.087-1.9-.132-3.8-.393-5.688-.116-.836-.3-1.656-.495-2.476-.118-.5.147-.791.662-.711a2.065,2.065,0,0,1,1.814,2.1c.009.806,0,1.612,0,2.419a2.353,2.353,0,0,0,1.253,2.185,2.2,2.2,0,0,1,1.281,1.976c0,.173.079.192.216.185s.29,0,.436,0c.694,0,.726-.028.6-.726a3.189,3.189,0,0,0-1.643-2.39,1.554,1.554,0,0,1-.884-1.536c.018-2.366.007-4.732.007-7.1a1.838,1.838,0,0,1,.015-.395.625.625,0,0,1,1.237,0,1.887,1.887,0,0,1,.016.4c0,1.89.01,3.78-.008,5.67,0,.324.1.383.393.378.885-.017.885-.005.885-.907q0-3.232,0-6.464A1.5,1.5,0,0,1,25.77,16a.6.6,0,0,1,.6-.484.593.593,0,0,1,.6.477,1.683,1.683,0,0,1,.034.431c0,2.326.008,4.653-.007,6.979,0,.3.082.366.37.361.907-.016.907,0,.907-.925q0-2.637,0-5.274a.722.722,0,0,1,.347-.7.561.561,0,0,1,.633.035.758.758,0,0,1,.292.695c0,1.93.006,3.86-.01,5.79,0,.314.083.389.387.382.889-.019.889-.005.89-.9s0-1.8,0-2.7c0-.528.235-.84.627-.846s.641.31.642.832q0,2.518,0,5.036" transform="translate(-6.693 -5.347)" fill="#4d793f"/>
    </g>
  </g>
</svg>
