<svg xmlns="http://www.w3.org/2000/svg" xmlns:xlink="http://www.w3.org/1999/xlink" width="55" height="55" viewBox="0 0 55 55">
  <defs>
    <clipPath id="clip-path">
      <rect id="Rectángulo_336198" data-name="Rectángulo 336198" width="37.363" height="41.847" fill="none"/>
    </clipPath>
  </defs>
  <g id="Grupo_947852" data-name="Grupo 947852" transform="translate(-219 -2978)">
    <circle id="Elipse_4814" data-name="Elipse 4814" cx="27.5" cy="27.5" r="27.5" transform="translate(219 2978)" fill="#4d793f"/>
    <g id="Grupo_947851" data-name="Grupo 947851">
      <g id="Grupo_947818" data-name="Grupo 947818" transform="translate(227.637 2984.821)">
        <g id="Grupo_947818-2" data-name="Grupo 947818" transform="translate(0 0)" clip-path="url(#clip-path)">
          <path id="Trazado_655612" data-name="Trazado 655612" d="M37.356,20.949q0,5.757.006,11.513a.5.5,0,0,1-.317.549q-8.995,4.353-17.978,8.734a.754.754,0,0,1-.732.015q-8.994-4.384-18-8.74A.525.525,0,0,1,0,32.441Q.012,20.928,0,9.415a.525.525,0,0,1,.335-.578Q9.358,4.476,18.37.084a.636.636,0,0,1,.626,0q9.038,4.4,18.085,8.776a.45.45,0,0,1,.281.493q-.012,5.8-.006,11.6" transform="translate(0 0)" fill="#fff"/>
          <path id="Trazado_655613" data-name="Trazado 655613" d="M21.479,39.228c0-1.067-.009-2.079.006-3.09,0-.277-.064-.346-.309-.344-.9.006-.9,0-.9,1.022v2.419c-.668-.321-1.3-.624-1.94-.932Q12.226,35.334,6.116,32.37a.467.467,0,0,1-.307-.511q.014-8.876.007-17.752c0-.207-.021-.375.221-.492q6.991-3.368,13.971-6.764a.37.37,0,0,1,.266-.074c0,1.008.006,2.019,0,3.029,0,.249.023.364.293.362.916-.008.916.006.916-1.008V6.795c.159-.069.269.052.384.107q6.872,3.328,13.745,6.66a.529.529,0,0,1,.337.58q-.015,8.834,0,17.668a.529.529,0,0,1-.33.583q-6.892,3.327-13.775,6.681c-.1.049-.207.089-.359.153" transform="translate(-2.195 -2.052)" fill="#4d793f"/>
          <path id="Trazado_655614" data-name="Trazado 655614" d="M18.807,2.507a4.058,4.058,0,0,1-.032,1.343c-.149.371-.645.4-.992.574Q10.627,7.913,3.461,11.378a.5.5,0,0,0-.319.547q.012,9.763,0,19.525A.5.5,0,0,0,3.461,32q7.527,3.639,15.047,7.3a.444.444,0,0,1,.31.512c-.028.334-.007.673-.007,1.044a4.935,4.935,0,0,1-.939-.42q-7.824-3.8-15.651-7.586a.442.442,0,0,1-.282-.486q.009-10.669,0-21.338c0-.225.025-.365.246-.472Q10.34,6.6,18.487,2.64c.089-.043.183-.077.32-.133" transform="translate(-0.733 -0.76)" fill="#4d793f"/>
          <path id="Trazado_655615" data-name="Trazado 655615" d="M30.991,40.81c0-.394.012-.8,0-1.2-.01-.252.167-.247.29-.307q3.891-1.9,7.786-3.786,3.654-1.774,7.31-3.54a.447.447,0,0,0,.286-.489q-.01-9.8,0-19.609a.47.47,0,0,0-.314-.51q-7.534-3.646-15.065-7.3a.452.452,0,0,1-.3-.521c.021-.334,0-.67,0-1.068.55.263,1.063.507,1.575.754Q40.037,6.859,47.51,10.48a.559.559,0,0,1,.357.608q-.018,10.584,0,21.169a.561.561,0,0,1-.345.616q-8.1,3.911-16.183,7.842c-.1.048-.19.144-.347.094" transform="translate(-11.706 -0.752)" fill="#4d793f"/>
          <path id="Trazado_655616" data-name="Trazado 655616" d="M21.053,19.729c0-.944,0-1.81,0-2.675,0-1.461.979-2.357,2.265-2.064.154.035.221,0,.284-.158a1.733,1.733,0,0,1,3.331-.012c.071.179.149.2.314.16A1.853,1.853,0,0,1,29.486,17c0,.224,0,.447,0,.705A1.845,1.845,0,0,1,31.9,19.637c0,3.668.008,7.336,0,11-.007,2.8-2.022,5.446-4.5,5.766a10.432,10.432,0,0,1-4.918-.236,6.789,6.789,0,0,1-4.145-6.234,46.331,46.331,0,0,0-.663-7.781,10.1,10.1,0,0,1-.218-1.061A1.8,1.8,0,0,1,19.623,19a3.186,3.186,0,0,1,1.43.729" transform="translate(-6.588 -4.114)" fill="#fff"/>
          <path id="Trazado_655617" data-name="Trazado 655617" d="M31.443,25.8c0,1.7.007,3.4,0,5.1a4.655,4.655,0,0,1-3.322,4.728,6.656,6.656,0,0,1-1.759.123,7.537,7.537,0,0,1-2.753-.289,5.468,5.468,0,0,1-3.312-5.1c-.082-2.018-.125-4.041-.373-6.047-.11-.889-.288-1.76-.47-2.632-.112-.537.14-.84.628-.755A2.131,2.131,0,0,1,21.8,23.163c.009.857,0,1.714,0,2.572a2.568,2.568,0,0,0,1.19,2.323,2.368,2.368,0,0,1,1.216,2.1c0,.184.075.2.2.2s.276,0,.414,0c.659,0,.689-.03.574-.771a3.414,3.414,0,0,0-1.56-2.541A1.694,1.694,0,0,1,23,25.409c.017-2.515.006-5.031.007-7.547a2.186,2.186,0,0,1,.014-.42c.071-.355.276-.581.6-.572a.608.608,0,0,1,.57.568,2.244,2.244,0,0,1,.016.42c0,2.009.009,4.019-.007,6.028,0,.345.092.408.373.4.84-.018.84-.006.84-.965q0-3.436,0-6.872a1.779,1.779,0,0,1,.028-.417.589.589,0,0,1,.569-.514.58.58,0,0,1,.573.507,2,2,0,0,1,.032.458c0,2.473.007,4.947-.007,7.421,0,.324.078.389.352.383.861-.017.861,0,.861-.983q0-2.8,0-5.607a.8.8,0,0,1,.33-.748.486.486,0,0,1,.6.038.852.852,0,0,1,.277.739c0,2.052.006,4.1-.009,6.156,0,.334.078.414.368.406.844-.02.844-.006.845-.96s0-1.911,0-2.867c0-.561.223-.893.595-.9s.608.33.609.884q0,2.677,0,5.354" transform="translate(-7.34 -4.704)" fill="#4d793f"/>
        </g>
      </g>
    </g>
  </g>
</svg>
