<svg xmlns="http://www.w3.org/2000/svg" xmlns:xlink="http://www.w3.org/1999/xlink" width="55" height="55" viewBox="0 0 55 55">
  <defs>
    <clipPath id="clip-path">
      <rect id="Rectángulo_336205" data-name="Rectángulo 336205" width="38.399" height="36.427" fill="none"/>
    </clipPath>
  </defs>
  <g id="Grupo_947853" data-name="Grupo 947853" transform="translate(-285 -2866)">
    <g id="Grupo_154216" data-name="Grupo 154216" transform="translate(0 876)">
      <circle id="Elipse_4814" data-name="Elipse 4814" cx="27.5" cy="27.5" r="27.5" transform="translate(285 1990)" fill="#4d793f"/>
    </g>
    <g id="Grupo_947832" data-name="Grupo 947832" transform="translate(293.207 2874)">
      <g id="Grupo_947831" data-name="Grupo 947831" clip-path="url(#clip-path)">
        <path id="Trazado_655696" data-name="Trazado 655696" d="M38.432,5.993a2.07,2.07,0,0,1-1.4,1.423,1.862,1.862,0,0,1-2.112-.807c-.145-.227-.2-.2-.36-.035-.61.625-1.233,1.239-1.851,1.858a.582.582,0,0,1-.743.144.542.542,0,0,1-.277-.6.78.78,0,0,1,.283-.426q1.233-1.23,2.465-2.462A2.24,2.24,0,0,0,34.6,3.878a.167.167,0,0,0-.056-.048,2.43,2.43,0,0,0-1.18.142q-3.6,3.6-7.226,7.226a3.322,3.322,0,0,1,1.034,1.16c.47-.473.916-.924,1.363-1.373s.882-.884,1.325-1.324c.352-.35.671-.388.936-.114.247.254.207.59-.118.916q-1.441,1.446-2.889,2.885a.765.765,0,0,0-.255.543,3.154,3.154,0,0,1-5.241,2.281.57.57,0,0,0-.4-.142q-5,0-10,0a.482.482,0,0,0-.412.183,2.989,2.989,0,0,1-2.789,1.1.779.779,0,0,0-.722.233Q5.658,19.763,3.32,21.952a1.905,1.905,0,0,1-3.208-.934A1.85,1.85,0,0,1,.7,19.154Q2.89,17.078,5.074,15a3.943,3.943,0,0,1,.384-.357,1.351,1.351,0,0,0,.529-.966A2.961,2.961,0,0,1,8.14,11.195a2.993,2.993,0,0,1,3.162.789.749.749,0,0,0,.585.233q4.7-.009,9.4,0a.635.635,0,0,0,.582-.279,2.989,2.989,0,0,1,2.872-1.235.465.465,0,0,0,.425-.156Q28.5,7.207,31.844,3.873c.151-.15.214-.211-.022-.366a1.882,1.882,0,0,1-.794-2.153A1.937,1.937,0,0,1,32.926,0q1.742,0,3.484,0a1.893,1.893,0,0,1,1.957,1.413.329.329,0,0,0,.065.083Z" transform="translate(-0.033 0)" fill="#fff"/>
        <path id="Trazado_655697" data-name="Trazado 655697" d="M86.043,56.642a1.566,1.566,0,0,1-1.655.909c-1.872-.036-3.744-.011-5.617-.012A1.234,1.234,0,0,1,77.4,56.21a4.506,4.506,0,0,1,.159-1.955c.068-.148-.131-.286-.134-.45a5.868,5.868,0,0,1,.118-2.255.259.259,0,0,0,.011-.178,4.54,4.54,0,0,1,0-2.6.213.213,0,0,0,0-.141c-.254-.468-.095-.984-.175-1.467-.085-.511.255-.977.095-1.482a5.4,5.4,0,0,1-.081-1.486,1.674,1.674,0,0,1,.143-.911.17.17,0,0,0,.02-.176c-.248-.442-.107-.93-.174-1.392-.076-.522.237-1.014.1-1.519a6.588,6.588,0,0,1-.086-1.523,1.644,1.644,0,0,1,.143-.911.184.184,0,0,0,.021-.177,4.581,4.581,0,0,1-.149-2.065,1.2,1.2,0,0,1,1.231-1.2c.649-.018,1.3-.01,1.947,0a.59.59,0,0,1,.65.576.584.584,0,0,1-.65.572c-.574.011-1.149.015-1.722,0-.267-.008-.347.085-.331.343.02.336.012.674,0,1.011-.005.182.038.269.246.268q2.94-.01,5.879,0c.2,0,.259-.086.254-.27-.008-.362-.01-.724,0-1.086.006-.2-.084-.263-.268-.26-.412,0-.824.007-1.236,0-.453-.008-.678-.2-.681-.568s.242-.579.706-.584c.3,0,.6.022.9,0a1.564,1.564,0,0,1,1.7.9v2.1a.817.817,0,0,0,0,.674v2.1a.617.617,0,0,0,0,.675v2.1a.817.817,0,0,0,0,.674v2.023a1.018,1.018,0,0,0,0,.749v2.023a1.019,1.019,0,0,0,0,.75V51.1a1.017,1.017,0,0,0,0,.749v2.023a.617.617,0,0,0,0,.675Z" transform="translate(-47.644 -21.125)" fill="#fff"/>
        <path id="Trazado_655698" data-name="Trazado 655698" d="M99.685,85.906a.426.426,0,0,1,0-.674Z" transform="translate(-61.286 -52.487)" fill="#e1e0e2"/>
        <path id="Trazado_655699" data-name="Trazado 655699" d="M99.685,50.018a.427.427,0,0,1,0-.674Z" transform="translate(-61.286 -30.387)" fill="#e0e0e2"/>
        <path id="Trazado_655700" data-name="Trazado 655700" d="M99.7,71.548a.531.531,0,0,1,0-.749Z" transform="translate(-61.303 -43.599)" fill="#e8e8ea"/>
        <path id="Trazado_655701" data-name="Trazado 655701" d="M99.7,78.765a.532.532,0,0,1,0-.749Z" transform="translate(-61.302 -48.044)" fill="#e8e7e9"/>
        <path id="Trazado_655702" data-name="Trazado 655702" d="M99.7,64.331a.531.531,0,0,1,0-.749Z" transform="translate(-61.303 -39.155)" fill="#e9e8ea"/>
        <path id="Trazado_655703" data-name="Trazado 655703" d="M99.691,57.235c-.184-.225-.244-.45,0-.674Z" transform="translate(-61.292 -34.831)" fill="#efeff0"/>
        <path id="Trazado_655704" data-name="Trazado 655704" d="M99.691,42.8a.434.434,0,0,1,0-.674Z" transform="translate(-61.292 -25.943)" fill="#efeff0"/>
        <path id="Trazado_655705" data-name="Trazado 655705" d="M55.908,48.758c1.012,0,2.023,0,3.035,0a1.224,1.224,0,0,1,1.29,1.29,4.408,4.408,0,0,1-.171,1.991.122.122,0,0,0,.009.1c.26.466.1.984.182,1.466.091.512-.267.972-.1,1.477a4.031,4.031,0,0,1,.074,1.523,12.414,12.414,0,0,0-.011,1.879,3.028,3.028,0,0,1-.164,1.835.082.082,0,0,0,.005.067,3.477,3.477,0,0,1,.163,1.877,7.246,7.246,0,0,0,0,1.685,6.3,6.3,0,0,1,.012,1.234,1.253,1.253,0,0,1-1.26,1.259q-3.072.009-6.144,0a1.214,1.214,0,0,1-1.249-1.188,4.345,4.345,0,0,1,.159-2.066.167.167,0,0,0,.005-.138,4.175,4.175,0,0,1,0-2.63.2.2,0,0,0-.008-.139,4.245,4.245,0,0,1,0-2.6.257.257,0,0,0,0-.171,4.242,4.242,0,0,1,.007-2.6.219.219,0,0,0-.014-.171,4.383,4.383,0,0,1-.11-2.177,3.036,3.036,0,0,0,0-.947,5.19,5.19,0,0,1,0-1.86,1.183,1.183,0,0,1,1.217-1c1.024,0,2.048,0,3.072,0" transform="translate(-31.737 -30.025)" fill="#fff"/>
        <path id="Trazado_655706" data-name="Trazado 655706" d="M30.146,48.757q1.5,0,3,0a1.231,1.231,0,0,1,1.313,1.273,4.209,4.209,0,0,1-.173,1.99.217.217,0,0,0,.013.137,4.278,4.278,0,0,1-.006,2.6.225.225,0,0,0,.009.172,4.394,4.394,0,0,1,.105,2.212,3.463,3.463,0,0,0,0,.911,4.6,4.6,0,0,1-.091,2.18.275.275,0,0,0-.024.2,4.266,4.266,0,0,1,0,2.6.212.212,0,0,0-.009.136,4.212,4.212,0,0,1,.17,1.991,1.24,1.24,0,0,1-1.317,1.277q-3.016,0-6.032,0A1.238,1.238,0,0,1,25.8,65.156a4.447,4.447,0,0,1,.166-1.991c.027-.054,0-.087-.011-.133a4.5,4.5,0,0,1,0-2.6.266.266,0,0,0,0-.169,4.5,4.5,0,0,1-.01-2.565c.017-.058.055-.106.016-.174a2.93,2.93,0,0,1-.172-1.355c-.037-.485.193-.973.125-1.41-.073-.469-.078-.934-.127-1.4-.051-.485.218-.963.119-1.4a8.553,8.553,0,0,1-.112-1.442c-.01-.162,0-.325,0-.487a1.244,1.244,0,0,1,1.28-1.27c1.024,0,2.048,0,3.072,0" transform="translate(-15.866 -30.025)" fill="#fff"/>
        <path id="Trazado_655707" data-name="Trazado 655707" d="M4.322,75.252c-.986,0-1.972,0-2.958,0A1.224,1.224,0,0,1,.039,73.926a5.449,5.449,0,0,1,.135-1.961c.062-.154-.14-.4-.131-.594a5.849,5.849,0,0,1,.14-2.144.151.151,0,0,0,.008-.108,4.132,4.132,0,0,1-.139-1.991A8.333,8.333,0,0,0,.045,65.69a9.224,9.224,0,0,1-.012-1.383,1.21,1.21,0,0,1,1.021-1.2,2.787,2.787,0,0,1,.483-.041q2.808,0,5.616,0c1.061,0,1.538.466,1.52,1.529a4.191,4.191,0,0,1-.155,1.771c-.049.107.118.3.122.448a5.637,5.637,0,0,1-.115,2.254.256.256,0,0,0-.006.177,4.559,4.559,0,0,1,0,2.6.223.223,0,0,0,0,.142,4.633,4.633,0,0,1,.146,2.067A1.2,1.2,0,0,1,7.392,75.25c-1.023.005-2.047,0-3.07,0" transform="translate(0 -38.837)" fill="#fff"/>
        <path id="Trazado_655708" data-name="Trazado 655708" d="M31.49,36.254a3.989,3.989,0,0,0-.063-1.549h.356c2.819,0,5.638,0,8.457-.007.3,0,.364.059.323.362a2.72,2.72,0,0,0,.169,1.194Z" transform="translate(-19.353 -21.368)" fill="#4d793f"/>
        <path id="Trazado_655709" data-name="Trazado 655709" d="M86.073,2.949c.549,0,1.1,0,1.648,0a.831.831,0,0,1,.949.934q.006,1.685,0,3.37a.792.792,0,1,1-1.566.007c-.006-.7,0-1.4,0-2.1,0-.458-.2-.649-.667-.651-.674,0-1.348,0-2.022,0-.59,0-.943-.287-.952-.768s.35-.792.965-.795c.549,0,1.1,0,1.648,0" transform="translate(-51.396 -1.815)" fill="#4d793f"/>
        <path id="Trazado_655710" data-name="Trazado 655710" d="M20.317,31.755a2,2,0,1,1-2.009,1.978,1.993,1.993,0,0,1,2.009-1.978" transform="translate(-11.274 -19.555)" fill="#4d793f"/>
        <path id="Trazado_655711" data-name="Trazado 655711" d="M62.179,32.786a2,2,0,1,1-1.972-2.005,1.972,1.972,0,0,1,1.972,2.005" transform="translate(-35.83 -18.955)" fill="#4d793f"/>
        <path id="Trazado_655712" data-name="Trazado 655712" d="M3.79,46.361a.766.766,0,0,1-.655-1.128,1.346,1.346,0,0,1,.263-.312c1.465-1.391,2.936-2.777,4.4-4.172.181-.173.281-.236.412.047a2.348,2.348,0,0,0,.666.8c.124.1.131.161.005.279Q6.63,43.987,4.392,46.113a.769.769,0,0,1-.6.249" transform="translate(-1.874 -25.003)" fill="#4d793f"/>
        <path id="Trazado_655713" data-name="Trazado 655713" d="M83.609,51.673c.948,0,1.9.008,2.845,0,.261,0,.358.076.343.341-.019.336-.014.674,0,1.01.008.214-.08.287-.284.287q-2.92-.005-5.84,0c-.192,0-.265-.073-.258-.267.011-.337.02-.675,0-1.01-.018-.276.065-.368.352-.362.948.018,1.9.007,2.845.007" transform="translate(-49.518 -31.817)" fill="#4d793f"/>
        <path id="Trazado_655714" data-name="Trazado 655714" d="M83.581,82.044c-.948,0-1.9-.007-2.844,0-.242,0-.335-.062-.322-.314.019-.348.014-.7,0-1.047-.007-.192.057-.269.253-.269q2.937.005,5.875,0c.195,0,.26.085.254.274a9.94,9.94,0,0,0,0,1.01c.021.3-.116.348-.376.345-.948-.012-1.9,0-2.844,0" transform="translate(-49.52 -49.523)" fill="#4d793f"/>
        <path id="Trazado_655715" data-name="Trazado 655715" d="M83.608,89.214c-.936,0-1.872-.013-2.807.007-.322.007-.413-.1-.39-.4a9.229,9.229,0,0,0,0-.973c-.006-.191.06-.266.258-.265q2.92.007,5.84,0c.21,0,.29.077.284.287-.011.337-.017.675,0,1.01.015.265-.083.347-.343.343-.948-.012-1.9,0-2.845,0" transform="translate(-49.516 -53.932)" fill="#4d793f"/>
        <path id="Trazado_655716" data-name="Trazado 655716" d="M83.642,44.479c.924,0,1.848.01,2.771-.006.3,0,.4.086.381.385a9.239,9.239,0,0,0,0,.973c.007.208-.071.289-.282.289q-2.921-.007-5.841,0c-.2,0-.263-.078-.257-.267a8.084,8.084,0,0,0,0-.935c-.028-.333.064-.458.427-.447.935.027,1.872.009,2.808.009" transform="translate(-49.513 -27.385)" fill="#4d793f"/>
        <path id="Trazado_655717" data-name="Trazado 655717" d="M83.592,66.081c.947,0,1.894.009,2.841-.005.267,0,.39.051.366.348a8.362,8.362,0,0,0,0,.971c.008.206-.057.285-.274.285q-2.934-.009-5.869,0c-.214,0-.243-.092-.239-.27.01-.348.018-.7,0-1.046-.015-.242.081-.289.3-.287.959.01,1.919,0,2.878,0" transform="translate(-49.519 -40.69)" fill="#4d793f"/>
        <path id="Trazado_655718" data-name="Trazado 655718" d="M83.574,60.489c-.947,0-1.894-.007-2.841,0-.237,0-.337-.051-.321-.309a10.451,10.451,0,0,0,0-1.047c-.007-.2.06-.257.257-.256q2.917.009,5.833,0c.238,0,.3.089.293.308a8.909,8.909,0,0,0,0,.972c.018.274-.094.336-.345.333-.96-.011-1.919,0-2.879,0" transform="translate(-49.518 -36.259)" fill="#4d793f"/>
        <path id="Trazado_655719" data-name="Trazado 655719" d="M83.569,74.863c-.947,0-1.894-.008-2.842.005-.246,0-.327-.069-.313-.315a8.665,8.665,0,0,0,0-1.009c-.014-.24.084-.292.3-.291q2.879.009,5.758,0c.235,0,.342.06.325.316a6.013,6.013,0,0,0,0,.934c.029.318-.112.369-.39.365-.947-.014-1.894-.005-2.842-.005" transform="translate(-49.52 -45.111)" fill="#4d793f"/>
        <path id="Trazado_655720" data-name="Trazado 655720" d="M57.8,89.211c-.935,0-1.869-.008-2.8.005-.267,0-.39-.054-.369-.348a9.709,9.709,0,0,0,0-1.009c-.007-.205.058-.286.276-.285q2.9.01,5.795,0c.234,0,.308.088.3.308-.01.324-.017.649,0,.972.016.277-.081.368-.363.364-.947-.015-1.894-.006-2.841-.006" transform="translate(-33.641 -53.93)" fill="#4d793f"/>
        <path id="Trazado_655721" data-name="Trazado 655721" d="M57.8,51.675c.959,0,1.919.008,2.878-.005.246,0,.338.071.328.316-.013.336-.011.673,0,1.009.007.218-.062.315-.3.315q-2.9-.009-5.794,0c-.211,0-.288-.074-.281-.284.012-.348.017-.7,0-1.046-.014-.256.091-.312.327-.308.947.012,1.894,0,2.841,0" transform="translate(-33.644 -31.819)" fill="#4d793f"/>
        <path id="Trazado_655722" data-name="Trazado 655722" d="M57.842,82.04c-.961,0-1.923-.007-2.884,0-.238,0-.339-.055-.325-.31.019-.336.015-.675,0-1.011-.01-.22.051-.312.29-.312q2.884.012,5.768,0c.255,0,.325.1.315.334a9.274,9.274,0,0,0,0,.936c.016.272-.069.37-.357.364-.936-.018-1.873-.007-2.809-.007" transform="translate(-33.644 -49.52)" fill="#4d793f"/>
        <path id="Trazado_655723" data-name="Trazado 655723" d="M57.83,73.256c.935,0,1.871.008,2.806,0,.266,0,.393.057.372.351a6.9,6.9,0,0,0,0,.935c.017.272-.1.332-.348.33q-2.844-.014-5.688,0c-.255,0-.359-.055-.34-.327a7.4,7.4,0,0,0,0-.972c-.015-.248.072-.32.317-.317.96.012,1.921,0,2.881,0" transform="translate(-33.641 -45.109)" fill="#4d793f"/>
        <path id="Trazado_655724" data-name="Trazado 655724" d="M57.815,67.679c-.96,0-1.921-.007-2.881,0-.222,0-.315-.046-.3-.287.02-.348.011-.7,0-1.047,0-.177.028-.27.242-.269q2.936.01,5.872,0c.2,0,.26.083.257.267-.007.349-.013.7,0,1.047.01.24-.1.29-.313.287-.96-.009-1.92,0-2.88,0" transform="translate(-33.643 -40.693)" fill="#4d793f"/>
        <path id="Trazado_655725" data-name="Trazado 655725" d="M57.843,58.881c.948,0,1.9.009,2.844-.006.254,0,.33.081.321.32-.013.336-.011.673,0,1.01.007.211-.074.284-.284.283q-2.919-.008-5.837,0c-.2,0-.257-.076-.251-.265.011-.337.018-.674,0-1.01-.015-.255.058-.343.328-.339.96.017,1.921.007,2.881.007" transform="translate(-33.643 -36.256)" fill="#4d793f"/>
        <path id="Trazado_655726" data-name="Trazado 655726" d="M31.981,77.629c-.936,0-1.873-.013-2.809.008-.31.007-.393-.1-.374-.387a7.375,7.375,0,0,0,0-.9c-.014-.254.065-.368.337-.35A6.2,6.2,0,0,0,29.959,76a.532.532,0,0,0,.556-.571.557.557,0,0,0-.574-.562,6.472,6.472,0,0,0-.824,0c-.261.022-.326-.09-.317-.323a8.734,8.734,0,0,0,0-.935c-.02-.287.092-.36.366-.357,1.51.011,3.021.005,4.531.005.4,0,.8.009,1.2,0,.21-.007.288.063.279.278-.015.349-.017.7,0,1.048.013.239-.08.292-.3.288-.749-.013-1.5,0-2.247,0a.569.569,0,0,0-.6.459.536.536,0,0,0,.274.6.819.819,0,0,0,.471.081c.687,0,1.373.01,2.06,0,.252,0,.364.061.346.333a7.28,7.28,0,0,0,0,.973c.019.277-.1.33-.347.327-.949-.013-1.9-.005-2.846-.005" transform="translate(-17.733 -45.109)" fill="#4d793f"/>
        <path id="Trazado_655727" data-name="Trazado 655727" d="M32.015,87.577c.947,0,1.894.007,2.841,0,.246,0,.333.073.32.319-.017.335-.013.673,0,1.009.007.212-.042.316-.287.315q-2.9-.012-5.795,0c-.208,0-.3-.071-.29-.281.008-.349.013-.7,0-1.047-.01-.253.1-.315.334-.313.96.01,1.919,0,2.879,0" transform="translate(-17.736 -53.928)" fill="#4d793f"/>
        <path id="Trazado_655728" data-name="Trazado 655728" d="M32.019,51.675c.947,0,1.894.008,2.841-.005.249,0,.33.075.317.318-.017.335-.014.673,0,1.009.008.217-.051.313-.29.313q-2.9-.01-5.794,0c-.208,0-.293-.077-.287-.286.009-.336.014-.673,0-1.009-.012-.254.068-.349.338-.345.959.015,1.919.006,2.878.006" transform="translate(-17.737 -31.818)" fill="#4d793f"/>
        <path id="Trazado_655729" data-name="Trazado 655729" d="M31.929,66c.96,0,1.921.007,2.88-.005.229,0,.309.06.3.293-.018.348-.012.7,0,1.047.005.184-.038.265-.246.264q-2.937-.01-5.873,0c-.171,0-.262-.052-.25-.232,0-.025,0-.05,0-.075.03-.419-.178-.956.091-1.225.232-.231.761-.058,1.158-.063.648-.008,1.3,0,1.945,0" transform="translate(-17.666 -40.61)" fill="#4d793f"/>
        <path id="Trazado_655730" data-name="Trazado 655730" d="M32,60.489c-.948,0-1.9-.009-2.844.006-.277,0-.382-.075-.363-.358.022-.323.012-.649,0-.973-.005-.2.062-.284.28-.283q2.919.011,5.838,0c.2,0,.26.068.254.259-.011.349-.019.7,0,1.047.016.261-.093.309-.326.307-.948-.011-1.9,0-2.844,0" transform="translate(-17.732 -36.26)" fill="#4d793f"/>
        <path id="Trazado_655731" data-name="Trazado 655731" d="M6.18,82.039c-.948,0-1.9-.008-2.844,0-.259,0-.361-.071-.344-.339a6.717,6.717,0,0,0,0-.935c-.022-.287.088-.362.362-.36,1.123.012,2.245,0,3.368,0,.773,0,1.547.01,2.32,0,.262,0,.353.076.336.34a8.211,8.211,0,0,0,0,.972c.013.243-.065.325-.315.321-.96-.013-1.921-.005-2.881-.005" transform="translate(-1.841 -49.518)" fill="#4d793f"/>
        <path id="Trazado_655732" data-name="Trazado 655732" d="M6.184,89.214c-.948,0-1.9-.007-2.845,0-.259,0-.36-.075-.345-.342.02-.336.013-.674,0-1.01-.007-.208.07-.289.281-.288q2.919.007,5.84,0c.2,0,.265.071.26.264-.01.362-.016.724,0,1.085.012.245-.1.292-.312.29-.961-.007-1.922,0-2.883,0" transform="translate(-1.843 -53.932)" fill="#4d793f"/>
        <path id="Trazado_655733" data-name="Trazado 655733" d="M6.194,66.078c.947,0,1.894.012,2.841-.007.289-.006.365.084.346.358a9.817,9.817,0,0,0,0,1.009c.005.176-.051.238-.232.238q-2.953-.008-5.907,0c-.212,0-.246-.1-.242-.277.008-.337.017-.674,0-1.009-.014-.25.079-.319.32-.316.96.012,1.919,0,2.879,0" transform="translate(-1.843 -40.687)" fill="#4d793f"/>
        <path id="Trazado_655734" data-name="Trazado 655734" d="M6.186,74.86c-.947,0-1.895-.01-2.842.006-.285.005-.373-.088-.353-.363a5.971,5.971,0,0,0,0-.9c-.023-.286.084-.36.36-.358,1.458.012,2.917.005,4.375.005.436,0,.873.012,1.309,0,.249-.009.363.05.343.327a7.387,7.387,0,0,0,0,.972c.014.242-.061.322-.311.318-.959-.013-1.919-.005-2.879-.005" transform="translate(-1.84 -45.108)" fill="#4d793f"/>
      </g>
    </g>
  </g>
</svg>
