<svg xmlns="http://www.w3.org/2000/svg" xmlns:xlink="http://www.w3.org/1999/xlink" width="297.153" height="215.496" viewBox="0 0 297.153 215.496">
  <defs>
    <filter id="Trazado_114355" x="0" y="6.556" width="297.153" height="208.94" filterUnits="userSpaceOnUse">
      <feOffset dy="3" input="SourceAlpha"/>
      <feGaussianBlur stdDeviation="3" result="blur"/>
      <feFlood flood-opacity="0.161"/>
      <feComposite operator="in" in2="blur"/>
      <feComposite in="SourceGraphic"/>
    </filter>
    <clipPath id="clip-path">
      <rect id="Rectángulo_336054" data-name="Rectángulo 336054" width="191.814" height="204.741" fill="none"/>
    </clipPath>
    <clipPath id="clip-path-5">
      <rect id="Rectángulo_336043" data-name="Rectángulo 336043" width="14.84" height="6.864" fill="none"/>
    </clipPath>
    <clipPath id="clip-path-6">
      <rect id="Rectángulo_336044" data-name="Rectángulo 336044" width="16.903" height="5.017" fill="none"/>
    </clipPath>
    <clipPath id="clip-path-8">
      <rect id="Rectángulo_336046" data-name="Rectángulo 336046" width="27.854" height="25.379" fill="none"/>
    </clipPath>
    <clipPath id="clip-path-9">
      <rect id="Rectángulo_336047" data-name="Rectángulo 336047" width="5.5" height="8.287" fill="none"/>
    </clipPath>
    <clipPath id="clip-path-10">
      <rect id="Rectángulo_336048" data-name="Rectángulo 336048" width="8.24" height="33.749" fill="none"/>
    </clipPath>
    <clipPath id="clip-path-11">
      <rect id="Rectángulo_336049" data-name="Rectángulo 336049" width="13.728" height="6.277" fill="none"/>
    </clipPath>
    <clipPath id="clip-path-12">
      <rect id="Rectángulo_336050" data-name="Rectángulo 336050" width="16.938" height="17.372" fill="none"/>
    </clipPath>
    <clipPath id="clip-path-13">
      <rect id="Rectángulo_336051" data-name="Rectángulo 336051" width="5.014" height="14.695" fill="none"/>
    </clipPath>
    <clipPath id="clip-path-14">
      <rect id="Rectángulo_336052" data-name="Rectángulo 336052" width="13.912" height="35.139" fill="none"/>
    </clipPath>
  </defs>
  <g id="Grupo_947850" data-name="Grupo 947850" transform="translate(-1002.755 -1591.544)">
    <g transform="matrix(1, 0, 0, 1, 1002.75, 1591.54)" filter="url(#Trazado_114355)">
      <path id="Trazado_114355-2" data-name="Trazado 114355" d="M541.049,346.85c-6.106,0-33.633.007-68.558,0-9.643,0-19.853-.005-30.329-.009-7.949,0-16.054-.007-24.186-.012L404.2,346.82c-61.47-.048-71.267.639-81.023.029-18.149,0-64.633-70.531-9.3-116.841,21.488-17.982-6.09-41.873,29.6-59.816,23.47-11.8,40.518,8.93,68.851,1.462,20.932-5.517,25.19-18.459,66.573-14.873,39.8,3.449,40.6,36.124,27.972,63.106-7.971,17.035,31.111,11.775,49.184,37.2C586.91,300.481,541.323,346.2,541.049,346.85Z" transform="translate(-278.62 -143.61)" fill="#ffe293"/>
    </g>
    <rect id="Rectángulo_335185" data-name="Rectángulo 335185" width="258.045" height="1.116" rx="0.558" transform="translate(1021.755 1794.04)" fill="#233862"/>
    <g id="Grupo_947547" data-name="Grupo 947547" transform="translate(1041.755 1591.544)">
      <g id="Grupo_947546" data-name="Grupo 947546" clip-path="url(#clip-path)">
        <g id="Grupo_947512" data-name="Grupo 947512">
          <g id="Grupo_947511" data-name="Grupo 947511" clip-path="url(#clip-path)">
            <path id="Trazado_654042" data-name="Trazado 654042" d="M154.985,124.457a1.951,1.951,0,0,1-.353-.05l-1.005-.189-.726-.142c-.263-.06-.545-.143-.851-.223-.608-.17-1.311-.329-2.057-.607l-1.181-.4c-.41-.144-.82-.333-1.254-.508-.874-.336-1.762-.8-2.707-1.258a35.99,35.99,0,0,1-10.669-8.451c-.667-.813-1.317-1.573-1.845-2.347-.269-.382-.548-.739-.781-1.1l-.664-1.057c-.441-.663-.757-1.311-1.062-1.863-.148-.279-.293-.534-.411-.777l-.3-.674-.414-.935a2.019,2.019,0,0,1-.129-.332,1.953,1.953,0,0,1,.173.313l.454.915.322.663c.124.239.275.49.428.765.315.544.639,1.184,1.087,1.838l.674,1.043c.236.361.517.713.789,1.091.531.765,1.184,1.515,1.851,2.32a36.808,36.808,0,0,0,10.6,8.4c.936.465,1.816.929,2.682,1.271.429.178.836.37,1.242.518l1.17.417c.739.286,1.436.456,2.037.638.3.086.582.175.843.241l.719.162.994.232a2.02,2.02,0,0,1,.344.1" transform="translate(-69.654 -56.091)" fill="#263238"/>
            <path id="Trazado_654043" data-name="Trazado 654043" d="M149.146,133.869a1.427,1.427,0,0,1-.291-.071l-.819-.249c-.357-.107-.79-.247-1.284-.437s-1.065-.38-1.674-.651-1.286-.542-1.987-.891c-.713-.325-1.445-.73-2.222-1.145a42.063,42.063,0,0,1-9.142-6.857c-.616-.63-1.21-1.219-1.722-1.813-.532-.575-.994-1.14-1.412-1.658s-.776-1-1.093-1.425-.576-.8-.779-1.109l-.468-.717a1.406,1.406,0,0,1-.15-.259,1.449,1.449,0,0,1,.19.232l.5.691c.214.3.48.671.809,1.083s.681.9,1.118,1.4.892,1.065,1.427,1.632c.516.585,1.112,1.167,1.729,1.789a43.917,43.917,0,0,0,9.1,6.822c.77.418,1.5.828,2.2,1.159.694.356,1.358.648,1.966.913.6.28,1.167.483,1.655.681s.915.354,1.266.474l.8.291a1.408,1.408,0,0,1,.276.117" transform="translate(-68.317 -63.161)" fill="#263238"/>
            <path id="Trazado_654044" data-name="Trazado 654044" d="M28.909,266.367a.882.882,0,0,1,.033.166c.018.122.042.284.072.49l.254,1.885.178,1.362c.078.5.195,1.03.3,1.606.234,1.149.433,2.471.836,3.892q.275,1.073.574,2.244c.2.779.491,1.568.746,2.4.279.821.505,1.692.864,2.545L33.8,285.61a70.012,70.012,0,0,0,13.665,21.223l1.993,2.036c.628.68,1.327,1.247,1.959,1.839.648.576,1.248,1.163,1.872,1.672l1.8,1.451c1.127.955,2.249,1.683,3.2,2.371.48.336.917.664,1.337.94l1.166.725,1.61,1.012.416.268a.876.876,0,0,1,.138.1.978.978,0,0,1-.15-.077l-.428-.248-1.635-.974-1.18-.71c-.423-.271-.866-.593-1.35-.925-.958-.68-2.089-1.4-3.226-2.349l-1.819-1.443c-.629-.506-1.234-1.092-1.887-1.666-.637-.592-1.34-1.158-1.973-1.836L47.3,306.984a69.1,69.1,0,0,1-13.708-21.29q-.525-1.371-1.023-2.669c-.356-.857-.58-1.731-.855-2.556-.252-.833-.535-1.625-.735-2.407l-.56-2.253c-.394-1.427-.582-2.755-.8-3.908-.1-.579-.211-1.114-.283-1.612s-.11-.955-.158-1.367c-.09-.811-.16-1.446-.21-1.893-.021-.207-.037-.369-.049-.492a.866.866,0,0,1-.008-.169" transform="translate(-15.66 -144.306)" fill="#263238"/>
            <path id="Trazado_654045" data-name="Trazado 654045" d="M18.443,270.84a.925.925,0,0,1,.033.167l.072.49.254,1.885.178,1.362c.078.5.195,1.03.3,1.606.234,1.149.433,2.471.836,3.892q.275,1.073.574,2.244c.2.779.491,1.568.746,2.4.279.821.505,1.692.864,2.545l1.029,2.657A70.01,70.01,0,0,0,37,311.307l1.993,2.036c.628.68,1.327,1.247,1.959,1.839.648.576,1.248,1.163,1.872,1.672l1.805,1.451c1.126.955,2.249,1.683,3.2,2.371.48.336.917.664,1.337.94l1.166.725,1.61,1.012.416.269a.869.869,0,0,1,.138.1,1.051,1.051,0,0,1-.15-.077l-.428-.248-1.635-.975-1.18-.709c-.423-.271-.866-.593-1.35-.925-.958-.68-2.089-1.4-3.226-2.349L42.7,317c-.629-.506-1.234-1.092-1.887-1.666-.637-.592-1.34-1.158-1.973-1.836l-2.007-2.036a69.1,69.1,0,0,1-13.708-21.29L22.106,287.5c-.356-.857-.58-1.731-.855-2.557-.252-.832-.535-1.625-.735-2.407l-.56-2.253c-.394-1.427-.582-2.755-.8-3.908-.1-.579-.211-1.114-.283-1.613s-.11-.955-.158-1.367c-.09-.811-.16-1.446-.21-1.893-.021-.207-.037-.369-.049-.492a.921.921,0,0,1-.008-.169" transform="translate(-9.991 -146.729)" fill="#263238"/>
          </g>
        </g>
        <rect id="Rectángulo_336041" data-name="Rectángulo 336041" width="42.49" height="29.382" transform="translate(18.607 41.248) rotate(-76.114)" fill="#263238"/>
        <g id="Grupo_947514" data-name="Grupo 947514">
          <g id="Grupo_947513" data-name="Grupo 947513" clip-path="url(#clip-path)">
            <path id="Trazado_654046" data-name="Trazado 654046" d="M105.665,54.5a9.6,9.6,0,0,1-4.57-1.112l1.109-2.005a7.5,7.5,0,0,0,6.113.313A4.6,4.6,0,0,0,111,48.342,4.37,4.37,0,0,0,110.482,45a6.349,6.349,0,0,0-3.867-2.594l.5-2.235a8.623,8.623,0,0,1,5.309,3.619,6.675,6.675,0,0,1,.81,5.031,6.887,6.887,0,0,1-3.985,4.963,8.879,8.879,0,0,1-3.587.713" transform="translate(-54.769 -21.766)" fill="#263238"/>
            <path id="Trazado_654047" data-name="Trazado 654047" d="M43.132,79.789a1.447,1.447,0,0,1,.295.052l.833.2,3.052.76,10.046,2.595,10.03,2.663,3.033.834.822.238a1.429,1.429,0,0,1,.283.1,1.372,1.372,0,0,1-.294-.052l-.833-.195-3.051-.76L57.3,83.622l-10.03-2.663-3.033-.833-.822-.238a1.431,1.431,0,0,1-.282-.1" transform="translate(-23.367 -43.225)" fill="#455a64"/>
            <path id="Trazado_654048" data-name="Trazado 654048" d="M74.884,44.7c-.064-.016,1.894-8.16,4.373-18.188S83.8,8.365,83.863,8.381s-1.894,8.158-4.373,18.19-4.541,18.146-4.6,18.13" transform="translate(-40.568 -4.54)" fill="#455a64"/>
            <path id="Trazado_654049" data-name="Trazado 654049" d="M84.879,40.989a1.054,1.054,0,0,0-1.312-.664,1.155,1.155,0,0,0-.7,1.4,1.128,1.128,0,0,0,1.4.685,1.1,1.1,0,0,0,.615-1.419" transform="translate(-44.867 -21.817)" fill="#455a64"/>
            <path id="Trazado_654050" data-name="Trazado 654050" d="M40.6,84.463A8.828,8.828,0,0,1,41.984,84c.861-.257,2.055-.6,3.378-.957l-.053.2,0,0-2.5-2.468-.761-.742a1.723,1.723,0,0,0-.284-.251c.093-.149,1.761,1.368,3.711,3.291l0,0,.147.146-.2.055c-1.323.36-2.524.674-3.4.889a8.826,8.826,0,0,1-1.425.3" transform="translate(-21.997 -43.215)" fill="#455a64"/>
            <path id="Trazado_654051" data-name="Trazado 654051" d="M75.371,93.159c-.016.064-5.432-1.25-12.094-2.934s-12.053-3.1-12.037-3.166,5.43,1.25,12.095,2.935,12.052,3.1,12.036,3.166" transform="translate(-27.76 -47.164)" fill="#455a64"/>
          </g>
        </g>
        <g id="Grupo_947522" data-name="Grupo 947522">
          <g id="Grupo_947521" data-name="Grupo 947521" clip-path="url(#clip-path)">
            <path id="Trazado_654052" data-name="Trazado 654052" d="M72.395,418.789a35.619,35.619,0,0,1-2.578-4.28,18.165,18.165,0,0,1,0-3.59l1.7-1.816a10.8,10.8,0,0,0-.184-3.017h2.117a8.936,8.936,0,0,0-.276,3.017l2.669,3.841s3.038,5.017,3.867,5.524,5.662,2.393,5.662,2.393S90.3,422.2,91.5,423.668c0,0,.45,1.036-.489,1.07s-8.165-.84-8.165-.84l-7.549-3.36-3.13-3.268Z" transform="translate(-37.768 -219.999)" fill="#f9a21b"/>
            <path id="Trazado_654053" data-name="Trazado 654053" d="M60.127,431.691c-.044-.066-8.763-.08-10.045,0s-2.564.6-2.612,1.078,2.8,1.472,4.559,1.852a27.8,27.8,0,0,0,6.886,0,10.828,10.828,0,0,0,3.494-1.732l-2.295-2.4Z" transform="translate(-25.717 -233.222)" fill="#f9a21b"/>
            <path id="Trazado_654054" data-name="Trazado 654054" d="M72.7,404.3l-.564-1.011,1.6-.8,1.566.905-.62,1.1Z" transform="translate(-39.081 -218.052)" fill="#263238"/>
            <path id="Trazado_654055" data-name="Trazado 654055" d="M80.428,417.212c.2.018,5.779,5.3,7.512,5.679s9.469.65,9.469.65l3.64.758s-13.913.663-14.87.3a8.071,8.071,0,0,1-2.285-2.124Z" transform="translate(-43.572 -226.027)" fill="#f9a21b"/>
            <g id="Grupo_947517" data-name="Grupo 947517" transform="translate(21.754 194.793)" opacity="0.5">
              <g id="Grupo_947516" data-name="Grupo 947516">
                <g id="Grupo_947515" data-name="Grupo 947515" clip-path="url(#clip-path-5)">
                  <path id="Trazado_654056" data-name="Trazado 654056" d="M47.6,429.589a14.464,14.464,0,0,0,5.311,1.23,29.745,29.745,0,0,0,7.33-.615,1.383,1.383,0,0,0,.222-1.692l-2.033-3.428,1.933,2.776,1.944,2.182a7.694,7.694,0,0,1-3.106,1.592,24.816,24.816,0,0,1-6.749.148c-.643-.108-4.721-.986-4.986-1.943Z" transform="translate(-47.472 -425.084)" fill="#fff"/>
                </g>
              </g>
            </g>
            <path id="Trazado_654057" data-name="Trazado 654057" d="M70.918,424.326a5.379,5.379,0,0,1,.665.9c.389.568.922,1.354,1.588,2.159,1.373,1.575,2.605,2.769,2.547,2.824a4.851,4.851,0,0,1-.855-.724,24.852,24.852,0,0,1-1.877-1.948,17.856,17.856,0,0,1-1.546-2.221,5.067,5.067,0,0,1-.523-.991" transform="translate(-38.419 -229.881)" fill="#263238"/>
            <g id="Grupo_947520" data-name="Grupo 947520" transform="translate(38.489 193.664)" opacity="0.5">
              <g id="Grupo_947519" data-name="Grupo 947519">
                <g id="Grupo_947518" data-name="Grupo 947518" clip-path="url(#clip-path-6)">
                  <path id="Trazado_654058" data-name="Trazado 654058" d="M83.992,422.621a11.007,11.007,0,0,0,6.393,3.9,74.784,74.784,0,0,0,10.509.8s-7.569.284-11.005.314a10.866,10.866,0,0,1-1.674-.083,5.864,5.864,0,0,1-2.026-1.676c-.365-.476-2.2-3.258-2.2-3.258" transform="translate(-83.992 -422.621)" fill="#fff"/>
                </g>
              </g>
            </g>
            <path id="Trazado_654059" data-name="Trazado 654059" d="M81.962,420.006a17.7,17.7,0,0,1,2.133,2.863l1.385,2.1a5.276,5.276,0,0,1,.549.891A17.72,17.72,0,0,1,83.9,423l-1.385-2.1a5.3,5.3,0,0,1-.549-.891" transform="translate(-44.402 -227.54)" fill="#263238"/>
            <path id="Trazado_654060" data-name="Trazado 654060" d="M92.177,432.513a5.016,5.016,0,0,1-.761-.236l-2.043-.726-3.019-1.105c-1.13-.43-2.394-.851-3.672-1.44a11.109,11.109,0,0,1-3.251-2.253,17.772,17.772,0,0,1-2.057-2.488c-.525-.753-.916-1.383-1.183-1.821a4.89,4.89,0,0,1-.39-.694,5.275,5.275,0,0,1,.468.643c.291.422.7,1.037,1.242,1.773a19.044,19.044,0,0,0,2.074,2.429,11.193,11.193,0,0,0,3.2,2.194c1.259.581,2.522,1.01,3.649,1.451l3,1.153,2.016.8a5.027,5.027,0,0,1,.728.323" transform="translate(-41.065 -228.485)" fill="#263238"/>
            <path id="Trazado_654061" data-name="Trazado 654061" d="M61.142,434.453a7.926,7.926,0,0,1-1.435.143c-.889.052-2.119.092-3.478.088s-2.589-.055-3.478-.114a7.991,7.991,0,0,1-1.434-.154,9.387,9.387,0,0,1,1.441-.014c.889.016,2.116.038,3.472.044s2.582-.008,3.471-.017a9.4,9.4,0,0,1,1.441.025" transform="translate(-27.801 -235.333)" fill="#263238"/>
            <path id="Trazado_654062" data-name="Trazado 654062" d="M70.89,418.246c-.032.005-.094-.177-.159-.483a3.8,3.8,0,0,1-.067-1.228,2.1,2.1,0,0,1,.5-1.141c.224-.24.421-.306.434-.281s-.134.145-.3.388a2.426,2.426,0,0,0-.394,1.066,6.108,6.108,0,0,0,0,1.174c.021.306.025.5-.009.505" transform="translate(-38.27 -224.887)" fill="#fff"/>
            <path id="Trazado_654063" data-name="Trazado 654063" d="M74.384,409.6a16.512,16.512,0,0,1,.025-2.185,3.049,3.049,0,0,1-.025,2.185" transform="translate(-40.277 -220.721)" fill="#fff"/>
            <path id="Trazado_654064" data-name="Trazado 654064" d="M52.076,433.529c-.008.07-.673.027-1.477.14s-1.434.324-1.46.259a3.827,3.827,0,0,1,2.937-.4" transform="translate(-26.621 -234.791)" fill="#fff"/>
            <path id="Trazado_654065" data-name="Trazado 654065" d="M59.279,433.526c0,.066-.318.125-.713.132s-.716-.041-.717-.107.318-.125.713-.132.716.041.717.107" transform="translate(-31.34 -234.807)" fill="#fff"/>
            <path id="Trazado_654066" data-name="Trazado 654066" d="M79.739,432.973a11.457,11.457,0,0,1-3.023-2.874,13.1,13.1,0,0,1,1.544,1.4,13.1,13.1,0,0,1,1.479,1.471" transform="translate(-41.56 -233.007)" fill="#fff"/>
            <path id="Trazado_654067" data-name="Trazado 654067" d="M152.175,436.719a1.8,1.8,0,0,1-.318.113c-.212.063-.526.154-.936.248a18.2,18.2,0,0,1-3.533.454c-1.51.07-3.3-.189-5.266-.155a9.372,9.372,0,0,0-3.016.539,19.432,19.432,0,0,1-3.193,1.037,9.139,9.139,0,0,1-3.353-.272,6.969,6.969,0,0,0-3.039-.112,10.542,10.542,0,0,0-2.572,1.056,17.551,17.551,0,0,1-2.224,1.063,5.394,5.394,0,0,1-2.008.366,3.917,3.917,0,0,1-1.506-.327,2.528,2.528,0,0,1-.8-.56,1.172,1.172,0,0,1-.2-.272,2.891,2.891,0,0,0,1.037.746,4.574,4.574,0,0,0,3.418-.112,17.892,17.892,0,0,0,2.189-1.078,10.6,10.6,0,0,1,2.617-1.1,7.135,7.135,0,0,1,3.133.1,9,9,0,0,0,3.27.266,19.659,19.659,0,0,0,3.155-1.022,9.516,9.516,0,0,1,3.087-.538c2-.021,3.773.255,5.268.207a19.928,19.928,0,0,0,3.517-.376c.411-.08.728-.156.944-.2a1.768,1.768,0,0,1,.331-.067" transform="translate(-65.125 -236.594)" fill="#263238"/>
            <path id="Trazado_654068" data-name="Trazado 654068" d="M170.329,437.046c0,.023-.352.084-.982.252s-1.531.443-2.63.835a27.924,27.924,0,0,1-3.935,1.2,10.362,10.362,0,0,1-2.438.116l-2.6-.117a17.48,17.48,0,0,0-4.965.352c-1.494.356-2.822.8-3.979,1.009a7.58,7.58,0,0,1-2.773.086,4.343,4.343,0,0,1-.73-.2,1.066,1.066,0,0,1-.243-.1,1.09,1.09,0,0,1,.257.055,5.552,5.552,0,0,0,.73.154,7.936,7.936,0,0,0,2.725-.159c1.14-.229,2.454-.685,3.962-1.057a17.263,17.263,0,0,1,5.024-.377l2.6.122a10.3,10.3,0,0,0,2.391-.1,30.02,30.02,0,0,0,3.918-1.147,25.77,25.77,0,0,1,2.664-.766c.32-.072.571-.113.742-.136a1.078,1.078,0,0,1,.262-.026" transform="translate(-78.584 -236.77)" fill="#263238"/>
            <path id="Trazado_654069" data-name="Trazado 654069" d="M208.741,436.26a6.371,6.371,0,0,1-2.452.1,6.372,6.372,0,0,1,2.452-.1" transform="translate(-111.758 -236.303)" fill="#263238"/>
          </g>
        </g>
        <g id="Grupo_947545" data-name="Grupo 947545">
          <g id="Grupo_947544" data-name="Grupo 947544" clip-path="url(#clip-path)">
            <path id="Trazado_654070" data-name="Trazado 654070" d="M213.5,121.91c-.437-.007-12.686,20.361-15.31,22.438s-11.808,6.342-13.23,8.2a11.147,11.147,0,0,0-1.859,3.5l12.534,11.48,9.932-6.669,23.892-37.993,3.554-6.636-2.959-2-5.708-.895Z" transform="translate(-99.195 -61.4)" fill="#455a64"/>
            <g id="Grupo_947525" data-name="Grupo 947525" transform="translate(84.756 73.265)" opacity="0.3">
              <g id="Grupo_947524" data-name="Grupo 947524">
                <g id="Grupo_947523" data-name="Grupo 947523" clip-path="url(#clip-path-8)">
                  <path id="Trazado_654071" data-name="Trazado 654071" d="M184.961,181.186s-.244-1.559,4.224-4.128,12.51-6.478,15.19-9.159,8.438-8.017,8.438-8.017l-12.826,25.379-15.028-3.217" transform="translate(-184.959 -159.882)"/>
                </g>
              </g>
            </g>
            <path id="Trazado_654072" data-name="Trazado 654072" d="M215.921,21.222s.07-3.927,0-5.387a12.217,12.217,0,0,1,2.259-5.665,1.253,1.253,0,0,0,.521-1.181s-.452-4.449.834-4.97l.557.159s.344,4.716.379,4.821.454.3.871-.323a13.909,13.909,0,0,0,.921-2.782,7.127,7.127,0,0,1,.1-2.5,1.56,1.56,0,0,1,.955-.779l.351-.093a26.245,26.245,0,0,1,.208,4.414c-.208.764-.556,2.464-.556,2.464l.3-.089,1.523-3.638s.451-3.424,1.355-3.842.73.174.73.174a38.064,38.064,0,0,1-.368,4.468c-.1.34-1.354,3.485-1.354,3.485h.591l1.384-2.856s.607-3.149,1.615-3.079l.72.27s-.9,4.1-.9,4.309-2.39,4.33-2.39,4.33l.008.486.8-.487a2.794,2.794,0,0,1,1.756-.714c1.251-.139,1.529.452,1.529.452l-2.22,1.748a31.367,31.367,0,0,1-2.993,2.6,18.787,18.787,0,0,1-3.265,1.217c-.315.034-.514,1.334-.514,1.334l.063.991Z" transform="translate(-116.975 -0.913)" fill="#ae7461"/>
            <path id="Trazado_654073" data-name="Trazado 654073" d="M227.176,28.869c-.015.039-.424-.142-1.122-.25a5.3,5.3,0,0,0-4.912,1.817c-.459.537-.652.939-.689.92a2.741,2.741,0,0,1,.558-1.026,5.046,5.046,0,0,1,5.074-1.877,2.734,2.734,0,0,1,1.092.416" transform="translate(-119.431 -15.355)" fill="#6f4439"/>
            <path id="Trazado_654074" data-name="Trazado 654074" d="M230.872,18.871a11.307,11.307,0,0,0-7.106-1.007,3.354,3.354,0,0,1,1.047-.286,8.763,8.763,0,0,1,5.134.727,3.344,3.344,0,0,1,.926.566" transform="translate(-121.226 -9.462)" fill="#6f4439"/>
            <path id="Trazado_654075" data-name="Trazado 654075" d="M211.674,43.334s-.232-1.962-.261-2.536a.068.068,0,0,1,.064-.071l8-.735.375,2.315Z" transform="translate(-114.534 -21.666)" fill="#e0e0e0"/>
            <path id="Trazado_654076" data-name="Trazado 654076" d="M207.21,44.973c0,.361,1.808,21.473,3.731,24.718s15.747,15.658,15.747,15.658l11.646-9.374-17.452-14.3-2.912-18.223Z" transform="translate(-112.257 -23.54)" fill="#455a64"/>
            <path id="Trazado_654077" data-name="Trazado 654077" d="M243.333,136.687a1.684,1.684,0,0,1,.075-.328c.061-.211.136-.529.27-.925.254-.8.673-1.933,1.249-3.314s1.317-3,2.188-4.773c.437-.886.9-1.814,1.4-2.766l.77-1.448.407-.735.108-.184a1.628,1.628,0,0,1,.129-.2.17.17,0,0,1,.143-.094.838.838,0,0,1,.133,0c.075.007.148.014.22.025.862.133,1.685.318,2.492.494l-.142.133c-.15-1-.3-1.968-.433-2.887l-.01-.063.049-.041a31.05,31.05,0,0,1,3.579-2.66,11.722,11.722,0,0,1,3.245-1.333,11.937,11.937,0,0,1,2.262-.384,5.208,5.208,0,0,1,.612-.009.9.9,0,0,1,.21.021c0,.017-.289.008-.816.062a13.383,13.383,0,0,0-2.232.444,11.931,11.931,0,0,0-3.182,1.362,32.181,32.181,0,0,0-3.535,2.671l.039-.1c.141.919.29,1.885.444,2.886l.026.169-.169-.037c-.8-.173-1.631-.358-2.472-.487-.069-.011-.138-.017-.2-.024l-.079,0s.005,0,.006,0a.3.3,0,0,0-.038-.066c-.013-.018-.033-.042.035.056.006.011,0,.005,0,.009l-.016.033-.2.338-.406.731-.772,1.443c-.5.949-.968,1.873-1.41,2.755-.879,1.766-1.633,3.375-2.229,4.742s-1.036,2.491-1.317,3.277c-.148.39-.236.7-.312.909a1.827,1.827,0,0,1-.121.314" transform="translate(-131.826 -62.402)" fill="#263238"/>
            <path id="Trazado_654078" data-name="Trazado 654078" d="M253.214,110.914a3,3,0,0,1-.321.518l-.933,1.37c-.786,1.157-1.861,2.762-3.025,4.551l-2.955,4.6-.894,1.4a2.975,2.975,0,0,1-.351.5,2.979,2.979,0,0,1,.272-.546c.189-.343.472-.834.829-1.436.716-1.2,1.732-2.85,2.9-4.641s2.264-3.384,3.087-4.518c.412-.566.752-1.021,1-1.327a2.991,2.991,0,0,1,.4-.464" transform="translate(-132.587 -60.088)" fill="#263238"/>
            <g id="Grupo_947528" data-name="Grupo 947528" transform="translate(113.628 52.831)" opacity="0.3">
              <g id="Grupo_947527" data-name="Grupo 947527">
                <g id="Grupo_947526" data-name="Grupo 947526" clip-path="url(#clip-path-9)">
                  <path id="Trazado_654079" data-name="Trazado 654079" d="M247.964,123.576a8.8,8.8,0,0,1,5.5-8.287Z" transform="translate(-247.964 -115.289)"/>
                </g>
              </g>
            </g>
            <path id="Trazado_654080" data-name="Trazado 654080" d="M69.57,196.314l-46.124,11.8,3.3,15.371,42.509-8.846,32.3,7.151,20.469-12.273-7.46-6.323Z" transform="translate(-12.702 -106.354)" fill="#263238"/>
            <path id="Trazado_654081" data-name="Trazado 654081" d="M131,388.767l.28,13.02s-13.14,4.657-13.322,7.068l25.263.364.4-20.3Z" transform="translate(-63.902 -210.617)" fill="#263238"/>
            <path id="Trazado_654082" data-name="Trazado 654082" d="M162.635,414.981a1.032,1.032,0,0,1,.7,1.188.993.993,0,0,1-1.171.7,1.088,1.088,0,0,1-.731-1.262,1.029,1.029,0,0,1,1.3-.593" transform="translate(-87.433 -224.794)" fill="#e0e0e0"/>
            <path id="Trazado_654083" data-name="Trazado 654083" d="M143.208,430.975l-.04-2.048-24.207.417s-1.132.473-1.016,1.267Z" transform="translate(-63.892 -232.374)" fill="#455a64"/>
            <path id="Trazado_654084" data-name="Trazado 654084" d="M146.135,416.757c0,.124.619.188,1.219.593.612.39.917.929,1.032.882.114-.022-.059-.763-.8-1.24s-1.48-.348-1.455-.235" transform="translate(-79.169 -225.721)" fill="#fff"/>
            <path id="Trazado_654085" data-name="Trazado 654085" d="M140.318,419.137c-.03.119.5.337.913.864.427.516.525,1.081.647,1.078.115.021.211-.7-.313-1.347s-1.244-.713-1.248-.6" transform="translate(-76.017 -227.044)" fill="#fff"/>
            <path id="Trazado_654086" data-name="Trazado 654086" d="M135.8,423.534c.111.028.292-.586-.015-1.266s-.88-.957-.934-.855c-.071.1.3.468.542,1.031s.284,1.077.407,1.091" transform="translate(-73.053 -228.291)" fill="#fff"/>
            <path id="Trazado_654087" data-name="Trazado 654087" d="M146.71,409.891c.05.113.619-.049,1.315.009s1.237.285,1.3.18c.073-.088-.45-.553-1.272-.609s-1.4.322-1.346.42" transform="translate(-79.479 -221.829)" fill="#fff"/>
            <path id="Trazado_654088" data-name="Trazado 654088" d="M22.471,211.678,9.827,214.814S2.393,203.015,0,203.367L5.2,228.1l19.9-4.078Z" transform="translate(0 -110.171)" fill="#263238"/>
            <path id="Trazado_654089" data-name="Trazado 654089" d="M24.991,243.32a1.032,1.032,0,0,1-1.006.941.992.992,0,0,1-.941-.989,1.089,1.089,0,0,1,1.07-.991,1.03,1.03,0,0,1,.865,1.137" transform="translate(-12.484 -131.254)" fill="#e0e0e0"/>
            <path id="Trazado_654090" data-name="Trazado 654090" d="M5.2,228.049l1.99-.49L1.46,204.028s-.711-1-1.46-.713Z" transform="translate(0 -110.119)" fill="#455a64"/>
            <path id="Trazado_654091" data-name="Trazado 654091" d="M20.412,227.42c-.121.029-.048.645-.311,1.321-.246.683-.705,1.1-.633,1.2.046.106.73-.226,1.036-1.05s.014-1.521-.091-1.471" transform="translate(-10.542 -123.205)" fill="#fff"/>
            <path id="Trazado_654092" data-name="Trazado 654092" d="M16.168,222.253c-.123,0-.218.563-.643,1.081-.409.53-.94.75-.909.869,0,.117.73.052,1.246-.6s.422-1.37.307-1.349" transform="translate(-7.917 -120.407)" fill="#fff"/>
            <path id="Trazado_654093" data-name="Trazado 654093" d="M10.553,218.813c0,.115.636.156,1.232-.293s.741-1.07.63-1.1c-.114-.048-.391.394-.887.755s-.988.514-.975.637" transform="translate(-5.717 -117.787)" fill="#fff"/>
            <path id="Trazado_654094" data-name="Trazado 654094" d="M27.973,226.551c-.1.074.184.593.281,1.285s-.006,1.27.11,1.311.44-.561.314-1.375-.623-1.3-.706-1.221" transform="translate(-15.143 -122.731)" fill="#fff"/>
            <path id="Trazado_654095" data-name="Trazado 654095" d="M172.567,218.269s-25.171,28.656-27.2,35.835c-1.592,5.646-5.15,49.247-5.15,49.247L157.69,304.8l5.214-41.289,29.474-26.784,1.2-11.562L178.33,212.756Z" transform="translate(-75.965 -115.262)" fill="#263238"/>
            <path id="Trazado_654096" data-name="Trazado 654096" d="M186.683,230.356a1.068,1.068,0,0,1-.152.214l-.472.582-1.765,2.116c-1.495,1.782-3.565,4.239-5.821,6.977s-4.267,5.246-5.722,7.06l-1.727,2.146-.477.577a1.1,1.1,0,0,1-.179.191,1.067,1.067,0,0,1,.141-.221l.442-.6c.387-.522.957-1.272,1.667-2.194,1.421-1.842,3.413-4.366,5.67-7.107s4.349-5.181,5.877-6.936l1.822-2.066.506-.553a1.073,1.073,0,0,1,.188-.182" transform="translate(-92.298 -124.796)" fill="#455a64"/>
            <path id="Trazado_654097" data-name="Trazado 654097" d="M144.368,314.055a.819.819,0,0,1,0,.16c-.008.118-.02.272-.033.468-.036.426-.087,1.028-.152,1.8-.143,1.575-.349,3.828-.6,6.607-.533,5.589-1.268,13.286-2.079,21.789l-1.309,13.364-.1-.117,12.618,1.092,3.573.328.945.1.242.029a.278.278,0,0,1,.082.016.329.329,0,0,1-.083,0l-.244-.012-.948-.062-3.578-.268-12.625-1.006-.109-.009.011-.109c.385-4,.823-8.555,1.285-13.367.838-8.5,1.6-16.194,2.149-21.782.285-2.776.517-5.026.678-6.6.084-.767.15-1.368.2-1.793.024-.195.043-.349.057-.466a.8.8,0,0,1,.027-.158" transform="translate(-75.826 -170.141)" fill="#455a64"/>
            <path id="Trazado_654098" data-name="Trazado 654098" d="M324.257,93.585a41.088,41.088,0,0,0,5.315-4.691,14.355,14.355,0,0,0,3.447-6.121c.084-.349.46-2.815.145-2.985-.225-.121-.857,1.99-1.088,2.1a12.172,12.172,0,0,0-5.1,5.12,32.03,32.03,0,0,0-2.718,6.575" transform="translate(-175.668 -43.223)" fill="#263238"/>
            <path id="Trazado_654099" data-name="Trazado 654099" d="M283.156,85.783c.919-1.4,1.641-2.5,1.63-2.507s-4.432-3.684-1.568-8.606c1.383-2.377,4.629-7.039,7.616-11.225A10.61,10.61,0,0,1,304.92,60.5l.472.282c4.905,3.339,4.809,9.371,1.336,14.182L295.112,92.182l-6.022,1.73a5.359,5.359,0,0,1-5.935-8.13" transform="translate(-152.9 -31.962)" fill="#ae7461"/>
            <path id="Trazado_654100" data-name="Trazado 654100" d="M286.857,111.979a13.755,13.755,0,0,0,7.487,1.926s-3.677,2.625-8.289-.733Z" transform="translate(-154.972 -60.665)" fill="#6f4439"/>
            <path id="Trazado_654101" data-name="Trazado 654101" d="M298.382,79.739a.813.813,0,0,0,.252,1.107.777.777,0,0,0,1.1-.2.813.813,0,0,0-.251-1.106.778.778,0,0,0-1.1.2" transform="translate(-161.584 -43.014)" fill="#263238"/>
            <path id="Trazado_654102" data-name="Trazado 654102" d="M300.637,74.208c.032.143.795.068,1.544.519s1.075,1.156,1.212,1.113c.064-.017.075-.234-.061-.552a2.235,2.235,0,0,0-.9-1,2.144,2.144,0,0,0-1.3-.3c-.337.039-.514.157-.5.223" transform="translate(-162.871 -40.075)" fill="#263238"/>
            <path id="Trazado_654103" data-name="Trazado 654103" d="M311.925,88.671a.813.813,0,0,0,.251,1.107.777.777,0,0,0,1.1-.2.814.814,0,0,0-.251-1.107.778.778,0,0,0-1.1.2" transform="translate(-168.921 -47.853)" fill="#263238"/>
            <path id="Trazado_654104" data-name="Trazado 654104" d="M315.545,83.915c.032.143.8.069,1.545.52s1.075,1.156,1.212,1.113c.064-.017.075-.233-.061-.552a2.232,2.232,0,0,0-.9-1,2.144,2.144,0,0,0-1.3-.3c-.336.039-.513.157-.5.223" transform="translate(-170.947 -45.335)" fill="#263238"/>
            <path id="Trazado_654105" data-name="Trazado 654105" d="M300.882,86.668a5.8,5.8,0,0,0-1.088-.95c-.18-.134-.338-.281-.292-.431.038-.165.242-.324.468-.492l1.441-1.12a29.252,29.252,0,0,0,3.559-3.056,29.282,29.282,0,0,0-3.8,2.763l-1.422,1.143a1.293,1.293,0,0,0-.55.693.56.56,0,0,0,.148.469,1.508,1.508,0,0,0,.3.24,5.7,5.7,0,0,0,1.235.741" transform="translate(-162.09 -43.673)" fill="#263238"/>
            <path id="Trazado_654106" data-name="Trazado 654106" d="M319.488,77.718c-.006.253.85.464,1.761.952.922.468,1.585,1.048,1.789.9.094-.073.04-.334-.188-.67a3.479,3.479,0,0,0-2.7-1.41c-.406.005-.651.11-.657.229" transform="translate(-173.084 -41.98)" fill="#263238"/>
            <path id="Trazado_654107" data-name="Trazado 654107" d="M304.556,68.035c.03.249.653.382,1.28.746.639.342,1.08.8,1.308.7.1-.055.124-.275-.009-.574a2.147,2.147,0,0,0-2.085-1.162c-.325.044-.5.176-.494.294" transform="translate(-164.994 -36.692)" fill="#263238"/>
            <path id="Trazado_654108" data-name="Trazado 654108" d="M326.472,101.222c.1.014,3.951,1.016,1.845,4.292s-4.96.486-4.906.389,3.061-4.681,3.061-4.681" transform="translate(-175.209 -54.838)" fill="#ae7461"/>
            <path id="Trazado_654109" data-name="Trazado 654109" d="M327.31,107.435c.021,0,.032.077.1.183a.678.678,0,0,0,.421.283,1.68,1.68,0,0,0,1.468-.847,2.242,2.242,0,0,0,.365-.92.783.783,0,0,0-.148-.714.346.346,0,0,0-.438-.06c-.1.063-.124.142-.145.137s-.035-.1.078-.219a.432.432,0,0,1,.261-.122.512.512,0,0,1,.369.12.953.953,0,0,1,.27.891,2.306,2.306,0,0,1-.389,1.041,1.762,1.762,0,0,1-1.742.88.728.728,0,0,1-.466-.423c-.049-.146-.02-.23,0-.229" transform="translate(-177.31 -56.967)" fill="#6f4439"/>
            <path id="Trazado_654110" data-name="Trazado 654110" d="M313.292,58.628c-.337-.636,2.364-1.307,4.044-1.046,2.541.395,5.889,1.807,7.359,3.5a9.384,9.384,0,0,1,2.662,7,15.321,15.321,0,0,1-2.849,7.485,4.656,4.656,0,0,1-1.763,1.69c-.927.422-2.1.3-2.71,1.322a1.629,1.629,0,0,1-.989.773c-1.012.244-1.351-.83-1.295-1.647a11.271,11.271,0,0,1,1.933-4.823,11.378,11.378,0,0,1,2.236-2.963c.515-.439,1.108-.784,1.6-1.251a2.339,2.339,0,0,0,.835-1.778,2.435,2.435,0,0,0-.089-.441,4.062,4.062,0,0,0-2.95-2.85c-2.26-.553-6.027-1.637-6.438-2.8a6,6,0,0,1-.489-2.436Z" transform="translate(-169.712 -31.164)" fill="#263238"/>
            <path id="Trazado_654111" data-name="Trazado 654111" d="M298.433,96.623a1.259,1.259,0,0,0-1.612-.278l-.076.123a3,3,0,0,0-.373.832,1.015,1.015,0,0,0,.165.868A1.115,1.115,0,0,0,298.131,98a1.312,1.312,0,0,0,.3-1.379" transform="translate(-160.545 -52.099)" fill="#6f4439"/>
            <path id="Trazado_654112" data-name="Trazado 654112" d="M296.315,97.008c.017.009-.022.093-.038.252a1.238,1.238,0,0,0,.108.645.634.634,0,0,0,.767.327,1.576,1.576,0,0,0,.949-.649,1.107,1.107,0,0,0,.029-1.092.892.892,0,0,0-.806-.379,1.182,1.182,0,0,0-.606.242c-.127.1-.189.167-.2.156s.024-.1.142-.225a1.143,1.143,0,0,1,.648-.34,1.051,1.051,0,0,1,1.008.423,1.3,1.3,0,0,1-.006,1.338,1.732,1.732,0,0,1-1.111.743.948.948,0,0,1-.609-.072.742.742,0,0,1-.356-.4,1.181,1.181,0,0,1-.044-.731c.046-.169.118-.242.129-.234" transform="translate(-160.44 -51.971)" fill="#263238"/>
            <path id="Trazado_654113" data-name="Trazado 654113" d="M213.313,160.334c.018-.1-.336-3.174,1-5.2,4.546-6.9,16.705-23.212,24.9-32.916a19.009,19.009,0,0,1,6.268-5.012l.283.211-.584,4.28,5-1.577,10.211,1.352-.571,3.4s-21.7,31.987-21.362,32.176-9.007,17.739-9.007,17.739Z" transform="translate(-115.547 -63.499)" fill="#fff"/>
            <path id="Trazado_654114" data-name="Trazado 654114" d="M246.584,131.075a.469.469,0,0,1-.066.1l-.214.288-.84,1.1-3.1,4.019c-2.606,3.4-6.159,8.134-9.961,13.451s-7.129,10.216-9.5,13.782l-2.8,4.231-.764,1.149-.2.3a.474.474,0,0,1-.077.1.484.484,0,0,1,.056-.11l.184-.308.726-1.173c.633-1.017,1.568-2.479,2.737-4.274,2.338-3.592,5.646-8.505,9.449-13.828s7.381-10.04,10.022-13.416c1.32-1.688,2.4-3.045,3.158-3.974l.875-1.067.232-.274c.054-.06.082-.091.086-.088" transform="translate(-118.676 -71.01)" fill="#263238"/>
            <path id="Trazado_654115" data-name="Trazado 654115" d="M291.372,129.424a1.728,1.728,0,0,1-.429.082l-1.19.149c-1.013.117-2.431.268-4.047.427l-.175.017.051-.168c.124-.407.253-.828.384-1.26l1.014-3.259.119.132c-1.062.2-1.95.352-2.573.455a5.893,5.893,0,0,1-.987.129,5.982,5.982,0,0,1,.964-.249c.617-.138,1.5-.324,2.557-.539l.17-.034-.05.167c-.291.967-.627,2.081-.985,3.268-.132.431-.262.852-.388,1.259l-.123-.151c1.617-.149,3.038-.269,4.055-.346l1.2-.079a1.731,1.731,0,0,1,.437,0" transform="translate(-153.609 -67.885)" fill="#263238"/>
            <path id="Trazado_654116" data-name="Trazado 654116" d="M274.738,122.313c-.037-.062,1.3-.809,2.685-2.065l.437-.406.2-.184v.267a18.633,18.633,0,0,1-.087,2.806,18.658,18.658,0,0,1-.148-2.8l.2.083c-.14.136-.286.277-.441.415a12.709,12.709,0,0,1-1.943,1.445,3.326,3.326,0,0,1-.9.443" transform="translate(-148.84 -64.825)" fill="#263238"/>
            <g id="Grupo_947531" data-name="Grupo 947531" transform="translate(111.274 88.663)" opacity="0.3">
              <g id="Grupo_947530" data-name="Grupo 947530">
                <g id="Grupo_947529" data-name="Grupo 947529" clip-path="url(#clip-path-10)">
                  <path id="Trazado_654117" data-name="Trazado 654117" d="M242.828,227.234s-.108-12.181,1.335-17.964,6.142-15.786,6.142-15.786l.761,1.3-6,31.364Z" transform="translate(-242.826 -193.485)"/>
                </g>
              </g>
            </g>
            <path id="Trazado_654118" data-name="Trazado 654118" d="M283.189,134.9c3.853,2.464,4.176,7.349,4.176,7.349l-18.075,26.872-.165,27.026-25.007-.115s.918-13.636,2.541-23.545,12.505-29.053,16.057-33.788,11.06-10.639,11.06-10.639l3.315-.926,0,3.208Z" transform="translate(-132.252 -68.874)" fill="#455a64"/>
            <path id="Trazado_654119" data-name="Trazado 654119" d="M308.84,162.539l21.191,21.542,10.075,21.158,10.283-1.618-10.056-25.772L321.577,153.04c-4.982.438-9.1,4.09-12.737,9.5" transform="translate(-167.316 -82.91)" fill="#455a64"/>
            <path id="Trazado_654120" data-name="Trazado 654120" d="M287.288,135.444a.924.924,0,0,1-.1.183l-.314.515c-.28.447-.7,1.1-1.252,1.905a73.2,73.2,0,0,1-4.913,6.383l-.048.055-.07-.025-3.419-1.245.155-.1a7.168,7.168,0,0,0,.892,3.649l.046.083-.071.064-1.016.9c-4.115,3.682-7.668,7.2-10.187,9.8-1.26,1.3-2.266,2.362-2.96,3.1l-.8.846a2.584,2.584,0,0,1-.291.285,2.633,2.633,0,0,1,.255-.317l.768-.877c.674-.756,1.661-1.838,2.907-3.152,2.49-2.628,6.03-6.171,10.15-9.858l1.017-.9-.025.147a7.367,7.367,0,0,1-.914-3.771l0-.16.15.055,3.413,1.26-.118.03c2.17-2.491,3.837-4.722,4.971-6.316.567-.8,1-1.434,1.3-1.869l.341-.5a.95.95,0,0,1,.127-.165" transform="translate(-142.45 -73.377)" fill="#263238"/>
            <path id="Trazado_654121" data-name="Trazado 654121" d="M319.177,145.64c0,.026-.309.029-.853.132a7.184,7.184,0,0,0-2.179.817,8.029,8.029,0,0,0-2.532,2.313,9.225,9.225,0,0,0-1.528,3.907,12.083,12.083,0,0,0,.123,4.222,16.808,16.808,0,0,0,1.055,3.309c.4.91.773,1.622,1.039,2.11a7.265,7.265,0,0,1,.4.766.81.81,0,0,1-.137-.179c-.084-.12-.2-.3-.348-.54a20.152,20.152,0,0,1-1.113-2.088,16.085,16.085,0,0,1-1.116-3.333,12.016,12.016,0,0,1-.144-4.3,9.276,9.276,0,0,1,1.585-4,8.01,8.01,0,0,1,2.629-2.332,6.756,6.756,0,0,1,2.246-.761,4.728,4.728,0,0,1,.643-.05.806.806,0,0,1,.225.009" transform="translate(-168.876 -78.896)" fill="#263238"/>
            <path id="Trazado_654122" data-name="Trazado 654122" d="M272.875,241.114a2.061,2.061,0,0,1,.158.3l.429.9,1.567,3.384.056.12-.134,0-12.686-.251-.613-.014-.094,0-.019-.093c-.354-1.68-.694-3.3-1.009-4.794l-.03-.143.145.006,8.813.389,2.527.13.667.042a1.047,1.047,0,0,1,.223.025,1.467,1.467,0,0,1-.244.007l-.686-.011-2.547-.066-8.761-.291.115-.137,1.021,4.792-.114-.094.613.014,12.684.323-.078.117-1.477-3.384-.4-.932a2.562,2.562,0,0,1-.13-.338" transform="translate(-141.127 -130.304)" fill="#263238"/>
            <g id="Grupo_947534" data-name="Grupo 947534" transform="translate(119.513 110.338)" opacity="0.3">
              <g id="Grupo_947533" data-name="Grupo 947533">
                <g id="Grupo_947532" data-name="Grupo 947532" clip-path="url(#clip-path-11)">
                  <path id="Trazado_654123" data-name="Trazado 654123" d="M260.807,240.783l.634,6.009,13.094.267v-1.2l-12.712-.287Z" transform="translate(-260.807 -240.783)"/>
                </g>
              </g>
            </g>
            <g id="Grupo_947537" data-name="Grupo 947537" transform="translate(125.066 66.195)" opacity="0.3">
              <g id="Grupo_947536" data-name="Grupo 947536">
                <g id="Grupo_947535" data-name="Grupo 947535" clip-path="url(#clip-path-12)">
                  <path id="Trazado_654124" data-name="Trazado 654124" d="M272.924,161.825l11.9-9.769-1.322-2.867,2.737,1.123,3.619-5.859-3.813,4.846-3.426-1.311c-.219.079.232,2.8.9,3.71Z" transform="translate(-272.924 -144.453)"/>
                </g>
              </g>
            </g>
            <g id="Grupo_947540" data-name="Grupo 947540" transform="translate(141.985 73.968)" opacity="0.3">
              <g id="Grupo_947539" data-name="Grupo 947539">
                <g id="Grupo_947538" data-name="Grupo 947538" clip-path="url(#clip-path-13)">
                  <path id="Trazado_654125" data-name="Trazado 654125" d="M310.942,161.416s-2.384,3.958-.121,9.6S312.7,176.1,312.7,176.1l2.161-3.212a15.094,15.094,0,0,1-3.918-11.468" transform="translate(-309.845 -161.416)"/>
                </g>
              </g>
            </g>
            <path id="Trazado_654126" data-name="Trazado 654126" d="M378.4,265.2l.49,1.735,9.185-1.735-.836-1.481Z" transform="translate(-204.999 -142.871)" fill="#e0e0e0"/>
            <path id="Trazado_654127" data-name="Trazado 654127" d="M388.207,266.949l6.287,2.6,2.9,4.4s-.435.352-1.665,0a1.808,1.808,0,0,1-1.67.156,24.608,24.608,0,0,1-2.988-2.653h-1.318l1.933,2.806a2.255,2.255,0,0,1-2.021,0,16.9,16.9,0,0,1-2.373-2.331l-2.262-.29a3.965,3.965,0,0,1-2.933.934s-.1,2.6-1.294,3.2c-.778.39-.719-.508-.719-.508l-.615-2.2.578-4.581Z" transform="translate(-205.579 -144.621)" fill="#ae7461"/>
            <path id="Trazado_654128" data-name="Trazado 654128" d="M384.238,276.141c.033.027-.206.255-.514.626a1.67,1.67,0,0,0-.257.788c-.04.319-.06.693-.127,1.077a3.275,3.275,0,0,1-.813,1.827,1.231,1.231,0,0,1-.732.4c-.02-.041.284-.152.609-.512a3.532,3.532,0,0,0,.7-1.75c.129-.73.1-1.494.487-1.931a2.23,2.23,0,0,1,.646-.521" transform="translate(-206.839 -149.601)" fill="#6f4439"/>
            <path id="Trazado_654129" data-name="Trazado 654129" d="M391.944,272.619a4.222,4.222,0,0,1,.723.251l1.921.772.025.01.016.023,2.452,3.59.076.111-.108.054c-.122.062-.248.131-.379.188a2.662,2.662,0,0,1-.433.074,2.448,2.448,0,0,1-1.259-.35,5.63,5.63,0,0,1-1-.7,10.538,10.538,0,0,1-1.471-1.58l.064.038-2.425-.429a5.577,5.577,0,0,1-.9-.2,5.658,5.658,0,0,1,.92.09l2.436.346.038.006.026.033a10.943,10.943,0,0,0,1.464,1.524,5.522,5.522,0,0,0,.96.668,2.248,2.248,0,0,0,1.138.319,2.635,2.635,0,0,0,.367-.061l.322-.159-.032.165-2.407-3.621.04.033-1.889-.845a4.2,4.2,0,0,1-.683-.345" transform="translate(-210.876 -147.692)" fill="#6f4439"/>
            <path id="Trazado_654130" data-name="Trazado 654130" d="M400.679,270.734a4.3,4.3,0,0,1,.7.275l1.878.836.021.009.015.021,2.792,4.058.068.1-.1.064a1.982,1.982,0,0,1-.712.288,1.784,1.784,0,0,1-.911-.056,2.651,2.651,0,0,1-.749-.445,15.115,15.115,0,0,1-1.191-1.06c-.725-.707-1.345-1.373-1.856-1.943l.029.021-1.662-.758a3.61,3.61,0,0,1-.6-.308,3.643,3.643,0,0,1,.633.222l1.692.688.015.006.014.015c.524.553,1.156,1.206,1.883,1.9.365.345.753.7,1.18,1.034a2.436,2.436,0,0,0,.682.406,1.549,1.549,0,0,0,.79.047,1.772,1.772,0,0,0,.62-.247l-.029.164-2.742-4.093.036.031-1.845-.907a4.294,4.294,0,0,1-.662-.364" transform="translate(-215.841 -146.671)" fill="#6f4439"/>
            <g id="Grupo_947543" data-name="Grupo 947543" transform="translate(118.753 62.066)" opacity="0.3">
              <g id="Grupo_947542" data-name="Grupo 947542">
                <g id="Grupo_947541" data-name="Grupo 947541" clip-path="url(#clip-path-14)">
                  <path id="Trazado_654131" data-name="Trazado 654131" d="M268,135.758c-.189.279-5.213,10.583-3.825,16.365s8.883,10.64,8.883,10.64l-1.346,7.82a10.221,10.221,0,0,1-8.727-6.6c-2.755-6.512-4.926-9.656-3.256-15.347s7.333-13.2,7.333-13.2Z" transform="translate(-259.147 -135.444)"/>
                </g>
              </g>
            </g>
            <path id="Trazado_654132" data-name="Trazado 654132" d="M264.624,130.539A21.08,21.08,0,0,0,253.715,147.7c-.367,7.079,1.63,14.957,7.5,18.924l6.212,1.765,1.317-7.093s-10.7-6.815-8.486-16.526,6.262-13.523,6.262-13.523Z" transform="translate(-137.429 -70.72)" fill="#ff725e"/>
            <path id="Trazado_654133" data-name="Trazado 654133" d="M277.875,123.893l-1.3,3.229s.964,1.623,1.354,1.591a26.387,26.387,0,0,0,3.229-2.191Z" transform="translate(-149.833 -67.12)" fill="#ff725e"/>
            <path id="Trazado_654134" data-name="Trazado 654134" d="M276.424,129.82a6.7,6.7,0,0,1,2.018-.8,3.873,3.873,0,0,1,2.17-.087,16.32,16.32,0,0,0-2.112.318,18.99,18.99,0,0,1-2.076.573" transform="translate(-149.754 -69.791)" fill="#263238"/>
            <path id="Trazado_654135" data-name="Trazado 654135" d="M278.126,132.492a2.117,2.117,0,0,1-1.647-1.506c.063-.031.319.4.77.811s.9.63.877.695" transform="translate(-149.778 -70.962)" fill="#263238"/>
          </g>
        </g>
      </g>
    </g>
  </g>
</svg>
