<svg xmlns="http://www.w3.org/2000/svg" xmlns:xlink="http://www.w3.org/1999/xlink" width="1017.05" height="265.768" viewBox="0 0 1017.05 265.768">
  <defs>
    <clipPath id="clip-path">
      <rect id="Rectángulo_336137" data-name="Rectángulo 336137" width="207.18" height="104.415" fill="none"/>
    </clipPath>
    <clipPath id="clip-path-3">
      <rect id="Rectángulo_336128" data-name="Rectángulo 336128" width="51.323" height="54.719" fill="none"/>
    </clipPath>
    <clipPath id="clip-path-4">
      <rect id="Rectángulo_336129" data-name="Rectángulo 336129" width="63.38" height="64.387" fill="none"/>
    </clipPath>
    <clipPath id="clip-path-5">
      <rect id="Rectángulo_336130" data-name="Rectángulo 336130" width="62.386" height="63.887" fill="none"/>
    </clipPath>
    <clipPath id="clip-path-6">
      <rect id="Rectángulo_336131" data-name="Rectángulo 336131" width="51.213" height="54.058" fill="none"/>
    </clipPath>
    <clipPath id="clip-path-7">
      <rect id="Rectángulo_336138" data-name="Rectángulo 336138" width="90.908" height="38.935" fill="none"/>
    </clipPath>
    <clipPath id="clip-path-8">
      <rect id="Rectángulo_336139" data-name="Rectángulo 336139" width="229.225" height="225.789" fill="none"/>
    </clipPath>
  </defs>
  <g id="Grupo_947853" data-name="Grupo 947853" transform="translate(-285.426 -3940.39)">
    <path id="Rectángulo_33998" data-name="Rectángulo 33998" d="M0,0H893.763a0,0,0,0,1,0,0V61.321a94,94,0,0,1-94,94H0a0,0,0,0,1,0,0V0A0,0,0,0,1,0,0Z" transform="translate(407.038 3983.799)" fill="#e2e8e0"/>
    <line id="Línea_165" data-name="Línea 165" x1="874.676" transform="translate(425.8 3983.827)" fill="none" stroke="#406834" stroke-linecap="round" stroke-width="4"/>
    <g id="Grupo_947707" data-name="Grupo 947707" transform="translate(376.633 3940.39)">
      <g id="Grupo_947706" data-name="Grupo 947706" transform="translate(0 0)" clip-path="url(#clip-path)">
        <g id="Grupo_947705" data-name="Grupo 947705">
          <g id="Grupo_947704" data-name="Grupo 947704" clip-path="url(#clip-path)">
            <path id="Trazado_655067" data-name="Trazado 655067" d="M207.18,104.25H153.1c0-27.223-22.284-50.031-49.507-50.031S54.132,77.027,54.132,104.25H0C0,47.13,46.47,0,103.59,0S207.18,47.13,207.18,104.25" fill="#e0e0e0"/>
            <path id="Trazado_655068" data-name="Trazado 655068" d="M145.929,10.647a97.113,97.113,0,0,0-30.568,4.913l13.282,41.293a54.181,54.181,0,0,1,36.009.51l13.817-41.125a97.05,97.05,0,0,0-32.54-5.591" transform="translate(-42.31 -3.905)" fill="#ff725e"/>
            <path id="Trazado_655069" data-name="Trazado 655069" d="M287.956,133.321a96.943,96.943,0,0,0-16.4-54.059L236.743,105.29a53.81,53.81,0,0,1,7.837,28.03Z" transform="translate(-86.829 -29.071)" fill="#ff725e"/>
            <path id="Trazado_655070" data-name="Trazado 655070" d="M9.651,132.938H53.026a53.806,53.806,0,0,1,7.948-28.207L26.492,78.22A96.95,96.95,0,0,0,9.651,132.938" transform="translate(-3.54 -28.688)" fill="#ff725e"/>
            <path id="Trazado_655071" data-name="Trazado 655071" d="M36.246,56.282,70.728,82.793A54.405,54.405,0,0,1,99.626,59.7L86.344,18.406a97.956,97.956,0,0,0-50.1,37.876" transform="translate(-13.294 -6.751)" fill="#ff725e"/>
            <path id="Trazado_655072" data-name="Trazado 655072" d="M207.019,19.476,193.2,60.6a54.437,54.437,0,0,1,27.571,22.762l34.815-26.028a98,98,0,0,0-48.57-37.859" transform="translate(-70.86 -7.143)" fill="#ff725e"/>
            <g id="Grupo_947694" data-name="Grupo 947694" transform="translate(6.111 49.531)" opacity="0.5">
              <g id="Grupo_947693" data-name="Grupo 947693">
                <g id="Grupo_947692" data-name="Grupo 947692" clip-path="url(#clip-path-3)">
                  <path id="Trazado_655073" data-name="Trazado 655073" d="M9.651,132.938H53.026a53.806,53.806,0,0,1,7.948-28.207L26.492,78.22A96.95,96.95,0,0,0,9.651,132.938" transform="translate(-9.651 -78.219)" fill="#fff"/>
                </g>
              </g>
            </g>
            <g id="Grupo_947697" data-name="Grupo 947697" transform="translate(22.952 11.655)" opacity="0.3">
              <g id="Grupo_947696" data-name="Grupo 947696">
                <g id="Grupo_947695" data-name="Grupo 947695" clip-path="url(#clip-path-4)">
                  <path id="Trazado_655074" data-name="Trazado 655074" d="M36.246,56.282,70.728,82.793A54.405,54.405,0,0,1,99.626,59.7L86.344,18.406a97.956,97.956,0,0,0-50.1,37.876" transform="translate(-36.246 -18.406)" fill="#fff"/>
                </g>
              </g>
            </g>
            <g id="Grupo_947700" data-name="Grupo 947700" transform="translate(122.342 12.333)" opacity="0.3">
              <g id="Grupo_947699" data-name="Grupo 947699">
                <g id="Grupo_947698" data-name="Grupo 947698" clip-path="url(#clip-path-5)">
                  <path id="Trazado_655075" data-name="Trazado 655075" d="M207.019,19.476,193.2,60.6a54.437,54.437,0,0,1,27.571,22.762l34.815-26.028a98,98,0,0,0-48.57-37.859" transform="translate(-193.202 -19.476)"/>
                </g>
              </g>
            </g>
            <g id="Grupo_947703" data-name="Grupo 947703" transform="translate(149.914 50.191)" opacity="0.5">
              <g id="Grupo_947702" data-name="Grupo 947702">
                <g id="Grupo_947701" data-name="Grupo 947701" clip-path="url(#clip-path-6)">
                  <path id="Trazado_655076" data-name="Trazado 655076" d="M287.956,133.321a96.943,96.943,0,0,0-16.4-54.059L236.743,105.29a53.81,53.81,0,0,1,7.837,28.03Z" transform="translate(-236.743 -79.262)"/>
                </g>
              </g>
            </g>
            <path id="Trazado_655077" data-name="Trazado 655077" d="M188.173,54.026s.743,1.1,2.107,3.25a99.487,99.487,0,0,1,5.324,9.888c.509,1.116,1.066,2.289,1.571,3.56l.8,1.942.769,2.066c.55,1.4,1,2.908,1.525,4.459q.345,1.179.7,2.405.178.614.357,1.239.159.632.319,1.275a91.727,91.727,0,0,1,2.153,11.16,99.565,99.565,0,0,1,.866,12.814v.1h-.1l-43.376.027h-.125v-.127A53.82,53.82,0,0,0,149.1,74.254a54.893,54.893,0,0,0-15.084-12.929,55.992,55.992,0,0,0-9.419-4.3,53.973,53.973,0,0,0-31.985-.951A54.146,54.146,0,0,0,72.668,66.54,53.855,53.855,0,0,0,53.1,108.084v.165H9.391v-.164A97.3,97.3,0,0,1,37.02,40.122a97.3,97.3,0,0,1,8.6-7.872A103.03,103.03,0,0,1,54.855,25.6a97.661,97.661,0,0,1,19.611-9.538A94.987,94.987,0,0,1,94.4,11.271,97.108,97.108,0,0,1,158.418,25.15a93.145,93.145,0,0,1,10,7.142,98.615,98.615,0,0,1,7.656,6.906c2.17,2.207,4.013,4.245,5.541,6.064l2.08,2.546,1.639,2.172c.5.641.906,1.227,1.253,1.736l.878,1.272c.47.683.7,1.037.7,1.037s-.251-.342-.731-1.02q-.359-.509-.891-1.263c-.35-.506-.763-1.088-1.263-1.726a97.357,97.357,0,0,0-16.959-17.611,93.278,93.278,0,0,0-10-7.11A97.023,97.023,0,0,0,94.436,11.528a94.8,94.8,0,0,0-19.877,4.794,97.452,97.452,0,0,0-19.548,9.523,102.92,102.92,0,0,0-9.2,6.636,97.028,97.028,0,0,0-8.573,7.853,96.891,96.891,0,0,0-27.52,67.749l-.164-.163H52.931l-.165.164a54.166,54.166,0,0,1,19.7-41.792A54.455,54.455,0,0,1,92.528,55.773a54.25,54.25,0,0,1,32.168.97,56.265,56.265,0,0,1,9.469,4.326,55.175,55.175,0,0,1,15.156,13.007,54.067,54.067,0,0,1,12,34.008l-.126-.125,43.376.027-.1.1a99.591,99.591,0,0,0-.843-12.79A91.687,91.687,0,0,0,201.5,84.148q-.16-.642-.315-1.273-.179-.625-.354-1.238l-.7-2.4c-.522-1.55-.966-3.057-1.512-4.457l-.762-2.066q-.408-.994-.8-1.942c-.5-1.271-1.053-2.444-1.558-3.561a102.305,102.305,0,0,0-5.273-9.9c-.663-1.089-1.2-1.895-1.542-2.447s-.519-.832-.519-.832" transform="translate(-3.444 -3.835)" fill="#263238"/>
            <path id="Trazado_655078" data-name="Trazado 655078" d="M19.546,144.748l.4-1.6,5.626,1.384.855-3.476,1.308.322-1.251,5.082Z" transform="translate(-7.169 -51.733)" fill="#fff"/>
            <path id="Trazado_655079" data-name="Trazado 655079" d="M29.307,134.2a3.561,3.561,0,0,1-1.678.94,3.8,3.8,0,0,1-3.612-1.13,3.559,3.559,0,0,1-.844-1.728,4.423,4.423,0,0,1,1.2-3.822A3.642,3.642,0,0,1,30.5,130.38a4.421,4.421,0,0,1-1.195,3.822m-.224-3.368a2.09,2.09,0,0,0-.535-1.006,2.555,2.555,0,0,0-2.259-.707,2.085,2.085,0,0,0-1.013.523,2.387,2.387,0,0,0-.682,2.18,2.092,2.092,0,0,0,.535,1.007,2.557,2.557,0,0,0,2.259.706,2.078,2.078,0,0,0,1.013-.522,2.389,2.389,0,0,0,.682-2.181" transform="translate(-8.473 -46.734)" fill="#fff"/>
            <path id="Trazado_655080" data-name="Trazado 655080" d="M30.069,108.048l5.743,4.844-.666,1.646-5.072-.357L33.95,117.5l-.662,1.636-7.5-.5.643-1.589,5.257.388-4.021-3.443.574-1.418,5.3.385-4.067-3.439Z" transform="translate(-9.458 -39.628)" fill="#fff"/>
            <path id="Trazado_655081" data-name="Trazado 655081" d="M133.4,30.178l-.909-4.187-1.314,3.892-.728.156-2.766-2.922.88,4.1-1.517.325-1.5-6.982,1.336-.287,3.545,3.778,1.641-4.891,1.327-.285,1.519,6.978Z" transform="translate(-46.047 -8.39)" fill="#fff"/>
            <path id="Trazado_655082" data-name="Trazado 655082" d="M147.572,27.162l.157,1.317-5.49.655-.846-7.09,5.359-.64.157,1.317-3.728.445.184,1.539,3.292-.393.152,1.277-3.292.393.2,1.641Z" transform="translate(-51.858 -7.85)" fill="#fff"/>
            <path id="Trazado_655083" data-name="Trazado 655083" d="M152.8,21.064l3.242-.132a4.552,4.552,0,0,1,2.071.36,3.327,3.327,0,0,1,1.437,1.192,3.807,3.807,0,0,1,.152,3.751,3.324,3.324,0,0,1-1.335,1.3,4.565,4.565,0,0,1-2.036.527l-3.241.131Zm3.394,5.651a2.4,2.4,0,0,0,1.682-.666,2.367,2.367,0,0,0-.13-3.231,2.4,2.4,0,0,0-1.731-.527l-1.508.061.179,4.424Z" transform="translate(-56.042 -7.675)" fill="#fff"/>
            <rect id="Rectángulo_336132" data-name="Rectángulo 336132" width="7.141" height="1.652" transform="translate(105.359 20.297) rotate(-88.77)" fill="#fff"/>
            <path id="Trazado_655084" data-name="Trazado 655084" d="M172.473,27.312a3.258,3.258,0,0,1-.675-2.473l.289-3.989,1.648.12L173.45,24.9q-.14,1.913,1.448,2.028a1.49,1.49,0,0,0,1.214-.377,2.165,2.165,0,0,0,.512-1.42l.284-3.927,1.628.118-.289,3.989a2.955,2.955,0,0,1-3.461,3.022,3.228,3.228,0,0,1-2.314-1.016" transform="translate(-63.004 -7.647)" fill="#fff"/>
            <path id="Trazado_655085" data-name="Trazado 655085" d="M190.343,30.063l.714-4.224-2.668,3.124-.733-.126-1.48-3.742-.709,4.132-1.528-.262,1.207-7.038,1.347.231,1.885,4.825,3.344-3.929,1.337.229-1.187,7.042Z" transform="translate(-67.462 -8.042)" fill="#fff"/>
            <path id="Trazado_655086" data-name="Trazado 655086" d="M293.929,115.519l-6.643,2.619-.606-1.537,2.724-1.074-1.19-3.017-2.724,1.073-.606-1.537,6.643-2.62.606,1.537L289.513,112l1.19,3.018,2.62-1.033Z" transform="translate(-104.486 -40.134)" fill="#fff"/>
            <rect id="Rectángulo_336133" data-name="Rectángulo 336133" width="7.142" height="1.653" transform="translate(183.296 79.531) rotate(-18.775)" fill="#fff"/>
            <path id="Trazado_655087" data-name="Trazado 655087" d="M296.407,133.172l.42,1.45-2.782.807a4.292,4.292,0,0,1-1.022-1.106,5.234,5.234,0,0,1-.655-1.414,4.177,4.177,0,0,1-.1-2.052,3.532,3.532,0,0,1,.876-1.7,3.837,3.837,0,0,1,3.654-1.06,3.519,3.519,0,0,1,1.655.981,4.257,4.257,0,0,1,1.018,1.808,4.412,4.412,0,0,1,.17,1.724,3.373,3.373,0,0,1-.524,1.491l-1.236-.746a2.451,2.451,0,0,0,.26-2,2.516,2.516,0,0,0-.612-1.087,2.05,2.05,0,0,0-1-.569,2.378,2.378,0,0,0-1.229.048,2.353,2.353,0,0,0-1.054.614,2.091,2.091,0,0,0-.55,1.014,2.437,2.437,0,0,0,.054,1.232,2.688,2.688,0,0,0,.652,1.149Z" transform="translate(-107.163 -46.938)" fill="#fff"/>
            <path id="Trazado_655088" data-name="Trazado 655088" d="M302.863,146.238l-6.977,1.524-.352-1.615,2.86-.624-.692-3.169-2.86.625-.353-1.615,6.976-1.524.353,1.614-2.751.6.693,3.169,2.75-.6Z" transform="translate(-108.008 -51.288)" fill="#fff"/>
            <path id="Trazado_655089" data-name="Trazado 655089" d="M19.546,144.748l.4-1.6,5.626,1.384.855-3.476,1.308.322-1.251,5.082Z" transform="translate(-7.169 -51.733)" fill="#fff"/>
            <path id="Trazado_655090" data-name="Trazado 655090" d="M29.307,134.2a3.561,3.561,0,0,1-1.678.94,3.8,3.8,0,0,1-3.612-1.13,3.559,3.559,0,0,1-.844-1.728,4.423,4.423,0,0,1,1.2-3.822A3.642,3.642,0,0,1,30.5,130.38a4.421,4.421,0,0,1-1.195,3.822m-.224-3.368a2.09,2.09,0,0,0-.535-1.006,2.555,2.555,0,0,0-2.259-.707,2.085,2.085,0,0,0-1.013.523,2.387,2.387,0,0,0-.682,2.18,2.092,2.092,0,0,0,.535,1.007,2.557,2.557,0,0,0,2.259.706,2.078,2.078,0,0,0,1.013-.522,2.389,2.389,0,0,0,.682-2.181" transform="translate(-8.473 -46.734)" fill="#fff"/>
            <path id="Trazado_655091" data-name="Trazado 655091" d="M30.069,108.048l5.743,4.844-.666,1.646-5.072-.357L33.95,117.5l-.662,1.636-7.5-.5.643-1.589,5.257.388-4.021-3.443.574-1.418,5.3.385-4.067-3.439Z" transform="translate(-9.458 -39.628)" fill="#fff"/>
            <path id="Trazado_655092" data-name="Trazado 655092" d="M133.4,30.178l-.909-4.187-1.314,3.892-.728.156-2.766-2.922.88,4.1-1.517.325-1.5-6.982,1.336-.287,3.545,3.778,1.641-4.891,1.327-.285,1.519,6.978Z" transform="translate(-46.047 -8.39)" fill="#fff"/>
            <path id="Trazado_655093" data-name="Trazado 655093" d="M147.572,27.162l.157,1.317-5.49.655-.846-7.09,5.359-.64.157,1.317-3.728.445.184,1.539,3.292-.393.152,1.277-3.292.393.2,1.641Z" transform="translate(-51.858 -7.85)" fill="#fff"/>
            <path id="Trazado_655094" data-name="Trazado 655094" d="M152.8,21.064l3.242-.132a4.552,4.552,0,0,1,2.071.36,3.327,3.327,0,0,1,1.437,1.192,3.807,3.807,0,0,1,.152,3.751,3.324,3.324,0,0,1-1.335,1.3,4.565,4.565,0,0,1-2.036.527l-3.241.131Zm3.394,5.651a2.4,2.4,0,0,0,1.682-.666,2.367,2.367,0,0,0-.13-3.231,2.4,2.4,0,0,0-1.731-.527l-1.508.061.179,4.424Z" transform="translate(-56.042 -7.675)" fill="#fff"/>
            <rect id="Rectángulo_336134" data-name="Rectángulo 336134" width="7.141" height="1.652" transform="translate(105.359 20.297) rotate(-88.77)" fill="#fff"/>
            <path id="Trazado_655095" data-name="Trazado 655095" d="M172.473,27.312a3.258,3.258,0,0,1-.675-2.473l.289-3.989,1.648.12L173.45,24.9q-.14,1.913,1.448,2.028a1.49,1.49,0,0,0,1.214-.377,2.165,2.165,0,0,0,.512-1.42l.284-3.927,1.628.118-.289,3.989a2.955,2.955,0,0,1-3.461,3.022,3.228,3.228,0,0,1-2.314-1.016" transform="translate(-63.004 -7.647)" fill="#fff"/>
            <path id="Trazado_655096" data-name="Trazado 655096" d="M190.343,30.063l.714-4.224-2.668,3.124-.733-.126-1.48-3.742-.709,4.132-1.528-.262,1.207-7.038,1.347.231,1.885,4.825,3.344-3.929,1.337.229-1.187,7.042Z" transform="translate(-67.462 -8.042)" fill="#fff"/>
            <path id="Trazado_655097" data-name="Trazado 655097" d="M293.929,115.519l-6.643,2.619-.606-1.537,2.724-1.074-1.19-3.017-2.724,1.073-.606-1.537,6.643-2.62.606,1.537L289.513,112l1.19,3.018,2.62-1.033Z" transform="translate(-104.486 -40.134)" fill="#fff"/>
            <rect id="Rectángulo_336135" data-name="Rectángulo 336135" width="7.142" height="1.653" transform="translate(183.296 79.531) rotate(-18.775)" fill="#fff"/>
            <path id="Trazado_655098" data-name="Trazado 655098" d="M296.407,133.172l.42,1.45-2.782.807a4.292,4.292,0,0,1-1.022-1.106,5.234,5.234,0,0,1-.655-1.414,4.177,4.177,0,0,1-.1-2.052,3.532,3.532,0,0,1,.876-1.7,3.837,3.837,0,0,1,3.654-1.06,3.519,3.519,0,0,1,1.655.981,4.257,4.257,0,0,1,1.018,1.808,4.412,4.412,0,0,1,.17,1.724,3.373,3.373,0,0,1-.524,1.491l-1.236-.746a2.451,2.451,0,0,0,.26-2,2.516,2.516,0,0,0-.612-1.087,2.05,2.05,0,0,0-1-.569,2.378,2.378,0,0,0-1.229.048,2.353,2.353,0,0,0-1.054.614,2.091,2.091,0,0,0-.55,1.014,2.437,2.437,0,0,0,.054,1.232,2.688,2.688,0,0,0,.652,1.149Z" transform="translate(-107.163 -46.938)" fill="#fff"/>
            <path id="Trazado_655099" data-name="Trazado 655099" d="M302.863,146.238l-6.977,1.524-.352-1.615,2.86-.624-.692-3.169-2.86.625-.353-1.615,6.976-1.524.353,1.614-2.751.6.693,3.169,2.75-.6Z" transform="translate(-108.008 -51.288)" fill="#fff"/>
          </g>
        </g>
      </g>
    </g>
    <g id="Grupo_947709" data-name="Grupo 947709" transform="translate(405.979 3990.33)">
      <g id="Grupo_947708" data-name="Grupo 947708" transform="translate(0 0)" clip-path="url(#clip-path-7)">
        <path id="Trazado_655100" data-name="Trazado 655100" d="M126.728,38.068A10.248,10.248,0,1,1,116.481,27.82a10.248,10.248,0,0,1,10.248,10.248" transform="translate(-35.821 -9.381)" fill="#263238"/>
        <path id="Trazado_655101" data-name="Trazado 655101" d="M.163,1.674h0A2.57,2.57,0,0,0,1.746,5L80.66,34.483l4.352-10.351L3.341.119A2.57,2.57,0,0,0,.163,1.674" transform="translate(0 0)" fill="#263238"/>
        <path id="Trazado_655102" data-name="Trazado 655102" d="M126.728,38.068A10.248,10.248,0,1,1,116.481,27.82a10.248,10.248,0,0,1,10.248,10.248" transform="translate(-35.821 -9.381)" fill="#263238"/>
        <path id="Trazado_655103" data-name="Trazado 655103" d="M.163,1.674h0A2.57,2.57,0,0,0,1.746,5L80.66,34.483l4.352-10.351L3.341.119A2.57,2.57,0,0,0,.163,1.674" transform="translate(0 0)" fill="#263238"/>
        <path id="Trazado_655104" data-name="Trazado 655104" d="M93.122,34.98a10.97,10.97,0,0,1,.01-1.181c.013-.208.035-.415.058-.622-.04.36.026-.125.048-.246a11.129,11.129,0,0,1,.282-1.147c.06-.2.127-.4.2-.594.032-.087.066-.173.1-.26.111-.3-.065.125.021-.054a13.108,13.108,0,0,1,1.181-2.043c.02-.027.2-.26.08-.109s.066-.078.087-.1q.2-.241.414-.469a11.014,11.014,0,0,1,.908-.86,1.664,1.664,0,0,0,0-2.343,1.7,1.7,0,0,0-2.343,0,12.678,12.678,0,0,0-4.359,10.03,1.657,1.657,0,1,0,3.314,0" transform="translate(-30.279 -8.255)" fill="#b56f57"/>
        <path id="Trazado_655105" data-name="Trazado 655105" d="M93.179,37.557c-.044.091-.728-.183-1.61-.29s-1.612-.023-1.632-.121a3.317,3.317,0,0,1,3.242.411" transform="translate(-30.326 -12.439)" fill="#263238"/>
        <path id="Trazado_655106" data-name="Trazado 655106" d="M94.558,33.115c-.07.072-.636-.4-1.443-.772s-1.526-.517-1.515-.617a2.421,2.421,0,0,1,1.662.3c.87.4,1.365,1.025,1.3,1.084" transform="translate(-30.887 -10.68)" fill="#263238"/>
        <path id="Trazado_655107" data-name="Trazado 655107" d="M96.676,29.779c-.089.046-.476-.581-1.121-1.192s-1.281-.978-1.239-1.069a2.424,2.424,0,0,1,1.477.82,2.427,2.427,0,0,1,.882,1.441" transform="translate(-31.802 -9.273)" fill="#263238"/>
        <path id="Trazado_655108" data-name="Trazado 655108" d="M76.942,29.211a10.972,10.972,0,0,1,.01-1.181c.013-.208.035-.415.058-.622-.04.36.026-.125.048-.246a11.129,11.129,0,0,1,.282-1.147c.06-.2.127-.4.2-.594.032-.087.066-.173.1-.26.111-.3-.065.125.021-.053a13.1,13.1,0,0,1,1.18-2.043c.021-.027.2-.26.081-.109s.066-.078.088-.1q.2-.241.414-.469a11.015,11.015,0,0,1,.908-.86,1.664,1.664,0,0,0,0-2.343,1.7,1.7,0,0,0-2.343,0,12.678,12.678,0,0,0-4.359,10.03,1.657,1.657,0,1,0,3.314,0" transform="translate(-24.823 -6.31)" fill="#b56f57"/>
        <path id="Trazado_655109" data-name="Trazado 655109" d="M77,31.788c-.044.091-.728-.184-1.611-.29s-1.611-.023-1.631-.121A3.317,3.317,0,0,1,77,31.788" transform="translate(-24.87 -10.494)" fill="#263238"/>
        <path id="Trazado_655110" data-name="Trazado 655110" d="M78.378,27.346c-.07.072-.636-.4-1.443-.772s-1.526-.517-1.515-.617a2.425,2.425,0,0,1,1.662.3c.87.4,1.365,1.025,1.3,1.084" transform="translate(-25.431 -8.735)" fill="#263238"/>
        <path id="Trazado_655111" data-name="Trazado 655111" d="M80.5,24.01c-.089.046-.476-.581-1.121-1.192s-1.281-.978-1.239-1.069a2.424,2.424,0,0,1,1.477.82A2.427,2.427,0,0,1,80.5,24.01" transform="translate(-26.346 -7.328)" fill="#263238"/>
        <path id="Trazado_655112" data-name="Trazado 655112" d="M99.521,37.262a10.972,10.972,0,0,1,.01-1.181c.013-.208.035-.415.058-.622-.04.36.026-.125.048-.246a11.133,11.133,0,0,1,.282-1.147q.09-.3.2-.594c.032-.087.066-.173.1-.26.111-.3-.065.125.021-.054a13.076,13.076,0,0,1,1.181-2.043c.02-.027.2-.26.08-.109s.066-.078.087-.1q.2-.241.414-.469a11.015,11.015,0,0,1,.908-.86,1.664,1.664,0,0,0,0-2.343,1.7,1.7,0,0,0-2.343,0,12.678,12.678,0,0,0-4.359,10.03,1.657,1.657,0,1,0,3.314,0" transform="translate(-32.436 -9.024)" fill="#b56f57"/>
        <path id="Trazado_655113" data-name="Trazado 655113" d="M99.579,39.838c-.044.091-.728-.183-1.61-.29s-1.612-.023-1.633-.121a3.318,3.318,0,0,1,3.242.411" transform="translate(-32.484 -13.208)" fill="#263238"/>
        <path id="Trazado_655114" data-name="Trazado 655114" d="M100.957,35.4a16.342,16.342,0,0,1-1.443-.772c-.8-.382-1.526-.517-1.515-.617a2.43,2.43,0,0,1,1.662.3c.87.4,1.365,1.025,1.3,1.084" transform="translate(-33.044 -11.449)" fill="#263238"/>
        <path id="Trazado_655115" data-name="Trazado 655115" d="M103.075,32.06c-.089.046-.476-.581-1.121-1.192s-1.281-.978-1.239-1.069a2.424,2.424,0,0,1,1.477.82,2.427,2.427,0,0,1,.882,1.441" transform="translate(-33.96 -10.043)" fill="#263238"/>
      </g>
    </g>
    <g id="Grupo_947711" data-name="Grupo 947711" transform="translate(285.426 3980.369)">
      <g id="Grupo_947710" data-name="Grupo 947710" clip-path="url(#clip-path-8)">
        <path id="Trazado_655116" data-name="Trazado 655116" d="M74.185,66.584s4.556.65,11.648,5.048,27.411,17.033,27.411,17.033L136.513,67.2l10.755,9.778S123.96,104.8,122.4,106.195c-5.731,5.132-11.092,2.284-11.092,2.284L87.849,97.108Z" fill="#455a64"/>
        <path id="Trazado_655117" data-name="Trazado 655117" d="M103.813,125.314,74.7,66.545l-20.538,2.5-6.32-2.1L25.881,72.886,25.13,84.241S9.7,99.727,10.117,100.695l49.114,50.78s.306,19.074.56,18.583c16.957-.147,15.868-4.4,31.037.931l1.437-22.752,10.607,20.9,26.7-13.958Z" fill="#455a64"/>
        <path id="Trazado_655118" data-name="Trazado 655118" d="M27.277,77.673l37.048,28.018L50.451,68.832l-3.619-3.551L25.645,73.269Z" fill="#e0e0e0"/>
        <path id="Trazado_655119" data-name="Trazado 655119" d="M8.486,24.516a4.265,4.265,0,0,1,2.8-4.063,5.834,5.834,0,0,1,6.329-3.4,5.188,5.188,0,0,1,8.9-.137A4.335,4.335,0,0,1,33.4,21.429a4.167,4.167,0,0,1,2.441,7.924l-24.288-.97a4.267,4.267,0,0,1-3.066-3.867" fill="#263238"/>
        <path id="Trazado_655120" data-name="Trazado 655120" d="M36.654,29.565a17.682,17.682,0,0,0-23.331-5.539l-.8.449C4.2,29.815,4.086,39.868,9.654,48.041l16.92,27.734,20.762,3.338-.5-13.833-1-2.4s7.551-5.937,3-14.266c-2.2-4.023-7.393-11.939-12.179-19.049" fill="#ffc09d"/>
        <path id="Trazado_655121" data-name="Trazado 655121" d="M45.891,62.83a23.012,23.012,0,0,1-12.622,2.919S39,70.665,46.833,65.281Z" fill="#ff9b6c"/>
        <path id="Trazado_655122" data-name="Trazado 655122" d="M38.369,38.249a1.355,1.355,0,0,1-.469,1.832,1.3,1.3,0,0,1-1.816-.38,1.356,1.356,0,0,1,.467-1.833,1.3,1.3,0,0,1,1.818.381" fill="#263238"/>
        <path id="Trazado_655123" data-name="Trazado 655123" d="M37.479,34.981c-.06.236-1.327.076-2.6.8-1.278.7-1.844,1.877-2.069,1.8-.107-.031-.114-.393.126-.917a3.718,3.718,0,0,1,1.549-1.631,3.564,3.564,0,0,1,2.175-.44c.56.08.849.284.815.394" fill="#263238"/>
        <path id="Trazado_655124" data-name="Trazado 655124" d="M27.617,44.658a1.355,1.355,0,0,1-.469,1.832,1.3,1.3,0,0,1-1.817-.381,1.356,1.356,0,0,1,.468-1.832,1.3,1.3,0,0,1,1.818.381" fill="#263238"/>
        <path id="Trazado_655125" data-name="Trazado 655125" d="M25.218,41.639c-.06.237-1.328.078-2.6.8-1.278.7-1.843,1.877-2.069,1.8-.106-.031-.115-.392.127-.917a3.716,3.716,0,0,1,1.549-1.63,3.571,3.571,0,0,1,2.175-.441c.558.081.848.285.815.394" fill="#263238"/>
        <path id="Trazado_655126" data-name="Trazado 655126" d="M34.7,48.707a9.62,9.62,0,0,1,1.855-1.533c.306-.216.577-.453.507-.7-.055-.278-.388-.552-.757-.841L33.955,43.7c-3.311-2.77-5.9-5.121-5.789-5.254s2.888,2.006,6.2,4.776l2.317,1.969a2.158,2.158,0,0,1,.884,1.18.931.931,0,0,1-.267.774,2.508,2.508,0,0,1-.508.387A9.566,9.566,0,0,1,34.7,48.707" fill="#263238"/>
        <path id="Trazado_655127" data-name="Trazado 655127" d="M31.453,51.689c.2-.128.978,1.25,2.71,1.566s3.115-.662,3.234-.475c.068.076-.177.452-.789.818a3.938,3.938,0,0,1-2.655.474,3.437,3.437,0,0,1-2.184-1.362c-.377-.548-.415-.976-.316-1.021" fill="#263238"/>
        <path id="Trazado_655128" data-name="Trazado 655128" d="M24.461,38.751c-.124.4-1.412.225-2.923.448-1.514.189-2.728.7-2.933.351-.091-.169.117-.545.607-.934a4.551,4.551,0,0,1,2.166-.887,4.384,4.384,0,0,1,2.293.278c.559.247.843.555.79.744" fill="#263238"/>
        <path id="Trazado_655129" data-name="Trazado 655129" d="M35.231,31.656c-.027.418-1.052.7-2.062,1.358-1.033.628-1.724,1.434-2.113,1.278-.18-.081-.232-.446-.037-.957a3.575,3.575,0,0,1,3.364-2.124c.544.044.852.248.848.445" fill="#263238"/>
        <path id="Trazado_655130" data-name="Trazado 655130" d="M33.726,26.219s-5.094-3.954-8.271-3.759c-3.847.236-3.283,4.287-6.618,5.1s-7.011,1.033-8.7,4.916c-1.853,4.25.619,5.112,2.483,8.9,7.556,15.334,7.2,21.07,2.491,14.495-.516-.72-2.99-.133-5.13-3.2C7.2,48.69,4.17,43.672,3.431,40.159c-.623-2.961-.165-5.506,1.33-8.869,2.361-5.309,7.9-8.51,11.907-10.258s13.757-1.493,17.058,5.187" fill="#263238"/>
        <path id="Trazado_655131" data-name="Trazado 655131" d="M15.508,55.345a2.576,2.576,0,0,0-3.641-.8c-1.46,1.014-2.684,2.854-.791,5.985,3.36,5.554,8.243,1.036,8.156.871-.059-.112-2.3-3.743-3.724-6.055" fill="#ffc09d"/>
        <path id="Trazado_655132" data-name="Trazado 655132" d="M16.76,60.042c-.035,0-.056.126-.174.3a1.124,1.124,0,0,1-.714.452,2.8,2.8,0,0,1-2.407-1.477,3.738,3.738,0,0,1-.567-1.549,1.306,1.306,0,0,1,.279-1.183.574.574,0,0,1,.731-.08c.168.11.2.242.235.234s.063-.165-.12-.368a.72.72,0,0,0-.429-.215.852.852,0,0,0-.621.182,1.591,1.591,0,0,0-.49,1.472,3.848,3.848,0,0,0,.6,1.751,2.936,2.936,0,0,0,2.862,1.545,1.213,1.213,0,0,0,.8-.682c.089-.242.043-.383.018-.382" fill="#ff9b6c"/>
        <path id="Trazado_655133" data-name="Trazado 655133" d="M9.46,44.326a6.165,6.165,0,0,0,3.017-.24,2.116,2.116,0,0,0,1.317-2.448c-.154-.431-.507-.834-.419-1.284.1-.536.739-.743,1.241-.959A4.142,4.142,0,0,0,16.908,34.7a1.737,1.737,0,0,0,2.14-.951,9.3,9.3,0,0,0,.614-2.513,2.667,2.667,0,0,1,1.4-2.062,6.48,6.48,0,0,0,1.382-.42c.706-.484.579-1.557.277-2.357a3.086,3.086,0,0,1-.294-2.464c.374-.7,1.251-.909,1.991-1.193s1.533-.94,1.332-1.707a1.541,1.541,0,0,0-.829-.883,4.2,4.2,0,0,0-5.1,1.043,5.84,5.84,0,0,0-6.223-1.145,5.838,5.838,0,0,0-3.44,5.31A5.779,5.779,0,0,0,3.13,31.722,4.19,4.19,0,0,0,2,39.349a3.979,3.979,0,0,0-.356,3.834,2.278,2.278,0,0,0,3.389.764,2.407,2.407,0,0,0,2.292,2.21A2.408,2.408,0,0,0,9.663,44" fill="#263238"/>
        <path id="Trazado_655134" data-name="Trazado 655134" d="M4.61,44.168c-.028,0,.163.534.963.889a2.088,2.088,0,0,0,1.514.039,2.247,2.247,0,0,0,1.348-1.375l-.259.1A6.484,6.484,0,0,0,10.1,44.6a3.73,3.73,0,0,0,1.39.062,2.53,2.53,0,0,0,1.2-.534,2.55,2.55,0,0,0,1.106-1.853,3.764,3.764,0,0,0-.2-1.434c-.106-.322-.192-.489-.214-.482a1.672,1.672,0,0,0,.073.517,4.4,4.4,0,0,1,.082,1.37,2.645,2.645,0,0,1-3.354,1.989,6.528,6.528,0,0,1-1.819-.716L8.163,43.4l-.066.209a1.968,1.968,0,0,1-1.119,1.2,1.911,1.911,0,0,1-1.327.036,3.135,3.135,0,0,1-1.041-.681" fill="#455a64"/>
        <path id="Trazado_655135" data-name="Trazado 655135" d="M8.036,25.245c.008.021.17-.043.482-.078a2.224,2.224,0,0,1,1.3.253l.128.07.019-.149a8.074,8.074,0,0,1,1.49-3.751,6.3,6.3,0,0,1,1.952-1.74,5.263,5.263,0,0,1,2.78-.662,5.343,5.343,0,0,1,2.185.55,4.388,4.388,0,0,1,1.581,1.356l.118.169.145-.144a3.645,3.645,0,0,1,2.511-1.035,3.565,3.565,0,0,1,2.061.655,4.879,4.879,0,0,1,1.294,1.477,1.321,1.321,0,0,0-.192-.5,3.591,3.591,0,0,0-.978-1.145,3.686,3.686,0,0,0-2.183-.775,3.9,3.9,0,0,0-2.755,1.078l.263.026a4.677,4.677,0,0,0-1.7-1.488,5.63,5.63,0,0,0-2.339-.6,5.56,5.56,0,0,0-2.971.72A6.514,6.514,0,0,0,11.191,21.4,7.877,7.877,0,0,0,9.763,25.32l.147-.079a2.2,2.2,0,0,0-1.408-.18.971.971,0,0,0-.466.184" fill="#455a64"/>
        <path id="Trazado_655136" data-name="Trazado 655136" d="M65.314,108.4a2.3,2.3,0,0,1-.547-.135l-1.534-.483-5.61-1.868L39.177,99.569l-5.255-1.838-.216-.075.051-.223,1.583-6.8.236.283-7.721.293-.127.005-.044-.115-1.921-5.019c-.2-.548-.362-1-.493-1.359a1.943,1.943,0,0,1-.14-.483,1.93,1.93,0,0,1,.232.447c.154.353.346.79.579,1.324.513,1.228,1.211,2.9,2.069,4.959l-.171-.11,7.716-.4.305-.016-.068.3c-.478,2.116-.994,4.4-1.537,6.807l-.165-.3,5.258,1.827,18.4,6.493L63.3,107.6l1.5.575a2.307,2.307,0,0,1,.512.234" fill="#263238"/>
        <path id="Trazado_655137" data-name="Trazado 655137" d="M92.265,148.236a1.989,1.989,0,0,1-.251-.457l-.628-1.352c-.543-1.173-1.272-2.9-2.248-4.99a74.39,74.39,0,0,0-3.865-7.113c-.8-1.3-1.681-2.632-2.642-3.983s-2.02-2.706-3.081-4.117c-4.263-5.627-8.1-10.739-10.853-14.455l-3.241-4.416-.86-1.217a1.91,1.91,0,0,1-.271-.445,1.986,1.986,0,0,1,.355.382l.938,1.158,3.373,4.316c2.83,3.659,6.712,8.735,10.974,14.363,1.06,1.409,2.118,2.769,3.082,4.136s1.841,2.716,2.635,4.028a67.857,67.857,0,0,1,3.791,7.208c.939,2.123,1.613,3.866,2.1,5.066.216.557.394,1.016.538,1.39a1.938,1.938,0,0,1,.155.5" fill="#263238"/>
        <path id="Trazado_655138" data-name="Trazado 655138" d="M125.7,156.139a2.631,2.631,0,0,1-.4.241l-1.191.649-4.578,2.433-7.19,3.794-4.453,2.358-2.416,1.292-1.249.678-.631.351-.314.18-.152.091-.071.045-.025.018,0,0c.007-.008-.019.019.014-.017.118-.052-.042-.377-.106-.316l-.247.3-10.646-19.88.475-.138c.359,4.8.741,9.9,1.133,15.15.194,2.611.384,5.185.57,7.7l.035.475-.426-.235-2.3-1.259a22.578,22.578,0,0,0-2.293-1.179,37.97,37.97,0,0,0-4.68-1.858,34.643,34.643,0,0,0-4.7-1.227c-.78-.15-1.568-.2-2.339-.3a15.14,15.14,0,0,0-2.3-.134,23.578,23.578,0,0,0-15.3,4.852l-.305.249-.009-.38c-.145-5.96-.262-10.794-.344-14.175-.028-1.647-.051-2.939-.067-3.854,0-.418,0-.749,0-1a1.689,1.689,0,0,1,.016-.342,1.547,1.547,0,0,1,.038.34c.014.254.033.584.056,1,.04.915.1,2.206.166,3.852.122,3.38.3,8.212.512,14.169l-.314-.131a23.84,23.84,0,0,1,15.56-5.047,15.511,15.511,0,0,1,2.341.127c.784.1,1.585.151,2.377.3a35.018,35.018,0,0,1,4.772,1.231,38.531,38.531,0,0,1,4.741,1.871,22.856,22.856,0,0,1,2.32,1.188l2.32,1.27-.392.24c-.187-2.511-.379-5.085-.573-7.7-.387-5.249-.764-10.349-1.118-15.15l-.088-1.2.564,1.063c3.9,7.354,7.5,14.134,10.567,19.921l.03.056-.277.242c-.061.053-.219-.279-.1-.338.037-.044.019-.02.031-.033l.032-.026.05-.035.085-.054.162-.1.321-.181.637-.349,1.256-.671,2.428-1.276,4.474-2.321,7.237-3.706,4.63-2.332,1.219-.6a2.47,2.47,0,0,1,.427-.185" fill="#263238"/>
        <path id="Trazado_655139" data-name="Trazado 655139" d="M67.265,107.692a1.8,1.8,0,0,1-.124-.485c-.069-.381-.153-.844-.254-1.406-.211-1.3-.5-3.054-.839-5.183-.686-4.38-1.6-10.436-2.574-17.129-.246-1.7-.486-3.357-.717-4.955l.23.217-6.6-.6-.341-.031.157-.3,2.566-4.928.056.234-4.27-3.216-1.145-.9a1.942,1.942,0,0,1-.379-.341,1.825,1.825,0,0,1,.441.255l1.2.817c1.1.774,2.574,1.815,4.368,3.082l.128.09-.072.144c-.741,1.48-1.576,3.148-2.488,4.968l-.184-.333,6.609.55.2.017.03.2c.235,1.6.478,3.255.727,4.953.976,6.694,1.83,12.758,2.423,17.152.278,2.138.506,3.9.676,5.207.062.567.114,1.036.157,1.42a1.829,1.829,0,0,1,.02.5" fill="#263238"/>
        <path id="Trazado_655140" data-name="Trazado 655140" d="M76.673,73.692C76.8,73.625,82.61,84.4,89.648,97.765s12.642,24.252,12.514,24.319-5.935-10.71-12.975-24.076S76.546,73.759,76.673,73.692" fill="#263238"/>
        <path id="Trazado_655141" data-name="Trazado 655141" d="M47.253,79.867c0-.069.014,3.539.014,3.539l2.9,1.209,1.823-.955-.528-3.18-3.6-1.175Z" fill="#ff725e"/>
        <path id="Trazado_655142" data-name="Trazado 655142" d="M50.161,84.615l3.274,12.841,10.889,8.235-5.6-14.87L51.94,83.394Z" fill="#ff725e"/>
        <path id="Trazado_655143" data-name="Trazado 655143" d="M47.353,79.533a20.012,20.012,0,0,1,.107,3.24q0,.772-.008,1.636,0,.446-.009.912l0,.237,0,.145c-.031.253-.365.227-.344.2l-.058-.016-.471-.13-4.135-1.173c-2.93-.848-5.573-1.649-7.475-2.264a14.207,14.207,0,0,1-3.034-1.141,4.252,4.252,0,0,1,.852.182l2.287.606c1.927.524,4.585,1.269,7.514,2.117L46.695,85.3l.469.14.057.018.008,0c.048-.164-.061.224-.051.185h0v.009c0,.008.009.009,0,.006l-.205-.011v-.056l0-.06.009-.236c.012-.309.023-.612.035-.908q.038-.859.07-1.631a19.863,19.863,0,0,1,.262-3.226" fill="#263238"/>
        <path id="Trazado_655144" data-name="Trazado 655144" d="M53.492,76.758a18.247,18.247,0,0,1,.244,4.007l0,.328-.322-.084-1.14-.3a26.1,26.1,0,0,1-4.941-1.6,26.034,26.034,0,0,1,5.076,1.094l1.136.312-.319.244a18.256,18.256,0,0,1,.263-4" fill="#263238"/>
        <path id="Trazado_655145" data-name="Trazado 655145" d="M100.757,131.591a5.823,5.823,0,0,1-1.091.622c-.716.37-1.764.884-3.068,1.5-2.606,1.234-6.243,2.861-10.315,4.529s-7.81,3.057-10.533,4c-1.362.474-2.469.843-3.239,1.081a5.78,5.78,0,0,1-1.214.322,5.807,5.807,0,0,1,1.146-.513l3.18-1.236c2.688-1.035,6.395-2.477,10.462-4.141s7.719-3.236,10.361-4.382l3.134-1.349a5.773,5.773,0,0,1,1.177-.438" fill="#263238"/>
        <path id="Trazado_655146" data-name="Trazado 655146" d="M138.247,69.25l11.63-9.109,4.812,5.143-9.14,10.13Z" fill="#ffc09d"/>
        <path id="Trazado_655147" data-name="Trazado 655147" d="M162.736,50.523s-.523-2-2.643-.832c-.769.424-5.477,4.18-5.477,4.18s-3.187,2.32-3.3,2.483a9.572,9.572,0,0,0,.391,1.976l3.939-1.633Z" fill="#ff9b6c"/>
        <path id="Trazado_655148" data-name="Trazado 655148" d="M66.668,225.789A253.624,253.624,0,0,0,45.34,163.8a21.137,21.137,0,0,1,5.766-25.919l131.6-104,3.721,4.707L54.831,142.587A15.11,15.11,0,0,0,50.7,161.112a254.736,254.736,0,0,1,21.875,63.645Z" fill="#b56f57"/>
        <path id="Trazado_655149" data-name="Trazado 655149" d="M54.063,168.146a7.493,7.493,0,0,0-3.07.5,7.481,7.481,0,0,0-2.339,2.051c-.058-.019-.005-.406.315-.941a4.336,4.336,0,0,1,4.168-1.963c.615.094.948.3.926.356" fill="#263238"/>
        <path id="Trazado_655150" data-name="Trazado 655150" d="M50.5,160.689a7.473,7.473,0,0,0-3.07.5,7.481,7.481,0,0,0-2.339,2.051c-.058-.019-.005-.406.315-.941a4.336,4.336,0,0,1,4.168-1.963c.615.094.948.3.926.356" fill="#263238"/>
        <path id="Trazado_655151" data-name="Trazado 655151" d="M72.988,128.364a5.635,5.635,0,0,0-3.712-4.688c.006-.06.395-.1.988.093a4.334,4.334,0,0,1,2.86,3.612c.049.621-.076.991-.136.983" fill="#263238"/>
        <path id="Trazado_655152" data-name="Trazado 655152" d="M78.152,124.159a5.631,5.631,0,0,0-3.712-4.688c.006-.06.395-.1.988.093a4.334,4.334,0,0,1,2.86,3.612c.049.621-.076.991-.136.983" fill="#263238"/>
        <path id="Trazado_655153" data-name="Trazado 655153" d="M89.545,115.333a5.631,5.631,0,0,0-3.712-4.688c.006-.06.395-.1.988.093a4.334,4.334,0,0,1,2.86,3.612c.049.621-.076.991-.136.983" fill="#263238"/>
        <path id="Trazado_655154" data-name="Trazado 655154" d="M95.023,111.046a5.631,5.631,0,0,0-3.712-4.688c.006-.06.4-.1.988.093a4.334,4.334,0,0,1,2.86,3.612c.049.621-.076.991-.136.983" fill="#263238"/>
        <path id="Trazado_655155" data-name="Trazado 655155" d="M100.951,106.384a5.631,5.631,0,0,0-3.712-4.688c.006-.06.4-.1.988.093a4.334,4.334,0,0,1,2.86,3.612c.049.621-.076.991-.136.983" fill="#263238"/>
        <path id="Trazado_655156" data-name="Trazado 655156" d="M106.879,101.723a5.631,5.631,0,0,0-3.712-4.688c.006-.06.395-.1.988.093a4.334,4.334,0,0,1,2.86,3.612c.049.621-.076.991-.136.983" fill="#263238"/>
        <path id="Trazado_655157" data-name="Trazado 655157" d="M112.808,97.061a5.631,5.631,0,0,0-3.712-4.688c.006-.06.395-.1.988.093a4.334,4.334,0,0,1,2.86,3.612c.049.621-.076.991-.136.983" fill="#263238"/>
        <path id="Trazado_655158" data-name="Trazado 655158" d="M118.581,92.473a9.781,9.781,0,0,0-1.21-2.815,7.911,7.911,0,0,0-2.347-1.946c.009-.062.393-.073.957.16a4.4,4.4,0,0,1,1.81,1.478,4.668,4.668,0,0,1,.882,2.16c.068.6-.03.968-.092.963" fill="#263238"/>
        <path id="Trazado_655159" data-name="Trazado 655159" d="M124.052,88.1a9.793,9.793,0,0,0-1.21-2.816,7.949,7.949,0,0,0-2.347-1.946c.009-.061.393-.072.957.16a4.4,4.4,0,0,1,1.81,1.478,4.672,4.672,0,0,1,.882,2.16c.068.6-.03.968-.092.964" fill="#263238"/>
        <path id="Trazado_655160" data-name="Trazado 655160" d="M129.761,83.5a9.793,9.793,0,0,0-1.21-2.816,7.949,7.949,0,0,0-2.347-1.946c.009-.061.394-.072.957.16a4.4,4.4,0,0,1,1.81,1.478,4.672,4.672,0,0,1,.882,2.16c.068.6-.03.968-.092.964" fill="#263238"/>
        <path id="Trazado_655161" data-name="Trazado 655161" d="M135.628,79.08a9.792,9.792,0,0,0-1.21-2.816,7.949,7.949,0,0,0-2.347-1.946c.009-.061.394-.072.957.16a4.4,4.4,0,0,1,1.81,1.478,4.683,4.683,0,0,1,.882,2.16c.068.6-.03.968-.092.964" fill="#263238"/>
        <path id="Trazado_655162" data-name="Trazado 655162" d="M141.8,74.012a9.805,9.805,0,0,0-1.21-2.815,7.93,7.93,0,0,0-2.347-1.946c.009-.062.394-.073.957.16a4.4,4.4,0,0,1,1.81,1.478,4.668,4.668,0,0,1,.882,2.16c.068.6-.03.968-.092.963" fill="#263238"/>
        <path id="Trazado_655163" data-name="Trazado 655163" d="M147.98,68.945a9.793,9.793,0,0,0-1.21-2.816,7.949,7.949,0,0,0-2.347-1.946c.009-.061.394-.072.957.16a4.4,4.4,0,0,1,1.81,1.478,4.673,4.673,0,0,1,.882,2.16c.068.6-.03.968-.092.964" fill="#263238"/>
        <path id="Trazado_655164" data-name="Trazado 655164" d="M154.156,63.878a9.8,9.8,0,0,0-1.21-2.817,7.955,7.955,0,0,0-2.347-1.945c.009-.061.394-.072.957.16a4.4,4.4,0,0,1,1.81,1.478,4.672,4.672,0,0,1,.882,2.16c.068.6-.03.968-.092.964" fill="#263238"/>
        <path id="Trazado_655165" data-name="Trazado 655165" d="M168.858,52.526a9.793,9.793,0,0,0-1.21-2.816,7.949,7.949,0,0,0-2.347-1.946c.009-.061.394-.072.957.16a4.4,4.4,0,0,1,1.81,1.478,4.672,4.672,0,0,1,.882,2.16c.068.6-.03.968-.092.964" fill="#263238"/>
        <path id="Trazado_655166" data-name="Trazado 655166" d="M175.019,47.486a9.793,9.793,0,0,0-1.21-2.816,7.949,7.949,0,0,0-2.347-1.946c.009-.061.394-.072.957.16a4.4,4.4,0,0,1,1.81,1.478,4.683,4.683,0,0,1,.882,2.16c.068.6-.03.968-.092.964" fill="#263238"/>
        <path id="Trazado_655167" data-name="Trazado 655167" d="M181.218,42.724a9.793,9.793,0,0,0-1.21-2.816,7.949,7.949,0,0,0-2.347-1.946c.009-.061.394-.072.957.16a4.4,4.4,0,0,1,1.81,1.478,4.672,4.672,0,0,1,.882,2.16c.068.6-.03.968-.092.964" fill="#263238"/>
        <path id="Trazado_655174" data-name="Trazado 655174" d="M84.037,119.47a5.636,5.636,0,0,0-3.712-4.688c.006-.06.4-.1.988.093a4.334,4.334,0,0,1,2.86,3.612c.049.621-.076.991-.136.983" fill="#263238"/>
        <path id="Trazado_655175" data-name="Trazado 655175" d="M56.916,174.4a7.473,7.473,0,0,0-3.07.5,7.481,7.481,0,0,0-2.339,2.051c-.058-.019-.005-.406.315-.941a4.336,4.336,0,0,1,4.168-1.963c.615.094.948.3.926.356" fill="#263238"/>
        <path id="Trazado_655176" data-name="Trazado 655176" d="M59.968,181.586a7.473,7.473,0,0,0-3.07.5,7.467,7.467,0,0,0-2.339,2.051c-.058-.019,0-.406.315-.941a4.336,4.336,0,0,1,4.168-1.963c.615.094.948.3.926.356" fill="#263238"/>
        <path id="Trazado_655177" data-name="Trazado 655177" d="M62.78,189.516a7.5,7.5,0,0,0-3.091.342,7.508,7.508,0,0,0-2.439,1.931c-.057-.022.016-.406.362-.923a4.334,4.334,0,0,1,4.261-1.752c.61.125.931.347.907.4" fill="#263238"/>
        <path id="Trazado_655178" data-name="Trazado 655178" d="M65.373,196.893a7.485,7.485,0,0,0-3.092.342,7.482,7.482,0,0,0-2.438,1.931c-.057-.022.016-.406.362-.923a4.333,4.333,0,0,1,4.261-1.752c.61.124.932.346.907.4" fill="#263238"/>
        <path id="Trazado_655179" data-name="Trazado 655179" d="M67.658,204.749a7.476,7.476,0,0,0-3.11.045,7.5,7.5,0,0,0-2.613,1.688c-.054-.027.055-.4.449-.884a4.333,4.333,0,0,1,4.41-1.336c.6.182.894.434.864.487" fill="#263238"/>
        <path id="Trazado_655180" data-name="Trazado 655180" d="M70.068,213.546a7.482,7.482,0,0,0-3.105-.188,7.5,7.5,0,0,0-2.731,1.489c-.052-.031.085-.4.513-.849a4.335,4.335,0,0,1,4.5-1c.58.226.859.5.826.55" fill="#263238"/>
        <path id="Trazado_655181" data-name="Trazado 655181" d="M72.311,223.245a7.491,7.491,0,0,0-3.106-.188,7.5,7.5,0,0,0-2.731,1.489c-.051-.031.085-.4.513-.849a4.335,4.335,0,0,1,4.5-1c.58.226.859.5.827.55" fill="#263238"/>
        <path id="Trazado_655182" data-name="Trazado 655182" d="M160.638,50.355a5.25,5.25,0,0,1,5.023.391,9.928,9.928,0,0,1,2.7,2.673,1.717,1.717,0,0,1-.548,2.1c-1.149.865-4.216.788-4.216.788l1.352-1.141-2.17-1.967A2.4,2.4,0,0,1,160.2,52.17c-.778-1.45.435-1.815.435-1.815" fill="#ffc09d"/>
        <path id="Trazado_655183" data-name="Trazado 655183" d="M151.621,55.828a4.266,4.266,0,0,1,2.813-1.569,13.519,13.519,0,0,1,3.73.8s3.685,3.961,4.012,4.811-1.461,2.117-1.461,2.117.467,2.076-.357,3.166-8.489,6.014-8.489,6.014l-5.144-1.534s5.054-5.89,6.375-6.944.75-.565.75-.565l-.383-1.049a3.055,3.055,0,0,0-2.067-1.9l-.591-.161-2.546,2a2.486,2.486,0,0,1,.284-2.4,14.542,14.542,0,0,1,3.074-2.783" fill="#ffc09d"/>
        <path id="Trazado_655184" data-name="Trazado 655184" d="M157.141,56.607s-1.492-2.087-.355-2.865,2.26-.222,3.466.132a4.859,4.859,0,0,1,3.033,2.886c.315,1.25.643,3.039-1.108,3.105s-5.036-3.258-5.036-3.258" fill="#ffc09d"/>
        <path id="Trazado_655185" data-name="Trazado 655185" d="M151.336,56.094a2.77,2.77,0,0,1,1.812-.608,6.214,6.214,0,0,1,4.316,1.576,10.4,10.4,0,0,1,2.791,3.656,4.324,4.324,0,0,1,.535,1.825,17.147,17.147,0,0,1-.864-1.66,12.06,12.06,0,0,0-2.793-3.419,6.4,6.4,0,0,0-3.975-1.61,12.1,12.1,0,0,0-1.822.24" fill="#ff9b6c"/>
        <path id="Trazado_655186" data-name="Trazado 655186" d="M162.153,60.31a9.393,9.393,0,0,1-.358-1.327,6.563,6.563,0,0,0-1.612-2.734,8.187,8.187,0,0,0-2.867-1.434A5.583,5.583,0,0,1,156,54.37a2.91,2.91,0,0,1,1.4.088,6.881,6.881,0,0,1,3.127,1.407,5.847,5.847,0,0,1,1.618,3.029,2.426,2.426,0,0,1,0,1.416" fill="#ff9b6c"/>
        <path id="Trazado_655187" data-name="Trazado 655187" d="M142.721,72.843s6.1.55,9.393-1.847-1.1-6.214-1.1-6.214Z" fill="#ffc09d"/>
        <path id="Trazado_655188" data-name="Trazado 655188" d="M154.744,63.738c-.126.069-.443-.27-.708-.757s-.377-.937-.251-1.006.443.27.708.757.377.937.251,1.006" fill="#ff9b6c"/>
        <path id="Trazado_655189" data-name="Trazado 655189" d="M10.117,100.695s-7.67,43.878-7.09,51.613c.66,8.791,4.278,9.349,9.271,9.8,4.645.416,39.834-4.508,39.834-4.508l-4.088-16.268-23.22,1.185,5.7-23.933Z" fill="#455a64"/>
        <path id="Trazado_655190" data-name="Trazado 655190" d="M59.581,151.87c-.1.1-9.957-10.009-22.005-22.575s-21.735-22.837-21.631-22.937,9.955,10.007,22.007,22.577S59.685,151.77,59.581,151.87" fill="#263238"/>
        <path id="Trazado_655191" data-name="Trazado 655191" d="M50.43,141.539s1.343-7.2,4.487-9.563,11.429-5.061,11.429-5.061.246.94-.931,2.649-5.208,3.919-5.208,3.919l8.877-1.7,8.073-4.366a.748.748,0,0,1,.915.145c.428.484.8,1.409-.642,2.7-2.214,1.978-8.78,6.468-8.78,6.468s.668,7.5-1.728,8.683-11.942,4.357-11.942,4.357l-4.49,1.457-2.305-9.533Z" fill="#ffc09d"/>
        <path id="Trazado_655192" data-name="Trazado 655192" d="M15.051,149.795a4.333,4.333,0,0,1,.426-2.035,8.639,8.639,0,0,1,7.891-5.484,4.34,4.34,0,0,1,2.056.31c-.014.087-.794-.051-2.037.058a9.114,9.114,0,0,0-7.572,5.262c-.535,1.127-.678,1.906-.764,1.889" fill="#263238"/>
      </g>
    </g>
  </g>
</svg>
