<svg xmlns="http://www.w3.org/2000/svg" xmlns:xlink="http://www.w3.org/1999/xlink" width="953.554" height="213.408" viewBox="0 0 953.554 213.408">
  <defs>
    <clipPath id="clip-path">
      <rect id="Rectángulo_336093" data-name="Rectángulo 336093" width="170.103" height="213.408" fill="none"/>
    </clipPath>
    <clipPath id="clip-path-4">
      <rect id="Rectángulo_336087" data-name="Rectángulo 336087" width="22.332" height="83.798" fill="none"/>
    </clipPath>
    <clipPath id="clip-path-5">
      <rect id="Rectángulo_336088" data-name="Rectángulo 336088" width="0.298" height="1.054" fill="none"/>
    </clipPath>
    <clipPath id="clip-path-6">
      <rect id="Rectángulo_336089" data-name="Rectángulo 336089" width="9.657" height="24.218" fill="none"/>
    </clipPath>
    <clipPath id="clip-path-7">
      <rect id="Rectángulo_336090" data-name="Rectángulo 336090" width="61.972" height="20.602" fill="none"/>
    </clipPath>
    <clipPath id="clip-path-8">
      <rect id="Rectángulo_336094" data-name="Rectángulo 336094" width="42.238" height="53.4" fill="#0387d0"/>
    </clipPath>
  </defs>
  <g id="Grupo_947852" data-name="Grupo 947852" transform="translate(-347.248 -4241.632)">
    <path id="Rectángulo_34000" data-name="Rectángulo 34000" d="M0,0H913.239a0,0,0,0,1,0,0V61.321a94,94,0,0,1-94,94H0a0,0,0,0,1,0,0V0A0,0,0,0,1,0,0Z" transform="translate(387.563 4299.245)" fill="#e2e8e0"/>
    <g id="Grupo_947602" data-name="Grupo 947602">
      <g id="Grupo_947599" data-name="Grupo 947599" transform="translate(347.248 4241.632)">
        <g id="Grupo_947598" data-name="Grupo 947598" clip-path="url(#clip-path)">
          <g id="Grupo_947583" data-name="Grupo 947583">
            <g id="Grupo_947582" data-name="Grupo 947582" clip-path="url(#clip-path)">
              <path id="Trazado_654640" data-name="Trazado 654640" d="M67.388,124.591,36.542,140.308,11.309,90.787,42.154,75.07a5.438,5.438,0,0,1,7.315,2.376l20.295,39.83a5.438,5.438,0,0,1-2.376,7.315" transform="translate(-4.044 -26.631)" fill="#455a64"/>
              <path id="Trazado_654641" data-name="Trazado 654641" d="M63.716,127.839a8.271,8.271,0,0,1-8.289,1.623,8.948,8.948,0,0,1-5.045-4.431A8.676,8.676,0,0,1,53.94,113.31a8.28,8.28,0,0,1,6.531-.421,9.081,9.081,0,0,1,5.665,11.118,8.37,8.37,0,0,1-2.42,3.833M52.6,114.959a8.177,8.177,0,0,0-1.676,9.8,8.338,8.338,0,0,0,4.7,4.131,7.654,7.654,0,0,0,9.924-5.057,8.47,8.47,0,0,0-5.281-10.364,7.673,7.673,0,0,0-6.053.387,7.585,7.585,0,0,0-1.615,1.106" transform="translate(-17.66 -40.195)" fill="#fff"/>
              <rect id="Rectángulo_336084" data-name="Rectángulo 336084" width="16.486" height="0.611" transform="matrix(0.891, -0.454, 0.454, 0.891, 32.649, 84.285)" fill="#fff"/>
              <rect id="Rectángulo_336085" data-name="Rectángulo 336085" width="0.611" height="17.032" transform="translate(35.954 73.636) rotate(-26.97)" fill="#fff"/>
              <path id="Trazado_654642" data-name="Trazado 654642" d="M64.4,129.439l-.575-.2A15.654,15.654,0,0,0,64.934,123a9.627,9.627,0,0,0-2.774-6.029c-1.552-1.461-3.749-2.074-5.687-2.616l.164-.588c2.006.56,4.28,1.2,5.942,2.759a10.13,10.13,0,0,1,2.965,6.436,16.71,16.71,0,0,1-1.148,6.472" transform="translate(-20.193 -40.682)" fill="#fff"/>
              <path id="Trazado_654643" data-name="Trazado 654643" d="M63,129.875a14.178,14.178,0,0,1-6.018-2.64,10.132,10.132,0,0,1-3.464-6.182c-.288-2.257.621-4.7,1.35-6.664l.572.213c-.707,1.9-1.586,4.266-1.316,6.374a9.626,9.626,0,0,0,3.246,5.788,13.64,13.64,0,0,0,5.77,2.518Z" transform="translate(-19.118 -40.903)" fill="#fff"/>
              <path id="Trazado_654644" data-name="Trazado 654644" d="M60.056,116.1a18.1,18.1,0,0,1-10.234,4.521l-.06-.608a17.465,17.465,0,0,0,11.566-6.1l.468.393a17.662,17.662,0,0,1-1.74,1.795" transform="translate(-17.794 -40.731)" fill="#fff"/>
              <path id="Trazado_654645" data-name="Trazado 654645" d="M68.561,128.422c-4.981.492-9.348,2.574-11.984,5.712l-.468-.393c2.735-3.26,7.252-5.42,12.391-5.928Z" transform="translate(-20.064 -45.703)" fill="#fff"/>
              <path id="Trazado_654646" data-name="Trazado 654646" d="M40.763,147.5c-.039.02-5.7-11.012-12.644-24.639s-12.543-24.694-12.5-24.713,5.7,11.011,12.645,24.642S40.8,147.476,40.763,147.5" transform="translate(-5.584 -35.094)" fill="#263238"/>
              <path id="Trazado_654647" data-name="Trazado 654647" d="M80.579,145.09c.02.039-4.25,2.255-9.537,4.949s-9.59,4.846-9.609,4.807,4.249-2.254,9.537-4.949,9.589-4.846,9.609-4.807" transform="translate(-21.967 -51.88)" fill="#fff"/>
              <path id="Trazado_654648" data-name="Trazado 654648" d="M81.091,149.793c.02.039-3.145,1.692-7.068,3.691s-7.121,3.589-7.141,3.549,3.144-1.692,7.069-3.691,7.12-3.588,7.14-3.549" transform="translate(-23.916 -53.562)" fill="#fff"/>
              <path id="Trazado_654649" data-name="Trazado 654649" d="M36,105.417a1.055,1.055,0,0,1-.552,1.5l-.411.209.351.689-.666.34-1.343-2.635,1.077-.549a1.055,1.055,0,0,1,1.544.441m-.673.343a.4.4,0,0,0-.612-.177l-.371.188.394.772.37-.188a.4.4,0,0,0,.218-.595" transform="translate(-11.935 -37.478)" fill="#fff"/>
              <path id="Trazado_654650" data-name="Trazado 654650" d="M40.088,104.991l-1,.508.076.606-.68.346-.3-3.165.657-.334,2.386,2.1-.693.353Zm-.475-.45-.732-.689.127,1Z" transform="translate(-13.654 -36.813)" fill="#fff"/>
              <path id="Trazado_654651" data-name="Trazado 654651" d="M42.281,104.047l-.062-.661a1.539,1.539,0,0,0,.91-.137c.276-.14.34-.281.274-.41-.213-.418-1.4.57-1.9-.409-.24-.471-.092-1.03.608-1.386a1.815,1.815,0,0,1,.972-.206l.076.658a1.436,1.436,0,0,0-.756.13c-.279.142-.326.3-.26.431.2.4,1.388-.579,1.883.392.234.459.09,1.026-.61,1.382a1.918,1.918,0,0,1-1.14.216" transform="translate(-14.804 -36.055)" fill="#fff"/>
              <path id="Trazado_654652" data-name="Trazado 654652" d="M45.673,102.319l-.061-.661a1.538,1.538,0,0,0,.91-.137c.276-.14.34-.281.274-.41-.213-.418-1.4.57-1.9-.409-.24-.471-.092-1.03.608-1.386a1.805,1.805,0,0,1,.971-.206l.076.658a1.437,1.437,0,0,0-.756.129c-.279.142-.326.3-.26.431.206.4,1.388-.579,1.883.392.234.459.09,1.026-.61,1.382a1.913,1.913,0,0,1-1.14.216" transform="translate(-16.017 -35.437)" fill="#fff"/>
              <path id="Trazado_654653" data-name="Trazado 654653" d="M50.53,98.012a1.054,1.054,0,0,1-.551,1.5l-.411.209.35.689-.666.34L47.91,98.12l1.077-.549a1.056,1.056,0,0,1,1.544.442m-.673.343a.405.405,0,0,0-.612-.177l-.371.188.394.772.37-.188a.4.4,0,0,0,.218-.595" transform="translate(-17.131 -34.83)" fill="#fff"/>
              <path id="Trazado_654654" data-name="Trazado 654654" d="M52.525,97.468a1.472,1.472,0,1,1,2.008.7,1.46,1.46,0,0,1-2.008-.7m1.946-.991a.724.724,0,1,0-.253,1.077.758.758,0,0,0,.253-1.077" transform="translate(-18.714 -34.064)" fill="#fff"/>
              <path id="Trazado_654655" data-name="Trazado 654655" d="M58.225,95.3l-.364.185.357.7-.666.34-1.343-2.635,1.077-.549a1.056,1.056,0,0,1,1.544.441,1,1,0,0,1-.038,1.067l.931.569-.714.364Zm-.68-1.351-.37.189.393.772.37-.189a.434.434,0,1,0-.393-.772" transform="translate(-20.099 -33.318)" fill="#fff"/>
              <path id="Trazado_654656" data-name="Trazado 654656" d="M60.715,92.138l-.723.369-.3-.591L61.8,90.84l.3.591-.72.367,1.041,2.044-.667.34Z" transform="translate(-21.344 -32.482)" fill="#fff"/>
              <path id="Trazado_654657" data-name="Trazado 654657" d="M83.292,117.14a2.5,2.5,0,0,1-1.954,3.005,2.612,2.612,0,0,1,1.954-3.005" transform="translate(-29.075 -41.886)" fill="#fff"/>
              <path id="Trazado_654658" data-name="Trazado 654658" d="M83.783,122.874a2.19,2.19,0,0,1-2.511,1.88,2.285,2.285,0,0,1,2.511-1.88" transform="translate(-29.061 -43.93)" fill="#fff"/>
              <path id="Trazado_654659" data-name="Trazado 654659" d="M82.74,127.756a2.337,2.337,0,0,1-3.123,1.2,2.438,2.438,0,0,1,3.123-1.2" transform="translate(-28.469 -45.607)" fill="#fff"/>
              <path id="Trazado_654660" data-name="Trazado 654660" d="M78.01,121.352a2.191,2.191,0,0,1,2.219,2.217,2.285,2.285,0,0,1-2.219-2.217" transform="translate(-27.894 -43.392)" fill="#fff"/>
              <path id="Trazado_654661" data-name="Trazado 654661" d="M79.09,125.114a1.661,1.661,0,0,1,.661,2.313,1.734,1.734,0,0,1-.661-2.313" transform="translate(-28.203 -44.738)" fill="#fff"/>
              <path id="Trazado_654662" data-name="Trazado 654662" d="M80.671,114.031a1.984,1.984,0,0,1-.628,2.771,2.069,2.069,0,0,1,.628-2.771" transform="translate(-28.517 -40.775)" fill="#fff"/>
              <path id="Trazado_654663" data-name="Trazado 654663" d="M75.793,113.449a1.932,1.932,0,0,1,2.016,1.907,2.017,2.017,0,0,1-2.016-1.907" transform="translate(-27.102 -40.566)" fill="#fff"/>
              <path id="Trazado_654664" data-name="Trazado 654664" d="M76.36,117.895a2.3,2.3,0,0,1,2.958,1.431,2.394,2.394,0,0,1-2.958-1.431" transform="translate(-27.304 -42.11)" fill="#fff"/>
              <path id="Trazado_654665" data-name="Trazado 654665" d="M77.909,126.063l.021-.02.063-.056c.055-.049.139-.12.238-.22a6.046,6.046,0,0,0,.767-.908,6.651,6.651,0,0,0,.793-1.573,7.357,7.357,0,0,0,.276-1.005c.015-.089.03-.179.046-.27l.023-.137c.006-.046.01-.092.016-.138.01-.093.019-.186.03-.281l.013-.286c0-.048,0-.1.006-.143s0-.1,0-.143c0-.094,0-.188,0-.282l-.019-.278c0-.046-.006-.091-.01-.137l-.017-.135c-.012-.09-.023-.179-.034-.267s-.033-.173-.048-.259c-.008-.043-.016-.085-.024-.128s-.02-.084-.03-.125c-.02-.083-.04-.164-.06-.245a7.361,7.361,0,0,0-.653-1.638,7.694,7.694,0,0,0-.655-.994c-.089-.109-.161-.191-.208-.249l-.053-.066-.018-.022.02.021.055.064c.049.056.121.137.211.246a7.151,7.151,0,0,1,1.322,2.631l.061.246c.01.041.021.082.029.125s.016.085.024.128c.016.086.032.172.049.26s.022.177.034.267l.017.136c.005.046.007.092.011.137l.019.279c0,.093,0,.188,0,.283l0,.143c0,.048,0,.1-.006.144,0,.1-.01.191-.014.287s-.02.188-.03.281c-.006.047-.01.093-.016.139l-.023.137c-.015.091-.031.181-.046.27a7.368,7.368,0,0,1-.278,1.008,6.623,6.623,0,0,1-.8,1.575,5.84,5.84,0,0,1-.775.906c-.1.1-.185.168-.242.217l-.064.055-.022.018" transform="translate(-27.858 -41.5)" fill="#fff"/>
              <path id="Trazado_654666" data-name="Trazado 654666" d="M42.84,137.949a2.5,2.5,0,0,0,3.58.186,2.611,2.611,0,0,0-3.58-.186" transform="translate(-15.319 -49.093)" fill="#fff"/>
              <path id="Trazado_654667" data-name="Trazado 654667" d="M47.027,141.681a2.191,2.191,0,0,0,3-.926,2.285,2.285,0,0,0-3,.926" transform="translate(-16.816 -50.248)" fill="#fff"/>
              <path id="Trazado_654668" data-name="Trazado 654668" d="M51.475,143.663a2.337,2.337,0,0,0,2.809-1.819,2.438,2.438,0,0,0-2.809,1.819" transform="translate(-18.406 -50.71)" fill="#fff"/>
              <path id="Trazado_654669" data-name="Trazado 654669" d="M49.755,135.624a2.19,2.19,0,0,0,.49,3.1,2.284,2.284,0,0,0-.49-3.1" transform="translate(-17.633 -48.496)" fill="#fff"/>
              <path id="Trazado_654670" data-name="Trazado 654670" d="M52.33,138.807a1.661,1.661,0,0,0,1.483,1.894,1.734,1.734,0,0,0-1.483-1.894" transform="translate(-18.707 -49.634)" fill="#fff"/>
              <path id="Trazado_654671" data-name="Trazado 654671" d="M42.213,133.807a1.984,1.984,0,0,0,2.611,1.121,2.07,2.07,0,0,0-2.611-1.121" transform="translate(-15.094 -47.793)" fill="#fff"/>
              <path id="Trazado_654672" data-name="Trazado 654672" d="M44.677,129.186a1.933,1.933,0,0,0,.358,2.752,2.017,2.017,0,0,0-.358-2.752" transform="translate(-15.825 -46.194)" fill="#fff"/>
              <path id="Trazado_654673" data-name="Trazado 654673" d="M47.666,132.3a2.3,2.3,0,0,0-.581,3.235,2.394,2.394,0,0,0,.581-3.235" transform="translate(-16.681 -47.307)" fill="#fff"/>
              <path id="Trazado_654674" data-name="Trazado 654674" d="M53.722,138.516l-.028.005-.083.018c-.072.015-.179.042-.317.063a5.991,5.991,0,0,1-1.187.087,6.653,6.653,0,0,1-1.738-.283,7.454,7.454,0,0,1-.976-.368l-.245-.121-.124-.062c-.041-.022-.081-.046-.121-.069l-.245-.141-.239-.157-.119-.079-.114-.085-.226-.169-.213-.179c-.035-.03-.071-.058-.1-.089l-.1-.093-.2-.184-.182-.192-.089-.094c-.03-.031-.056-.065-.084-.1l-.163-.193a7.315,7.315,0,0,1-.941-1.49,7.626,7.626,0,0,1-.42-1.114c-.036-.136-.06-.243-.08-.314-.009-.035-.015-.062-.021-.082s-.008-.028-.008-.028l.006.028c0,.02.01.047.019.082.017.073.04.179.075.316a7.154,7.154,0,0,0,1.352,2.616l.163.193c.028.033.055.067.084.1l.089.1.182.192.2.185.1.094c.035.031.07.06.105.089l.214.18c.074.057.15.112.226.17l.115.085.12.08.24.157.245.141c.041.023.081.048.122.069l.125.062.246.121a7.4,7.4,0,0,0,.978.368,6.6,6.6,0,0,0,1.745.278,5.848,5.848,0,0,0,1.188-.094c.139-.023.245-.051.317-.068l.082-.02.028-.008" transform="translate(-16.22 -47.56)" fill="#fff"/>
            </g>
          </g>
          <g id="Grupo_947597" data-name="Grupo 947597">
            <g id="Grupo_947596" data-name="Grupo 947596" clip-path="url(#clip-path)">
              <path id="Trazado_654675" data-name="Trazado 654675" d="M14.213,301.161h-.547a4.623,4.623,0,0,1-4.624-4.624v-25.92a4.624,4.624,0,0,1,4.624-4.624h.547a4.624,4.624,0,0,1,4.624,4.624v25.92a4.623,4.623,0,0,1-4.624,4.624" transform="translate(-3.233 -95.112)" fill="#263238"/>
              <path id="Trazado_654676" data-name="Trazado 654676" d="M51.216,288.426s-12.771-.014-18.4,0-11.694.642-14.142-2.681c-1.916-2.6-1.584-6.033-1.436-9.145q.62-13.125,1.241-26.249a19.015,19.015,0,0,1,1.228-7.006c.992-2.213,5.454-32.881,8.14-33.391H50.6Z" transform="translate(-6.12 -75.074)" fill="#263238"/>
              <path id="Trazado_654677" data-name="Trazado 654677" d="M47.588,310.181c0,.093-6.1.167-13.621.167s-13.621-.074-13.621-.167,6.1-.167,13.621-.167,13.621.075,13.621.167" transform="translate(-7.276 -110.853)" fill="#455a64"/>
              <path id="Trazado_654678" data-name="Trazado 654678" d="M45.771,254.947c.093,0,.167,7.944.167,17.741s-.075,17.742-.167,17.742-.167-7.942-.167-17.742.075-17.741.167-17.741" transform="translate(-16.307 -91.163)" fill="#455a64"/>
              <path id="Trazado_654679" data-name="Trazado 654679" d="M19.2,299.637a1.231,1.231,0,0,1-.039-.326c-.013-.252-.028-.561-.048-.935-.035-.812-.069-1.988-.1-3.441-.063-2.906-.1-6.922-.064-11.356s.143-8.451.254-11.356c.056-1.452.11-2.627.159-3.438.025-.374.046-.682.063-.934a1.229,1.229,0,0,1,.044-.325,1.214,1.214,0,0,1,.023.328c0,.253,0,.561,0,.936-.013.863-.03,2.026-.052,3.441-.04,2.951-.1,6.941-.156,11.352-.013,4.41-.025,8.4-.034,11.351,0,1.415,0,2.578-.006,3.441-.006.375-.012.684-.015.936a1.2,1.2,0,0,1-.028.327" transform="translate(-6.772 -95.66)" fill="#455a64"/>
              <path id="Trazado_654680" data-name="Trazado 654680" d="M212.567,140.868s9.99,1.9,15.073,18.034c5.813,18.441,15.623,56.255,15.549,60.622s-11.2,11.352-11.2,11.352l-15.94-5.313L207.683,194.1Z" transform="translate(-74.262 -50.371)" fill="#fcc843"/>
              <path id="Trazado_654681" data-name="Trazado 654681" d="M143.462,134.592l-24.583-9.117-1.682-2.158-31.7.981-2.39,1.517s-23.823,5.228-26.293,5.545c-5.777.741-11.841,8.691-11.841,8.691-.611.742-30.551,44.286-30.551,44.286l7,27.4s3.295,1.165,12.768-5.053c7.505-4.927,13.341-12.725,15.443-15.754L49.6,257.447h92.853l-5.057-42.189Z" transform="translate(-5.157 -44.095)" fill="#fcc843"/>
              <path id="Trazado_654682" data-name="Trazado 654682" d="M207.939,191.2a1.258,1.258,0,0,1,.04-.33l.179-.931c.172-.856.4-2.011.685-3.417.571-2.886,1.309-6.882,1.978-11.32s1.138-8.477,1.442-11.4l.351-3.467c.041-.378.075-.689.1-.942a1.231,1.231,0,0,1,.058-.327,1.234,1.234,0,0,1,.008.331c-.011.255-.024.568-.04.948-.04.823-.123,2.011-.245,3.479-.243,2.935-.679,6.984-1.347,11.43s-1.446,8.442-2.077,11.319c-.315,1.439-.587,2.6-.79,3.4-.1.368-.175.671-.24.918a1.228,1.228,0,0,1-.106.315" transform="translate(-74.352 -56.877)" fill="#263238"/>
              <path id="Trazado_654683" data-name="Trazado 654683" d="M64.635,181.372a1.857,1.857,0,0,1,.085.4l.179,1.156c.15,1,.344,2.46.565,4.262.443,3.6.964,8.593,1.368,14.119s.61,10.541.694,14.171c.043,1.815.062,3.283.059,4.3,0,.479-.006.866-.009,1.169a1.885,1.885,0,0,1-.026.408,1.872,1.872,0,0,1-.042-.407c-.013-.3-.031-.689-.053-1.167-.041-1.056-.1-2.513-.166-4.294-.145-3.625-.39-8.632-.791-14.154s-.887-10.509-1.27-14.117c-.191-1.772-.346-3.221-.459-4.272-.048-.477-.086-.862-.116-1.163a1.853,1.853,0,0,1-.018-.409" transform="translate(-23.11 -64.854)" fill="#263238"/>
              <path id="Trazado_654684" data-name="Trazado 654684" d="M156.5,131.089a2.226,2.226,0,0,1-.326.324c-.222.2-.554.5-.989.867-.869.739-2.143,1.793-3.777,3.018a38.542,38.542,0,0,1-6.064,3.847,23.7,23.7,0,0,1-8.547,2.019,21.123,21.123,0,0,1-8.7-1.193,14.576,14.576,0,0,1-5.815-4.175,11.824,11.824,0,0,1-2.3-4.253,8.97,8.97,0,0,1-.27-1.291,2.4,2.4,0,0,1-.046-.457,2.357,2.357,0,0,1,.112.445,11.421,11.421,0,0,0,.328,1.264,12.208,12.208,0,0,0,2.354,4.139,14.548,14.548,0,0,0,5.746,4.04,21.13,21.13,0,0,0,8.566,1.146,23.774,23.774,0,0,0,8.436-1.965,40.23,40.23,0,0,0,6.054-3.758c1.647-1.2,2.941-2.221,3.835-2.928l1.027-.818a2.515,2.515,0,0,1,.369-.272" transform="translate(-42.792 -46.412)" fill="#263238"/>
              <g id="Grupo_947586" data-name="Grupo 947586" transform="translate(44.441 115.469)" opacity="0.3">
                <g id="Grupo_947585" data-name="Grupo 947585">
                  <g id="Grupo_947584" data-name="Grupo 947584" clip-path="url(#clip-path-4)">
                    <path id="Trazado_654685" data-name="Trazado 654685" d="M91.029,179.74c-3.7,2.56-4.149,7.752-4.359,12.249-.864,18.462-12.647,53.713-17.493,71.549,15.256-23.566,24.609-55.861,21.852-83.8" transform="translate(-69.177 -179.739)"/>
                  </g>
                </g>
              </g>
              <path id="Trazado_654686" data-name="Trazado 654686" d="M89.6,130.548s-1.233,39.73-4.639,63.573S65.036,249.7,65.036,249.7l-2.661-5.2s9.133-26.487,13.267-48.672c2.922-15.685,0-62.945,0-62.945A18.75,18.75,0,0,1,89.6,130.548" transform="translate(-22.304 -46.512)" fill="#263238"/>
              <path id="Trazado_654687" data-name="Trazado 654687" d="M91.1,171.489c-.093,0,.123-8.276.482-18.477s.724-18.47.816-18.467-.123,8.275-.482,18.479-.723,18.468-.816,18.465" transform="translate(-32.567 -48.11)" fill="#455a64"/>
              <path id="Trazado_654688" data-name="Trazado 654688" d="M7.064,194.409,3.9,202.593s-4.2,8.564-3.878,14.38,7.66,27.087,22.48,20.19,7.424-18.09,7.424-18.09l-6.961-19.065-10.929-7.189a3.352,3.352,0,0,0-4.968,1.59" transform="translate(0 -68.75)" fill="#fcc843"/>
              <path id="Trazado_654689" data-name="Trazado 654689" d="M29.325,153.5c.969,1.293,6.568-.193,7.84,2.423a4.843,4.843,0,0,1,0,4.587,5.355,5.355,0,0,1,.566,5.754,7.479,7.479,0,0,1,.6,3.878,5.731,5.731,0,0,1-1.882,3.393,3.571,3.571,0,0,1-1.467,3.555c-1.938,1.293-7.026,2.274-7.026,2.274l-2.1,3.865s-2.9,3.231-6.5,1.777-6.025-8.615-6.025-8.615c.161-.917,4.2-7.605,4.2-7.605s.808-9.954,2.584-12.378A12.067,12.067,0,0,1,22.7,153.5s1.546-3.321,1.546-4.748-1.323-5.985-.53-6.912,4.052-.28,5.48,3.49.128,8.169.128,8.169" transform="translate(-4.766 -50.582)" fill="#ffc09d"/>
              <path id="Trazado_654690" data-name="Trazado 654690" d="M45.36,170.32c-.018.1-1.925-.236-4.3-.244s-4.283.291-4.3.191a4.105,4.105,0,0,1,1.238-.3,19.357,19.357,0,0,1,6.125.038,4.1,4.1,0,0,1,1.234.316" transform="translate(-13.145 -60.695)" fill="#ff9b6c"/>
              <path id="Trazado_654691" data-name="Trazado 654691" d="M46.324,180.535c-.021.1-1.813-.265-4.051-.266s-4.034.336-4.054.235a11.269,11.269,0,0,1,4.055-.57,11.265,11.265,0,0,1,4.05.6" transform="translate(-13.666 -64.34)" fill="#ff9b6c"/>
              <path id="Trazado_654692" data-name="Trazado 654692" d="M46.178,191.193a9.943,9.943,0,0,1-3.517.753,9.937,9.937,0,0,1-3.59-.226c.011-.1,1.607.043,3.565-.108s3.517-.516,3.542-.419" transform="translate(-13.971 -68.36)" fill="#ff9b6c"/>
              <path id="Trazado_654693" data-name="Trazado 654693" d="M36.568,198.4a4.932,4.932,0,0,1-1.485.658,11.587,11.587,0,0,1-7.727-.289A4.968,4.968,0,0,1,25.926,198a16.8,16.8,0,0,0,5.283,1.241,16.779,16.779,0,0,0,5.36-.842" transform="translate(-9.27 -70.797)" fill="#ff9b6c"/>
              <path id="Trazado_654694" data-name="Trazado 654694" d="M37.426,161.157c-.019.1-2.076-.335-4.641-.243-2.566.072-4.59.641-4.616.538a4.512,4.512,0,0,1,1.307-.436,16.653,16.653,0,0,1,6.617-.211,4.509,4.509,0,0,1,1.332.351" transform="translate(-10.072 -57.416)" fill="#ff9b6c"/>
              <path id="Trazado_654695" data-name="Trazado 654695" d="M40.99,232.579c-.029-.015.168-.405.45-1.138a14.637,14.637,0,0,0,.85-3.2,15.34,15.34,0,0,0-.059-4.885,14.494,14.494,0,0,0-2.193-5.535,33.5,33.5,0,0,1-3.189-5.175A20.753,20.753,0,0,1,35.5,207.86c-.233-1.4-.343-2.534-.415-3.319-.027-.362-.05-.66-.069-.906a1.146,1.146,0,0,1,0-.319,1.14,1.14,0,0,1,.068.311c.035.244.079.54.131.9.111.78.257,1.911.518,3.291a21.6,21.6,0,0,0,1.4,4.705,35.011,35.011,0,0,0,3.188,5.118,14.516,14.516,0,0,1,2.216,5.665,15.049,15.049,0,0,1-.012,4.974,13.246,13.246,0,0,1-.963,3.211,8.091,8.091,0,0,1-.4.817,1.142,1.142,0,0,1-.167.27" transform="translate(-12.518 -72.701)" fill="#263238"/>
              <g id="Grupo_947589" data-name="Grupo 947589" transform="translate(22.697 130.395)" opacity="0.3">
                <g id="Grupo_947588" data-name="Grupo 947588">
                  <g id="Grupo_947587" data-name="Grupo 947587" clip-path="url(#clip-path-5)">
                    <path id="Trazado_654696" data-name="Trazado 654696" d="M35.331,203.007c.086.345.189.684.3,1.019,0-.352,0-.7,0-1.054Z" transform="translate(-35.331 -202.973)"/>
                  </g>
                </g>
              </g>
              <g id="Grupo_947592" data-name="Grupo 947592" transform="translate(22.995 131.449)" opacity="0.3">
                <g id="Grupo_947591" data-name="Grupo 947591">
                  <g id="Grupo_947590" data-name="Grupo 947590" clip-path="url(#clip-path-6)">
                    <path id="Trazado_654697" data-name="Trazado 654697" d="M41.867,215.06c-2.2-3.39-4.832-6.634-6.073-10.447.009,3.243.155,6.546,1.51,9.473a47.782,47.782,0,0,0,3.391,5.362,10.1,10.1,0,0,1,1.925,5.94,7.2,7.2,0,0,0-.055,2.243c.183.73.933,1.4,1.641,1.145a1.783,1.783,0,0,0,.93-1.339c1.106-4.255-.878-8.689-3.27-12.378" transform="translate(-35.794 -204.613)"/>
                  </g>
                </g>
              </g>
              <path id="Trazado_654698" data-name="Trazado 654698" d="M161.189,46.854c-1.471.823-3.443-.242-4.11-1.79a7.162,7.162,0,0,1,.15-4.943,20.639,20.639,0,0,0,1.313-4.866,7.173,7.173,0,0,0-4.815-7.049,6.708,6.708,0,0,0,.467-9.663,27.005,27.005,0,0,0-4.3-2.76,14.924,14.924,0,0,1-2.264-1.846,9.2,9.2,0,0,0,3.9.121,6.308,6.308,0,0,0,4.578-4.009,5.724,5.724,0,0,0-1.383-5.863,5.244,5.244,0,0,0-5.894-.874c-1.848.975-2.862,2.985-3.76,4.872l-.835,1.753c-2.6-3.447-5.048-7.007-9.061-8.219-3.637-1.1-7.551.127-11.34-.148-2.762-.2-5.411-1.2-8.164-1.5s-5.883.286-7.509,2.528c-.954,1.316-1.255,3.019-2.22,4.327-1.993,2.7-6.288,3.067-7.927,6-1.332,2.38-.307,5.385-.879,8.052-.622,2.9-3.011,5.02-4.97,7.247s-3.66,5.289-2.563,8.045c.965,2.425,3.794,3.729,4.715,6.17.672,1.781.182,3.759.148,5.662s.729,4.161,2.583,4.593l21.1,5.574c7.268,2.956,14.767,5.96,22.613,5.948s16.222-3.777,19.32-10.987a4.51,4.51,0,0,1-3.03-1.357,7.548,7.548,0,0,0,4.13-5.016" transform="translate(-31.918 0)" fill="#263238"/>
              <path id="Trazado_654699" data-name="Trazado 654699" d="M172.351,61.5a97.818,97.818,0,0,0,4.252-16.32,34.149,34.149,0,0,0-1.338-16.659c-.3-.8-2.832-6.166-3.681-6.082-.607.06.954,5.066.648,5.593-2.929,5.03-3.725,11.079-3.258,16.88A76.22,76.22,0,0,0,172.351,61.5" transform="translate(-60.376 -8.023)" fill="#263238"/>
              <path id="Trazado_654700" data-name="Trazado 654700" d="M127.4,9.021l-1.3.07a25.237,25.237,0,0,0-23.882,24.518c-.329,12.232-.78,23.972-.349,30.5.892,13.517,14.778,14.926,14.778,14.926v6.977c.6,7.12,9.816,8.393,13.312,8.088,12.073,0,18.366-9.877,18.366-9.877l.568-49c.458-14.11-7.371-26.137-21.488-26.2" transform="translate(-36.362 -3.226)" fill="#ffc09d"/>
              <path id="Trazado_654701" data-name="Trazado 654701" d="M124.97,114.539a32.721,32.721,0,0,0,17.333-6.151s-3.767,10.068-17.329,9.573Z" transform="translate(-44.686 -38.757)" fill="#ff9b6c"/>
              <path id="Trazado_654702" data-name="Trazado 654702" d="M112.2,63.532a1.935,1.935,0,0,0,1.967,1.85,1.851,1.851,0,0,0,1.9-1.849,1.935,1.935,0,0,0-1.965-1.85,1.852,1.852,0,0,0-1.9,1.85" transform="translate(-40.12 -22.056)" fill="#263238"/>
              <path id="Trazado_654703" data-name="Trazado 654703" d="M107.458,54.545c.253.239,1.658-.923,3.738-1.029,2.075-.136,3.658.852,3.869.585.1-.119-.163-.56-.853-1.009a5.314,5.314,0,0,0-3.115-.78,5.1,5.1,0,0,0-2.958,1.133c-.613.525-.8.992-.681,1.1" transform="translate(-38.412 -18.703)" fill="#263238"/>
              <path id="Trazado_654704" data-name="Trazado 654704" d="M141.479,63.6a1.934,1.934,0,0,0,1.967,1.849,1.85,1.85,0,0,0,1.9-1.848,1.935,1.935,0,0,0-1.965-1.85,1.851,1.851,0,0,0-1.9,1.85" transform="translate(-50.589 -22.08)" fill="#263238"/>
              <path id="Trazado_654705" data-name="Trazado 654705" d="M139.222,54.155c.254.239,1.661-.922,3.738-1.028,2.074-.136,3.658.852,3.87.585.1-.119-.161-.56-.854-1.008a5.305,5.305,0,0,0-3.114-.781,5.108,5.108,0,0,0-2.958,1.133c-.611.525-.8.993-.681,1.1" transform="translate(-49.77 -18.563)" fill="#263238"/>
              <path id="Trazado_654706" data-name="Trazado 654706" d="M125.974,71.218a13.76,13.76,0,0,0-3.409-.428c-.534-.026-1.042-.1-1.151-.462a2.7,2.7,0,0,1,.27-1.593q.646-1.967,1.353-4.126c1.871-5.872,3.2-10.688,2.959-10.761s-1.947,4.626-3.818,10.5q-.673,2.171-1.286,4.147a3.081,3.081,0,0,0-.163,2.1,1.332,1.332,0,0,0,.914.729,3.57,3.57,0,0,0,.908.077,13.559,13.559,0,0,0,3.422-.179" transform="translate(-43.121 -19.255)" fill="#263238"/>
              <path id="Trazado_654707" data-name="Trazado 654707" d="M135.088,82.614c-.339,0-.222,2.255-2.068,3.96s-4.261,1.586-4.261,1.9c-.024.143.56.409,1.576.382A5.625,5.625,0,0,0,133.9,87.4a4.9,4.9,0,0,0,1.589-3.313c.036-.948-.246-1.493-.4-1.472" transform="translate(-46.041 -29.54)" fill="#263238"/>
              <path id="Trazado_654708" data-name="Trazado 654708" d="M138.709,41.268c.235.554,2.3.175,4.751.339,2.458.114,4.463.722,4.759.2.132-.25-.24-.763-1.064-1.268a8.279,8.279,0,0,0-7.245-.409c-.876.409-1.3.877-1.2,1.14" transform="translate(-49.593 -14.118)" fill="#263238"/>
              <path id="Trazado_654709" data-name="Trazado 654709" d="M108.2,43.653c.391.452,1.8-.114,3.517-.23,1.717-.175,3.2.147,3.506-.365.134-.247-.121-.708-.782-1.121a5.1,5.1,0,0,0-5.659.48c-.583.517-.756,1.014-.583,1.236" transform="translate(-38.668 -14.767)" fill="#263238"/>
              <path id="Trazado_654710" data-name="Trazado 654710" d="M174.279,65.16c.225-.112,9.147-3.247,9.347,6.016s-9.141,7.554-9.163,7.288-.184-13.3-.184-13.3" transform="translate(-62.318 -23.085)" fill="#ffc09d"/>
              <path id="Trazado_654711" data-name="Trazado 654711" d="M178.849,76.546c.04-.031.164.109.439.228a1.61,1.61,0,0,0,1.206,0c.971-.38,1.762-1.952,1.771-3.623a5.335,5.335,0,0,0-.5-2.3,1.867,1.867,0,0,0-1.241-1.213.822.822,0,0,0-.942.463c-.119.261-.056.445-.1.463-.025.024-.2-.151-.136-.535a1.032,1.032,0,0,1,.353-.588,1.217,1.217,0,0,1,.887-.255,2.267,2.267,0,0,1,1.717,1.4,5.48,5.48,0,0,1,.615,2.57c-.019,1.868-.937,3.635-2.268,4.051a1.727,1.727,0,0,1-1.481-.213c-.292-.223-.345-.428-.314-.446" transform="translate(-63.949 -24.737)" fill="#ff9b6c"/>
              <path id="Trazado_654712" data-name="Trazado 654712" d="M111.364,17.264c-1.51-.808,2.928-5.721,6.591-7.441,5.537-2.6,14.021-4.263,19.174-2.873,6.2,1.674,11.381,4.684,14.556,10.271a36.434,36.434,0,0,1,4.329,18.553,11.061,11.061,0,0,1-1.233,5.677c-1.268,2.065-3.734,3.387-3.589,6.211a3.879,3.879,0,0,1-.926,2.841c-1.672,1.825-3.767.157-4.743-1.529-2.083-3.6-2.365-7.933-2.6-12.087a27.1,27.1,0,0,1,.473-8.819c.434-1.55,1.143-3.019,1.49-4.591a5.565,5.565,0,0,0-.716-4.616,5.754,5.754,0,0,0-.763-.752,9.663,9.663,0,0,0-9.609-1.7c-5.193,1.913-14.068,4.783-16.418,3.043-3.38-2.5-4.2-4.155-4.2-4.155Z" transform="translate(-39.713 -2.305)" fill="#263238"/>
              <path id="Trazado_654713" data-name="Trazado 654713" d="M138.972,4.687a20.355,20.355,0,0,0-15.641,1.059,10.592,10.592,0,0,0-5.506,6.224c-.736,2.753.478,6.113,3.131,7.155l.183.112c3.97,1.28,6.532.717,10.456-.7,3.3-1.19,6.224-3.274,9.532-4.449a18.833,18.833,0,0,1,11.016-.462,30.732,30.732,0,0,0-13.17-8.941" transform="translate(-42.055 -1.294)" fill="#263238"/>
              <path id="Trazado_654714" data-name="Trazado 654714" d="M168.513,16.96c-.079.071-.826-.816-2.33-1.86a13.49,13.49,0,0,0-2.811-1.5,8.657,8.657,0,0,0-3.768-.631,12.593,12.593,0,0,0-6.458,2.663c-1.433,1.137-2.1,2.091-2.186,2.023-.031-.022.1-.283.4-.712a9.979,9.979,0,0,1,1.5-1.647,11.969,11.969,0,0,1,6.69-2.944,8.771,8.771,0,0,1,4.029.718,12.239,12.239,0,0,1,2.859,1.681,7,7,0,0,1,2.071,2.213" transform="translate(-53.978 -4.407)" fill="#455a64"/>
              <path id="Trazado_654715" data-name="Trazado 654715" d="M173.1,24.65a7.844,7.844,0,0,1-.705,2.644,19.25,19.25,0,0,1-8.648,9.744,7.83,7.83,0,0,1-2.541,1.014c-.109-.179,3.89-1.7,7.252-5.543,3.418-3.794,4.452-7.945,4.643-7.858" transform="translate(-57.643 -8.814)" fill="#455a64"/>
              <path id="Trazado_654716" data-name="Trazado 654716" d="M176.564,26.986a3.163,3.163,0,0,1,.037,1.055,16.419,16.419,0,0,1-.4,2.846A19.351,19.351,0,0,1,164.157,44.7a16.477,16.477,0,0,1-2.764.79,3.161,3.161,0,0,1-1.05.107c-.024-.109,1.456-.366,3.65-1.3A20.373,20.373,0,0,0,175.772,30.78c.629-2.3.682-3.8.792-3.794" transform="translate(-57.335 -9.649)" fill="#455a64"/>
              <path id="Trazado_654717" data-name="Trazado 654717" d="M126.916,3.956a25.033,25.033,0,0,1-2.454.924,20.139,20.139,0,0,0-9.505,7.832,25.062,25.062,0,0,1-1.377,2.232,7.26,7.26,0,0,1,1-2.457,17.555,17.555,0,0,1,9.731-8.017,7.252,7.252,0,0,1,2.6-.513" transform="translate(-40.61 -1.407)" fill="#455a64"/>
              <path id="Trazado_654718" data-name="Trazado 654718" d="M186.206,5.774c.154,0-.251,2.684-2.349,5.155-2.071,2.494-4.648,3.359-4.671,3.206-.092-.17,2.241-1.239,4.2-3.6,1.99-2.335,2.64-4.818,2.823-4.757" transform="translate(-64.072 -2.064)" fill="#455a64"/>
              <path id="Trazado_654719" data-name="Trazado 654719" d="M144.1,73.2a.344.344,0,1,1-.344-.344.344.344,0,0,1,.344.344" transform="translate(-51.282 -26.052)" fill="#ff9b6c"/>
              <path id="Trazado_654720" data-name="Trazado 654720" d="M148.071,73.2a.344.344,0,1,1-.344-.344.344.344,0,0,1,.344.344" transform="translate(-52.7 -26.052)" fill="#ff9b6c"/>
              <path id="Trazado_654721" data-name="Trazado 654721" d="M161.634,225.315l-39.882-11.909a1.281,1.281,0,0,1-.861-1.6l16.439-55.056a1.282,1.282,0,0,1,1.6-.861L178.807,167.8a1.282,1.282,0,0,1,.861,1.594l-16.439,55.056a1.282,1.282,0,0,1-1.6.861" transform="translate(-43.208 -55.725)" fill="#455a64"/>
              <path id="Trazado_654722" data-name="Trazado 654722" d="M122.565,228.942a3.469,3.469,0,0,1-2.816-3.547,3.487,3.487,0,1,1,6.97.249l-.642-.022a2.845,2.845,0,1,0-3.39,2.69Z" transform="translate(-42.819 -79.393)" fill="#263238"/>
              <path id="Trazado_654723" data-name="Trazado 654723" d="M124.8,221.579a3.487,3.487,0,1,1,4.154-3.3l-.642-.022a2.845,2.845,0,1,0-3.39,2.69Z" transform="translate(-43.619 -76.76)" fill="#263238"/>
              <path id="Trazado_654724" data-name="Trazado 654724" d="M127.045,214.217a3.488,3.488,0,1,1,4.155-3.3l-.642-.022a2.845,2.845,0,1,0-3.39,2.69Z" transform="translate(-44.421 -74.128)" fill="#263238"/>
              <path id="Trazado_654725" data-name="Trazado 654725" d="M129.284,206.856a3.488,3.488,0,1,1,4.155-3.3l-.642-.022a2.845,2.845,0,1,0-3.389,2.69Z" transform="translate(-45.221 -71.496)" fill="#263238"/>
              <path id="Trazado_654726" data-name="Trazado 654726" d="M131.523,199.493a3.488,3.488,0,0,1-1.707-5.975,3.487,3.487,0,0,1,5.861,2.677l-.642-.022a2.847,2.847,0,0,0-2.74-2.945,2.845,2.845,0,0,0-.649,5.635Z" transform="translate(-46.022 -68.863)" fill="#263238"/>
              <path id="Trazado_654727" data-name="Trazado 654727" d="M133.763,192.132a3.488,3.488,0,0,1-1.706-5.976,3.521,3.521,0,0,1,2.5-.932,3.487,3.487,0,0,1,3.361,3.609l-.642-.022a2.845,2.845,0,1,0-3.39,2.69Z" transform="translate(-46.823 -66.231)" fill="#263238"/>
              <path id="Trazado_654728" data-name="Trazado 654728" d="M136,184.77a3.487,3.487,0,0,1,.667-6.91l.127,0a3.492,3.492,0,0,1,3.361,3.61l-.642-.022a2.845,2.845,0,1,0-3.389,2.69Z" transform="translate(-47.624 -63.598)" fill="#263238"/>
              <path id="Trazado_654729" data-name="Trazado 654729" d="M138.241,177.407a3.488,3.488,0,1,1,4.155-3.3l-.642-.022a2.845,2.845,0,1,0-3.389,2.69Z" transform="translate(-48.424 -60.965)" fill="#263238"/>
              <path id="Trazado_654730" data-name="Trazado 654730" d="M140.482,170.046a3.488,3.488,0,1,1,4.155-3.3l-.642-.022a2.848,2.848,0,0,0-2.741-2.945,2.845,2.845,0,0,0-.649,5.635Z" transform="translate(-49.225 -58.333)" fill="#263238"/>
              <path id="Trazado_654731" data-name="Trazado 654731" d="M142.721,162.684a3.488,3.488,0,1,1,4.155-3.3l-.642-.022a2.845,2.845,0,1,0-3.389,2.69Z" transform="translate(-50.026 -55.701)" fill="#263238"/>
              <path id="Trazado_654732" data-name="Trazado 654732" d="M120.326,236.3a3.488,3.488,0,0,1-1.706-5.976,3.487,3.487,0,0,1,5.86,2.678l-.642-.022a2.845,2.845,0,1,0-3.39,2.69Z" transform="translate(-42.018 -82.026)" fill="#263238"/>
              <path id="Trazado_654733" data-name="Trazado 654733" d="M125.953,210.309c.708-1.819,8.4-28.87,11.914-39.977A4.982,4.982,0,0,1,144,167.2l39.5,11.742a4.661,4.661,0,0,1,3.03,5.723L169.07,245.146a4.662,4.662,0,0,1-5.7,3.207l-40.25-10.879a4.661,4.661,0,0,1-3.267-5.773l6-21.145Z" transform="translate(-42.794 -59.706)" fill="#fff"/>
              <path id="Trazado_654734" data-name="Trazado 654734" d="M138.053,165.195a3.06,3.06,0,0,0-3.719,2.062c-2.942,9.631-12.429,40.666-13.131,42.6l-7,22.931a3.061,3.061,0,0,0,2.157,3.856l43.361,11.274a3.061,3.061,0,0,0,3.711-2.114l18.9-65.52a3.062,3.062,0,0,0-2.149-3.805Z" transform="translate(-40.788 -59.032)" fill="#e0e0e0"/>
              <path id="Trazado_654735" data-name="Trazado 654735" d="M137.969,165.185s.209.044.614.146l1.793.463,6.886,1.812,25.31,6.725,4.1,1.092,2.119.565,1.077.287a3.671,3.671,0,0,1,1.079.418,3.2,3.2,0,0,1,1.533,3.039,6.475,6.475,0,0,1-.275,1.161q-.65,2.261-1.323,4.6c-1.8,6.248-3.717,12.922-5.737,19.947s-4.146,14.4-6.347,22.039q-1.653,5.732-3.36,11.657-.853,2.96-1.718,5.962l-.218.752a3.256,3.256,0,0,1-1.5,1.9,3.236,3.236,0,0,1-1.587.419,3.358,3.358,0,0,1-.823-.1l-.764-.2-23.837-6.2-11.334-2.951-5.495-1.431-1.355-.353a5.2,5.2,0,0,1-1.347-.468,3.218,3.218,0,0,1-1.489-3.724q.2-.651.4-1.3.4-1.294.787-2.572l1.542-5.039,2.951-9.635,5.335-17.279,7.763-25.006,1.225-3.922a5.937,5.937,0,0,1,.606-1.537,3.089,3.089,0,0,1,2.773-1.384,2.455,2.455,0,0,1,.621.116c0,.014-.208-.057-.623-.082a3.079,3.079,0,0,0-1.748.46,3.019,3.019,0,0,0-.953.936,5.891,5.891,0,0,0-.581,1.521q-.519,1.709-1.2,3.931l-7.663,25.041-5.3,17.293-2.933,9.637q-.757,2.484-1.535,5.04-.389,1.277-.783,2.572-.2.648-.4,1.3a2.912,2.912,0,0,0,1.349,3.365,4.9,4.9,0,0,0,1.273.436l1.355.352,5.5,1.426,11.336,2.943,23.838,6.194a5.925,5.925,0,0,0,1.5.29,2.874,2.874,0,0,0,2.471-1.4,5.763,5.763,0,0,0,.515-1.425q.866-3,1.72-5.961l3.364-11.656c2.208-7.641,4.337-15.012,6.366-22.034s3.96-13.693,5.766-19.938l1.332-4.6a6.289,6.289,0,0,0,.268-1.112,2.911,2.911,0,0,0-.1-1.1,2.946,2.946,0,0,0-1.3-1.7,3.4,3.4,0,0,0-1.012-.393l-1.076-.29-2.118-.57-4.1-1.1-25.282-6.827-6.87-1.873-1.784-.5c-.4-.114-.605-.18-.605-.18" transform="translate(-40.703 -59.022)" fill="#263238"/>
              <g id="Grupo_947595" data-name="Grupo 947595" transform="translate(74.665 167.794)" opacity="0.3">
                <g id="Grupo_947594" data-name="Grupo 947594">
                  <g id="Grupo_947593" data-name="Grupo 947593" clip-path="url(#clip-path-7)">
                    <path id="Trazado_654736" data-name="Trazado 654736" d="M141.917,263.17l-25.694-1.981a6.346,6.346,0,0,0,3.529,4.313,18.765,18.765,0,0,0,5.55,1.523l8.733,1.455a5.912,5.912,0,0,1,3.119,1.162c.9.822,1.2,2.1,1.895,3.1,1.146,1.632,3.2,2.307,5.113,2.87a225.817,225.817,0,0,0,23,5.7,15.781,15.781,0,0,0,6.525.222c2.132-.518,4.149-2.107,4.508-4.271Z" transform="translate(-116.224 -261.188)"/>
                  </g>
                </g>
              </g>
              <path id="Trazado_654737" data-name="Trazado 654737" d="M141.923,166.974c.088.028-4.777,15.809-10.866,35.245s-11.1,35.175-11.186,35.148,4.776-15.806,10.867-35.248,11.1-35.172,11.185-35.144" transform="translate(-42.863 -59.706)" fill="#263238"/>
              <rect id="Rectángulo_336091" data-name="Rectángulo 336091" width="13.069" height="26.107" transform="translate(100.358 134.434) rotate(-73.375)" fill="#fff"/>
              <path id="Trazado_654738" data-name="Trazado 654738" d="M144.846,229.221s-6.347-8.45-8.643-10.376-11.8-.384-11.8-.384l-4.128,4.343s.815,3.3,4.667,1.671l1.071-.812,4.411,0,2.737,3.188-8.589-.15s-4.223-2.741-5.186-2.741-3.278,1.852-1.6,5.112c0,0-3.213,1.037-2.1,5.408,0,0-2.69.741-.234,5.926l.308.592s-2.814,1.334-.963,4.3,6.519,3.852,7.927,3.778,26.735,3.653,26.735,3.653l6.846-17.8Z" transform="translate(-40.822 -77.907)" fill="#ffc09d"/>
              <path id="Trazado_654739" data-name="Trazado 654739" d="M127.69,239.87a3.738,3.738,0,0,1-1.359-.067,9.895,9.895,0,0,1-5.679-3.134,3.76,3.76,0,0,1-.781-1.115,12.7,12.7,0,0,0,7.82,4.315" transform="translate(-42.862 -84.228)" fill="#ff9b6c"/>
              <path id="Trazado_654740" data-name="Trazado 654740" d="M122.263,248.413a3.223,3.223,0,0,1-1.141-.331,10.648,10.648,0,0,1-4.469-3.516,3.2,3.2,0,0,1-.59-1.03,24.2,24.2,0,0,0,2.793,2.83,24.176,24.176,0,0,0,3.407,2.048" transform="translate(-41.499 -87.081)" fill="#ff9b6c"/>
              <path id="Trazado_654741" data-name="Trazado 654741" d="M122.33,257.283a10.331,10.331,0,0,1-6.118-3.368c.069-.076,1.232,1,2.927,1.923s3.218,1.345,3.191,1.444" transform="translate(-41.554 -90.793)" fill="#ff9b6c"/>
              <path id="Trazado_654742" data-name="Trazado 654742" d="M223.684,247.328l-27.536-4.28-32.363-6.118-7.568,25.439s38.674,11.339,49.269,12.733c11.321,1.49,15.71,0,19.3-7.438,2.288-4.742.866-14.259-1.1-20.335" transform="translate(-55.86 -84.72)" fill="#fcc843"/>
              <path id="Trazado_654743" data-name="Trazado 654743" d="M197.923,273.54a1.248,1.248,0,0,1-.208-.041l-.6-.148-2.331-.6-8.711-2.3-30.006-8.03-.159-.043.048-.158,4.828-16.255c.937-3.147,1.856-6.234,2.735-9.185l.043-.145.147.03,35.445,7.019,10.472,2.108,2.817.582.728.159a1.566,1.566,0,0,1,.245.064,1.593,1.593,0,0,1-.251-.033l-.734-.129L209.6,245.9l-10.491-2.01-35.466-6.909.19-.115c-.878,2.952-1.8,6.04-2.73,9.187l-4.842,16.251-.112-.2,29.975,8.145,8.686,2.391,2.318.653.6.175a1.21,1.21,0,0,1,.2.069" transform="translate(-55.748 -84.613)" fill="#263238"/>
            </g>
          </g>
        </g>
      </g>
      <g id="Grupo_947601" data-name="Grupo 947601" transform="matrix(0.978, 0.208, -0.208, 0.978, 492.697, 4274.621)">
        <g id="Grupo_947600" data-name="Grupo 947600" transform="translate(0 0)" clip-path="url(#clip-path-8)">
          <path id="Trazado_654744" data-name="Trazado 654744" d="M42.238,21.118A21.119,21.119,0,1,0,2.913,31.788H2.9l.06.079c.809,1.363,1.824,2.34,2.849,3.774L18.074,51.885a3.814,3.814,0,0,0,6.087,0L36.219,35.908a45.449,45.449,0,0,0,3.067-4.063l.045-.058h-.006a21.013,21.013,0,0,0,2.913-10.67m-21.12,9.2a9.294,9.294,0,1,1,9.294-9.294,9.294,9.294,0,0,1-9.294,9.294" transform="translate(0 -0.001)" fill="#0387d0"/>
        </g>
      </g>
    </g>
  </g>
</svg>
