<svg xmlns="http://www.w3.org/2000/svg" xmlns:xlink="http://www.w3.org/1999/xlink" width="973.403" height="261.166" viewBox="0 0 973.403 261.166">
  <defs>
    <clipPath id="clip-path">
      <rect id="Rectángulo_336147" data-name="Rectángulo 336147" width="192.925" height="261.166" fill="none"/>
    </clipPath>
    <clipPath id="clip-path-3">
      <rect id="Rectángulo_336140" data-name="Rectángulo 336140" width="40.392" height="22.099" fill="none"/>
    </clipPath>
    <clipPath id="clip-path-4">
      <rect id="Rectángulo_336141" data-name="Rectángulo 336141" width="20.524" height="24.703" fill="none"/>
    </clipPath>
    <clipPath id="clip-path-5">
      <rect id="Rectángulo_336142" data-name="Rectángulo 336142" width="4.375" height="37.526" fill="none"/>
    </clipPath>
    <clipPath id="clip-path-6">
      <rect id="Rectángulo_336143" data-name="Rectángulo 336143" width="7.218" height="16.038" fill="none"/>
    </clipPath>
    <clipPath id="clip-path-7">
      <rect id="Rectángulo_336144" data-name="Rectángulo 336144" width="33.592" height="12.031" fill="none"/>
    </clipPath>
    <clipPath id="clip-path-8">
      <rect id="Rectángulo_336145" data-name="Rectángulo 336145" width="13.077" height="56.752" fill="none"/>
    </clipPath>
  </defs>
  <g id="Grupo_947851" data-name="Grupo 947851" transform="translate(-347.248 -4071.805)">
    <path id="Rectángulo_33999" data-name="Rectángulo 33999" d="M0,0H888.609a0,0,0,0,1,0,0V155.321a0,0,0,0,1,0,0H94a94,94,0,0,1-94-94V0A0,0,0,0,1,0,0Z" transform="translate(347.248 4141.521)" fill="#fff4e1"/>
    <line id="Línea_168" data-name="Línea 168" x1="890.139" transform="translate(410.336 4298.482)" fill="none" stroke="#406834" stroke-linecap="round" stroke-width="4"/>
    <g id="Grupo_947733" data-name="Grupo 947733" transform="translate(1127.725 4071.805)">
      <g id="Grupo_947732" data-name="Grupo 947732" clip-path="url(#clip-path)">
        <g id="Grupo_947731" data-name="Grupo 947731">
          <g id="Grupo_947730" data-name="Grupo 947730" clip-path="url(#clip-path)">
            <path id="Trazado_655193" data-name="Trazado 655193" d="M18.368,59.7c7.133-.6,14.3,1.3,20.783,4.329,6.858,3.2,13.341,7.94,16.758,14.7s3.037,15.785-2.35,21.105c10.344,2.747,18.122,11.945,21.377,22.139s2.563,21.259.5,31.761c-.977,4.955-2.73,10.468-7.3,12.619-2.947,1.389-6.547,1.061-9.33,2.755-2.7,1.646-4.011,4.788-5.756,7.429A22.31,22.31,0,0,1,21.2,182.2L0,69.469C4.154,63.639,11.235,60.3,18.368,59.7" transform="translate(115.743 18.626)" fill="#455a64"/>
            <path id="Trazado_655194" data-name="Trazado 655194" d="M18.4,68.914a14.59,14.59,0,0,0,1.462,1.763c.977,1.1,2.406,2.686,4.22,4.6A91.439,91.439,0,0,0,39.631,88.784a45.03,45.03,0,0,0,19.161,7.378,30.492,30.492,0,0,0,6.26.127c.739-.041,1.3-.16,1.689-.21a1.954,1.954,0,0,0,.58-.129,20.349,20.349,0,0,0-2.284.074,35.265,35.265,0,0,1-6.182-.341,46.665,46.665,0,0,1-18.849-7.47A100.826,100.826,0,0,1,24.43,74.939c-1.785-1.815-3.26-3.313-4.372-4.443A14.861,14.861,0,0,0,18.4,68.914" transform="translate(101.452 21.541)" fill="#263238"/>
            <path id="Trazado_655195" data-name="Trazado 655195" d="M25.085,97.187c.075.032.417-.524.7-1.533a9.982,9.982,0,0,0-1.244-7.869c-.578-.873-1.075-1.3-1.137-1.242-.175.118,1.453,2.126,1.9,5.155.505,3.018-.423,5.43-.221,5.489" transform="translate(136.121 27.051)" fill="#263238"/>
            <path id="Trazado_655196" data-name="Trazado 655196" d="M20.554,97.836a2.545,2.545,0,0,0-.3.617c-.165.415-.432,1.019-.707,1.822a57.166,57.166,0,0,0-2,6.909,51.162,51.162,0,0,0,.042,23.6,39.607,39.607,0,0,0,12.221,20.073,31.152,31.152,0,0,0,5.943,4.065,19.443,19.443,0,0,0,1.769.836,2.555,2.555,0,0,0,.641.238c.026-.058-.82-.465-2.281-1.306a34.712,34.712,0,0,1-5.753-4.2,40.276,40.276,0,0,1-11.879-19.879,52.742,52.742,0,0,1-.231-23.33c.608-2.956,1.276-5.312,1.78-6.927a23.01,23.01,0,0,0,.751-2.523" transform="translate(133.512 30.582)" fill="#263238"/>
            <path id="Trazado_655197" data-name="Trazado 655197" d="M.963,112.507a7.655,7.655,0,0,0,1.608-.348c1.019-.276,2.5-.647,4.334-1.075a107.4,107.4,0,0,1,14.509-2.343,107.5,107.5,0,0,1,14.7-.276c1.882.095,3.4.2,4.458.286a7.525,7.525,0,0,0,1.643.056,7.655,7.655,0,0,0-1.616-.322c-1.045-.169-2.566-.347-4.454-.5a87.9,87.9,0,0,0-29.355,2.633c-1.83.49-3.3.935-4.293,1.288a7.648,7.648,0,0,0-1.532.6" transform="translate(149.449 33.669)" fill="#263238"/>
            <g id="Grupo_947714" data-name="Grupo 947714" transform="translate(127.463 98.78)" opacity="0.3">
              <g id="Grupo_947713" data-name="Grupo 947713" transform="translate(0)">
                <g id="Grupo_947712" data-name="Grupo 947712" clip-path="url(#clip-path-3)">
                  <path id="Trazado_655198" data-name="Trazado 655198" d="M59.492,94.076h0c-7.139,4.6-16.767,4.069-24.334.209S22.038,83.227,19.1,75.256c9.893,11.371,24.561,19.655,40.392,18.82" transform="translate(-19.1 -75.256)"/>
                </g>
              </g>
            </g>
            <g id="Grupo_947717" data-name="Grupo 947717" transform="translate(151.156 161.876)" opacity="0.3">
              <g id="Grupo_947716" data-name="Grupo 947716" transform="translate(0)">
                <g id="Grupo_947715" data-name="Grupo 947715" clip-path="url(#clip-path-4)">
                  <path id="Trazado_655199" data-name="Trazado 655199" d="M36.71,148.029a20.164,20.164,0,0,1-15.023-8.4c-3.279-4.774-4.792-10.555-5.5-16.3a77.181,77.181,0,0,0,7.2,14.171c1.506,2.218,3.686,3.868,5.661,5.681a36.827,36.827,0,0,0,7.667,4.851" transform="translate(-16.186 -123.326)"/>
                </g>
              </g>
            </g>
            <path id="Trazado_655200" data-name="Trazado 655200" d="M21.913,108.793a12.638,12.638,0,0,0-.928,3.413c-.217,1.076-.469,2.31-.857,3.713a4.378,4.378,0,0,0-.024,2.407,2.189,2.189,0,0,0,2.12,1.613,2.469,2.469,0,0,0,2.023-1.74,4.458,4.458,0,0,0-.018-2.407c-.382-1.425-.788-2.63-1.11-3.679a18.088,18.088,0,0,0-1.2-3.32,18.18,18.18,0,0,0,.74,3.453c.293,1.122.614,2.356.961,3.683a3.945,3.945,0,0,1,0,2.053,1.833,1.833,0,0,1-1.436,1.276,1.537,1.537,0,0,1-1.44-1.151,3.855,3.855,0,0,1,.005-2.05,36.579,36.579,0,0,0,.719-3.767,32.125,32.125,0,0,0,.452-3.5" transform="translate(142.343 34.007)" fill="#263238"/>
            <path id="Trazado_655201" data-name="Trazado 655201" d="M22.359,79.584a40.009,40.009,0,0,0,4.2-2.451,98.148,98.148,0,0,1,10.272-5.567,47.327,47.327,0,0,1,11.073-3.544c2.939-.528,4.8-.545,4.8-.662a4.466,4.466,0,0,0-1.31-.088,26.874,26.874,0,0,0-3.566.272,41.552,41.552,0,0,0-11.278,3.4A74.5,74.5,0,0,0,26.3,76.725c-1.254.832-2.25,1.53-2.928,2.028a4.779,4.779,0,0,0-1.015.831" transform="translate(110.872 21.029)" fill="#263238"/>
            <path id="Trazado_655202" data-name="Trazado 655202" d="M41.752,76.044c-.079,0-.154.444.217,1.012a2.278,2.278,0,0,0,2.323.961l.033-.008.429-.077-.2-.4a3.234,3.234,0,0,0-1.844-1.618c-.608-.2-1.005-.118-1.009-.034-.012.1.34.2.814.474a3.606,3.606,0,0,1,1.427,1.479l.227-.483-.022,0a2.057,2.057,0,0,1-1.8-.6c-.381-.37-.488-.727-.592-.707" transform="translate(93.452 23.69)" fill="#263238"/>
            <path id="Trazado_655203" data-name="Trazado 655203" d="M148.785,83.511s5.278-6.9,5.236-9.7l-2.179-16.252s-.936-1.641-2.415,1.08c-1.356,2.5-.576,6.356-.576,6.356l-.916,3.817-1.974-2.884-2.231-10.856s-1.428-7.845-2.645-7.026-1.569,3.1-.952,6.487,1.4,7.68,1.4,7.68.158,1.336-1.1-.908-2.645-11.719-3.133-13-.676-4.654-2.605-4.473-.8,4.5-.8,4.5l1.864,13.995s-1.815-5.628-2.161-6.589-.882-4.035-1.528-5.708-1.63-2.545-2.489-2.441a1.605,1.605,0,0,0-1.512,1.6l2.869,11.966s1.59,5.456,1.482,5.8-2.12-2.275-2.12-2.275l-1.54-3.879s-1.277-5.5-2.756-5.662-1.532.961-1.532.961l2.427,10.053,4.461,11.388,4.212,8.618s5.879-.915,6.1-.614,7.117-2.035,7.117-2.035" transform="translate(-124.464 13.699)" fill="#ffbe9d"/>
            <path id="Trazado_655204" data-name="Trazado 655204" d="M128.392,73.627A17.163,17.163,0,0,0,129.6,71.1a8.805,8.805,0,0,1,4.357-4.645,4.714,4.714,0,0,1,3.085-.238l.341.1.085-.377c.378-1.664.9-3.2,1.143-4.254.278-1.061.352-1.725.264-1.735a8.942,8.942,0,0,0-.654,1.614,44.362,44.362,0,0,0-1.412,4.29l.427-.276a5.224,5.224,0,0,0-3.545.215,7.232,7.232,0,0,0-3.048,2.374,11.508,11.508,0,0,0-1.5,2.726,8.262,8.262,0,0,0-.752,2.731" transform="translate(-114.491 18.74)" fill="#eb996e"/>
            <path id="Trazado_655205" data-name="Trazado 655205" d="M150.3,68.065,121.219,111.53,108.144,73.646,90.277,78.051s7.287,50.924,10.075,55.982,11.509,12.344,22.246,10.88,32.321-30.447,32.321-30.447Z" transform="translate(-80.49 21.276)" fill="#406834"/>
            <path id="Trazado_655206" data-name="Trazado 655206" d="M116.3,118.824c.226-.017-.608-4.314.545-9.453,1.091-5.156,3.637-8.716,3.439-8.826a8.192,8.192,0,0,0-1.663,2.29,22.794,22.794,0,0,0-2.88,13.214,8.205,8.205,0,0,0,.559,2.775" transform="translate(-79.161 31.428)" fill="#263238"/>
            <g id="Grupo_947720" data-name="Grupo 947720" transform="translate(63.869 107.458)" opacity="0.3">
              <g id="Grupo_947719" data-name="Grupo 947719" transform="translate(0)">
                <g id="Grupo_947718" data-name="Grupo 947718" clip-path="url(#clip-path-5)">
                  <path id="Trazado_655207" data-name="Trazado 655207" d="M98.721,119.394a6.8,6.8,0,0,1-3.543-5.06,20.086,20.086,0,0,1,.192-6.392c1.177-8.57,2.815-17.5,3.993-26.075L98.9,118.5" transform="translate(-94.988 -81.867)"/>
                </g>
              </g>
            </g>
            <g id="Grupo_947723" data-name="Grupo 947723" transform="translate(33.665 132.096)" opacity="0.3">
              <g id="Grupo_947722" data-name="Grupo 947722">
                <g id="Grupo_947721" data-name="Grupo 947721" clip-path="url(#clip-path-6)">
                  <path id="Trazado_655208" data-name="Trazado 655208" d="M119,116.677a3.544,3.544,0,0,1-2.661-2.1,6.814,6.814,0,0,1-.467-3.467,13.152,13.152,0,0,1,7.179-10.476c-2.7,4.845-4.468,10.511-4.051,16.039" transform="translate(-115.834 -100.638)"/>
                </g>
              </g>
            </g>
            <path id="Trazado_655209" data-name="Trazado 655209" d="M110.682,21.429a43.542,43.542,0,0,0-4.626-12.38c-2.3-3.779-5.749-7.021-10-8.257a24.187,24.187,0,0,0-13.392.333,22.182,22.182,0,0,0-8.2,5.023c-3.913,3.4-5.936,8.713-7.595,13.625" transform="translate(-5.527 0)" fill="#afafaf"/>
            <path id="Trazado_655210" data-name="Trazado 655210" d="M65.765,19.275a18.966,18.966,0,0,1,7.167-12.01C76.7,4.416,81.467,3.138,86.179,2.781c7.364-.56,15.977,1.44,21.032,6.824,4.887,5.206,7.991,12.7,7.364,19.266-.284,2.957-3.149,10.955-5.414,12.876L66.97,40.659c-2.528-4.055-1.965-16.669-1.2-21.385" transform="translate(-7.208 0.841)" fill="#afafaf"/>
            <path id="Trazado_655211" data-name="Trazado 655211" d="M70.564,27.176A23.312,23.312,0,0,1,93.759,5.691l1.208,0c13.02.734,19.669,12.2,18.576,25.194l-2.335,60.03H81.367l.264-19.538s-12.518-1.92-12.7-14.432c-.087-6.042.747-18.5,1.632-29.766" transform="translate(-11.205 1.778)" fill="#ffbe9d"/>
            <path id="Trazado_655212" data-name="Trazado 655212" d="M80.924,56.868a30.343,30.343,0,0,0,16.384-4.832s-3.837,9.012-16.323,7.911Z" transform="translate(-10.602 16.266)" fill="#eb996e"/>
            <path id="Trazado_655213" data-name="Trazado 655213" d="M95.331,29.975a1.787,1.787,0,0,0,1.726,1.8A1.711,1.711,0,0,0,98.9,30.159a1.788,1.788,0,0,0-1.725-1.8,1.71,1.71,0,0,0-1.84,1.616" transform="translate(-31.101 8.864)" fill="#263238"/>
            <path id="Trazado_655214" data-name="Trazado 655214" d="M94.349,27.168c.222.232,1.572-.772,3.5-.77,1.92-.028,3.333.959,3.541.723.1-.1-.125-.525-.74-.97a4.892,4.892,0,0,0-2.835-.868,4.7,4.7,0,0,0-2.783.9c-.591.454-.789.877-.68.981" transform="translate(-32.288 7.903)" fill="#263238"/>
            <path id="Trazado_655215" data-name="Trazado 655215" d="M81.245,30.629a1.787,1.787,0,0,0,1.726,1.8,1.711,1.711,0,0,0,1.839-1.616,1.788,1.788,0,0,0-1.725-1.8,1.71,1.71,0,0,0-1.84,1.616" transform="translate(1.474 9.068)" fill="#263238"/>
            <path id="Trazado_655216" data-name="Trazado 655216" d="M79.931,27.9c.222.232,1.576-.772,3.5-.77,1.92-.026,3.334.96,3.543.723.1-.1-.123-.524-.74-.97a4.9,4.9,0,0,0-2.835-.868,4.712,4.712,0,0,0-2.784.9c-.588.454-.789.877-.68.981" transform="translate(1.053 8.132)" fill="#263238"/>
            <path id="Trazado_655217" data-name="Trazado 655217" d="M94.834,41.653A12.706,12.706,0,0,0,91.71,41.1c-.491-.05-.956-.147-1.04-.482A2.5,2.5,0,0,1,91,39.159q.687-1.784,1.444-3.742c2.006-5.326,3.456-9.707,3.241-9.785s-2.016,4.175-4.02,9.5Q90.936,37.1,90.277,38.9a2.843,2.843,0,0,0-.251,1.928,1.232,1.232,0,0,0,.809.717,3.388,3.388,0,0,0,.833.114,12.584,12.584,0,0,0,3.166,0" transform="translate(-20.822 8.012)" fill="#263238"/>
            <path id="Trazado_655218" data-name="Trazado 655218" d="M92.159,38.841c-.312-.017-.312,2.07-2.1,3.554s-4,1.26-4.02,1.551c-.029.131.5.4,1.436.428A5.194,5.194,0,0,0,90.835,43.2a4.527,4.527,0,0,0,1.624-2.98c.077-.873-.156-1.39-.3-1.377" transform="translate(-12.485 12.141)" fill="#263238"/>
            <path id="Trazado_655219" data-name="Trazado 655219" d="M79.367,24.466c.184.525,2.107.3,4.359.593,2.259.249,4.07.929,4.375.463.137-.223-.176-.718-.906-1.231a7.649,7.649,0,0,0-6.655-.806c-.831.326-1.252.731-1.173.981" transform="translate(0.63 7.209)" fill="#263238"/>
            <path id="Trazado_655220" data-name="Trazado 655220" d="M94,22.869c.368.476,2.027.188,3.969.364,1.947.118,3.553.654,3.977.238.188-.2-.026-.665-.7-1.15a6.459,6.459,0,0,0-3.152-1.037,6.314,6.314,0,0,0-3.251.554c-.731.377-1,.8-.841,1.032" transform="translate(-32.404 6.646)" fill="#263238"/>
            <path id="Trazado_655221" data-name="Trazado 655221" d="M64.55,32.037c.213-.093,8.592-2.561,8.336,5.993s-8.792,6.534-8.8,6.289.463-12.282.463-12.282" transform="translate(35.914 9.889)" fill="#ffbe9d"/>
            <path id="Trazado_655222" data-name="Trazado 655222" d="M66.328,40.489c.038-.026.146.109.4.232a1.492,1.492,0,0,0,1.113.055c.914-.3,1.717-1.717,1.8-3.257a4.913,4.913,0,0,0-.354-2.146A1.721,1.721,0,0,0,68.2,34.2a.76.76,0,0,0-.893.382c-.122.236-.072.408-.118.421-.025.021-.18-.148-.1-.5a.958.958,0,0,1,.353-.526,1.129,1.129,0,0,1,.83-.193,2.1,2.1,0,0,1,1.517,1.373,5.06,5.06,0,0,1,.445,2.4c-.106,1.723-1.036,3.309-2.284,3.629a1.6,1.6,0,0,1-1.356-.266c-.259-.219-.3-.412-.268-.427" transform="translate(35.631 10.556)" fill="#eb996e"/>
            <path id="Trazado_655223" data-name="Trazado 655223" d="M95.937,15.21l-4.229-3.649L78.259,13.618l-9.443-2.432-2.479,2.729c1.058,1.422-1.2-4.671.952-6.3,4.636-3.515,8.553-3.389,14.37-3.49s17.66,6.984,21.874,11c3.372,3.211,3.351,5.988,3.351,5.988.536,4.624-2.053,9.882-3.082,14.423-.532,2.342-1.555,9.427-1.555,9.427h0c-1.966-.007-2.7-1.571-2.4-3.514l.369-7.624A11.512,11.512,0,0,1,96.7,20.372c.509-.692,1.593-3.868-.761-5.162" transform="translate(-1.081 1.288)" fill="#263238"/>
            <path id="Trazado_655224" data-name="Trazado 655224" d="M101.893,17.181a6.148,6.148,0,0,0-5.971-3.925,10.478,10.478,0,0,0-6.811,3.108,7.834,7.834,0,0,1-1.528,1.256,2.016,2.016,0,0,1-1.9.118c-.177-.1-.365-.239-.56-.185a.642.642,0,0,0-.316.284,5.294,5.294,0,0,1-1.978,1.877,2.191,2.191,0,0,1-2.539-.385A3.271,3.271,0,0,1,74.8,16.9a3.09,3.09,0,0,1-3.115-1.181,6.338,6.338,0,0,1,1.574-9.7,11.344,11.344,0,0,1,4.133-1.194,52.269,52.269,0,0,1,6.778-.509,8.38,8.38,0,0,1,2.949.35c1.3.471,2.382,1.529,3.753,1.7a6.542,6.542,0,0,0,2.6-.415,10.336,10.336,0,0,1,3.768-.551c2.506.224,4.574,2.023,6.233,3.913a10.441,10.441,0,0,1,2.625,4.544,4.458,4.458,0,0,1-1.674,4.691,2.2,2.2,0,0,1-1.989.264,1.315,1.315,0,0,1-.711-1.713" transform="translate(-5.29 1.351)" fill="#263238"/>
            <path id="Trazado_655225" data-name="Trazado 655225" d="M106.614,37.017c.924-6.528-.18-14.406-4.942-20.03s-13.2-9.032-18.765-7.973c-4.356.828-13.8,1.16-17.257,10.257l.484-7.507s4.209-8.52,16.6-8.269,17.82,1.71,23.816,9.016,4.223,13.522,3.423,16.67a44.1,44.1,0,0,1-3.364,7.836" transform="translate(-4.103 1.091)" fill="#afafaf"/>
            <path id="Trazado_655226" data-name="Trazado 655226" d="M65.651,5.534a2.977,2.977,0,0,0,.453-.155c.294-.1.715-.291,1.277-.482a31.166,31.166,0,0,1,4.851-1.248,34.093,34.093,0,0,1,7.4-.436,30.027,30.027,0,0,1,8.881,1.772,28.721,28.721,0,0,1,7.835,4.528,21.482,21.482,0,0,1,2.826,2.773c.417.459.761.953,1.116,1.407.324.476.647.928.919,1.381a26.533,26.533,0,0,1,2.2,4.5c.223.549.352.992.465,1.284a3.039,3.039,0,0,0,.175.445,2.669,2.669,0,0,0-.118-.462c-.095-.3-.206-.748-.413-1.306a24.683,24.683,0,0,0-2.126-4.566c-.269-.461-.591-.92-.912-1.4-.354-.463-.7-.965-1.116-1.433A21.385,21.385,0,0,0,96.527,9.3a28.512,28.512,0,0,0-7.906-4.6,29.817,29.817,0,0,0-8.97-1.767,33.3,33.3,0,0,0-7.455.5A28.464,28.464,0,0,0,67.341,4.79c-.558.207-.974.412-1.261.534a2.864,2.864,0,0,0-.429.21" transform="translate(2.701 0.91)" fill="#263238"/>
            <path id="Trazado_655227" data-name="Trazado 655227" d="M66.51,22.868a1.091,1.091,0,0,0,.383-.179,6.353,6.353,0,0,0,.932-.676,7.614,7.614,0,0,0,2.542-6.874,6.269,6.269,0,0,0-.266-1.12c-.091-.257-.158-.391-.176-.386-.049.016.143.584.235,1.53a8.081,8.081,0,0,1-2.477,6.694c-.685.66-1.2.966-1.173,1.009" transform="translate(35.176 4.262)" fill="#263238"/>
            <path id="Trazado_655228" data-name="Trazado 655228" d="M69.865,16.852a3.271,3.271,0,0,0,1.078-.785,6.847,6.847,0,0,0,1.717-2.725,6.231,6.231,0,0,0,.251-3.209,3.29,3.29,0,0,0-.436-1.26c-.047.016.122.5.23,1.293a6.793,6.793,0,0,1-.326,3.083,7.568,7.568,0,0,1-1.586,2.672c-.545.595-.957.891-.928.931" transform="translate(28.206 2.774)" fill="#263238"/>
            <path id="Trazado_655229" data-name="Trazado 655229" d="M74.256,12.307a2.974,2.974,0,0,0,.91-.631,7.236,7.236,0,0,0,1.646-2.111,6.522,6.522,0,0,0,.7-2.586,2.79,2.79,0,0,0-.088-1.1,9.942,9.942,0,0,1-.877,3.556,12.718,12.718,0,0,1-2.292,2.876" transform="translate(17.942 1.836)" fill="#263238"/>
            <path id="Trazado_655230" data-name="Trazado 655230" d="M82.77,3.4a2.762,2.762,0,0,0-.538.823,10.434,10.434,0,0,0-1.184,4.564,2.793,2.793,0,0,0,.068.981c.1,0,.092-1.5.549-3.257S82.857,3.443,82.77,3.4" transform="translate(3.769 1.062)" fill="#263238"/>
            <path id="Trazado_655231" data-name="Trazado 655231" d="M89.816,3.238a2.291,2.291,0,0,0-.434.879,6.4,6.4,0,0,0,.265,4.653,2.3,2.3,0,0,0,.53.824,10.984,10.984,0,0,1-.806-3.142,10.92,10.92,0,0,1,.445-3.215" transform="translate(-14.165 1.012)" fill="#263238"/>
            <path id="Trazado_655232" data-name="Trazado 655232" d="M95.838,4.738a2.544,2.544,0,0,0-.581.9,6.46,6.46,0,0,0-.137,5.052,2.544,2.544,0,0,0,.532.925,9.772,9.772,0,0,1-.683-3.457,9.736,9.736,0,0,1,.869-3.415" transform="translate(-27.183 1.481)" fill="#263238"/>
            <path id="Trazado_655233" data-name="Trazado 655233" d="M98.526,9.226a1.865,1.865,0,0,0-.151.848,5.707,5.707,0,0,0,1.366,3.858c.353.4.627.589.651.563a11.076,11.076,0,0,1-1.414-2.465,11.055,11.055,0,0,1-.453-2.8" transform="translate(-36.592 2.884)" fill="#263238"/>
            <path id="Trazado_655234" data-name="Trazado 655234" d="M100.694,14.821a3.285,3.285,0,0,0,.672,2.014,3.291,3.291,0,0,0,1.587,1.41,20.61,20.61,0,0,1-1.34-1.572c-.631-.945-.831-1.87-.919-1.851" transform="translate(-42.17 4.633)" fill="#263238"/>
            <path id="Trazado_655235" data-name="Trazado 655235" d="M101.7,21.106c-.077.013,0,.516.448.912s.95.424.954.345-.385-.224-.757-.566-.563-.718-.644-.692" transform="translate(-43.635 6.597)" fill="#263238"/>
            <path id="Trazado_655236" data-name="Trazado 655236" d="M65.269,27.056a5.217,5.217,0,0,0,2.717-1.046,5.26,5.26,0,0,0,1.962-2.15,18.506,18.506,0,0,1-2.129,1.907,17.989,17.989,0,0,1-2.55,1.289" transform="translate(37.302 7.458)" fill="#263238"/>
            <path id="Trazado_655237" data-name="Trazado 655237" d="M67.518,29.455c-.055.055.425.49,1.183.532a1.417,1.417,0,0,0,1.238-.387c-.038-.077-.558.138-1.219.092s-1.154-.308-1.2-.236" transform="translate(34.366 9.203)" fill="#263238"/>
            <g id="Grupo_947726" data-name="Grupo 947726" transform="translate(69.372 2.212)" opacity="0.3">
              <g id="Grupo_947725" data-name="Grupo 947725" transform="translate(0)">
                <g id="Grupo_947724" data-name="Grupo 947724" transform="translate(0)" clip-path="url(#clip-path-7)">
                  <path id="Trazado_655238" data-name="Trazado 655238" d="M68.538,5.625A23.979,23.979,0,0,1,86.967,2.274,24.631,24.631,0,0,1,102.13,13.718S94.4,3.934,83.316,3.594,68.538,5.625,68.538,5.625" transform="translate(-68.539 -1.685)"/>
                </g>
              </g>
            </g>
            <path id="Trazado_655239" data-name="Trazado 655239" d="M77.8,31.349a13.022,13.022,0,0,1,.255-1.541,6.35,6.35,0,0,1,2.325-3.44,6.253,6.253,0,0,1,5.916-.875,5.922,5.922,0,0,1,1.576.852,5.853,5.853,0,0,1,1.314,1.324,6.2,6.2,0,0,1,0,7.36A6.247,6.247,0,0,1,86.3,37.206a6.253,6.253,0,0,1-5.916-.875,6.35,6.35,0,0,1-2.325-3.44,13.022,13.022,0,0,1-.255-1.541,4.966,4.966,0,0,0,.143,1.57,6.424,6.424,0,0,0,5.03,4.809,6.5,6.5,0,0,0,3.415-.266A6.5,6.5,0,0,0,89.424,35.2a6.471,6.471,0,0,0,0-7.7,6.493,6.493,0,0,0-3.031-2.26,6.5,6.5,0,0,0-3.415-.266,6.424,6.424,0,0,0-5.03,4.809,4.966,4.966,0,0,0-.143,1.57" transform="translate(0.123 7.77)" fill="#455a64"/>
            <path id="Trazado_655240" data-name="Trazado 655240" d="M92.315,30.778a13.028,13.028,0,0,1,.255-1.54A6.346,6.346,0,0,1,94.9,25.8a6.251,6.251,0,0,1,5.914-.875A6.244,6.244,0,0,1,103.7,27.1a6.2,6.2,0,0,1,0,7.36,6.247,6.247,0,0,1-2.892,2.178,6.253,6.253,0,0,1-5.916-.875,6.354,6.354,0,0,1-2.325-3.44,13.01,13.01,0,0,1-.255-1.542,4.974,4.974,0,0,0,.143,1.571,6.419,6.419,0,0,0,5.03,4.808,6.5,6.5,0,0,0,3.415-.265,6.5,6.5,0,0,0,3.032-2.262,6.471,6.471,0,0,0,0-7.7,6.493,6.493,0,0,0-3.031-2.26,6.5,6.5,0,0,0-3.415-.266,6.425,6.425,0,0,0-5.03,4.808,4.966,4.966,0,0,0-.143,1.57" transform="translate(-33.435 7.592)" fill="#455a64"/>
            <path id="Trazado_655241" data-name="Trazado 655241" d="M87.145,27.717c.032.038.371-.253,1-.559a5.235,5.235,0,0,1,5.2.3c.592.379.9.707.931.673a2.436,2.436,0,0,0-.812-.845,4.942,4.942,0,0,0-5.414-.316,2.438,2.438,0,0,0-.906.744" transform="translate(-15.738 8.225)" fill="#455a64"/>
            <path id="Trazado_655242" data-name="Trazado 655242" d="M69.444,28.9c-.025.077,2.537.944,5.722,1.935s5.786,1.73,5.81,1.653-2.537-.944-5.722-1.935-5.786-1.731-5.809-1.653" transform="translate(20.799 9.032)" fill="#455a64"/>
            <path id="Trazado_655243" data-name="Trazado 655243" d="M78.6,34.986a2.593,2.593,0,0,0,1.114-.147,5.972,5.972,0,0,0,3.868-3.608,2.577,2.577,0,0,0,.224-1.1c-.05-.01-.142.407-.417,1.023a6.64,6.64,0,0,1-3.741,3.488c-.633.234-1.055.3-1.049.347" transform="translate(5.934 9.418)" fill="#fff"/>
            <path id="Trazado_655244" data-name="Trazado 655244" d="M92.961,33.724c.007.03.417-.083.857-.567a4.638,4.638,0,0,0,1.044-2.247,6.2,6.2,0,0,0-.055-2.474,1.988,1.988,0,0,0-.408-.94c-.043.02.109.377.2.982a7.472,7.472,0,0,1-.031,2.38,5.154,5.154,0,0,1-.912,2.164,8.137,8.137,0,0,1-.7.7" transform="translate(-24.052 8.595)" fill="#fff"/>
            <path id="Trazado_655245" data-name="Trazado 655245" d="M88.745,39.483c.058-.058-.185-.392-.541-.748s-.693-.595-.751-.537.185.392.542.747.692.6.749.538" transform="translate(-10.606 11.938)" fill="#263238"/>
            <path id="Trazado_655246" data-name="Trazado 655246" d="M89.442,40c.064-.05-.172-.458-.526-.912s-.7-.778-.76-.728.171.458.526.912.7.778.76.728" transform="translate(-12.225 11.989)" fill="#263238"/>
            <path id="Trazado_655247" data-name="Trazado 655247" d="M89.805,40.56c.072-.037-.079-.463-.337-.946s-.528-.849-.6-.81.079.463.339.948.526.848.6.809" transform="translate(-13.522 12.129)" fill="#263238"/>
            <path id="Trazado_655248" data-name="Trazado 655248" d="M90.087,40.451c.081-.007.125-.3.1-.656s-.116-.639-.2-.634-.125.3-.1.656.116.641.2.634" transform="translate(-15.245 12.241)" fill="#263238"/>
            <path id="Trazado_655249" data-name="Trazado 655249" d="M91.04,40.6c.081,0,.148-.263.148-.585s-.067-.585-.148-.585-.148.261-.148.585.067.585.148.585" transform="translate(-17.567 12.325)" fill="#263238"/>
            <path id="Trazado_655250" data-name="Trazado 655250" d="M91.732,40.772c.08.018.223-.307.32-.728s.11-.776.031-.794-.223.307-.32.728-.112.776-.032.794" transform="translate(-19.547 12.269)" fill="#263238"/>
            <path id="Trazado_655251" data-name="Trazado 655251" d="M66.33,42.108A2.03,2.03,0,0,0,69.958,43.7a2.6,2.6,0,0,0,.448-2,2.3,2.3,0,0,0-.958-1.373,1.781,1.781,0,0,0-1.461-.356,3.071,3.071,0,0,1,1.339.526,2.15,2.15,0,0,1,.814,1.259,2.389,2.389,0,0,1-.419,1.768,1.733,1.733,0,0,1-1.595.719,1.8,1.8,0,0,1-1.242-.791,3.867,3.867,0,0,1-.554-1.34" transform="translate(35.445 12.481)" fill="#263238"/>
            <path id="Trazado_655252" data-name="Trazado 655252" d="M73.426,60.491S87.834,66.3,91.213,76.448c1.708,5.132,11.66,42.659,11.66,42.659s14.792,82.595,12.991,89.464H39.089c-1.855-2.255-2.792-4.127-2.626-7.042l1.226-21.6L36.8,87.381a12.617,12.617,0,0,1,.15-2.063l2.641-17.1-.849-7.365,33.67-8.9Z" transform="translate(30.728 16.242)" fill="#406834"/>
            <path id="Trazado_655253" data-name="Trazado 655253" d="M105.1,54.87h0A4.156,4.156,0,0,0,99.932,51.5l-30.784,8.13a4.157,4.157,0,0,0-3.089,4.257l.076,1.341a4.157,4.157,0,0,0,5.375,3.734l30.708-9.473A4.156,4.156,0,0,0,105.1,54.87" transform="translate(1.076 16.054)" fill="#406834"/>
            <path id="Trazado_655254" data-name="Trazado 655254" d="M69.124,68.386a7.338,7.338,0,0,0,1.592-.306L74.991,67c3.6-.94,8.563-2.283,14.033-3.807l7.316-2.062-.041.008a18.722,18.722,0,0,0,2.716-.633,6.946,6.946,0,0,0,1.23-.521,2.165,2.165,0,0,0,.555-.423,3.021,3.021,0,0,0,.37-.562,4.174,4.174,0,0,0,.293-2.3,7.266,7.266,0,0,0-.512-1.872,8.315,8.315,0,0,0-1.42-2.309,2.254,2.254,0,0,0-.74-.625,10.6,10.6,0,0,1,1.8,3.074,5.112,5.112,0,0,1,.1,3.8c-.28.659-1.045.908-1.857,1.181a19.188,19.188,0,0,1-2.626.567l-.021,0-.02.005L88.84,62.538c-5.47,1.524-10.411,2.94-13.979,4l-4.216,1.288a7.346,7.346,0,0,0-1.521.562" transform="translate(0.688 16.221)" fill="#263238"/>
            <path id="Trazado_655255" data-name="Trazado 655255" d="M96.478,68.459a2.617,2.617,0,0,0-.127.68c-.062.525-.139,1.172-.231,1.96-.184,1.705-.42,4.174-.654,7.23-.484,6.11-.971,14.566-1.244,23.915s-.245,17.825-.039,23.953c.088,3.064.227,5.542.349,7.251.066.79.119,1.44.163,1.968a2.678,2.678,0,0,0,.1.684,2.6,2.6,0,0,0,.034-.69c-.009-.529-.021-1.181-.034-1.973-.041-1.712-.106-4.188-.133-7.249-.081-6.122-.024-14.582.239-23.923s.684-17.789,1.045-23.9c.179-2.981.327-5.429.434-7.24.042-.791.076-1.443.105-1.97a2.652,2.652,0,0,0-.011-.692" transform="translate(-26.989 21.399)" fill="#263238"/>
            <path id="Trazado_655256" data-name="Trazado 655256" d="M75.9,53.77c-.168.118.9,1.63,1.214,3.805.356,2.17-.2,3.934-.007,3.994.148.1,1.063-1.722.683-4.1-.356-2.38-1.777-3.837-1.89-3.7" transform="translate(15.435 16.805)" fill="#263238"/>
            <path id="Trazado_655257" data-name="Trazado 655257" d="M83.8,55.3c-.072-.038-.391.357-.651,1.125A6.408,6.408,0,0,0,84.325,62.4c.533.612.977.856,1.03.793.147-.139-1.285-1.5-1.7-3.761-.473-2.254.335-4.053.146-4.125" transform="translate(-1.2 17.286)" fill="#263238"/>
            <path id="Trazado_655258" data-name="Trazado 655258" d="M90.759,57.1c-.072-.046-.425.314-.746,1.053a5.679,5.679,0,0,0,.963,5.92c.538.6.987.827,1.041.76.148-.133-1.338-1.457-1.693-3.694-.371-2.233.617-3.959.434-4.039" transform="translate(-16.681 17.847)" fill="#263238"/>
            <path id="Trazado_655259" data-name="Trazado 655259" d="M36.636,77.248c2.83-8.366,9.709-15.676,18.372-17.4s16.8.122,22.979,7.318L85.818,83.9c-3.5-1.937-9.082-13.289-15.6-17.15s-13.749-3.933-19.1,1.427c-3.968,3.971-6.9,9.665-6.8,15.277.179,11.009,4.761,21.327,8.1,31.818,4.284,13.474,7.663,27.832,17.543,37.947,7.944,8.132,18.573,12.972,28.94,17.633,2.431,2,8.083,9.3,5.172,10.506s-13.505-2.649-16.518-3.566c-7.495-2.285-15.28-4.732-20.973-10.116-5.288-5-8.166-11.967-10.9-18.712-5.273-13.027-8.684-26.6-13.957-39.628-4.492-11.1-8.922-20.749-5.085-32.09" transform="translate(41.877 18.522)" fill="#455a64"/>
            <path id="Trazado_655260" data-name="Trazado 655260" d="M60.119,182.143l5.989-10.106,20.027,6.987s-1.374,17.8-3.939,18.313a5.5,5.5,0,0,1-4.465-1.209s-1.5,4.639-4.489,4.836c-.916.059-1.414.083-1.668.085-.545.413-3.594,2.6-6.1,1.814,0,0-2.322,5.008-4.182,4.488s-3.07-6.56-3.07-6.56Z" transform="translate(30.37 53.777)" fill="#ffbe9d"/>
            <path id="Trazado_655261" data-name="Trazado 655261" d="M65.91,63.349A20.983,20.983,0,0,1,79.534,78.9c3.948,18.863,13.336,68.2,12.949,75.2-.488,8.855-17.355,61.277-17.355,61.277L51.449,208.26l10.721-59.1s-16.691-55.221-18-63.633c-1.433-9.167,6.522-27.432,21.744-22.177" transform="translate(42.677 19.511)" fill="#406834"/>
            <path id="Trazado_655262" data-name="Trazado 655262" d="M65.9,63.412a13.574,13.574,0,0,0-1.839-.595,13.193,13.193,0,0,0-5.59-.284,14.022,14.022,0,0,0-7.814,4.322,26.977,26.977,0,0,0-6.867,17.715,18.3,18.3,0,0,0,.486,3.837c.268,1.284.591,2.579.914,3.9,1.339,5.282,2.934,10.934,4.668,16.947,3.474,12.021,7.524,25.471,12.006,40.012l-.008-.148c-3.3,18.116-6.929,38.086-10.751,59.1l-.054.3.291.088,11.076,3.327,12.6,3.784.319.1.1-.316c3.5-10.755,6.8-21.255,9.852-31.41C86.8,179,88.275,174.014,89.6,169.1c.654-2.46,1.314-4.888,1.868-7.316.3-1.208.559-2.42.786-3.633a26.47,26.47,0,0,0,.507-3.663,58.787,58.787,0,0,0-.644-7.189c-.323-2.339-.658-4.643-1.025-6.9-.714-4.528-1.485-8.9-2.23-13.13-1.512-8.448-3-16.284-4.379-23.421-1.408-7.127-2.679-13.563-3.795-19.212A74.121,74.121,0,0,0,78.9,76.805a23.229,23.229,0,0,0-3.1-5.985,20.9,20.9,0,0,0-6.94-6.121A15.939,15.939,0,0,0,65.9,63.412s.251.125.748.336A19.731,19.731,0,0,1,68.8,64.815a21.149,21.149,0,0,1,6.8,6.153,23.114,23.114,0,0,1,3.014,5.938,74.968,74.968,0,0,1,1.722,7.8c1.087,5.652,2.325,12.094,3.7,19.228,1.349,7.14,2.809,14.981,4.3,23.428.732,4.225,1.492,8.6,2.193,13.125.362,2.26.692,4.56,1.008,6.892a59.066,59.066,0,0,1,.625,7.088,25.953,25.953,0,0,1-.5,3.57c-.228,1.2-.486,2.4-.789,3.6-.555,2.415-1.218,4.84-1.873,7.293-1.332,4.9-2.809,9.888-4.324,14.965-3.06,10.144-6.365,20.64-9.869,31.387l.423-.219-12.6-3.787-11.077-3.326.238.389c3.8-21.015,7.415-40.988,10.694-59.107l.013-.075-.022-.074c-4.507-14.528-8.59-27.967-12.1-39.972-1.754-6-3.368-11.648-4.729-16.911-.608-2.64-1.4-5.165-1.422-7.637a26.718,26.718,0,0,1,6.663-17.506A13.874,13.874,0,0,1,58.5,62.729a13.469,13.469,0,0,1,5.534.186c.626.11,1.074.3,1.389.373.311.089.474.123.474.123" transform="translate(42.688 19.493)" fill="#263238"/>
            <path id="Trazado_655263" data-name="Trazado 655263" d="M57.485,129.379c.133.171,2.494-1.939,6.1-3.131,3.6-1.242,6.752-1,6.755-1.212.055-.158-3.211-.728-6.972.563-3.775,1.254-6.026,3.687-5.887,3.779" transform="translate(47.135 39.003)" fill="#263238"/>
            <g id="Grupo_947729" data-name="Grupo 947729" transform="translate(123.524 162.96)" opacity="0.3">
              <g id="Grupo_947728" data-name="Grupo 947728" transform="translate(0)">
                <g id="Grupo_947727" data-name="Grupo 947727" transform="translate(0)" clip-path="url(#clip-path-8)">
                  <path id="Trazado_655264" data-name="Trazado 655264" d="M42.91,179.544c11.01-16.336,16.8-39.166,10.442-55.392,1.726,9.718.077,18.61-2.818,28.046S44.163,171.048,43.6,180.9" transform="translate(-42.911 -124.152)"/>
                </g>
              </g>
            </g>
          </g>
        </g>
      </g>
    </g>
  </g>
</svg>
