<svg xmlns="http://www.w3.org/2000/svg" width="820" height="382" viewBox="0 0 820 382">
  <g id="Grupo_947851" data-name="Grupo 947851" transform="translate(-390 -965)">
    <g id="Trazado_644008" data-name="Trazado 644008" transform="translate(390 965)" fill="none">
      <path d="M251,0C389.623,0,502,85.514,502,191S389.623,382,251,382,0,296.486,0,191,112.377,0,251,0Z" stroke="none"/>
      <path d="M 251 5 C 234.2267456054688 5 217.4661865234375 6.2855224609375 201.1840515136719 8.8209228515625 C 185.3261413574219 11.29019165039062 169.7308654785156 14.97378540039062 154.8313903808594 19.76925659179688 C 140.2173461914062 24.47293090820312 126.1262817382812 30.2926025390625 112.9495849609375 37.06658935546875 C 99.91845703125 43.76580810546875 87.66986083984375 51.455322265625 76.54400634765625 59.92160034179688 C 65.44305419921875 68.36892700195312 55.37039184570312 77.65765380859375 46.60592651367188 87.5296630859375 C 37.782470703125 97.46798706054688 30.208740234375 108.0841979980469 24.09506225585938 119.0833435058594 C 17.88626098632812 130.253662109375 13.11972045898438 141.9358062744141 9.9278564453125 153.8052673339844 C 6.657989501953125 165.9650726318359 5 178.4792022705078 5 191 C 5 203.5207977294922 6.657989501953125 216.0349273681641 9.9278564453125 228.1947326660156 C 13.11972045898438 240.0641937255859 17.88626098632812 251.746337890625 24.09506225585938 262.9166564941406 C 30.208740234375 273.9158020019531 37.782470703125 284.531982421875 46.60592651367188 294.4703369140625 C 55.37039184570312 304.3423461914062 65.44305419921875 313.6310729980469 76.54400634765625 322.0783996582031 C 87.66986083984375 330.544677734375 99.91845703125 338.2341918945312 112.9495849609375 344.9334106445312 C 126.1262817382812 351.7073974609375 140.2173461914062 357.5270690917969 154.8313903808594 362.2307434082031 C 169.7308654785156 367.0262145996094 185.3261413574219 370.7098083496094 201.1840515136719 373.1790771484375 C 217.4661865234375 375.7144775390625 234.2267456054688 377 251 377 C 267.7732543945312 377 284.5338134765625 375.7144775390625 300.81591796875 373.1790771484375 C 316.6738891601562 370.7098083496094 332.2691345214844 367.0262145996094 347.1685791015625 362.2307434082031 C 361.7826538085938 357.5270690917969 375.8737182617188 351.7073974609375 389.0504150390625 344.9334106445312 C 402.08154296875 338.2341918945312 414.3301391601562 330.544677734375 425.4559936523438 322.0783996582031 C 436.5569458007812 313.6310729980469 446.6296081542969 304.3423461914062 455.3940734863281 294.4703369140625 C 464.217529296875 284.531982421875 471.791259765625 273.9158020019531 477.9049377441406 262.9166564941406 C 484.1137390136719 251.746337890625 488.8802795410156 240.0641937255859 492.0721435546875 228.1947326660156 C 495.3420104980469 216.0349273681641 497 203.5207977294922 497 191 C 497 178.4792022705078 495.3420104980469 165.9650726318359 492.0721435546875 153.8052673339844 C 488.8802795410156 141.9358062744141 484.1137390136719 130.253662109375 477.9049377441406 119.0833435058594 C 471.791259765625 108.0841979980469 464.217529296875 97.46798706054688 455.3940734863281 87.5296630859375 C 446.6296081542969 77.65765380859375 436.5569458007812 68.36892700195312 425.4559936523438 59.92160034179688 C 414.3301391601562 51.455322265625 402.08154296875 43.76580810546875 389.0504150390625 37.06658935546875 C 375.8737182617188 30.2926025390625 361.7826538085938 24.47293090820312 347.1685791015625 19.76925659179688 C 332.2691345214844 14.97378540039062 316.6738891601562 11.29019165039062 300.81591796875 8.8209228515625 C 284.5338134765625 6.2855224609375 267.7732543945312 5 251 5 M 251 0 C 389.6234741210938 0 502 85.51361083984375 502 191 C 502 296.4863891601562 389.6234741210938 382 251 382 C 112.3765258789062 382 0 296.4863891601562 0 191 C 0 85.51361083984375 112.3765258789062 0 251 0 Z" stroke="none" fill="#2b6d34"/>
    </g>
    <g id="Elipse_7590" data-name="Elipse 7590" transform="translate(708 965)" fill="none" stroke="#2b6d34" stroke-width="5">
      <ellipse cx="251" cy="191" rx="251" ry="191" stroke="none"/>
      <ellipse cx="251" cy="191" rx="248.5" ry="188.5" fill="none"/>
    </g>
    <path id="Trazado_655805" data-name="Trazado 655805" d="M60.408,13.621v3.149h5.2V20.9h-5.2V27H55.134V9.5H66.108v4.126ZM75.117,27V25.1h-.049a4.089,4.089,0,0,1-3.809,2.209,3.646,3.646,0,0,1-2.771-1.05,3.9,3.9,0,0,1-1-2.808q0-3.687,4.529-4.272l3.1-.4a1.182,1.182,0,0,0-.549-1,2.5,2.5,0,0,0-1.477-.391,9.729,9.729,0,0,0-4.431,1.2V15.2a11.854,11.854,0,0,1,2.539-.72,14.777,14.777,0,0,1,2.612-.281q3.186,0,4.62,1.361T79.866,20.1V27Zm-3.076-4.248a1.152,1.152,0,0,0,.323.842,1.233,1.233,0,0,0,.922.33,1.639,1.639,0,0,0,1.324-.61,2.365,2.365,0,0,0,.507-1.562v-.476l-1.758.244Q72.041,21.739,72.041,22.752Zm20.471,3.894a4.9,4.9,0,0,1-1.575.476,14.887,14.887,0,0,1-2.478.183,7.622,7.622,0,0,1-3.534-.8,5.834,5.834,0,0,1-2.411-2.24,6.219,6.219,0,0,1-.854-3.235,7.084,7.084,0,0,1,.909-3.68,5.928,5.928,0,0,1,2.594-2.344,8.9,8.9,0,0,1,3.906-.812,13.666,13.666,0,0,1,2.191.159,3.348,3.348,0,0,1,1.251.366v4.053a3.611,3.611,0,0,0-1.123-.537A4.511,4.511,0,0,0,90.034,18a3.3,3.3,0,0,0-2.313.726,2.643,2.643,0,0,0-.787,2.045,2.594,2.594,0,0,0,.775,2.008,3.023,3.023,0,0,0,2.13.714,5.3,5.3,0,0,0,2.673-.7Zm10.876.183a5.066,5.066,0,0,1-1.16.323,10.6,10.6,0,0,1-1.941.153,4.663,4.663,0,0,1-3.4-1.2A4.54,4.54,0,0,1,95.662,22.7V18.1H93.7V14.5h1.965V12.046l5.127-1.416V14.5h2.6v3.6h-2.6v3.748q0,1.648,1.306,1.648a3.543,3.543,0,0,0,1.294-.269Zm15.527-6.3a6.509,6.509,0,0,1-1.91,4.968,8.826,8.826,0,0,1-10.645.043,6.314,6.314,0,0,1-1.9-4.865,6.517,6.517,0,0,1,.891-3.455,5.8,5.8,0,0,1,2.539-2.246,8.765,8.765,0,0,1,3.8-.781,8.491,8.491,0,0,1,3.851.818,5.953,5.953,0,0,1,2.5,2.271A6.183,6.183,0,0,1,118.916,20.53Zm-5.273.024q0-2.551-1.953-2.551t-1.953,2.673q0,2.82,1.978,2.82Q113.643,23.5,113.643,20.555Zm16.614-1.6a5,5,0,0,0-1.624-.354q-2.576,0-2.576,2.979V27h-5.2V14.5h5.2v2.2h.049a3.9,3.9,0,0,1,1.355-1.8,3.481,3.481,0,0,1,2.051-.616,1.762,1.762,0,0,1,.745.146Zm5.981,3.271a1.757,1.757,0,0,0,.928,1.263,4.183,4.183,0,0,0,2.1.458,8.647,8.647,0,0,0,3.442-.7v3.3a12.372,12.372,0,0,1-4.59.757,7.242,7.242,0,0,1-5.09-1.672,5.941,5.941,0,0,1-1.819-4.6,7.593,7.593,0,0,1,.8-3.552,5.753,5.753,0,0,1,2.368-2.411,7,7,0,0,1,3.461-.873,6.809,6.809,0,0,1,3.32.757,5.041,5.041,0,0,1,2.094,2.124,6.815,6.815,0,0,1,.714,3.2v1.953Zm3.125-2.722q0-2.161-1.55-2.161a1.312,1.312,0,0,0-1.086.592,2.955,2.955,0,0,0-.513,1.569Zm16.553,3.345a3.818,3.818,0,0,1-1.617,3.29,7.6,7.6,0,0,1-4.51,1.166,15.683,15.683,0,0,1-2.081-.171,12.857,12.857,0,0,1-2.02-.415v-3.65a9.948,9.948,0,0,0,3.857,1.025q1.526,0,1.526-.793a.626.626,0,0,0-.354-.543,12.513,12.513,0,0,0-1.855-.714,5.24,5.24,0,0,1-2.417-1.392,3.309,3.309,0,0,1-.757-2.258,3.6,3.6,0,0,1,1.544-3.07,7.245,7.245,0,0,1,4.34-1.129,13.793,13.793,0,0,1,3.467.476v3.5a10.484,10.484,0,0,0-1.685-.549,6.8,6.8,0,0,0-1.538-.22,1.674,1.674,0,0,0-.818.171.526.526,0,0,0-.305.476.664.664,0,0,0,.33.574,5.83,5.83,0,0,0,1.318.525,6.117,6.117,0,0,1,2.747,1.44A3.156,3.156,0,0,1,155.916,22.85ZM54.658,51.7a5.056,5.056,0,0,1-.934,3.04,5.535,5.535,0,0,1-2.618,1.929,11.516,11.516,0,0,1-4.053.635,13.238,13.238,0,0,1-5.029-.928v-4.8a9.934,9.934,0,0,0,2.429,1.3,7.145,7.145,0,0,0,2.478.494,2.446,2.446,0,0,0,1.343-.311,1.019,1.019,0,0,0,.476-.909,1.233,1.233,0,0,0-.238-.751,2.337,2.337,0,0,0-.72-.6A13.414,13.414,0,0,0,46,50.03q-4.224-1.624-4.224-5.249a4.9,4.9,0,0,1,1.929-4.059,8.136,8.136,0,0,1,5.176-1.52q.916,0,1.685.073t1.4.183q.629.11,1.764.415v4.456a9.014,9.014,0,0,0-4.346-1.208,2.682,2.682,0,0,0-1.416.33,1.014,1.014,0,0,0-.537.9,1.133,1.133,0,0,0,.433.909,8.125,8.125,0,0,0,1.813.934,10.052,10.052,0,0,1,3.851,2.4A4.586,4.586,0,0,1,54.658,51.7ZM64.277,57V55.071h-.049a6.842,6.842,0,0,1-1.166,1.306,4.486,4.486,0,0,1-1.172.671,4.144,4.144,0,0,1-1.52.256,3.781,3.781,0,0,1-3.125-1.331,6.151,6.151,0,0,1-1.074-3.931V44.5h5.2v7.153q0,1.843,1.379,1.843a1.35,1.35,0,0,0,1.141-.5,2.281,2.281,0,0,0,.385-1.416V44.5h5.2V57Zm21.79-6.628A9.147,9.147,0,0,1,85.389,54a5.521,5.521,0,0,1-1.923,2.441,4.842,4.842,0,0,1-2.82.861,4.451,4.451,0,0,1-2.069-.446,3.726,3.726,0,0,1-1.361-1.154h-.049V57h-5.2V38.494h5.2v7.7h.049a4.282,4.282,0,0,1,1.654-1.465,4.954,4.954,0,0,1,2.3-.537A4.384,4.384,0,0,1,84.8,45.77,7.221,7.221,0,0,1,86.067,50.372Zm-5.273.159a3.1,3.1,0,0,0-.482-1.892,1.737,1.737,0,0,0-2.71.031A2.685,2.685,0,0,0,77.07,50.4v.757a2.784,2.784,0,0,0,.476,1.709,1.52,1.52,0,0,0,1.282.635,1.642,1.642,0,0,0,1.453-.775A3.957,3.957,0,0,0,80.793,50.53Zm12.732-9.4a2.233,2.233,0,0,1-.8,1.782,3.128,3.128,0,0,1-2.106.684,3.051,3.051,0,0,1-2.081-.708,2.239,2.239,0,0,1-.812-1.758,2.168,2.168,0,0,1,.787-1.74,3.665,3.665,0,0,1,4.211,0A2.154,2.154,0,0,1,93.525,41.131ZM93.22,57.122a6.919,6.919,0,0,1-.647,3.009,4.444,4.444,0,0,1-1.9,2.051,6.129,6.129,0,0,1-2.991.69,6.73,6.73,0,0,1-2.075-.366V58.7a2.615,2.615,0,0,0,1.245.378.976.976,0,0,0,.909-.433,2.589,2.589,0,0,0,.262-1.312V44.5h5.2Zm6.982-4.9a1.757,1.757,0,0,0,.928,1.263,4.183,4.183,0,0,0,2.1.458,8.647,8.647,0,0,0,3.442-.7v3.3a12.372,12.372,0,0,1-4.59.757,7.242,7.242,0,0,1-5.09-1.672,5.941,5.941,0,0,1-1.819-4.6,7.593,7.593,0,0,1,.8-3.552,5.753,5.753,0,0,1,2.368-2.411,7,7,0,0,1,3.461-.873,6.809,6.809,0,0,1,3.32.757,5.042,5.042,0,0,1,2.094,2.124,6.815,6.815,0,0,1,.714,3.2v1.953Zm3.125-2.722q0-2.161-1.55-2.161a1.312,1.312,0,0,0-1.086.592,2.955,2.955,0,0,0-.513,1.569Zm15.2,7.324a5.066,5.066,0,0,1-1.16.323,10.6,10.6,0,0,1-1.941.153,4.663,4.663,0,0,1-3.4-1.2A4.54,4.54,0,0,1,110.8,52.7V48.1h-1.965V44.5H110.8V42.046l5.127-1.416V44.5h2.6v3.6h-2.6v3.748q0,1.648,1.306,1.648a3.543,3.543,0,0,0,1.294-.269Zm7.129-15.7a2.233,2.233,0,0,1-.8,1.782,3.128,3.128,0,0,1-2.106.684,3.051,3.051,0,0,1-2.081-.708,2.239,2.239,0,0,1-.812-1.758,2.168,2.168,0,0,1,.787-1.74,3.665,3.665,0,0,1,4.211,0A2.154,2.154,0,0,1,125.654,41.131ZM120.149,57V44.5h5.2V57Zm16.809,0h-6.177l-4.175-12.5h5.42l1.526,6.824a15.786,15.786,0,0,1,.4,2.478h.073q.024-.244.067-.5t1.813-8.8h5.4Zm19.495-6.47a6.509,6.509,0,0,1-1.91,4.968,8.826,8.826,0,0,1-10.645.043,6.314,6.314,0,0,1-1.9-4.865,6.517,6.517,0,0,1,.891-3.455,5.8,5.8,0,0,1,2.539-2.246,8.765,8.765,0,0,1,3.8-.781,8.491,8.491,0,0,1,3.851.818,5.953,5.953,0,0,1,2.5,2.271A6.183,6.183,0,0,1,156.453,50.53Zm-5.273.024q0-2.551-1.953-2.551t-1.953,2.673q0,2.82,1.978,2.82Q151.179,53.5,151.179,50.555ZM168.55,52.85a3.818,3.818,0,0,1-1.617,3.29,7.6,7.6,0,0,1-4.51,1.166,15.682,15.682,0,0,1-2.081-.171,12.857,12.857,0,0,1-2.02-.415v-3.65a9.948,9.948,0,0,0,3.857,1.025q1.526,0,1.526-.793a.626.626,0,0,0-.354-.543,12.513,12.513,0,0,0-1.855-.714,5.24,5.24,0,0,1-2.417-1.392,3.309,3.309,0,0,1-.757-2.258,3.6,3.6,0,0,1,1.544-3.07,7.245,7.245,0,0,1,4.34-1.129,13.793,13.793,0,0,1,3.467.476v3.5a10.484,10.484,0,0,0-1.685-.549,6.8,6.8,0,0,0-1.538-.22,1.674,1.674,0,0,0-.818.171.526.526,0,0,0-.305.476.664.664,0,0,0,.33.574,5.83,5.83,0,0,0,1.318.525,6.117,6.117,0,0,1,2.747,1.44A3.156,3.156,0,0,1,168.55,52.85Z" transform="translate(451 1129)" fill="#12263f"/>
    <path id="Trazado_655806" data-name="Trazado 655806" d="M63.966,15.269a5.693,5.693,0,0,1-.909,3.186,5.926,5.926,0,0,1-2.594,2.155,9.417,9.417,0,0,1-3.918.763H54.933V27H49.659V9.5h7.178q3.7,0,5.414,1.4A5.32,5.32,0,0,1,63.966,15.269Zm-5.579.183a2.051,2.051,0,0,0-.623-1.624,2.69,2.69,0,0,0-1.831-.549h-1V17.6h1.184Q58.387,17.6,58.387,15.452ZM79.481,20.53a6.509,6.509,0,0,1-1.91,4.968,7.465,7.465,0,0,1-5.341,1.807,7.5,7.5,0,0,1-5.3-1.764,6.314,6.314,0,0,1-1.9-4.865,6.517,6.517,0,0,1,.891-3.455,5.8,5.8,0,0,1,2.539-2.246,8.765,8.765,0,0,1,3.8-.781,8.491,8.491,0,0,1,3.851.818,5.953,5.953,0,0,1,2.5,2.271A6.183,6.183,0,0,1,79.481,20.53Zm-5.273.024Q74.208,18,72.255,18T70.3,20.677q0,2.82,1.978,2.82Q74.208,23.5,74.208,20.555Zm16.016,6.274a5.066,5.066,0,0,1-1.16.323,10.6,10.6,0,0,1-1.941.153,4.663,4.663,0,0,1-3.4-1.2A4.54,4.54,0,0,1,82.5,22.7V18.1H80.531V14.5H82.5V12.046l5.127-1.416V14.5h2.6v3.6h-2.6v3.748q0,1.648,1.306,1.648a3.543,3.543,0,0,0,1.294-.269Zm6.1-4.6a1.757,1.757,0,0,0,.928,1.263,4.183,4.183,0,0,0,2.1.458,8.647,8.647,0,0,0,3.442-.7v3.3a12.372,12.372,0,0,1-4.59.757,7.242,7.242,0,0,1-5.09-1.672,5.941,5.941,0,0,1-1.819-4.6,7.593,7.593,0,0,1,.8-3.552,5.753,5.753,0,0,1,2.368-2.411,7,7,0,0,1,3.461-.873,6.809,6.809,0,0,1,3.32.757,5.041,5.041,0,0,1,2.094,2.124,6.815,6.815,0,0,1,.714,3.2v1.953ZM99.452,19.5q0-2.161-1.55-2.161a1.312,1.312,0,0,0-1.086.592A2.955,2.955,0,0,0,96.3,19.5Zm14.5,7.5V20.176a3.034,3.034,0,0,0-.348-1.666A1.271,1.271,0,0,0,112.477,18a1.222,1.222,0,0,0-1.05.525,2.24,2.24,0,0,0-.378,1.343V27h-5.2V14.5h5.2v1.953h.049a4.413,4.413,0,0,1,1.672-1.666,4.569,4.569,0,0,1,2.283-.592q4.1,0,4.1,5.176V27Zm17.847-.354a4.9,4.9,0,0,1-1.575.476,14.887,14.887,0,0,1-2.478.183,7.622,7.622,0,0,1-3.534-.8,5.834,5.834,0,0,1-2.411-2.24,6.219,6.219,0,0,1-.854-3.235,7.084,7.084,0,0,1,.909-3.68,5.928,5.928,0,0,1,2.594-2.344,8.9,8.9,0,0,1,3.906-.812,13.666,13.666,0,0,1,2.191.159,3.348,3.348,0,0,1,1.251.366v4.053a3.611,3.611,0,0,0-1.123-.537A4.511,4.511,0,0,0,129.323,18a3.3,3.3,0,0,0-2.313.726,2.643,2.643,0,0,0-.787,2.045A2.594,2.594,0,0,0,127,22.782a3.023,3.023,0,0,0,2.13.714,5.3,5.3,0,0,0,2.673-.7Zm7.581-15.515a2.233,2.233,0,0,1-.8,1.782,3.128,3.128,0,0,1-2.106.684,3.051,3.051,0,0,1-2.081-.708,2.239,2.239,0,0,1-.812-1.758,2.168,2.168,0,0,1,.787-1.74,3.665,3.665,0,0,1,4.211,0A2.154,2.154,0,0,1,139.381,11.131ZM133.876,27V14.5h5.2V27Zm14.636,0V25.1h-.049a4.089,4.089,0,0,1-3.809,2.209,3.646,3.646,0,0,1-2.771-1.05,3.9,3.9,0,0,1-1-2.808q0-3.687,4.529-4.272l3.1-.4a1.182,1.182,0,0,0-.549-1,2.5,2.5,0,0,0-1.477-.391,9.729,9.729,0,0,0-4.431,1.2V15.2a11.854,11.854,0,0,1,2.539-.72,14.777,14.777,0,0,1,2.612-.281q3.186,0,4.62,1.361T153.26,20.1V27Zm-3.076-4.248a1.152,1.152,0,0,0,.323.842,1.233,1.233,0,0,0,.922.33,1.639,1.639,0,0,0,1.324-.61,2.365,2.365,0,0,0,.507-1.562v-.476l-1.758.244Q145.436,21.739,145.436,22.752ZM155.6,27V8.494h5.2V27ZM99.568,57V55.547h-.049A4.291,4.291,0,0,1,97.9,56.835a4.626,4.626,0,0,1-1.978.47,5.087,5.087,0,0,1-2.82-.787,4.782,4.782,0,0,1-1.825-2.2,8.48,8.48,0,0,1-.6-3.345,8.229,8.229,0,0,1,.72-3.528,5.638,5.638,0,0,1,2.026-2.393,5.235,5.235,0,0,1,2.93-.854,4.434,4.434,0,0,1,1.422.22,3.847,3.847,0,0,1,1.135.592,1.767,1.767,0,0,1,.616.739h.049V38.494h5.2V57Zm.11-6.628a2.742,2.742,0,0,0-.494-1.746,1.669,1.669,0,0,0-2.71.153,3.6,3.6,0,0,0-.531,2.069q0,2.649,1.831,2.649a1.629,1.629,0,0,0,1.385-.714,3.515,3.515,0,0,0,.519-2.081Zm12.073,1.855a1.757,1.757,0,0,0,.928,1.263,4.183,4.183,0,0,0,2.1.458,8.647,8.647,0,0,0,3.442-.7v3.3a12.372,12.372,0,0,1-4.59.757,7.242,7.242,0,0,1-5.09-1.672,5.941,5.941,0,0,1-1.819-4.6,7.593,7.593,0,0,1,.8-3.552,5.753,5.753,0,0,1,2.368-2.411,7,7,0,0,1,3.461-.873,6.809,6.809,0,0,1,3.32.757,5.042,5.042,0,0,1,2.094,2.124,6.815,6.815,0,0,1,.714,3.2v1.953Zm3.125-2.722q0-2.161-1.55-2.161a1.312,1.312,0,0,0-1.086.592,2.955,2.955,0,0,0-.513,1.569ZM48.835,87V85.1h-.049a4.089,4.089,0,0,1-3.809,2.209,3.646,3.646,0,0,1-2.771-1.05,3.9,3.9,0,0,1-1-2.808q0-3.687,4.529-4.272l3.1-.4a1.182,1.182,0,0,0-.549-1,2.5,2.5,0,0,0-1.477-.391,9.729,9.729,0,0,0-4.431,1.2V75.2a11.854,11.854,0,0,1,2.539-.72,14.777,14.777,0,0,1,2.612-.281q3.186,0,4.62,1.361T53.584,80.1V87Zm-3.076-4.248a1.152,1.152,0,0,0,.323.842,1.233,1.233,0,0,0,.922.33,1.639,1.639,0,0,0,1.324-.61,2.365,2.365,0,0,0,.507-1.562v-.476l-1.758.244Q45.759,81.739,45.759,82.752ZM66.23,86.646a4.9,4.9,0,0,1-1.575.476,14.887,14.887,0,0,1-2.478.183,7.622,7.622,0,0,1-3.534-.8,5.834,5.834,0,0,1-2.411-2.24,6.219,6.219,0,0,1-.854-3.235,7.084,7.084,0,0,1,.909-3.68,5.928,5.928,0,0,1,2.594-2.344,8.9,8.9,0,0,1,3.906-.812,13.666,13.666,0,0,1,2.191.159,3.348,3.348,0,0,1,1.251.366v4.053a3.611,3.611,0,0,0-1.123-.537A4.511,4.511,0,0,0,63.752,78a3.3,3.3,0,0,0-2.313.726,2.643,2.643,0,0,0-.787,2.045,2.594,2.594,0,0,0,.775,2.008,3.023,3.023,0,0,0,2.13.714,5.3,5.3,0,0,0,2.673-.7Zm12.378,0a4.9,4.9,0,0,1-1.575.476,14.887,14.887,0,0,1-2.478.183,7.622,7.622,0,0,1-3.534-.8,5.834,5.834,0,0,1-2.411-2.24,6.219,6.219,0,0,1-.854-3.235,7.084,7.084,0,0,1,.909-3.68,5.928,5.928,0,0,1,2.594-2.344,8.9,8.9,0,0,1,3.906-.812,13.666,13.666,0,0,1,2.191.159,3.348,3.348,0,0,1,1.251.366v4.053a3.611,3.611,0,0,0-1.123-.537A4.511,4.511,0,0,0,76.13,78a3.3,3.3,0,0,0-2.313.726,2.643,2.643,0,0,0-.787,2.045,2.594,2.594,0,0,0,.775,2.008,3.023,3.023,0,0,0,2.13.714,5.3,5.3,0,0,0,2.673-.7Zm7.581-15.515a2.233,2.233,0,0,1-.8,1.782,3.128,3.128,0,0,1-2.106.684,3.051,3.051,0,0,1-2.081-.708,2.239,2.239,0,0,1-.812-1.758,2.168,2.168,0,0,1,.787-1.74,3.665,3.665,0,0,1,4.211,0A2.154,2.154,0,0,1,86.189,71.131ZM80.684,87V74.5h5.2V87Zm16.052,0V85.547h-.049a4.291,4.291,0,0,1-1.624,1.288,4.626,4.626,0,0,1-1.978.47,5.087,5.087,0,0,1-2.82-.787,4.782,4.782,0,0,1-1.825-2.2,8.48,8.48,0,0,1-.6-3.345,8.229,8.229,0,0,1,.72-3.528,5.638,5.638,0,0,1,2.026-2.393,5.235,5.235,0,0,1,2.93-.854,4.434,4.434,0,0,1,1.422.22,3.847,3.847,0,0,1,1.135.592,1.767,1.767,0,0,1,.616.739h.049V68.494h5.2V87Zm.11-6.628a2.742,2.742,0,0,0-.494-1.746,1.669,1.669,0,0,0-2.71.153,3.6,3.6,0,0,0-.531,2.069q0,2.649,1.831,2.649a1.629,1.629,0,0,0,1.385-.714,3.515,3.515,0,0,0,.519-2.081Zm12.073,1.855a1.757,1.757,0,0,0,.928,1.263,4.183,4.183,0,0,0,2.1.458,8.647,8.647,0,0,0,3.442-.7v3.3a12.372,12.372,0,0,1-4.59.757,7.242,7.242,0,0,1-5.09-1.672,5.941,5.941,0,0,1-1.819-4.6,7.593,7.593,0,0,1,.8-3.552,5.753,5.753,0,0,1,2.368-2.411,7,7,0,0,1,3.461-.873,6.809,6.809,0,0,1,3.32.757,5.041,5.041,0,0,1,2.094,2.124,6.815,6.815,0,0,1,.714,3.2v1.953Zm3.125-2.722q0-2.161-1.55-2.161a1.312,1.312,0,0,0-1.086.592,2.955,2.955,0,0,0-.513,1.569Zm14.5,7.5V80.176a3.034,3.034,0,0,0-.348-1.666A1.271,1.271,0,0,0,125.068,78a1.222,1.222,0,0,0-1.05.525,2.24,2.24,0,0,0-.378,1.343V87h-5.2V74.5h5.2v1.953h.049a4.413,4.413,0,0,1,1.672-1.666,4.569,4.569,0,0,1,2.283-.592q4.1,0,4.1,5.176V87Zm16.345-.171a5.066,5.066,0,0,1-1.16.323,10.6,10.6,0,0,1-1.941.153,4.663,4.663,0,0,1-3.4-1.2,4.54,4.54,0,0,1-1.227-3.406V78.1H133.2V74.5h1.965V72.046l5.127-1.416V74.5h2.6v3.6h-2.6v3.748q0,1.648,1.306,1.648a3.543,3.543,0,0,0,1.294-.269Zm6.1-4.6a1.757,1.757,0,0,0,.928,1.263,4.183,4.183,0,0,0,2.1.458,8.647,8.647,0,0,0,3.442-.7v3.3a12.372,12.372,0,0,1-4.59.757,7.242,7.242,0,0,1-5.09-1.672,5.941,5.941,0,0,1-1.819-4.6,7.593,7.593,0,0,1,.8-3.552,5.753,5.753,0,0,1,2.368-2.411,7,7,0,0,1,3.461-.873,6.809,6.809,0,0,1,3.32.757,5.041,5.041,0,0,1,2.094,2.124,6.815,6.815,0,0,1,.714,3.2v1.953Zm3.125-2.722q0-2.161-1.55-2.161a1.312,1.312,0,0,0-1.086.592,2.955,2.955,0,0,0-.513,1.569Zm16.553,3.345a3.818,3.818,0,0,1-1.617,3.29,7.6,7.6,0,0,1-4.51,1.166,15.683,15.683,0,0,1-2.081-.171,12.857,12.857,0,0,1-2.02-.415v-3.65a9.948,9.948,0,0,0,3.857,1.025q1.526,0,1.526-.793a.626.626,0,0,0-.354-.543,12.512,12.512,0,0,0-1.855-.714,5.24,5.24,0,0,1-2.417-1.392,3.309,3.309,0,0,1-.757-2.258,3.6,3.6,0,0,1,1.544-3.07,7.245,7.245,0,0,1,4.34-1.129,13.793,13.793,0,0,1,3.467.476v3.5a10.484,10.484,0,0,0-1.685-.549,6.8,6.8,0,0,0-1.538-.22,1.674,1.674,0,0,0-.818.171.526.526,0,0,0-.305.476.664.664,0,0,0,.33.574,5.83,5.83,0,0,0,1.318.525,6.117,6.117,0,0,1,2.747,1.44A3.156,3.156,0,0,1,168.672,82.85Z" transform="translate(698 1109)" fill="#eb6f2d"/>
    <path id="Trazado_655807" data-name="Trazado 655807" d="M60.408,13.621v3.149h5.2V20.9h-5.2V27H55.134V9.5H66.108v4.126ZM75.117,27V25.1h-.049a4.089,4.089,0,0,1-3.809,2.209,3.646,3.646,0,0,1-2.771-1.05,3.9,3.9,0,0,1-1-2.808q0-3.687,4.529-4.272l3.1-.4a1.182,1.182,0,0,0-.549-1,2.5,2.5,0,0,0-1.477-.391,9.729,9.729,0,0,0-4.431,1.2V15.2a11.854,11.854,0,0,1,2.539-.72,14.777,14.777,0,0,1,2.612-.281q3.186,0,4.62,1.361T79.866,20.1V27Zm-3.076-4.248a1.152,1.152,0,0,0,.323.842,1.233,1.233,0,0,0,.922.33,1.639,1.639,0,0,0,1.324-.61,2.365,2.365,0,0,0,.507-1.562v-.476l-1.758.244Q72.041,21.739,72.041,22.752Zm20.471,3.894a4.9,4.9,0,0,1-1.575.476,14.887,14.887,0,0,1-2.478.183,7.622,7.622,0,0,1-3.534-.8,5.834,5.834,0,0,1-2.411-2.24,6.219,6.219,0,0,1-.854-3.235,7.084,7.084,0,0,1,.909-3.68,5.928,5.928,0,0,1,2.594-2.344,8.9,8.9,0,0,1,3.906-.812,13.666,13.666,0,0,1,2.191.159,3.348,3.348,0,0,1,1.251.366v4.053a3.611,3.611,0,0,0-1.123-.537A4.511,4.511,0,0,0,90.034,18a3.3,3.3,0,0,0-2.313.726,2.643,2.643,0,0,0-.787,2.045,2.594,2.594,0,0,0,.775,2.008,3.023,3.023,0,0,0,2.13.714,5.3,5.3,0,0,0,2.673-.7Zm10.876.183a5.066,5.066,0,0,1-1.16.323,10.6,10.6,0,0,1-1.941.153,4.663,4.663,0,0,1-3.4-1.2A4.54,4.54,0,0,1,95.662,22.7V18.1H93.7V14.5h1.965V12.046l5.127-1.416V14.5h2.6v3.6h-2.6v3.748q0,1.648,1.306,1.648a3.543,3.543,0,0,0,1.294-.269Zm15.527-6.3a6.509,6.509,0,0,1-1.91,4.968,8.826,8.826,0,0,1-10.645.043,6.314,6.314,0,0,1-1.9-4.865,6.517,6.517,0,0,1,.891-3.455,5.8,5.8,0,0,1,2.539-2.246,8.765,8.765,0,0,1,3.8-.781,8.491,8.491,0,0,1,3.851.818,5.953,5.953,0,0,1,2.5,2.271A6.183,6.183,0,0,1,118.916,20.53Zm-5.273.024q0-2.551-1.953-2.551t-1.953,2.673q0,2.82,1.978,2.82Q113.643,23.5,113.643,20.555Zm16.614-1.6a5,5,0,0,0-1.624-.354q-2.576,0-2.576,2.979V27h-5.2V14.5h5.2v2.2h.049a3.9,3.9,0,0,1,1.355-1.8,3.481,3.481,0,0,1,2.051-.616,1.762,1.762,0,0,1,.745.146Zm5.981,3.271a1.757,1.757,0,0,0,.928,1.263,4.183,4.183,0,0,0,2.1.458,8.647,8.647,0,0,0,3.442-.7v3.3a12.372,12.372,0,0,1-4.59.757,7.242,7.242,0,0,1-5.09-1.672,5.941,5.941,0,0,1-1.819-4.6,7.593,7.593,0,0,1,.8-3.552,5.753,5.753,0,0,1,2.368-2.411,7,7,0,0,1,3.461-.873,6.809,6.809,0,0,1,3.32.757,5.041,5.041,0,0,1,2.094,2.124,6.815,6.815,0,0,1,.714,3.2v1.953Zm3.125-2.722q0-2.161-1.55-2.161a1.312,1.312,0,0,0-1.086.592,2.955,2.955,0,0,0-.513,1.569Zm16.553,3.345a3.818,3.818,0,0,1-1.617,3.29,7.6,7.6,0,0,1-4.51,1.166,15.683,15.683,0,0,1-2.081-.171,12.857,12.857,0,0,1-2.02-.415v-3.65a9.948,9.948,0,0,0,3.857,1.025q1.526,0,1.526-.793a.626.626,0,0,0-.354-.543,12.513,12.513,0,0,0-1.855-.714,5.24,5.24,0,0,1-2.417-1.392,3.309,3.309,0,0,1-.757-2.258,3.6,3.6,0,0,1,1.544-3.07,7.245,7.245,0,0,1,4.34-1.129,13.793,13.793,0,0,1,3.467.476v3.5a10.484,10.484,0,0,0-1.685-.549,6.8,6.8,0,0,0-1.538-.22,1.674,1.674,0,0,0-.818.171.526.526,0,0,0-.305.476.664.664,0,0,0,.33.574,5.83,5.83,0,0,0,1.318.525,6.117,6.117,0,0,1,2.747,1.44A3.156,3.156,0,0,1,155.916,22.85ZM64.558,48.2a9.691,9.691,0,0,1-1.135,4.718,8.094,8.094,0,0,1-3.174,3.235,9.589,9.589,0,0,1-9.052.037,7.9,7.9,0,0,1-3.143-3.137,9.248,9.248,0,0,1-1.123-4.572,10.088,10.088,0,0,1,1.135-4.81,8.065,8.065,0,0,1,3.186-3.3A9.268,9.268,0,0,1,55.916,39.2a9.008,9.008,0,0,1,4.5,1.117,7.615,7.615,0,0,1,3.064,3.186A9.989,9.989,0,0,1,64.558,48.2Zm-5.591.146a6.076,6.076,0,0,0-.83-3.406,2.593,2.593,0,0,0-2.271-1.245,2.871,2.871,0,0,0-2.454,1.2,5.63,5.63,0,0,0-.879,3.381,5.565,5.565,0,0,0,.873,3.333,2.784,2.784,0,0,0,2.374,1.2,2.718,2.718,0,0,0,1.648-.537,3.44,3.44,0,0,0,1.135-1.538A6.363,6.363,0,0,0,58.967,48.345Zm21.692,2.026A9.147,9.147,0,0,1,79.982,54a5.521,5.521,0,0,1-1.923,2.441,4.842,4.842,0,0,1-2.82.861,4.451,4.451,0,0,1-2.069-.446,3.726,3.726,0,0,1-1.361-1.154H71.76V57h-5.2V38.494h5.2v7.7h.049a4.282,4.282,0,0,1,1.654-1.465,4.954,4.954,0,0,1,2.3-.537A4.384,4.384,0,0,1,79.4,45.77,7.221,7.221,0,0,1,80.659,50.372Zm-5.273.159a3.1,3.1,0,0,0-.482-1.892,1.737,1.737,0,0,0-2.71.031,2.685,2.685,0,0,0-.531,1.727v.757a2.784,2.784,0,0,0,.476,1.709,1.52,1.52,0,0,0,1.282.635,1.642,1.642,0,0,0,1.453-.775A3.957,3.957,0,0,0,75.386,50.53Zm12.732-9.4a2.233,2.233,0,0,1-.8,1.782,3.128,3.128,0,0,1-2.106.684,3.051,3.051,0,0,1-2.081-.708,2.239,2.239,0,0,1-.812-1.758,2.168,2.168,0,0,1,.787-1.74,3.665,3.665,0,0,1,4.211,0A2.154,2.154,0,0,1,88.118,41.131Zm-.305,15.991a6.919,6.919,0,0,1-.647,3.009,4.444,4.444,0,0,1-1.9,2.051,6.129,6.129,0,0,1-2.991.69,6.73,6.73,0,0,1-2.075-.366V58.7a2.615,2.615,0,0,0,1.245.378.976.976,0,0,0,.909-.433,2.589,2.589,0,0,0,.262-1.312V44.5h5.2Zm6.982-4.9a1.757,1.757,0,0,0,.928,1.263,4.183,4.183,0,0,0,2.1.458,8.647,8.647,0,0,0,3.442-.7v3.3a12.372,12.372,0,0,1-4.59.757,7.242,7.242,0,0,1-5.09-1.672,5.941,5.941,0,0,1-1.819-4.6,7.593,7.593,0,0,1,.8-3.552,5.753,5.753,0,0,1,2.368-2.411,7,7,0,0,1,3.461-.873,6.809,6.809,0,0,1,3.32.757,5.042,5.042,0,0,1,2.094,2.124,6.815,6.815,0,0,1,.714,3.2v1.953ZM97.92,49.5q0-2.161-1.55-2.161a1.312,1.312,0,0,0-1.086.592,2.955,2.955,0,0,0-.513,1.569Zm15.2,7.324a5.066,5.066,0,0,1-1.16.323,10.6,10.6,0,0,1-1.941.153,4.663,4.663,0,0,1-3.4-1.2,4.54,4.54,0,0,1-1.227-3.406V48.1h-1.965V44.5h1.965V42.046l5.127-1.416V44.5h2.6v3.6h-2.6v3.748q0,1.648,1.306,1.648a3.543,3.543,0,0,0,1.294-.269Zm7.129-15.7a2.233,2.233,0,0,1-.8,1.782,3.128,3.128,0,0,1-2.106.684,3.051,3.051,0,0,1-2.081-.708,2.239,2.239,0,0,1-.812-1.758,2.168,2.168,0,0,1,.787-1.74,3.665,3.665,0,0,1,4.211,0A2.154,2.154,0,0,1,120.247,41.131ZM114.741,57V44.5h5.2V57Zm16.809,0h-6.177L121.2,44.5h5.42l1.526,6.824a15.786,15.786,0,0,1,.4,2.478h.073q.024-.244.067-.5t1.813-8.8h5.4Zm19.495-6.47a6.509,6.509,0,0,1-1.91,4.968,8.826,8.826,0,0,1-10.645.043,6.314,6.314,0,0,1-1.9-4.865,6.517,6.517,0,0,1,.891-3.455,5.8,5.8,0,0,1,2.539-2.246,8.765,8.765,0,0,1,3.8-.781,8.491,8.491,0,0,1,3.851.818,5.953,5.953,0,0,1,2.5,2.271A6.183,6.183,0,0,1,151.045,50.53Zm-5.273.024q0-2.551-1.953-2.551t-1.953,2.673q0,2.82,1.978,2.82Q145.771,53.5,145.771,50.555Zm17.371,2.295a3.818,3.818,0,0,1-1.617,3.29,7.6,7.6,0,0,1-4.51,1.166,15.682,15.682,0,0,1-2.081-.171,12.857,12.857,0,0,1-2.02-.415v-3.65a9.948,9.948,0,0,0,3.857,1.025q1.526,0,1.526-.793a.626.626,0,0,0-.354-.543,12.513,12.513,0,0,0-1.855-.714,5.24,5.24,0,0,1-2.417-1.392,3.309,3.309,0,0,1-.757-2.258,3.6,3.6,0,0,1,1.544-3.07,7.245,7.245,0,0,1,4.34-1.129,13.793,13.793,0,0,1,3.467.476v3.5a10.484,10.484,0,0,0-1.685-.549,6.8,6.8,0,0,0-1.538-.22,1.674,1.674,0,0,0-.818.171.526.526,0,0,0-.305.476.664.664,0,0,0,.33.574,5.83,5.83,0,0,0,1.318.525,6.117,6.117,0,0,1,2.747,1.44A3.156,3.156,0,0,1,163.142,52.85Z" transform="translate(949 1129)" fill="#12263f"/>
  </g>
</svg>
