<svg xmlns="http://www.w3.org/2000/svg" xmlns:xlink="http://www.w3.org/1999/xlink" width="586.293" height="519.107" viewBox="0 0 586.293 519.107">
  <defs>
    <filter id="Rectángulo_335995" x="28.516" y="129.743" width="194.589" height="61.489" filterUnits="userSpaceOnUse">
      <feOffset dy="3" input="SourceAlpha"/>
      <feGaussianBlur stdDeviation="3" result="blur"/>
      <feFlood flood-opacity="0.161"/>
      <feComposite operator="in" in2="blur"/>
      <feComposite in="SourceGraphic"/>
    </filter>
    <filter id="Rectángulo_335997" x="28.516" y="294.275" width="194.589" height="61.489" filterUnits="userSpaceOnUse">
      <feOffset dy="3" input="SourceAlpha"/>
      <feGaussianBlur stdDeviation="3" result="blur-2"/>
      <feFlood flood-opacity="0.161"/>
      <feComposite operator="in" in2="blur-2"/>
      <feComposite in="SourceGraphic"/>
    </filter>
    <filter id="Rectángulo_335998" x="28.671" y="375.527" width="194.589" height="61.489" filterUnits="userSpaceOnUse">
      <feOffset dy="3" input="SourceAlpha"/>
      <feGaussianBlur stdDeviation="3" result="blur-3"/>
      <feFlood flood-opacity="0.161"/>
      <feComposite operator="in" in2="blur-3"/>
      <feComposite in="SourceGraphic"/>
    </filter>
    <filter id="Rectángulo_335996" x="28.516" y="211.764" width="194.589" height="61.488" filterUnits="userSpaceOnUse">
      <feOffset dy="3" input="SourceAlpha"/>
      <feGaussianBlur stdDeviation="3" result="blur-4"/>
      <feFlood flood-opacity="0.161"/>
      <feComposite operator="in" in2="blur-4"/>
      <feComposite in="SourceGraphic"/>
    </filter>
    <filter id="Rectángulo_335989" x="65.043" y="0.439" width="205.131" height="87.471" filterUnits="userSpaceOnUse">
      <feOffset dy="3" input="SourceAlpha"/>
      <feGaussianBlur stdDeviation="3" result="blur-5"/>
      <feFlood flood-opacity="0.161"/>
      <feComposite operator="in" in2="blur-5"/>
      <feComposite in="SourceGraphic"/>
    </filter>
    <filter id="Rectángulo_336018" x="344.634" y="130.969" width="194.657" height="61.506" filterUnits="userSpaceOnUse">
      <feOffset dy="3" input="SourceAlpha"/>
      <feGaussianBlur stdDeviation="3" result="blur-6"/>
      <feFlood flood-opacity="0.161"/>
      <feComposite operator="in" in2="blur-6"/>
      <feComposite in="SourceGraphic"/>
    </filter>
    <filter id="Rectángulo_336019" x="344.634" y="294.443" width="194.657" height="61.506" filterUnits="userSpaceOnUse">
      <feOffset dy="3" input="SourceAlpha"/>
      <feGaussianBlur stdDeviation="3" result="blur-7"/>
      <feFlood flood-opacity="0.161"/>
      <feComposite operator="in" in2="blur-7"/>
      <feComposite in="SourceGraphic"/>
    </filter>
    <filter id="Rectángulo_336020" x="344.634" y="375.511" width="194.657" height="61.506" filterUnits="userSpaceOnUse">
      <feOffset dy="3" input="SourceAlpha"/>
      <feGaussianBlur stdDeviation="3" result="blur-8"/>
      <feFlood flood-opacity="0.161"/>
      <feComposite operator="in" in2="blur-8"/>
      <feComposite in="SourceGraphic"/>
    </filter>
    <filter id="Rectángulo_336021" x="344.673" y="457.602" width="194.657" height="61.506" filterUnits="userSpaceOnUse">
      <feOffset dy="3" input="SourceAlpha"/>
      <feGaussianBlur stdDeviation="3" result="blur-9"/>
      <feFlood flood-opacity="0.161"/>
      <feComposite operator="in" in2="blur-9"/>
      <feComposite in="SourceGraphic"/>
    </filter>
    <filter id="Rectángulo_336024" x="344.634" y="213.021" width="194.657" height="61.505" filterUnits="userSpaceOnUse">
      <feOffset dy="3" input="SourceAlpha"/>
      <feGaussianBlur stdDeviation="3" result="blur-10"/>
      <feFlood flood-opacity="0.161"/>
      <feComposite operator="in" in2="blur-10"/>
      <feComposite in="SourceGraphic"/>
    </filter>
    <filter id="Rectángulo_336025" x="381.089" y="0" width="205.204" height="87.493" filterUnits="userSpaceOnUse">
      <feOffset dy="3" input="SourceAlpha"/>
      <feGaussianBlur stdDeviation="3" result="blur-11"/>
      <feFlood flood-opacity="0.161"/>
      <feComposite operator="in" in2="blur-11"/>
      <feComposite in="SourceGraphic"/>
    </filter>
  </defs>
  <g id="Grupo_947465" data-name="Grupo 947465" transform="translate(-525.291 -1230)">
    <g transform="matrix(1, 0, 0, 1, 525.29, 1230)" filter="url(#Rectángulo_335995)">
      <rect id="Rectángulo_335995-2" data-name="Rectángulo 335995" width="176.589" height="43.489" rx="5" transform="translate(37.52 135.74)" fill="#f2f1f1"/>
    </g>
    <g transform="matrix(1, 0, 0, 1, 525.29, 1230)" filter="url(#Rectángulo_335997)">
      <rect id="Rectángulo_335997-2" data-name="Rectángulo 335997" width="176.589" height="43.489" rx="5" transform="translate(37.52 300.28)" fill="#f2f1f1"/>
    </g>
    <g transform="matrix(1, 0, 0, 1, 525.29, 1230)" filter="url(#Rectángulo_335998)">
      <rect id="Rectángulo_335998-2" data-name="Rectángulo 335998" width="176.589" height="43.489" rx="5" transform="translate(37.67 381.53)" fill="#f2f1f1"/>
    </g>
    <g transform="matrix(1, 0, 0, 1, 525.29, 1230)" filter="url(#Rectángulo_335996)">
      <rect id="Rectángulo_335996-2" data-name="Rectángulo 335996" width="176.589" height="43.488" rx="5" transform="translate(37.52 217.76)" fill="#f2f1f1"/>
    </g>
    <path id="Trazado_655806" data-name="Trazado 655806" d="M34.7,12.766V17H33.388V5.8h3.078a4.063,4.063,0,0,1,2.785.875,3.124,3.124,0,0,1,.988,2.469,3.4,3.4,0,0,1-1.1,2.609,4.194,4.194,0,0,1-2.965,1.016Zm0-5.781v4.594h1.375a3.074,3.074,0,0,0,2.074-.621A2.2,2.2,0,0,0,38.865,9.2q0-2.219-2.625-2.219ZM46.349,10.3a1.567,1.567,0,0,0-.969-.258,1.635,1.635,0,0,0-1.371.773,3.576,3.576,0,0,0-.551,2.109V17H42.177V9h1.281v1.648h.031a2.794,2.794,0,0,1,.836-1.316,1.906,1.906,0,0,1,1.258-.473,2.092,2.092,0,0,1,.766.109Zm4.734,6.891a3.711,3.711,0,0,1-2.832-1.121,4.153,4.153,0,0,1-1.059-2.973,4.326,4.326,0,0,1,1.1-3.148,3.96,3.96,0,0,1,2.977-1.133,3.588,3.588,0,0,1,2.793,1.1,4.368,4.368,0,0,1,1,3.055,4.3,4.3,0,0,1-1.082,3.066A3.791,3.791,0,0,1,51.083,17.188Zm.094-7.3a2.437,2.437,0,0,0-1.953.84,3.449,3.449,0,0,0-.719,2.316,3.262,3.262,0,0,0,.727,2.242,2.469,2.469,0,0,0,1.945.82,2.342,2.342,0,0,0,1.91-.8,3.492,3.492,0,0,0,.668-2.289,3.552,3.552,0,0,0-.668-2.312A2.332,2.332,0,0,0,51.177,9.891ZM63.755,17H62.474V12.391q0-2.5-1.859-2.5a2.027,2.027,0,0,0-1.578.723,2.693,2.693,0,0,0-.641,1.855V17H57.115V5.156H58.4v5.172h.031a2.91,2.91,0,0,1,2.625-1.516q2.7,0,2.7,3.258Zm3.07-10.031a.812.812,0,0,1-.586-.234A.791.791,0,0,1,66,6.141a.821.821,0,0,1,.828-.836.827.827,0,0,1,.6.238.835.835,0,0,1,0,1.184A.82.82,0,0,1,66.825,6.969ZM67.45,17H66.169V9H67.45Zm3.906-1.156h-.031V17H70.044V5.156h1.281v5.25h.031a3.03,3.03,0,0,1,2.766-1.594,2.932,2.932,0,0,1,2.41,1.074,4.436,4.436,0,0,1,.871,2.879,4.959,4.959,0,0,1-.977,3.215,3.251,3.251,0,0,1-2.672,1.207A2.631,2.631,0,0,1,71.357,15.844Zm-.031-3.227v1.117a2.379,2.379,0,0,0,.645,1.684,2.3,2.3,0,0,0,3.461-.2,4.086,4.086,0,0,0,.66-2.477,3.225,3.225,0,0,0-.617-2.094A2.043,2.043,0,0,0,73.8,9.891a2.27,2.27,0,0,0-1.8.777A2.854,2.854,0,0,0,71.325,12.617Zm8.781-5.648a.812.812,0,0,1-.586-.234.791.791,0,0,1-.242-.594.821.821,0,0,1,.828-.836.827.827,0,0,1,.6.238.835.835,0,0,1,0,1.184A.82.82,0,0,1,80.107,6.969ZM80.732,17H79.45V9h1.281Zm8.047-.367a4.163,4.163,0,0,1-2.187.555,3.622,3.622,0,0,1-2.762-1.113,4.035,4.035,0,0,1-1.051-2.887,4.435,4.435,0,0,1,1.133-3.176,3.963,3.963,0,0,1,3.023-1.2,4.209,4.209,0,0,1,1.859.391v1.313a3.258,3.258,0,0,0-1.906-.625,2.576,2.576,0,0,0-2.012.879,3.335,3.335,0,0,0-.785,2.309,3.176,3.176,0,0,0,.738,2.219,2.545,2.545,0,0,0,1.98.813,3.211,3.211,0,0,0,1.969-.7Zm2.594-9.664a.812.812,0,0,1-.586-.234.791.791,0,0,1-.242-.594.821.821,0,0,1,.828-.836.827.827,0,0,1,.6.238.835.835,0,0,1,0,1.184A.82.82,0,0,1,91.372,6.969ZM92,17H90.716V9H92Zm5.938.188A3.711,3.711,0,0,1,95.1,16.066a4.153,4.153,0,0,1-1.059-2.973,4.326,4.326,0,0,1,1.1-3.148,3.96,3.96,0,0,1,2.977-1.133,3.588,3.588,0,0,1,2.793,1.1,4.368,4.368,0,0,1,1,3.055,4.3,4.3,0,0,1-1.082,3.066A3.791,3.791,0,0,1,97.935,17.188Zm.094-7.3a2.437,2.437,0,0,0-1.953.84,3.449,3.449,0,0,0-.719,2.316,3.262,3.262,0,0,0,.727,2.242,2.469,2.469,0,0,0,1.945.82,2.342,2.342,0,0,0,1.91-.8,3.492,3.492,0,0,0,.668-2.289,3.552,3.552,0,0,0-.668-2.312A2.332,2.332,0,0,0,98.029,9.891ZM99.9,4.922,97.857,7.484h-.992l1.742-2.562ZM110.607,17h-1.281V12.438q0-2.547-1.859-2.547a2.017,2.017,0,0,0-1.59.723,2.679,2.679,0,0,0-.629,1.824V17h-1.281V9h1.281v1.328h.031A2.887,2.887,0,0,1,107.9,8.813a2.448,2.448,0,0,1,2.008.848,3.776,3.776,0,0,1,.7,2.449Z" transform="translate(581.256 1373.65)" fill="#12263f"/>
    <path id="Trazado_655808" data-name="Trazado 655808" d="M40.169,17H38.716l-1.187-3.141h-4.75L31.661,17H30.2L34.5,5.8h1.359ZM37.1,12.68,35.341,7.906a4.571,4.571,0,0,1-.172-.75h-.031a4.185,4.185,0,0,1-.18.75L33.216,12.68ZM48.474,17H47.193V15.641h-.031a2.958,2.958,0,0,1-2.75,1.547A2.988,2.988,0,0,1,42,16.113a4.407,4.407,0,0,1-.9-2.926,4.794,4.794,0,0,1,1-3.18,3.3,3.3,0,0,1,2.664-1.2,2.564,2.564,0,0,1,2.4,1.3h.031V5.156h1.281Zm-1.281-3.617V12.2a2.289,2.289,0,0,0-.641-1.641,2.149,2.149,0,0,0-1.625-.672,2.212,2.212,0,0,0-1.844.859,3.766,3.766,0,0,0-.672,2.375,3.387,3.387,0,0,0,.645,2.184,2.107,2.107,0,0,0,1.73.8,2.188,2.188,0,0,0,1.738-.773A2.882,2.882,0,0,0,47.193,13.383ZM57.357,9l-3.187,8H52.911L49.88,9h1.406l2.031,5.813A5.217,5.217,0,0,1,53.6,15.93h.031a5.283,5.283,0,0,1,.25-1.086L56.005,9Zm7.8,4.32H59.513a2.992,2.992,0,0,0,.719,2.063,2.478,2.478,0,0,0,1.891.727,3.931,3.931,0,0,0,2.484-.891v1.2a4.643,4.643,0,0,1-2.789.766,3.381,3.381,0,0,1-2.664-1.09,4.461,4.461,0,0,1-.969-3.066,4.375,4.375,0,0,1,1.059-3.043,3.394,3.394,0,0,1,2.629-1.176A3.008,3.008,0,0,1,64.3,9.828a4.234,4.234,0,0,1,.859,2.82Zm-1.312-1.086a2.607,2.607,0,0,0-.535-1.727,1.823,1.823,0,0,0-1.465-.617,2.07,2.07,0,0,0-1.539.648,2.943,2.943,0,0,0-.781,1.7ZM71.271,10.3a1.567,1.567,0,0,0-.969-.258,1.635,1.635,0,0,0-1.371.773,3.576,3.576,0,0,0-.551,2.109V17H67.1V9H68.38v1.648h.031a2.793,2.793,0,0,1,.836-1.316,1.906,1.906,0,0,1,1.258-.473,2.092,2.092,0,0,1,.766.109Zm5.1,6.625a2.47,2.47,0,0,1-1.2.25q-2.1,0-2.1-2.344V10.094H71.7V9h1.375V7.047l1.281-.414V9h2.016v1.094H74.357V14.6a1.869,1.869,0,0,0,.273,1.148,1.091,1.091,0,0,0,.906.344,1.347,1.347,0,0,0,.836-.266Zm8.141-3.6H78.865a2.992,2.992,0,0,0,.719,2.063,2.478,2.478,0,0,0,1.891.727,3.931,3.931,0,0,0,2.484-.891v1.2a4.643,4.643,0,0,1-2.789.766,3.381,3.381,0,0,1-2.664-1.09,4.461,4.461,0,0,1-.969-3.066A4.375,4.375,0,0,1,78.6,9.988a3.394,3.394,0,0,1,2.629-1.176,3.008,3.008,0,0,1,2.43,1.016,4.234,4.234,0,0,1,.859,2.82ZM83.2,12.234a2.607,2.607,0,0,0-.535-1.727A1.823,1.823,0,0,0,81.2,9.891a2.07,2.07,0,0,0-1.539.648,2.943,2.943,0,0,0-.781,1.7ZM93.091,17H91.81V12.438q0-2.547-1.859-2.547a2.017,2.017,0,0,0-1.59.723,2.679,2.679,0,0,0-.629,1.824V17H86.45V9h1.281v1.328h.031a2.887,2.887,0,0,1,2.625-1.516A2.448,2.448,0,0,1,92.4,9.66a3.776,3.776,0,0,1,.7,2.449Zm7.867-.367a4.163,4.163,0,0,1-2.187.555,3.622,3.622,0,0,1-2.762-1.113,4.035,4.035,0,0,1-1.051-2.887,4.435,4.435,0,0,1,1.133-3.176,3.963,3.963,0,0,1,3.023-1.2,4.209,4.209,0,0,1,1.859.391v1.313a3.258,3.258,0,0,0-1.906-.625,2.576,2.576,0,0,0-2.012.879,3.335,3.335,0,0,0-.785,2.309,3.176,3.176,0,0,0,.738,2.219,2.545,2.545,0,0,0,1.98.813,3.211,3.211,0,0,0,1.969-.7Zm2.594-9.664a.812.812,0,0,1-.586-.234.791.791,0,0,1-.242-.594.821.821,0,0,1,.828-.836.827.827,0,0,1,.6.238.835.835,0,0,1,0,1.184A.82.82,0,0,1,103.552,6.969ZM104.177,17H102.9V9h1.281Zm8.32,0h-1.281V15.75h-.031a2.682,2.682,0,0,1-2.461,1.438,2.63,2.63,0,0,1-1.871-.633,2.192,2.192,0,0,1-.676-1.68q0-2.242,2.641-2.609l2.4-.336q0-2.039-1.648-2.039a3.938,3.938,0,0,0-2.609.984V9.563a4.958,4.958,0,0,1,2.719-.75q2.82,0,2.82,2.984Zm-1.281-4.047-1.93.266a3.133,3.133,0,0,0-1.344.441,1.273,1.273,0,0,0-.453,1.121,1.221,1.221,0,0,0,.418.957,1.615,1.615,0,0,0,1.113.371,2.056,2.056,0,0,0,1.574-.668,2.387,2.387,0,0,0,.621-1.691Z" transform="translate(581.256 1538.183)" fill="#12263f"/>
    <path id="Trazado_655809" data-name="Trazado 655809" d="M40.982,17H39.669V5.8h1.313ZM50.4,17H49.115V12.438q0-2.547-1.859-2.547a2.017,2.017,0,0,0-1.59.723,2.679,2.679,0,0,0-.629,1.824V17H43.755V9h1.281v1.328h.031a2.887,2.887,0,0,1,2.625-1.516A2.448,2.448,0,0,1,49.7,9.66a3.776,3.776,0,0,1,.7,2.449Zm9.242,0H58.357V15.641h-.031a2.958,2.958,0,0,1-2.75,1.547,2.988,2.988,0,0,1-2.41-1.074,4.407,4.407,0,0,1-.9-2.926,4.794,4.794,0,0,1,1-3.18,3.3,3.3,0,0,1,2.664-1.2,2.564,2.564,0,0,1,2.4,1.3h.031V5.156h1.281Zm-1.281-3.617V12.2a2.289,2.289,0,0,0-.641-1.641,2.149,2.149,0,0,0-1.625-.672,2.212,2.212,0,0,0-1.844.859,3.766,3.766,0,0,0-.672,2.375,3.387,3.387,0,0,0,.645,2.184,2.107,2.107,0,0,0,1.73.8,2.188,2.188,0,0,0,1.738-.773A2.882,2.882,0,0,0,58.357,13.383Zm4.531-6.414a.812.812,0,0,1-.586-.234.791.791,0,0,1-.242-.594.821.821,0,0,1,.828-.836.827.827,0,0,1,.6.238.835.835,0,0,1,0,1.184A.82.82,0,0,1,62.888,6.969ZM63.513,17H62.232V9h1.281Zm8.047-.367a4.163,4.163,0,0,1-2.187.555,3.622,3.622,0,0,1-2.762-1.113,4.035,4.035,0,0,1-1.051-2.887,4.435,4.435,0,0,1,1.133-3.176,3.963,3.963,0,0,1,3.023-1.2,4.209,4.209,0,0,1,1.859.391v1.313a3.258,3.258,0,0,0-1.906-.625,2.576,2.576,0,0,0-2.012.879,3.335,3.335,0,0,0-.785,2.309,3.176,3.176,0,0,0,.738,2.219,2.545,2.545,0,0,0,1.98.813,3.211,3.211,0,0,0,1.969-.7ZM79.224,17H77.943V15.75h-.031a2.682,2.682,0,0,1-2.461,1.438,2.63,2.63,0,0,1-1.871-.633,2.192,2.192,0,0,1-.676-1.68q0-2.242,2.641-2.609l2.4-.336q0-2.039-1.648-2.039a3.938,3.938,0,0,0-2.609.984V9.563a4.958,4.958,0,0,1,2.719-.75q2.82,0,2.82,2.984Zm-1.281-4.047-1.93.266a3.133,3.133,0,0,0-1.344.441,1.273,1.273,0,0,0-.453,1.121,1.221,1.221,0,0,0,.418.957,1.615,1.615,0,0,0,1.113.371,2.056,2.056,0,0,0,1.574-.668,2.387,2.387,0,0,0,.621-1.691Zm7.406,3.969a2.47,2.47,0,0,1-1.2.25q-2.1,0-2.1-2.344V10.094H80.677V9h1.375V7.047l1.281-.414V9h2.016v1.094H83.333V14.6a1.869,1.869,0,0,0,.273,1.148,1.091,1.091,0,0,0,.906.344,1.347,1.347,0,0,0,.836-.266Zm2.367-9.953a.812.812,0,0,1-.586-.234.791.791,0,0,1-.242-.594.821.821,0,0,1,.828-.836.827.827,0,0,1,.6.238.835.835,0,0,1,0,1.184A.82.82,0,0,1,87.716,6.969ZM88.341,17H87.06V9h1.281Zm8.883-8-3.187,8H92.779L89.747,9h1.406l2.031,5.813a5.217,5.217,0,0,1,.281,1.117H93.5a5.283,5.283,0,0,1,.25-1.086L95.872,9Zm7.1,8h-1.281V15.75h-.031a2.682,2.682,0,0,1-2.461,1.438,2.63,2.63,0,0,1-1.871-.633,2.192,2.192,0,0,1-.676-1.68q0-2.242,2.641-2.609l2.4-.336q0-2.039-1.648-2.039a3.938,3.938,0,0,0-2.609.984V9.563a4.958,4.958,0,0,1,2.719-.75q2.82,0,2.82,2.984Zm-1.281-4.047-1.93.266a3.133,3.133,0,0,0-1.344.441,1.273,1.273,0,0,0-.453,1.121,1.221,1.221,0,0,0,.418.957,1.615,1.615,0,0,0,1.113.371,2.056,2.056,0,0,0,1.574-.668,2.387,2.387,0,0,0,.621-1.691Z" transform="translate(579.779 1621.618)" fill="#12263f"/>
    <path id="Trazado_655807" data-name="Trazado 655807" d="M39.568,17.188a4.918,4.918,0,0,1-3.816-1.57,5.824,5.824,0,0,1-1.434-4.086,6.171,6.171,0,0,1,1.461-4.312,5.1,5.1,0,0,1,3.977-1.609,4.807,4.807,0,0,1,3.738,1.563,5.845,5.845,0,0,1,1.418,4.086,6.191,6.191,0,0,1-1.453,4.336A5.008,5.008,0,0,1,39.568,17.188ZM39.661,6.8A3.612,3.612,0,0,0,36.794,8.07a4.93,4.93,0,0,0-1.1,3.344,4.964,4.964,0,0,0,1.074,3.332,3.5,3.5,0,0,0,2.8,1.262,3.678,3.678,0,0,0,2.906-1.2,4.917,4.917,0,0,0,1.063-3.367,5.138,5.138,0,0,0-1.031-3.43A3.536,3.536,0,0,0,39.661,6.8Zm8.594,9.047h-.031V17H46.943V5.156h1.281v5.25h.031a3.03,3.03,0,0,1,2.766-1.594,2.932,2.932,0,0,1,2.41,1.074,4.436,4.436,0,0,1,.871,2.879,4.959,4.959,0,0,1-.977,3.215,3.251,3.251,0,0,1-2.672,1.207A2.631,2.631,0,0,1,48.255,15.844Zm-.031-3.227v1.117a2.379,2.379,0,0,0,.645,1.684,2.3,2.3,0,0,0,3.461-.2,4.086,4.086,0,0,0,.66-2.477,3.225,3.225,0,0,0-.617-2.094A2.043,2.043,0,0,0,50.7,9.891a2.27,2.27,0,0,0-1.8.777A2.854,2.854,0,0,0,48.224,12.617ZM57.63,17H56.349V5.156H57.63ZM60.88,6.969a.812.812,0,0,1-.586-.234.791.791,0,0,1-.242-.594A.821.821,0,0,1,60.88,5.3a.827.827,0,0,1,.6.238.835.835,0,0,1,0,1.184A.82.82,0,0,1,60.88,6.969ZM61.505,17H60.224V9h1.281Zm9.422-.641q0,4.406-4.219,4.406a5.664,5.664,0,0,1-2.594-.562V18.922a5.327,5.327,0,0,0,2.578.75q2.953,0,2.953-3.141v-.875h-.031a3.237,3.237,0,0,1-5.152.465,4.263,4.263,0,0,1-.91-2.863,4.981,4.981,0,0,1,.98-3.242,3.275,3.275,0,0,1,2.684-1.2,2.608,2.608,0,0,1,2.4,1.3h.031V9h1.281Zm-1.281-2.977V12.2A2.289,2.289,0,0,0,69,10.57a2.122,2.122,0,0,0-1.605-.68,2.225,2.225,0,0,0-1.859.863,3.853,3.853,0,0,0-.672,2.418,3.308,3.308,0,0,0,.645,2.137,2.082,2.082,0,0,0,1.707.8,2.23,2.23,0,0,0,1.754-.766A2.854,2.854,0,0,0,69.646,13.383ZM79.247,17H77.966V15.75h-.031a2.682,2.682,0,0,1-2.461,1.438,2.63,2.63,0,0,1-1.871-.633,2.192,2.192,0,0,1-.676-1.68q0-2.242,2.641-2.609l2.4-.336q0-2.039-1.648-2.039a3.938,3.938,0,0,0-2.609.984V9.563a4.958,4.958,0,0,1,2.719-.75q2.82,0,2.82,2.984Zm-1.281-4.047-1.93.266a3.133,3.133,0,0,0-1.344.441,1.273,1.273,0,0,0-.453,1.121,1.221,1.221,0,0,0,.418.957,1.615,1.615,0,0,0,1.113.371,2.056,2.056,0,0,0,1.574-.668,2.387,2.387,0,0,0,.621-1.691Zm9.148,3.68a4.163,4.163,0,0,1-2.187.555,3.622,3.622,0,0,1-2.762-1.113,4.035,4.035,0,0,1-1.051-2.887,4.435,4.435,0,0,1,1.133-3.176,3.963,3.963,0,0,1,3.023-1.2A4.209,4.209,0,0,1,87.13,9.2v1.313a3.258,3.258,0,0,0-1.906-.625,2.576,2.576,0,0,0-2.012.879,3.335,3.335,0,0,0-.785,2.309,3.176,3.176,0,0,0,.738,2.219,2.545,2.545,0,0,0,1.98.813,3.211,3.211,0,0,0,1.969-.7Zm2.594-9.664a.812.812,0,0,1-.586-.234.791.791,0,0,1-.242-.594.821.821,0,0,1,.828-.836.827.827,0,0,1,.6.238.835.835,0,0,1,0,1.184A.82.82,0,0,1,89.708,6.969ZM90.333,17H89.052V9h1.281Zm5.938.188a3.711,3.711,0,0,1-2.832-1.121,4.153,4.153,0,0,1-1.059-2.973,4.326,4.326,0,0,1,1.1-3.148,3.96,3.96,0,0,1,2.977-1.133,3.588,3.588,0,0,1,2.793,1.1,4.368,4.368,0,0,1,1,3.055,4.3,4.3,0,0,1-1.082,3.066A3.791,3.791,0,0,1,96.271,17.188Zm.094-7.3a2.437,2.437,0,0,0-1.953.84,3.449,3.449,0,0,0-.719,2.316,3.262,3.262,0,0,0,.727,2.242,2.469,2.469,0,0,0,1.945.82,2.342,2.342,0,0,0,1.91-.8,3.492,3.492,0,0,0,.668-2.289,3.552,3.552,0,0,0-.668-2.312A2.332,2.332,0,0,0,96.365,9.891ZM98.24,4.922,96.193,7.484H95.2l1.742-2.562ZM108.943,17h-1.281V12.438q0-2.547-1.859-2.547a2.017,2.017,0,0,0-1.59.723,2.679,2.679,0,0,0-.629,1.824V17H102.3V9h1.281v1.328h.031a2.887,2.887,0,0,1,2.625-1.516,2.448,2.448,0,0,1,2.008.848,3.776,3.776,0,0,1,.7,2.449Z" transform="translate(581.256 1454.353)" fill="#12263f"/>
    <path id="Trazado_653938" data-name="Trazado 653938" d="M-12116.139-9551h-116.572v363.367" transform="translate(12759.002 10822.177)" fill="none" stroke="#406834" stroke-width="2"/>
    <g id="Grupo_947456" data-name="Grupo 947456" transform="translate(526.774 1624.874)">
      <path id="Polígono_56" data-name="Polígono 56" d="M7.7,1.457a1,1,0,0,1,1.722,0l6.813,11.53a1,1,0,0,1-.861,1.509H1.752a1,1,0,0,1-.861-1.509Z" transform="translate(36.033 0) rotate(90)" fill="#406834"/>
      <path id="Trazado_653939" data-name="Trazado 653939" d="M-12579.335-9262.5h21.538" transform="translate(12579.335 9271.066)" fill="none" stroke="#406834" stroke-width="2"/>
    </g>
    <g id="Grupo_947455" data-name="Grupo 947455" transform="translate(526.774 1543.572)">
      <path id="Polígono_56-2" data-name="Polígono 56" d="M7.7,1.457a1,1,0,0,1,1.722,0l6.813,11.53a1,1,0,0,1-.861,1.509H1.752a1,1,0,0,1-.861-1.509Z" transform="translate(36.033 0) rotate(90)" fill="#406834"/>
      <path id="Trazado_653939-2" data-name="Trazado 653939" d="M-12579.335-9262.5h21.538" transform="translate(12579.335 9271.066)" fill="none" stroke="#406834" stroke-width="2"/>
    </g>
    <g id="Grupo_947453" data-name="Grupo 947453" transform="translate(526.774 1460.942)">
      <path id="Polígono_56-3" data-name="Polígono 56" d="M7.7,1.457a1,1,0,0,1,1.722,0l6.813,11.53a1,1,0,0,1-.861,1.509H1.752a1,1,0,0,1-.861-1.509Z" transform="translate(36.033 -0.001) rotate(90)" fill="#406834"/>
      <path id="Trazado_653939-3" data-name="Trazado 653939" d="M-12579.335-9262.5h21.538" transform="translate(12579.335 9271.065)" fill="none" stroke="#406834" stroke-width="2"/>
    </g>
    <g id="Grupo_947454" data-name="Grupo 947454" transform="translate(526.774 1379.896)">
      <path id="Polígono_56-4" data-name="Polígono 56" d="M7.7,1.457a1,1,0,0,1,1.722,0l6.813,11.53a1,1,0,0,1-.861,1.509H1.752a1,1,0,0,1-.861-1.509Z" transform="translate(36.033 0) rotate(90)" fill="#406834"/>
      <path id="Trazado_653939-4" data-name="Trazado 653939" d="M-12579.335-9262.5h21.538" transform="translate(12579.335 9271.066)" fill="none" stroke="#406834" stroke-width="2"/>
    </g>
    <g transform="matrix(1, 0, 0, 1, 525.29, 1230)" filter="url(#Rectángulo_335989)">
      <rect id="Rectángulo_335989-2" data-name="Rectángulo 335989" width="187.131" height="69.471" rx="5" transform="translate(74.04 6.44)" fill="#406834"/>
    </g>
    <path id="Trazado_655805" data-name="Trazado 655805" d="M33.651,16.57v-2.5a4.8,4.8,0,0,0,1.477.855,4.746,4.746,0,0,0,1.609.285,3.569,3.569,0,0,0,.832-.086,1.949,1.949,0,0,0,.594-.238,1.039,1.039,0,0,0,.355-.359.9.9,0,0,0,.117-.449.971.971,0,0,0-.187-.586,2.018,2.018,0,0,0-.512-.477,5.347,5.347,0,0,0-.77-.422q-.445-.2-.961-.414a4.9,4.9,0,0,1-1.957-1.336A2.917,2.917,0,0,1,33.6,8.938a3.036,3.036,0,0,1,.352-1.5A2.986,2.986,0,0,1,34.912,6.4a4.291,4.291,0,0,1,1.4-.6A7.206,7.206,0,0,1,38,5.609a10.15,10.15,0,0,1,1.551.105,6.1,6.1,0,0,1,1.246.324V8.375a3.768,3.768,0,0,0-.613-.344,4.859,4.859,0,0,0-.684-.246,5.214,5.214,0,0,0-.7-.145,4.949,4.949,0,0,0-.66-.047,3.443,3.443,0,0,0-.781.082,2,2,0,0,0-.594.23,1.147,1.147,0,0,0-.375.355.843.843,0,0,0-.133.465.888.888,0,0,0,.148.5,1.7,1.7,0,0,0,.422.422,4.477,4.477,0,0,0,.664.391q.391.191.883.395a9.837,9.837,0,0,1,1.207.6,4.291,4.291,0,0,1,.918.715,2.785,2.785,0,0,1,.586.91,3.216,3.216,0,0,1,.2,1.191,3.191,3.191,0,0,1-.355,1.574,2.886,2.886,0,0,1-.965,1.031,4.184,4.184,0,0,1-1.418.566,8.2,8.2,0,0,1-1.707.172,9.492,9.492,0,0,1-1.754-.156A5.3,5.3,0,0,1,33.651,16.57Zm16.2.43H43.135V5.8H49.6V7.852H45.659v2.492h3.664v2.047H45.659v2.563h4.2Zm10.992-.75a8.063,8.063,0,0,1-4.078.945,5.9,5.9,0,0,1-4.262-1.5,5.443,5.443,0,0,1-1.559-4.121,5.753,5.753,0,0,1,1.7-4.3,6.205,6.205,0,0,1,4.531-1.664,9.2,9.2,0,0,1,3.141.492V8.469a6.242,6.242,0,0,0-3.172-.75,3.405,3.405,0,0,0-2.559,1.02,3.745,3.745,0,0,0-.988,2.723,3.756,3.756,0,0,0,.887,2.672,3.125,3.125,0,0,0,2.395.945,3.333,3.333,0,0,0,1.438-.258V12.633H56.08V10.617h4.766Zm11.312-4.1q0,5.047-4.7,5.047-4.562,0-4.562-4.93V5.8h2.531v6.5q0,2.719,2.125,2.719,2.086,0,2.086-2.625V5.8h2.523ZM70.244,2.234,67.8,4.758H66.018l2.031-2.523ZM84.674,17H82.127L77.51,9.961a10.178,10.178,0,0,1-.562-.93h-.031q.062.594.063,1.813V17H74.6V5.8h2.719l4.445,6.82q.3.461.563.914h.031a11.979,11.979,0,0,1-.062-1.539V5.8h2.383ZM9.346,40.57v-2.5a4.8,4.8,0,0,0,1.477.855,4.746,4.746,0,0,0,1.609.285,3.569,3.569,0,0,0,.832-.086,1.949,1.949,0,0,0,.594-.238,1.039,1.039,0,0,0,.355-.359.9.9,0,0,0,.117-.449.971.971,0,0,0-.187-.586,2.018,2.018,0,0,0-.512-.477,5.347,5.347,0,0,0-.77-.422q-.445-.2-.961-.414a4.9,4.9,0,0,1-1.957-1.336A2.917,2.917,0,0,1,9.3,32.938a3.036,3.036,0,0,1,.352-1.5,2.986,2.986,0,0,1,.957-1.035,4.291,4.291,0,0,1,1.4-.6,7.206,7.206,0,0,1,1.688-.191,10.15,10.15,0,0,1,1.551.105,6.1,6.1,0,0,1,1.246.324v2.336a3.768,3.768,0,0,0-.613-.344,4.859,4.859,0,0,0-.684-.246,5.214,5.214,0,0,0-.7-.145,4.949,4.949,0,0,0-.66-.047,3.443,3.443,0,0,0-.781.082,2,2,0,0,0-.594.23,1.147,1.147,0,0,0-.375.355.843.843,0,0,0-.133.465.888.888,0,0,0,.148.5,1.7,1.7,0,0,0,.422.422,4.477,4.477,0,0,0,.664.391q.391.191.883.395a9.837,9.837,0,0,1,1.207.6,4.291,4.291,0,0,1,.918.715,2.785,2.785,0,0,1,.586.91,3.634,3.634,0,0,1-.152,2.766,2.886,2.886,0,0,1-.965,1.031,4.184,4.184,0,0,1-1.418.566,8.2,8.2,0,0,1-1.707.172,9.492,9.492,0,0,1-1.754-.156A5.3,5.3,0,0,1,9.346,40.57ZM21.354,41H18.83V29.8h2.523ZM33.1,40.25a8.063,8.063,0,0,1-4.078.945,5.9,5.9,0,0,1-4.262-1.5A5.443,5.443,0,0,1,23.2,35.578a5.753,5.753,0,0,1,1.7-4.3,6.205,6.205,0,0,1,4.531-1.664,9.2,9.2,0,0,1,3.141.492v2.367a6.242,6.242,0,0,0-3.172-.75,3.405,3.405,0,0,0-2.559,1.02,3.745,3.745,0,0,0-.988,2.723,3.756,3.756,0,0,0,.887,2.672,3.125,3.125,0,0,0,2.395.945,3.333,3.333,0,0,0,1.438-.258V36.633H28.33V34.617H33.1ZM45.354,41H42.807L38.19,33.961a10.18,10.18,0,0,1-.562-.93H37.6q.063.594.063,1.813V41H35.276V29.8h2.719l4.445,6.82q.3.461.563.914h.031a11.978,11.978,0,0,1-.062-1.539V29.8h2.383Zm5.086,0H47.916V29.8H50.44Zm9.023-9.148H55.51V34.6h3.633v2.047H55.51V41H52.987V29.8h6.477ZM63.83,41H61.307V29.8H63.83Zm10.578-.4a7.388,7.388,0,0,1-3.2.594,5.4,5.4,0,0,1-4.055-1.516,5.54,5.54,0,0,1-1.477-4.039,5.919,5.919,0,0,1,1.66-4.359,5.807,5.807,0,0,1,4.309-1.672,8.058,8.058,0,0,1,2.766.414v2.43a4.9,4.9,0,0,0-2.562-.672,3.4,3.4,0,0,0-2.547.992,3.682,3.682,0,0,0-.969,2.688,3.611,3.611,0,0,0,.914,2.59,3.229,3.229,0,0,0,2.461.965,5.249,5.249,0,0,0,2.7-.719Zm11.8.4h-2.75l-.8-2.492H78.682L77.893,41H75.159l4.078-11.2h2.992Zm-4.125-4.43-1.2-3.766A4.908,4.908,0,0,1,80.7,31.8h-.062a4.273,4.273,0,0,1-.2.977l-1.219,3.8ZM87.612,41V29.8H91.58q5.969,0,5.969,5.461a5.522,5.522,0,0,1-1.629,4.18A6.007,6.007,0,0,1,91.58,41Zm2.523-9.148v7.1h1.25a3.378,3.378,0,0,0,2.574-.984,3.735,3.735,0,0,0,.934-2.68,3.388,3.388,0,0,0-.926-2.52,3.529,3.529,0,0,0-2.6-.918ZM104.143,41.2a5.215,5.215,0,0,1-3.922-1.566,5.624,5.624,0,0,1-1.516-4.082,6.026,6.026,0,0,1,1.539-4.3,5.328,5.328,0,0,1,4.078-1.641,5.085,5.085,0,0,1,3.879,1.57,5.79,5.79,0,0,1,1.48,4.141,5.929,5.929,0,0,1-1.535,4.258A5.269,5.269,0,0,1,104.143,41.2Zm.109-9.414a2.54,2.54,0,0,0-2.109,1,4.153,4.153,0,0,0-.781,2.637,4.077,4.077,0,0,0,.781,2.633,2.7,2.7,0,0,0,4.117.027,4.032,4.032,0,0,0,.766-2.613,4.369,4.369,0,0,0-.742-2.711A2.42,2.42,0,0,0,104.252,31.781Z" transform="translate(634.915 1245.665)" fill="#fff"/>
    <g transform="matrix(1, 0, 0, 1, 525.29, 1230)" filter="url(#Rectángulo_336018)">
      <rect id="Rectángulo_336018-2" data-name="Rectángulo 336018" width="176.657" height="43.506" rx="5" transform="translate(353.63 136.97)" fill="#f2f1f1"/>
    </g>
    <g transform="matrix(1, 0, 0, 1, 525.29, 1230)" filter="url(#Rectángulo_336019)">
      <rect id="Rectángulo_336019-2" data-name="Rectángulo 336019" width="176.657" height="43.506" rx="5" transform="translate(353.63 300.44)" fill="#f2f1f1"/>
    </g>
    <g transform="matrix(1, 0, 0, 1, 525.29, 1230)" filter="url(#Rectángulo_336020)">
      <rect id="Rectángulo_336020-2" data-name="Rectángulo 336020" width="176.657" height="43.506" rx="5" transform="translate(353.63 381.51)" fill="#f2f1f1"/>
    </g>
    <g transform="matrix(1, 0, 0, 1, 525.29, 1230)" filter="url(#Rectángulo_336021)">
      <rect id="Rectángulo_336021-2" data-name="Rectángulo 336021" width="176.657" height="43.506" rx="5" transform="translate(353.67 463.6)" fill="#f2f1f1"/>
    </g>
    <g transform="matrix(1, 0, 0, 1, 525.29, 1230)" filter="url(#Rectángulo_336024)">
      <rect id="Rectángulo_336024-2" data-name="Rectángulo 336024" width="176.657" height="43.505" rx="5" transform="translate(353.63 219.02)" fill="#f2f1f1"/>
    </g>
    <path id="Trazado_655810" data-name="Trazado 655810" d="M23.971,6.984H19.6v3.875h4.047v1.18H19.6V17H18.283V5.8h5.688Zm5.3,10.2a3.711,3.711,0,0,1-2.832-1.121,4.153,4.153,0,0,1-1.059-2.973,4.326,4.326,0,0,1,1.1-3.148,3.96,3.96,0,0,1,2.977-1.133,3.588,3.588,0,0,1,2.793,1.1,4.368,4.368,0,0,1,1,3.055,4.3,4.3,0,0,1-1.082,3.066A3.791,3.791,0,0,1,29.267,17.188Zm.094-7.3a2.437,2.437,0,0,0-1.953.84,3.449,3.449,0,0,0-.719,2.316,3.262,3.262,0,0,0,.727,2.242,2.469,2.469,0,0,0,1.945.82,2.342,2.342,0,0,0,1.91-.8,3.492,3.492,0,0,0,.668-2.289,3.552,3.552,0,0,0-.668-2.312A2.332,2.332,0,0,0,29.361,9.891Zm10.109.406a1.567,1.567,0,0,0-.969-.258,1.635,1.635,0,0,0-1.371.773,3.576,3.576,0,0,0-.551,2.109V17H35.3V9H36.58v1.648h.031a2.794,2.794,0,0,1,.836-1.316A1.906,1.906,0,0,1,38.7,8.859a2.092,2.092,0,0,1,.766.109ZM52.221,17H50.939V12.406a3.466,3.466,0,0,0-.41-1.922,1.555,1.555,0,0,0-1.379-.594,1.708,1.708,0,0,0-1.395.75,2.869,2.869,0,0,0-.574,1.8V17H45.9V12.25q0-2.359-1.82-2.359a1.686,1.686,0,0,0-1.391.707,2.923,2.923,0,0,0-.547,1.84V17H40.861V9h1.281v1.266h.031a2.718,2.718,0,0,1,2.484-1.453,2.311,2.311,0,0,1,2.266,1.656A2.855,2.855,0,0,1,49.58,8.813q2.641,0,2.641,3.258Zm8.148,0H59.088V15.75h-.031A2.682,2.682,0,0,1,56.6,17.188a2.63,2.63,0,0,1-1.871-.633,2.192,2.192,0,0,1-.676-1.68q0-2.242,2.641-2.609l2.4-.336q0-2.039-1.648-2.039a3.938,3.938,0,0,0-2.609.984V9.563a4.958,4.958,0,0,1,2.719-.75q2.82,0,2.82,2.984Zm-1.281-4.047-1.93.266a3.133,3.133,0,0,0-1.344.441,1.273,1.273,0,0,0-.453,1.121,1.221,1.221,0,0,0,.418.957,1.615,1.615,0,0,0,1.113.371,2.056,2.056,0,0,0,1.574-.668,2.387,2.387,0,0,0,.621-1.691ZM73.994,17H72.713V15.641h-.031a2.958,2.958,0,0,1-2.75,1.547,2.988,2.988,0,0,1-2.41-1.074,4.407,4.407,0,0,1-.9-2.926,4.794,4.794,0,0,1,1-3.18,3.3,3.3,0,0,1,2.664-1.2,2.564,2.564,0,0,1,2.4,1.3h.031V5.156h1.281Zm-1.281-3.617V12.2a2.289,2.289,0,0,0-.641-1.641,2.149,2.149,0,0,0-1.625-.672,2.212,2.212,0,0,0-1.844.859,3.766,3.766,0,0,0-.672,2.375,3.387,3.387,0,0,0,.645,2.184,2.107,2.107,0,0,0,1.73.8,2.188,2.188,0,0,0,1.738-.773A2.882,2.882,0,0,0,72.713,13.383Zm10.3-.062H77.369a2.992,2.992,0,0,0,.719,2.063,2.478,2.478,0,0,0,1.891.727,3.931,3.931,0,0,0,2.484-.891v1.2a4.643,4.643,0,0,1-2.789.766A3.381,3.381,0,0,1,77.01,16.1a4.461,4.461,0,0,1-.969-3.066A4.375,4.375,0,0,1,77.1,9.988a3.394,3.394,0,0,1,2.629-1.176,3.008,3.008,0,0,1,2.43,1.016,4.234,4.234,0,0,1,.859,2.82ZM81.7,12.234a2.607,2.607,0,0,0-.535-1.727A1.823,1.823,0,0,0,79.7,9.891a2.07,2.07,0,0,0-1.539.648,2.943,2.943,0,0,0-.781,1.7Zm8.945,3.609h-.031V20.68H89.338V9h1.281v1.406h.031a3.03,3.03,0,0,1,2.766-1.594A2.93,2.93,0,0,1,95.83,9.887a4.449,4.449,0,0,1,.867,2.879,4.959,4.959,0,0,1-.977,3.215,3.251,3.251,0,0,1-2.672,1.207A2.676,2.676,0,0,1,90.65,15.844Zm-.031-3.227v1.117a2.379,2.379,0,0,0,.645,1.684,2.3,2.3,0,0,0,3.461-.2,4.086,4.086,0,0,0,.66-2.477,3.225,3.225,0,0,0-.617-2.094A2.043,2.043,0,0,0,93.1,9.891a2.27,2.27,0,0,0-1.8.777A2.854,2.854,0,0,0,90.619,12.617ZM104.471,17h-1.281V15.75h-.031a2.682,2.682,0,0,1-2.461,1.438,2.63,2.63,0,0,1-1.871-.633,2.192,2.192,0,0,1-.676-1.68q0-2.242,2.641-2.609l2.4-.336q0-2.039-1.648-2.039a3.938,3.938,0,0,0-2.609.984V9.563a4.958,4.958,0,0,1,2.719-.75q2.82,0,2.82,2.984Zm-1.281-4.047-1.93.266a3.133,3.133,0,0,0-1.344.441,1.273,1.273,0,0,0-.453,1.121,1.221,1.221,0,0,0,.418.957,1.615,1.615,0,0,0,1.113.371,2.056,2.056,0,0,0,1.574-.668,2.387,2.387,0,0,0,.621-1.691ZM113.525,17h-1.281V12.438q0-2.547-1.859-2.547a2.017,2.017,0,0,0-1.59.723,2.679,2.679,0,0,0-.629,1.824V17h-1.281V9h1.281v1.328h.031a2.887,2.887,0,0,1,2.625-1.516,2.448,2.448,0,0,1,2.008.848,3.776,3.776,0,0,1,.7,2.449Zm8.844-3.68h-5.648a2.992,2.992,0,0,0,.719,2.063,2.478,2.478,0,0,0,1.891.727,3.931,3.931,0,0,0,2.484-.891v1.2a4.643,4.643,0,0,1-2.789.766,3.381,3.381,0,0,1-2.664-1.09,4.461,4.461,0,0,1-.969-3.066,4.375,4.375,0,0,1,1.059-3.043,3.394,3.394,0,0,1,2.629-1.176,3.008,3.008,0,0,1,2.43,1.016,4.234,4.234,0,0,1,.859,2.82Zm-1.312-1.086a2.607,2.607,0,0,0-.535-1.727,1.823,1.823,0,0,0-1.465-.617,2.07,2.07,0,0,0-1.539.648,2.943,2.943,0,0,0-.781,1.7ZM125.588,17h-1.281V5.156h1.281Z" transform="translate(897.381 1374.879)" fill="#12263f"/>
    <path id="Trazado_655813" data-name="Trazado 655813" d="M52.8,17H51.346l-1.187-3.141h-4.75L44.291,17H42.83l4.3-11.2h1.359Zm-3.07-4.32L47.971,7.906a4.571,4.571,0,0,1-.172-.75h-.031a4.185,4.185,0,0,1-.18.75L45.846,12.68Zm10,3.953a4.163,4.163,0,0,1-2.187.555,3.622,3.622,0,0,1-2.762-1.113,4.035,4.035,0,0,1-1.051-2.887,4.435,4.435,0,0,1,1.133-3.176,3.963,3.963,0,0,1,3.023-1.2,4.209,4.209,0,0,1,1.859.391v1.313a3.258,3.258,0,0,0-1.906-.625,2.576,2.576,0,0,0-2.012.879,3.335,3.335,0,0,0-.785,2.309,3.176,3.176,0,0,0,.738,2.219,2.545,2.545,0,0,0,1.98.813,3.211,3.211,0,0,0,1.969-.7ZM68.135,17H66.853V15.734h-.031a2.631,2.631,0,0,1-2.469,1.453q-2.859,0-2.859-3.406V9h1.273v4.578q0,2.531,1.938,2.531a1.96,1.96,0,0,0,1.543-.691,2.645,2.645,0,0,0,.605-1.809V9h1.281Zm-1.2-12.078L64.885,7.484h-.992l1.742-2.562Zm3.3,11.789V15.336a3.792,3.792,0,0,0,2.3.773q1.688,0,1.688-1.125a.976.976,0,0,0-.145-.543,1.44,1.44,0,0,0-.391-.395,3.007,3.007,0,0,0-.578-.309q-.332-.137-.715-.285a9.207,9.207,0,0,1-.934-.426,2.82,2.82,0,0,1-.672-.484,1.8,1.8,0,0,1-.406-.613,2.17,2.17,0,0,1-.137-.8,1.912,1.912,0,0,1,.258-1A2.286,2.286,0,0,1,71.2,9.4a3.206,3.206,0,0,1,.98-.441,4.349,4.349,0,0,1,1.137-.148,4.59,4.59,0,0,1,1.859.359v1.3a3.624,3.624,0,0,0-2.031-.578,2.374,2.374,0,0,0-.648.082,1.587,1.587,0,0,0-.5.23,1.065,1.065,0,0,0-.32.355.936.936,0,0,0-.113.457,1.1,1.1,0,0,0,.113.523,1.152,1.152,0,0,0,.332.375,2.538,2.538,0,0,0,.531.3q.313.133.711.289a9.9,9.9,0,0,1,.953.418,3.269,3.269,0,0,1,.719.484,1.893,1.893,0,0,1,.457.621,2,2,0,0,1,.16.836,1.971,1.971,0,0,1-.262,1.031,2.243,2.243,0,0,1-.7.727,3.2,3.2,0,0,1-1.008.43,4.976,4.976,0,0,1-1.2.141A4.539,4.539,0,0,1,70.236,16.711Zm10.984.211a2.47,2.47,0,0,1-1.2.25q-2.1,0-2.1-2.344V10.094H76.549V9h1.375V7.047L79.2,6.633V9h2.016v1.094H79.2V14.6a1.869,1.869,0,0,0,.273,1.148,1.091,1.091,0,0,0,.906.344,1.347,1.347,0,0,0,.836-.266Zm2.367-9.953A.812.812,0,0,1,83,6.734a.791.791,0,0,1-.242-.594.821.821,0,0,1,.828-.836.827.827,0,0,1,.6.238.835.835,0,0,1,0,1.184A.82.82,0,0,1,83.588,6.969ZM84.213,17H82.932V9h1.281Zm8.047-.367a4.163,4.163,0,0,1-2.187.555,3.622,3.622,0,0,1-2.762-1.113,4.035,4.035,0,0,1-1.051-2.887,4.435,4.435,0,0,1,1.133-3.176,3.963,3.963,0,0,1,3.023-1.2,4.209,4.209,0,0,1,1.859.391v1.313a3.258,3.258,0,0,0-1.906-.625,2.576,2.576,0,0,0-2.012.879,3.335,3.335,0,0,0-.785,2.309A3.176,3.176,0,0,0,88.31,15.3a2.545,2.545,0,0,0,1.98.813,3.211,3.211,0,0,0,1.969-.7ZM99.924,17H98.642V15.75h-.031a2.682,2.682,0,0,1-2.461,1.438,2.63,2.63,0,0,1-1.871-.633,2.192,2.192,0,0,1-.676-1.68q0-2.242,2.641-2.609l2.4-.336q0-2.039-1.648-2.039a3.938,3.938,0,0,0-2.609.984V9.563a4.958,4.958,0,0,1,2.719-.75q2.82,0,2.82,2.984Zm-1.281-4.047-1.93.266a3.133,3.133,0,0,0-1.344.441,1.273,1.273,0,0,0-.453,1.121,1.221,1.221,0,0,0,.418.957,1.615,1.615,0,0,0,1.113.371,2.056,2.056,0,0,0,1.574-.668,2.387,2.387,0,0,0,.621-1.691Z" transform="translate(897.381 1538.354)" fill="#12263f"/>
    <path id="Trazado_655814" data-name="Trazado 655814" d="M55.381,16.234a7.492,7.492,0,0,1-3.75.953,5.124,5.124,0,0,1-3.879-1.547,5.674,5.674,0,0,1-1.48-4.094,5.826,5.826,0,0,1,1.645-4.27,5.606,5.606,0,0,1,4.168-1.668,7.093,7.093,0,0,1,3.07.594V7.656A5.9,5.9,0,0,0,51.935,6.8a4.021,4.021,0,0,0-3.086,1.3,4.743,4.743,0,0,0-1.2,3.359,4.746,4.746,0,0,0,1.117,3.34,3.916,3.916,0,0,0,3.031,1.215,4.684,4.684,0,0,0,2.273-.523V12.344H51.615V11.156h3.766ZM64.24,13.32H58.592a2.992,2.992,0,0,0,.719,2.063,2.478,2.478,0,0,0,1.891.727,3.931,3.931,0,0,0,2.484-.891v1.2a4.643,4.643,0,0,1-2.789.766,3.381,3.381,0,0,1-2.664-1.09,4.461,4.461,0,0,1-.969-3.066,4.375,4.375,0,0,1,1.059-3.043,3.394,3.394,0,0,1,2.629-1.176,3.008,3.008,0,0,1,2.43,1.016,4.234,4.234,0,0,1,.859,2.82Zm-1.312-1.086a2.607,2.607,0,0,0-.535-1.727,1.823,1.823,0,0,0-1.465-.617,2.07,2.07,0,0,0-1.539.648,2.943,2.943,0,0,0-.781,1.7Zm2.766,4.477V15.336a3.792,3.792,0,0,0,2.3.773q1.688,0,1.688-1.125a.976.976,0,0,0-.145-.543,1.44,1.44,0,0,0-.391-.395,3.007,3.007,0,0,0-.578-.309q-.332-.137-.715-.285a9.207,9.207,0,0,1-.934-.426,2.82,2.82,0,0,1-.672-.484,1.8,1.8,0,0,1-.406-.613,2.17,2.17,0,0,1-.137-.8,1.912,1.912,0,0,1,.258-1,2.286,2.286,0,0,1,.688-.727,3.206,3.206,0,0,1,.98-.441,4.349,4.349,0,0,1,1.137-.148,4.59,4.59,0,0,1,1.859.359v1.3A3.624,3.624,0,0,0,68.6,9.891a2.374,2.374,0,0,0-.648.082,1.587,1.587,0,0,0-.5.23,1.065,1.065,0,0,0-.32.355.936.936,0,0,0-.113.457,1.1,1.1,0,0,0,.113.523,1.152,1.152,0,0,0,.332.375,2.538,2.538,0,0,0,.531.3q.313.133.711.289a9.9,9.9,0,0,1,.953.418,3.269,3.269,0,0,1,.719.484,1.893,1.893,0,0,1,.457.621,2,2,0,0,1,.16.836,1.971,1.971,0,0,1-.262,1.031,2.243,2.243,0,0,1-.7.727,3.2,3.2,0,0,1-1.008.43,4.976,4.976,0,0,1-1.2.141A4.539,4.539,0,0,1,65.693,16.711Zm10.984.211a2.47,2.47,0,0,1-1.2.25q-2.1,0-2.1-2.344V10.094H72.006V9h1.375V7.047l1.281-.414V9h2.016v1.094H74.662V14.6a1.869,1.869,0,0,0,.273,1.148,1.091,1.091,0,0,0,.906.344,1.347,1.347,0,0,0,.836-.266Zm8.18.078H83.576V15.734h-.031a2.631,2.631,0,0,1-2.469,1.453q-2.859,0-2.859-3.406V9H79.49v4.578q0,2.531,1.938,2.531a1.96,1.96,0,0,0,1.543-.691,2.645,2.645,0,0,0,.605-1.809V9h1.281Zm8.313,0H91.889V15.75h-.031A2.682,2.682,0,0,1,89.4,17.188a2.63,2.63,0,0,1-1.871-.633,2.192,2.192,0,0,1-.676-1.68q0-2.242,2.641-2.609l2.4-.336q0-2.039-1.648-2.039a3.938,3.938,0,0,0-2.609.984V9.563a4.958,4.958,0,0,1,2.719-.75q2.82,0,2.82,2.984Zm-1.281-4.047-1.93.266a3.133,3.133,0,0,0-1.344.441,1.273,1.273,0,0,0-.453,1.121,1.221,1.221,0,0,0,.418.957,1.615,1.615,0,0,0,1.113.371,2.056,2.056,0,0,0,1.574-.668,2.387,2.387,0,0,0,.621-1.691ZM96.865,17H95.584V5.156h1.281Z" transform="translate(897.381 1615.466)" fill="#12263f"/>
    <path id="Trazado_655815" data-name="Trazado 655815" d="M49.326,17H47.873l-1.187-3.141h-4.75L40.818,17H39.357l4.3-11.2h1.359Zm-3.07-4.32L44.5,7.906a4.571,4.571,0,0,1-.172-.75h-.031a4.185,4.185,0,0,1-.18.75L42.373,12.68ZM57.631,17H56.349V15.641h-.031a2.958,2.958,0,0,1-2.75,1.547,2.988,2.988,0,0,1-2.41-1.074,4.407,4.407,0,0,1-.9-2.926,4.794,4.794,0,0,1,1-3.18,3.3,3.3,0,0,1,2.664-1.2,2.564,2.564,0,0,1,2.4,1.3h.031V5.156h1.281Zm-1.281-3.617V12.2a2.289,2.289,0,0,0-.641-1.641,2.149,2.149,0,0,0-1.625-.672,2.212,2.212,0,0,0-1.844.859,3.766,3.766,0,0,0-.672,2.375,3.387,3.387,0,0,0,.645,2.184,2.107,2.107,0,0,0,1.73.8,2.188,2.188,0,0,0,1.738-.773A2.882,2.882,0,0,0,56.349,13.383Zm4.531-6.414a.812.812,0,0,1-.586-.234.791.791,0,0,1-.242-.594.821.821,0,0,1,.828-.836.827.827,0,0,1,.6.238.835.835,0,0,1,0,1.184A.82.82,0,0,1,60.881,6.969ZM61.506,17H60.224V9h1.281Zm8.047-.367a4.163,4.163,0,0,1-2.187.555A3.622,3.622,0,0,1,64.6,16.074a4.035,4.035,0,0,1-1.051-2.887,4.435,4.435,0,0,1,1.133-3.176,3.963,3.963,0,0,1,3.023-1.2,4.209,4.209,0,0,1,1.859.391v1.313a3.258,3.258,0,0,0-1.906-.625,2.576,2.576,0,0,0-2.012.879,3.335,3.335,0,0,0-.785,2.309A3.176,3.176,0,0,0,65.6,15.3a2.545,2.545,0,0,0,1.98.813,3.211,3.211,0,0,0,1.969-.7Zm2.594-9.664a.812.812,0,0,1-.586-.234.791.791,0,0,1-.242-.594.821.821,0,0,1,.828-.836.827.827,0,0,1,.6.238.835.835,0,0,1,0,1.184A.82.82,0,0,1,72.146,6.969ZM72.771,17H71.49V9h1.281Zm5.938.188a3.711,3.711,0,0,1-2.832-1.121,4.153,4.153,0,0,1-1.059-2.973,4.326,4.326,0,0,1,1.1-3.148A3.96,3.96,0,0,1,78.9,8.813a3.588,3.588,0,0,1,2.793,1.1,4.368,4.368,0,0,1,1,3.055,4.3,4.3,0,0,1-1.082,3.066A3.791,3.791,0,0,1,78.709,17.188Zm.094-7.3a2.437,2.437,0,0,0-1.953.84,3.449,3.449,0,0,0-.719,2.316,3.262,3.262,0,0,0,.727,2.242,2.469,2.469,0,0,0,1.945.82,2.342,2.342,0,0,0,1.91-.8,3.492,3.492,0,0,0,.668-2.289,3.552,3.552,0,0,0-.668-2.312A2.332,2.332,0,0,0,78.8,9.891ZM91.381,17H90.1V12.438q0-2.547-1.859-2.547a2.017,2.017,0,0,0-1.59.723,2.679,2.679,0,0,0-.629,1.824V17H84.74V9h1.281v1.328h.031a2.887,2.887,0,0,1,2.625-1.516,2.448,2.448,0,0,1,2.008.848,3.776,3.776,0,0,1,.7,2.449Zm8.141,0H98.24V15.75h-.031a2.682,2.682,0,0,1-2.461,1.438,2.63,2.63,0,0,1-1.871-.633,2.192,2.192,0,0,1-.676-1.68q0-2.242,2.641-2.609l2.4-.336q0-2.039-1.648-2.039a3.938,3.938,0,0,0-2.609.984V9.563a4.958,4.958,0,0,1,2.719-.75q2.82,0,2.82,2.984ZM98.24,12.953l-1.93.266a3.133,3.133,0,0,0-1.344.441,1.273,1.273,0,0,0-.453,1.121,1.221,1.221,0,0,0,.418.957,1.615,1.615,0,0,0,1.113.371,2.056,2.056,0,0,0,1.574-.668,2.387,2.387,0,0,0,.621-1.691ZM103.217,17h-1.281V5.156h1.281Z" transform="translate(895.788 1704.817)" fill="#12263f"/>
    <path id="Trazado_655812" data-name="Trazado 655812" d="M45.33,17H39.517V5.8H40.83V15.813h4.5Zm8.016,0H52.064V15.734h-.031a2.631,2.631,0,0,1-2.469,1.453q-2.859,0-2.859-3.406V9h1.273v4.578q0,2.531,1.938,2.531a1.96,1.96,0,0,0,1.543-.691,2.645,2.645,0,0,0,.605-1.809V9h1.281Zm13.945,0H66.01V12.406a3.466,3.466,0,0,0-.41-1.922,1.555,1.555,0,0,0-1.379-.594,1.708,1.708,0,0,0-1.395.75,2.869,2.869,0,0,0-.574,1.8V17H60.971V12.25q0-2.359-1.82-2.359a1.686,1.686,0,0,0-1.391.707,2.923,2.923,0,0,0-.547,1.84V17H55.932V9h1.281v1.266h.031a2.718,2.718,0,0,1,2.484-1.453,2.311,2.311,0,0,1,2.266,1.656A2.855,2.855,0,0,1,64.65,8.813q2.641,0,2.641,3.258ZM70.369,6.969a.812.812,0,0,1-.586-.234.791.791,0,0,1-.242-.594.821.821,0,0,1,.828-.836.827.827,0,0,1,.6.238.835.835,0,0,1,0,1.184A.82.82,0,0,1,70.369,6.969ZM70.994,17H69.713V9h1.281Zm9.234,0H78.947V12.438q0-2.547-1.859-2.547a2.017,2.017,0,0,0-1.59.723,2.679,2.679,0,0,0-.629,1.824V17H73.588V9h1.281v1.328H74.9a2.887,2.887,0,0,1,2.625-1.516,2.448,2.448,0,0,1,2.008.848,3.776,3.776,0,0,1,.7,2.449Zm5.758.188a3.711,3.711,0,0,1-2.832-1.121A4.153,4.153,0,0,1,82.1,13.094a4.326,4.326,0,0,1,1.1-3.148,3.96,3.96,0,0,1,2.977-1.133,3.588,3.588,0,0,1,2.793,1.1,4.368,4.368,0,0,1,1,3.055,4.3,4.3,0,0,1-1.082,3.066A3.791,3.791,0,0,1,85.986,17.188Zm.094-7.3a2.437,2.437,0,0,0-1.953.84,3.449,3.449,0,0,0-.719,2.316,3.262,3.262,0,0,0,.727,2.242,2.469,2.469,0,0,0,1.945.82,2.342,2.342,0,0,0,1.91-.8,3.492,3.492,0,0,0,.668-2.289A3.552,3.552,0,0,0,87.99,10.7,2.332,2.332,0,0,0,86.08,9.891Zm5.453,6.82V15.336a3.792,3.792,0,0,0,2.3.773q1.688,0,1.688-1.125a.976.976,0,0,0-.145-.543,1.44,1.44,0,0,0-.391-.395,3.007,3.007,0,0,0-.578-.309q-.332-.137-.715-.285a9.207,9.207,0,0,1-.934-.426,2.82,2.82,0,0,1-.672-.484,1.8,1.8,0,0,1-.406-.613,2.17,2.17,0,0,1-.137-.8,1.912,1.912,0,0,1,.258-1,2.286,2.286,0,0,1,.688-.727,3.206,3.206,0,0,1,.98-.441,4.349,4.349,0,0,1,1.137-.148,4.59,4.59,0,0,1,1.859.359v1.3a3.624,3.624,0,0,0-2.031-.578,2.374,2.374,0,0,0-.648.082,1.587,1.587,0,0,0-.5.23,1.065,1.065,0,0,0-.32.355.936.936,0,0,0-.113.457,1.1,1.1,0,0,0,.113.523,1.152,1.152,0,0,0,.332.375,2.538,2.538,0,0,0,.531.3q.313.133.711.289a9.9,9.9,0,0,1,.953.418,3.269,3.269,0,0,1,.719.484,1.893,1.893,0,0,1,.457.621,2,2,0,0,1,.16.836,1.971,1.971,0,0,1-.262,1.031,2.243,2.243,0,0,1-.7.727,3.2,3.2,0,0,1-1.008.43,4.976,4.976,0,0,1-1.2.141A4.539,4.539,0,0,1,91.533,16.711Zm13,.289h-1.281V15.75h-.031a2.682,2.682,0,0,1-2.461,1.438,2.63,2.63,0,0,1-1.871-.633,2.192,2.192,0,0,1-.676-1.68q0-2.242,2.641-2.609l2.4-.336q0-2.039-1.648-2.039a3.938,3.938,0,0,0-2.609.984V9.563a4.958,4.958,0,0,1,2.719-.75q2.82,0,2.82,2.984Zm-1.281-4.047-1.93.266a3.133,3.133,0,0,0-1.344.441,1.273,1.273,0,0,0-.453,1.121,1.221,1.221,0,0,0,.418.957,1.615,1.615,0,0,0,1.113.371,2.056,2.056,0,0,0,1.574-.668,2.387,2.387,0,0,0,.621-1.691Z" transform="translate(897.381 1455.612)" fill="#12263f"/>
    <path id="Trazado_653954" data-name="Trazado 653954" d="M-12116.093-9551h-116.617v446.76" transform="translate(13075.104 10822.243)" fill="none" stroke="#406834" stroke-width="2"/>
    <g id="Grupo_947460" data-name="Grupo 947460" transform="translate(842.878 1625.078)">
      <path id="Polígono_56-5" data-name="Polígono 56" d="M7.708,1.457a1,1,0,0,1,1.722,0l6.817,11.536a1,1,0,0,1-.861,1.509H1.752a1,1,0,0,1-.861-1.509Z" transform="translate(36.047 0) rotate(90)" fill="#406834"/>
      <path id="Trazado_653939-5" data-name="Trazado 653939" d="M-12579.334-9262.5h21.546" transform="translate(12579.334 9271.069)" fill="none" stroke="#406834" stroke-width="2"/>
    </g>
    <g id="Grupo_947461" data-name="Grupo 947461" transform="translate(842.878 1543.744)">
      <path id="Polígono_56-6" data-name="Polígono 56" d="M7.708,1.457a1,1,0,0,1,1.722,0l6.817,11.536a1,1,0,0,1-.861,1.509H1.752a1,1,0,0,1-.861-1.509Z" transform="translate(36.047 0) rotate(90)" fill="#406834"/>
      <path id="Trazado_653939-6" data-name="Trazado 653939" d="M-12579.334-9262.5h21.546" transform="translate(12579.334 9271.069)" fill="none" stroke="#406834" stroke-width="2"/>
    </g>
    <g id="Grupo_947462" data-name="Grupo 947462" transform="translate(842.878 1462.205)">
      <path id="Polígono_56-7" data-name="Polígono 56" d="M7.708,1.457a1,1,0,0,1,1.722,0l6.817,11.536a1,1,0,0,1-.861,1.509H1.752a1,1,0,0,1-.861-1.509Z" transform="translate(36.047 0) rotate(90)" fill="#406834"/>
      <path id="Trazado_653939-7" data-name="Trazado 653939" d="M-12579.334-9262.5h21.546" transform="translate(12579.334 9271.069)" fill="none" stroke="#406834" stroke-width="2"/>
    </g>
    <g id="Grupo_947463" data-name="Grupo 947463" transform="translate(842.878 1380.005)">
      <path id="Polígono_56-8" data-name="Polígono 56" d="M7.708,1.457a1,1,0,0,1,1.722,0l6.817,11.536a1,1,0,0,1-.861,1.509H1.752a1,1,0,0,1-.861-1.509Z" transform="translate(36.047 0) rotate(90)" fill="#406834"/>
      <path id="Trazado_653939-8" data-name="Trazado 653939" d="M-12579.334-9262.5h21.546" transform="translate(12579.334 9271.069)" fill="none" stroke="#406834" stroke-width="2"/>
    </g>
    <g id="Grupo_947464" data-name="Grupo 947464" transform="translate(842.878 1708.134)">
      <path id="Polígono_56-9" data-name="Polígono 56" d="M7.708,1.457a1,1,0,0,1,1.722,0l6.817,11.536a1,1,0,0,1-.861,1.509H1.752a1,1,0,0,1-.861-1.509Z" transform="translate(36.047 0) rotate(90)" fill="#406834"/>
      <path id="Trazado_653939-9" data-name="Trazado 653939" d="M-12579.334-9262.5h21.546" transform="translate(12579.334 9271.069)" fill="none" stroke="#406834" stroke-width="2"/>
    </g>
    <g transform="matrix(1, 0, 0, 1, 525.29, 1230)" filter="url(#Rectángulo_336025)">
      <rect id="Rectángulo_336025-2" data-name="Rectángulo 336025" width="187.204" height="69.493" rx="5" transform="translate(390.09 6)" fill="#406834"/>
    </g>
    <path id="Trazado_655811" data-name="Trazado 655811" d="M52.73,16.57v-2.5a4.8,4.8,0,0,0,1.477.855,4.746,4.746,0,0,0,1.609.285,3.569,3.569,0,0,0,.832-.086,1.949,1.949,0,0,0,.594-.238,1.039,1.039,0,0,0,.355-.359.9.9,0,0,0,.117-.449.971.971,0,0,0-.187-.586,2.018,2.018,0,0,0-.512-.477,5.347,5.347,0,0,0-.77-.422q-.445-.2-.961-.414a4.9,4.9,0,0,1-1.957-1.336,2.917,2.917,0,0,1-.645-1.906,3.036,3.036,0,0,1,.352-1.5A2.986,2.986,0,0,1,53.992,6.4a4.291,4.291,0,0,1,1.4-.6,7.206,7.206,0,0,1,1.688-.191,10.15,10.15,0,0,1,1.551.105,6.1,6.1,0,0,1,1.246.324V8.375a3.768,3.768,0,0,0-.613-.344,4.859,4.859,0,0,0-.684-.246,5.214,5.214,0,0,0-.7-.145,4.949,4.949,0,0,0-.66-.047,3.443,3.443,0,0,0-.781.082,2,2,0,0,0-.594.23,1.147,1.147,0,0,0-.375.355.843.843,0,0,0-.133.465.888.888,0,0,0,.148.5,1.7,1.7,0,0,0,.422.422,4.477,4.477,0,0,0,.664.391q.391.191.883.395a9.837,9.837,0,0,1,1.207.6,4.291,4.291,0,0,1,.918.715,2.785,2.785,0,0,1,.586.91,3.216,3.216,0,0,1,.2,1.191,3.191,3.191,0,0,1-.355,1.574,2.886,2.886,0,0,1-.965,1.031,4.184,4.184,0,0,1-1.418.566,8.2,8.2,0,0,1-1.707.172,9.492,9.492,0,0,1-1.754-.156A5.3,5.3,0,0,1,52.73,16.57Zm16.2.43H62.215V5.8h6.461V7.852H64.738v2.492H68.4v2.047H64.738v2.563h4.2Zm10.992-.75a8.063,8.063,0,0,1-4.078.945,5.9,5.9,0,0,1-4.262-1.5,5.443,5.443,0,0,1-1.559-4.121,5.753,5.753,0,0,1,1.7-4.3,6.205,6.205,0,0,1,4.531-1.664A9.2,9.2,0,0,1,79.4,6.1V8.469a6.242,6.242,0,0,0-3.172-.75,3.405,3.405,0,0,0-2.559,1.02,3.745,3.745,0,0,0-.988,2.723,3.756,3.756,0,0,0,.887,2.672,3.125,3.125,0,0,0,2.395.945A3.333,3.333,0,0,0,77.4,14.82V12.633H75.16V10.617h4.766Zm11.313-4.1q0,5.047-4.7,5.047-4.562,0-4.562-4.93V5.8H84.5v6.5q0,2.719,2.125,2.719,2.086,0,2.086-2.625V5.8h2.523ZM89.324,2.234,86.879,4.758H85.1l2.031-2.523ZM103.754,17h-2.547L96.59,9.961a10.178,10.178,0,0,1-.562-.93H96q.062.594.063,1.813V17H93.676V5.8h2.719l4.445,6.82q.3.461.563.914h.031a11.979,11.979,0,0,1-.062-1.539V5.8h2.383Zm-81.3,23.6a7.388,7.388,0,0,1-3.2.594,5.4,5.4,0,0,1-4.055-1.516,5.54,5.54,0,0,1-1.477-4.039,5.919,5.919,0,0,1,1.66-4.359,5.807,5.807,0,0,1,4.309-1.672,8.058,8.058,0,0,1,2.766.414v2.43a4.9,4.9,0,0,0-2.562-.672,3.4,3.4,0,0,0-2.547.992,3.682,3.682,0,0,0-.969,2.688,3.611,3.611,0,0,0,.914,2.59,3.229,3.229,0,0,0,2.461.965,5.249,5.249,0,0,0,2.7-.719Zm11.8.4H31.5l-.8-2.492H26.723L25.934,41H23.2l4.078-11.2H30.27Zm-4.125-4.43-1.2-3.766a4.907,4.907,0,0,1-.187-1.008h-.062a4.273,4.273,0,0,1-.2.977l-1.219,3.8ZM45.051,41h-2.9L40.41,38.117q-.2-.328-.375-.586a3.255,3.255,0,0,0-.363-.441,1.445,1.445,0,0,0-.383-.281.972.972,0,0,0-.434-.1h-.68V41H35.652V29.8h4q4.078,0,4.078,3.047a3.155,3.155,0,0,1-.18,1.082,3.006,3.006,0,0,1-.508.895,3.219,3.219,0,0,1-.793.688,4.09,4.09,0,0,1-1.035.453v.031a1.606,1.606,0,0,1,.484.254,3.468,3.468,0,0,1,.453.41,5.723,5.723,0,0,1,.418.5q.2.27.363.527Zm-6.875-9.312V34.8H39.27a1.813,1.813,0,0,0,1.3-.469,1.564,1.564,0,0,0,.5-1.18q0-1.469-1.758-1.469ZM55.949,41H53.2l-.8-2.492H48.418L47.629,41H44.895l4.078-11.2h2.992Zm-4.125-4.43-1.2-3.766a4.907,4.907,0,0,1-.187-1.008h-.062a4.273,4.273,0,0,1-.2.977l-1.219,3.8ZM65.137,40.6a7.388,7.388,0,0,1-3.2.594,5.4,5.4,0,0,1-4.055-1.516A5.54,5.54,0,0,1,56.4,35.641a5.919,5.919,0,0,1,1.66-4.359,5.807,5.807,0,0,1,4.309-1.672,8.058,8.058,0,0,1,2.766.414v2.43a4.9,4.9,0,0,0-2.562-.672,3.4,3.4,0,0,0-2.547.992,3.682,3.682,0,0,0-.969,2.688,3.611,3.611,0,0,0,.914,2.59,3.229,3.229,0,0,0,2.461.965,5.249,5.249,0,0,0,2.7-.719Zm9.82-8.75h-3.2V41H69.23V31.852h-3.18V29.8h8.906ZM83.184,41H76.465V29.8h6.461v2.055H78.988v2.492h3.664v2.047H78.988v2.563h4.2Zm11.2,0h-2.9l-1.742-2.883q-.2-.328-.375-.586A3.255,3.255,0,0,0,89,37.09a1.445,1.445,0,0,0-.383-.281.972.972,0,0,0-.434-.1H87.5V41H84.98V29.8h4q4.078,0,4.078,3.047a3.155,3.155,0,0,1-.18,1.082,3.006,3.006,0,0,1-.508.895,3.219,3.219,0,0,1-.793.688,4.09,4.09,0,0,1-1.035.453v.031a1.606,1.606,0,0,1,.484.254,3.469,3.469,0,0,1,.453.41,5.722,5.722,0,0,1,.418.5q.2.27.363.527ZM87.5,31.688V34.8H88.6a1.813,1.813,0,0,0,1.3-.469,1.564,1.564,0,0,0,.5-1.18q0-1.469-1.758-1.469ZM97.949,41H95.426V29.8h2.523ZM99.23,26.234l-2.445,2.523H95l2.031-2.523Zm.75,14.336v-2.5a4.8,4.8,0,0,0,1.477.855,4.746,4.746,0,0,0,1.609.285,3.569,3.569,0,0,0,.832-.086,1.949,1.949,0,0,0,.594-.238,1.039,1.039,0,0,0,.355-.359.9.9,0,0,0,.117-.449.971.971,0,0,0-.187-.586,2.018,2.018,0,0,0-.512-.477,5.347,5.347,0,0,0-.77-.422q-.445-.2-.961-.414a4.9,4.9,0,0,1-1.957-1.336,2.917,2.917,0,0,1-.645-1.906,3.036,3.036,0,0,1,.352-1.5,2.986,2.986,0,0,1,.957-1.035,4.291,4.291,0,0,1,1.4-.6,7.206,7.206,0,0,1,1.688-.191,10.15,10.15,0,0,1,1.551.105,6.1,6.1,0,0,1,1.246.324v2.336a3.768,3.768,0,0,0-.613-.344,4.859,4.859,0,0,0-.684-.246,5.214,5.214,0,0,0-.7-.145,4.949,4.949,0,0,0-.66-.047,3.443,3.443,0,0,0-.781.082,2,2,0,0,0-.594.23,1.147,1.147,0,0,0-.375.355.843.843,0,0,0-.133.465.888.888,0,0,0,.148.5,1.7,1.7,0,0,0,.422.422,4.477,4.477,0,0,0,.664.391q.391.191.883.395a9.837,9.837,0,0,1,1.207.6,4.291,4.291,0,0,1,.918.715,2.785,2.785,0,0,1,.586.91,3.634,3.634,0,0,1-.152,2.766,2.886,2.886,0,0,1-.965,1.031,4.184,4.184,0,0,1-1.418.566,8.2,8.2,0,0,1-1.707.172,9.492,9.492,0,0,1-1.754-.156A5.3,5.3,0,0,1,99.98,40.57Zm17.352-8.719h-3.2V41h-2.531V31.852h-3.18V29.8h8.906ZM121.363,41H118.84V29.8h2.523Zm10.578-.4a7.388,7.388,0,0,1-3.2.594,5.4,5.4,0,0,1-4.055-1.516,5.54,5.54,0,0,1-1.477-4.039,5.919,5.919,0,0,1,1.66-4.359,5.807,5.807,0,0,1,4.309-1.672,8.058,8.058,0,0,1,2.766.414v2.43a4.9,4.9,0,0,0-2.562-.672,3.4,3.4,0,0,0-2.547.992,3.682,3.682,0,0,0-.969,2.688,3.611,3.611,0,0,0,.914,2.59,3.229,3.229,0,0,0,2.461.965,5.249,5.249,0,0,0,2.7-.719Zm11.8.4H141l-.8-2.492h-3.984L135.426,41h-2.734l4.078-11.2h2.992Zm-4.125-4.43-1.2-3.766a4.906,4.906,0,0,1-.187-1.008h-.062a4.273,4.273,0,0,1-.2.977l-1.219,3.8Z" transform="translate(931 1245)" fill="#fff"/>
  </g>
</svg>
