<svg xmlns="http://www.w3.org/2000/svg" xmlns:xlink="http://www.w3.org/1999/xlink" width="297.153" height="215.19" viewBox="0 0 297.153 215.19">
  <defs>
    <filter id="Trazado_114355" x="0" y="6.251" width="297.153" height="208.939" filterUnits="userSpaceOnUse">
      <feOffset dy="3" input="SourceAlpha"/>
      <feGaussianBlur stdDeviation="3" result="blur"/>
      <feFlood flood-opacity="0.161"/>
      <feComposite operator="in" in2="blur"/>
      <feComposite in="SourceGraphic"/>
    </filter>
    <clipPath id="clip-path">
      <rect id="Rectángulo_336038" data-name="Rectángulo 336038" width="113.535" height="64.337" fill="none"/>
    </clipPath>
    <clipPath id="clip-path-3">
      <rect id="Rectángulo_336035" data-name="Rectángulo 336035" width="71.367" height="42.088" fill="none"/>
    </clipPath>
    <clipPath id="clip-path-9">
      <rect id="Rectángulo_336039" data-name="Rectángulo 336039" width="185.25" height="27.137" fill="none"/>
    </clipPath>
    <clipPath id="clip-path-10">
      <rect id="Rectángulo_336034" data-name="Rectángulo 336034" width="134.687" height="149.001" fill="none"/>
    </clipPath>
    <clipPath id="clip-path-12">
      <rect id="Rectángulo_336026" data-name="Rectángulo 336026" width="26.312" height="6.876" fill="none"/>
    </clipPath>
    <clipPath id="clip-path-13">
      <rect id="Rectángulo_336027" data-name="Rectángulo 336027" width="4.67" height="9.241" fill="none"/>
    </clipPath>
    <clipPath id="clip-path-14">
      <rect id="Rectángulo_336028" data-name="Rectángulo 336028" width="11.995" height="11.836" fill="none"/>
    </clipPath>
    <clipPath id="clip-path-15">
      <rect id="Rectángulo_336029" data-name="Rectángulo 336029" width="14.257" height="3.263" fill="none"/>
    </clipPath>
    <clipPath id="clip-path-16">
      <rect id="Rectángulo_336030" data-name="Rectángulo 336030" width="9.552" height="2.786" fill="none"/>
    </clipPath>
    <clipPath id="clip-path-17">
      <rect id="Rectángulo_336031" data-name="Rectángulo 336031" width="30.141" height="12.472" fill="none"/>
    </clipPath>
    <clipPath id="clip-path-18">
      <rect id="Rectángulo_336032" data-name="Rectángulo 336032" width="15.418" height="3.888" fill="none"/>
    </clipPath>
  </defs>
  <g id="Grupo_947849" data-name="Grupo 947849" transform="translate(-651.179 -1591.544)">
    <g transform="matrix(1, 0, 0, 1, 651.18, 1591.54)" filter="url(#Trazado_114355)">
      <path id="Trazado_114355-2" data-name="Trazado 114355" d="M313.339,346.849c6.106,0,33.633.007,68.558,0,9.643,0,19.853-.005,30.329-.009,7.949,0,16.054-.007,24.186-.012l13.775-.009c61.47-.048,71.267.639,81.023.029,18.149,0,64.633-70.531,9.3-116.841-21.488-17.982,6.09-41.873-29.6-59.816-23.47-11.8-40.518,8.93-68.851,1.462-20.932-5.517-25.19-18.459-66.573-14.873-39.8,3.449-40.6,36.124-27.972,63.106,7.971,17.035-31.111,11.775-49.184,37.2C267.477,300.481,313.065,346.2,313.339,346.849Z" transform="translate(-278.62 -143.91)" fill="#ffe293"/>
    </g>
    <rect id="Rectángulo_33942" data-name="Rectángulo 33942" width="258.045" height="1.116" rx="0.558" transform="translate(664.934 1794.734)" fill="#233862"/>
    <g id="Grupo_947510" data-name="Grupo 947510">
      <g id="Grupo_947506" data-name="Grupo 947506" transform="translate(667.755 1730.397)">
        <g id="Grupo_947505" data-name="Grupo 947505" clip-path="url(#clip-path)">
          <path id="Trazado_654032" data-name="Trazado 654032" d="M.214,22.687V77.808l57.974-18.06,9.216-6L84.023,52,104.1,39.311l9.344-16.624Z" transform="translate(-0.106 -13.596)" fill="#e0e0e0"/>
          <g id="Grupo_947502" data-name="Grupo 947502">
            <g id="Grupo_947501" data-name="Grupo 947501" clip-path="url(#clip-path)">
              <path id="Trazado_654033" data-name="Trazado 654033" d="M.108,22.538s.008.344.012,1,.007,1.64.013,2.917c.006,2.557.016,6.31.027,11.109.014,9.591.033,23.361.056,40.09l-.147-.08L58.035,59.5,58,59.52l9.215-6,.029-.019.037,0L83.9,51.745l-.064.022.608-.384,19.474-12.3-.038.038L113.227,22.5l.114.14L32.109,22.59,8.582,22.563l-6.29-.012L.665,22.544c-.366,0-.557-.006-.557-.006s.18,0,.542-.006l1.612-.006,6.265-.012,23.5-.028,81.318-.047h.193l-.079.141L104.116,39.2l-.013.023-.025.016-19.472,12.3L84,51.93l-.029.018-.036,0L67.315,53.7l.065-.022-9.217,6-.016.01-.019.006L.147,77.738,0,77.784v-.125c.024-16.752.043-30.54.056-40.144.012-4.791.021-8.538.027-11.09.006-1.27.01-2.242.013-2.9s.012-.986.012-.986" transform="translate(0 -13.447)" fill="#263238"/>
              <g id="Grupo_947500" data-name="Grupo 947500" transform="translate(41.943 8.987)" opacity="0.3">
                <g id="Grupo_947499" data-name="Grupo 947499">
                  <g id="Grupo_947498" data-name="Grupo 947498" clip-path="url(#clip-path-3)">
                    <path id="Trazado_654034" data-name="Trazado 654034" d="M153.448,22.441,141.426,37.424,104.5,47.446,98.047,58.381,83.314,64.514l16.313-5.082,8.992-5.931,16.62-1.75L145.32,39.064l9.344-16.624" transform="translate(-83.309 -22.435)"/>
                    <path id="Trazado_654035" data-name="Trazado 654035" d="M83.314,64.515,83.3,64.5l14.728-6.132,6.457-10.935h0l36.919-10.021,12.019-14.98.021.011L141.429,37.424h0L104.507,47.447,98.051,58.38l0,0L83.52,64.429l16.1-5.014,8.993-5.932h0l16.616-1.75L145.3,39.05l9.343-16.621.023.008-9.349,16.628L125.239,51.752h0L108.619,53.5l-8.993,5.931Z" transform="translate(-83.303 -22.427)" fill="#fff"/>
                  </g>
                </g>
              </g>
            </g>
          </g>
          <g id="Grupo_947504" data-name="Grupo 947504">
            <g id="Grupo_947503" data-name="Grupo 947503" clip-path="url(#clip-path)">
              <path id="Trazado_654036" data-name="Trazado 654036" d="M59.544,4.149a5.053,5.053,0,0,1,.6,1.052,23.928,23.928,0,0,1,1.09,2.644,22.919,22.919,0,0,1,.758,2.717,4.4,4.4,0,0,1,.162,1.146,6.293,6.293,0,0,1-.344-1.118c-.191-.693-.469-1.647-.828-2.69s-.733-1.976-1.012-2.649a6.3,6.3,0,0,1-.42-1.1" transform="translate(-29.561 -2.486)" fill="#263238"/>
              <path id="Trazado_654037" data-name="Trazado 654037" d="M71.509,0a8.551,8.551,0,0,1-.1,1.336c-.08.823-.166,1.96-.181,3.217s.046,2.4.107,3.22a8.589,8.589,0,0,1,.073,1.337,1,1,0,0,1-.1-.352c-.049-.228-.1-.561-.158-.973a23.656,23.656,0,0,1,.074-6.463c.063-.411.126-.743.18-.97A1.024,1.024,0,0,1,71.509,0" transform="translate(-35.232 -0.001)" fill="#263238"/>
              <path id="Trazado_654038" data-name="Trazado 654038" d="M82.182,2c.033.021-.351.433-.911,1.13a19.573,19.573,0,0,0-1.9,2.846,17.717,17.717,0,0,0-1.293,3.055,12.562,12.562,0,0,1-.407,1.3.98.98,0,0,1,.024-.363A8.829,8.829,0,0,1,77.9,9a13.957,13.957,0,0,1,1.234-3.1,15.7,15.7,0,0,1,1.987-2.845c.3-.341.559-.609.751-.785A1.419,1.419,0,0,1,82.182,2" transform="translate(-38.559 -1.198)" fill="#263238"/>
            </g>
          </g>
        </g>
      </g>
      <g id="Grupo_947507" data-name="Grupo 947507" transform="translate(813 1730.397)">
        <g id="Grupo_947505-2" data-name="Grupo 947505" clip-path="url(#clip-path)">
          <path id="Trazado_654032-2" data-name="Trazado 654032" d="M113.448,22.687V77.807L55.475,59.748l-9.216-6L29.64,52,9.559,39.311.214,22.687Z" transform="translate(-0.021 -13.596)" fill="#e0e0e0"/>
          <g id="Grupo_947502-2" data-name="Grupo 947502">
            <g id="Grupo_947501-2" data-name="Grupo 947501" clip-path="url(#clip-path)">
              <path id="Trazado_654033-2" data-name="Trazado 654033" d="M113.427,22.538s-.008.344-.012,1-.007,1.64-.013,2.917c-.006,2.557-.016,6.31-.027,11.109-.014,9.591-.033,23.361-.056,40.09l.147-.08L55.5,59.5l.035.016-9.215-6-.029-.019-.037,0-16.619-1.75.064.022-.608-.384L9.618,39.081l.038.038L.308,22.5l-.114.14,81.232-.047,23.528-.028,6.29-.012,1.627-.006c.366,0,.557-.006.557-.006s-.18,0-.542-.006l-1.612-.006-6.265-.012-23.5-.028L.193,22.438H0l.079.141L9.42,39.2l.013.023.025.016,19.472,12.3.608.384.029.018.036,0L46.22,53.7l-.065-.022,9.217,6,.016.01.019.006,57.981,18.043.147.046v-.125c-.024-16.752-.043-30.54-.056-40.144-.012-4.791-.021-8.538-.027-11.09-.006-1.27-.01-2.242-.013-2.9s-.012-.986-.012-.986" transform="translate(0 -13.447)" fill="#263238"/>
              <g id="Grupo_947500-2" data-name="Grupo 947500" transform="translate(0.225 8.987)" opacity="0.3">
                <g id="Grupo_947499-2" data-name="Grupo 947499">
                  <g id="Grupo_947498-2" data-name="Grupo 947498" clip-path="url(#clip-path-3)">
                    <path id="Trazado_654034-2" data-name="Trazado 654034" d="M84.531,22.441,96.553,37.424l36.922,10.023,6.457,10.934,14.732,6.133-16.313-5.082L129.359,53.5l-16.62-1.75L92.659,39.064,83.314,22.441" transform="translate(-83.303 -22.435)"/>
                    <path id="Trazado_654035-2" data-name="Trazado 654035" d="M154.66,64.515l.011-.018-14.728-6.132L133.484,47.43h0L96.561,37.408,84.542,22.427l-.021.011L96.544,37.424h0l36.918,10.022,6.456,10.933,0,0,14.528,6.048-16.1-5.014-8.993-5.932h0l-16.616-1.75L92.67,39.05,83.327,22.429l-.023.008,9.349,16.628,20.083,12.688h0l16.616,1.75,8.993,5.931Z" transform="translate(-83.304 -22.427)" fill="#fff"/>
                  </g>
                </g>
              </g>
            </g>
          </g>
          <g id="Grupo_947504-2" data-name="Grupo 947504">
            <g id="Grupo_947503-2" data-name="Grupo 947503" clip-path="url(#clip-path)">
              <path id="Trazado_654036-2" data-name="Trazado 654036" d="M62.155,4.149a5.053,5.053,0,0,0-.6,1.052,23.928,23.928,0,0,0-1.09,2.644,22.918,22.918,0,0,0-.758,2.717,4.395,4.395,0,0,0-.162,1.146,6.293,6.293,0,0,0,.344-1.118c.191-.693.469-1.647.828-2.69s.733-1.976,1.012-2.649a6.3,6.3,0,0,0,.42-1.1" transform="translate(21.397 -2.486)" fill="#263238"/>
              <path id="Trazado_654037-2" data-name="Trazado 654037" d="M70.973,0a8.551,8.551,0,0,0,.1,1.336c.08.823.166,1.96.181,3.217s-.046,2.4-.107,3.22a8.589,8.589,0,0,0-.073,1.337,1,1,0,0,0,.1-.352c.049-.228.1-.561.158-.973a23.655,23.655,0,0,0-.074-6.463c-.063-.411-.126-.743-.18-.97A1.024,1.024,0,0,0,70.973,0" transform="translate(6.285 -0.001)" fill="#263238"/>
              <path id="Trazado_654038-2" data-name="Trazado 654038" d="M77.663,2c-.033.021.351.433.911,1.13a19.573,19.573,0,0,1,1.9,2.846,17.717,17.717,0,0,1,1.293,3.055,12.562,12.562,0,0,0,.407,1.3.98.98,0,0,0-.024-.363,8.829,8.829,0,0,0-.2-.973,13.957,13.957,0,0,0-1.234-3.1,15.7,15.7,0,0,0-1.987-2.845c-.3-.341-.559-.609-.751-.785A1.419,1.419,0,0,0,77.663,2" transform="translate(-7.752 -1.198)" fill="#263238"/>
            </g>
          </g>
        </g>
      </g>
      <g id="Grupo_947509" data-name="Grupo 947509" transform="translate(712 1711.636)">
        <g id="Grupo_947508" data-name="Grupo 947508" clip-path="url(#clip-path-9)">
          <path id="Trazado_654039" data-name="Trazado 654039" d="M140.831,2.124s-.134-.016-.393-.059l-1.148-.193-4.409-.762L131.667.754l-1.838-.2-.974-.109L127.84.39,123.426.168l-.59-.03-.6,0-1.222.012-2.542.024a105.766,105.766,0,0,0-24.1,3.391c-.556.143-1.122.262-1.678.428l-1.675.516-3.408,1.05c-.579.161-1.135.4-1.707.606l-1.715.638-1.732.644-.872.324c-.29.112-.571.247-.858.37l-3.46,1.52-.874.384c-.294.123-.583.258-.866.41l-1.716.877c-1.145.592-2.312,1.165-3.463,1.785l-3.4,2A103.581,103.581,0,0,0,50.967,27.06l-.084.077-.069-.091A44.28,44.28,0,0,0,42.5,18.681a47.66,47.66,0,0,0-9.263-5.575A49.306,49.306,0,0,0,15.913,8.744a45.593,45.593,0,0,0-11.773.779c-.68.121-1.273.274-1.788.394s-.947.234-1.294.333l-.789.217c-.178.048-.27.068-.27.068s.088-.032.264-.085l.785-.234c.345-.105.774-.23,1.291-.351s1.107-.284,1.787-.411a44.982,44.982,0,0,1,11.795-.841,49.244,49.244,0,0,1,17.39,4.331,47.74,47.74,0,0,1,9.307,5.583,44.384,44.384,0,0,1,8.361,8.4l-.153-.014a103.383,103.383,0,0,1,16.01-11.969l3.411-2c1.154-.621,2.323-1.195,3.471-1.788l1.72-.878c.283-.152.573-.287.868-.411l.876-.385L80.65,7.952c.288-.123.569-.257.86-.37l.874-.325,1.736-.644,1.719-.638c.573-.2,1.13-.444,1.711-.6l3.415-1.049,1.679-.515c.558-.165,1.125-.284,1.682-.427A105.248,105.248,0,0,1,118.47.027l2.545-.017L122.239,0l.6,0,.591.032,4.419.238,1.016.055.975.113,1.838.214,3.214.376,4.406.8,1.145.214c.257.05.388.08.388.08" fill="#263238"/>
          <path id="Trazado_654040" data-name="Trazado 654040" d="M115.3,32.429a31.465,31.465,0,0,1-2.361-2.809,31.415,31.415,0,0,1-2.192-2.943,31.532,31.532,0,0,1,2.361,2.81,31.408,31.408,0,0,1,2.192,2.943" transform="translate(-65.05 -15.67)" fill="#263238"/>
          <path id="Trazado_654041" data-name="Trazado 654041" d="M420.785,30.873a.9.9,0,0,1-.191-.116l-.523-.367c-.448-.326-1.108-.781-1.935-1.324s-1.833-1.158-2.972-1.8-2.426-1.287-3.8-1.907-2.723-1.13-3.957-1.562-2.367-.764-3.324-1.015-1.735-.444-2.277-.56l-.621-.145a.861.861,0,0,1-.215-.065.906.906,0,0,1,.222.022l.63.105c.547.092,1.334.258,2.3.5s2.1.562,3.349.975,2.595.938,3.981,1.553,2.667,1.286,3.811,1.93,2.142,1.282,2.959,1.846,1.468,1.036,1.9,1.383l.5.4a.877.877,0,0,1,.165.151" transform="translate(-235.535 -12.93)" fill="#263238"/>
        </g>
      </g>
      <g id="Grupo_947497" data-name="Grupo 947497" transform="translate(732.926 1591.544)">
        <g id="Grupo_947496" data-name="Grupo 947496" clip-path="url(#clip-path-10)">
          <g id="Grupo_947495" data-name="Grupo 947495">
            <g id="Grupo_947494" data-name="Grupo 947494" clip-path="url(#clip-path-10)">
              <path id="Trazado_653955" data-name="Trazado 653955" d="M6.05,96.959c-.132.088-4.075,2.979-4.382,4.206s-.131,2.629.22,2.848,1.095.833,1.095.833l.395.745H4.955s-.745,1.621.351,1.927a5.649,5.649,0,0,0,2.41,0s2.147.981,2.629.556,1.4-1.257,1.4-1.257l.92-2.059-.745-2.8,1.728-2.67L8.893,95.4Z" transform="translate(-0.66 -41.702)" fill="#ae7461"/>
              <path id="Trazado_653956" data-name="Trazado 653956" d="M16.242,112.417a6.127,6.127,0,0,1-1.579,1.455,6.109,6.109,0,0,1-1.86,1.075,11.314,11.314,0,0,1,1.686-1.312,11.331,11.331,0,0,1,1.753-1.219" transform="translate(-5.595 -49.136)" fill="#6f4439"/>
              <path id="Trazado_653957" data-name="Trazado 653957" d="M204.094,51.722l5.588-1.758,2.927,4.89-8.047,4.293Z" transform="translate(-89.211 -21.839)" fill="#ae7461"/>
              <path id="Trazado_653958" data-name="Trazado 653958" d="M215.359,41.77a24.377,24.377,0,0,1,2.8-3.322c.571-.28,3.95.327,4.2.8a2.5,2.5,0,0,1,0,1.4s.813-.093,1.048.468a2.6,2.6,0,0,1,0,1.4,1.123,1.123,0,0,1,.468.8,2.273,2.273,0,0,1-.187.866,1.387,1.387,0,0,1,.374,1.193c-.187.608-3.556,3.135-5.007,3.7s-2.527,1.216-3.463.655-1.638-4.633-1.638-4.633Z" transform="translate(-93.522 -16.775)" fill="#ae7461"/>
              <path id="Trazado_653959" data-name="Trazado 653959" d="M227.958,47.577a17.625,17.625,0,0,1-3.028,1.184,1.194,1.194,0,0,1-1.318-.257.779.779,0,0,1-.141-.623,1.009,1.009,0,0,1,.232-.48,1.413,1.413,0,0,1,.614-.391c.16-.052.253-.061.26-.043s-.073.065-.212.147a1.642,1.642,0,0,0-.5.417.677.677,0,0,0-.041.8.954.954,0,0,0,1.025.144,18.518,18.518,0,0,1,3.111-.9" transform="translate(-97.675 -20.526)" fill="#6f4439"/>
              <path id="Trazado_653960" data-name="Trazado 653960" d="M222.817,41.8c-.078-.014-.09-.3.052-.608s.366-.487.427-.437-.037.285-.161.559-.238.5-.319.486" transform="translate(-97.37 -17.811)" fill="#6f4439"/>
              <path id="Trazado_653961" data-name="Trazado 653961" d="M213.955,46.856a30.241,30.241,0,0,1,.655-3.744c.234-.421,1.123-.7,1.123-.7l6.177.328s1.4,1.685-.749,1.9a29.526,29.526,0,0,0-3,.4s.664.655.29,2.48-3.51,1.966-3.51,1.966Z" transform="translate(-93.522 -18.538)" fill="#ae7461"/>
              <path id="Trazado_653962" data-name="Trazado 653962" d="M218.441,47.41a6.149,6.149,0,0,1,.044-.682,4.226,4.226,0,0,0-.035-.794,1.913,1.913,0,0,0-.368-.934l-.112-.133.16-.034c.734-.156,1.6-.274,2.581-.386a2.328,2.328,0,0,0,1.363-.391c.3-.329.039-.924-.281-1.327l.1.052-1.475-.077-4.7-.267.046-.006a2.749,2.749,0,0,0-.928.48.661.661,0,0,0-.213.386c-.043.156-.078.312-.111.465-.127.61-.218,1.151-.3,1.6-.072.407-.131.749-.181,1.033a1.354,1.354,0,0,1-.088.364,1.312,1.312,0,0,1,.009-.374c.02-.242.055-.6.11-1.045s.127-.993.238-1.615c.029-.155.06-.316.1-.482a.9.9,0,0,1,.268-.5,2.923,2.923,0,0,1,1.012-.552l.02-.007h.026l4.7.231,1.475.08.067,0,.037.048a2.387,2.387,0,0,1,.426.8.926.926,0,0,1-.164.906,2.468,2.468,0,0,1-1.539.459c-.973.1-1.849.194-2.566.322l.048-.167a1.988,1.988,0,0,1,.383,1.055,3.773,3.773,0,0,1-.011.822,3.859,3.859,0,0,1-.093.5c-.029.113-.049.171-.058.169" transform="translate(-93.515 -18.437)" fill="#6f4439"/>
              <path id="Trazado_653963" data-name="Trazado 653963" d="M228.461,50.759a7.4,7.4,0,0,1-2.538,1.274,1.474,1.474,0,0,1-1.175-.039.87.87,0,0,1-.379-.4.754.754,0,0,1-.041-.478,1.219,1.219,0,0,1,.322-.554c.1-.1.175-.147.189-.134.049.029-.218.273-.307.725a.573.573,0,0,0,.344.6,1.265,1.265,0,0,0,.962,0c1.458-.484,2.583-1.071,2.623-.994" transform="translate(-98.047 -22.042)" fill="#6f4439"/>
              <path id="Trazado_653964" data-name="Trazado 653964" d="M229.067,45.393c.011.082-.347.2-.786.316s-.806.2-.838.127.3-.285.76-.41.853-.112.863-.033" transform="translate(-99.417 -19.815)" fill="#6f4439"/>
              <path id="Trazado_653965" data-name="Trazado 653965" d="M84.348,45.922l-9.924,1.325L66.7,66.474S58.382,82.329,56.237,87.992a12.549,12.549,0,0,0-.826,5.553l39.3-12.851,7.562-14.74,4.4-12.91-5.423-1.506-1.458-2.2L87.808,43.579Z" transform="translate(-24.201 -19.049)" fill="#efefef"/>
              <path id="Trazado_653966" data-name="Trazado 653966" d="M158.4,56.5l-19.984-.239-1.534,13.477s20.987-2.312,24.37-3.472S181.2,58.23,181.2,58.23l-2.833-7.183Z" transform="translate(-59.831 -22.313)" fill="#efefef"/>
              <path id="Trazado_653967" data-name="Trazado 653967" d="M205.327,59.815a11.711,11.711,0,0,1-1.18-2.725,11.69,11.69,0,0,1-.739-2.876A21.358,21.358,0,0,1,204.425,57a21.283,21.283,0,0,1,.9,2.82" transform="translate(-88.906 -23.697)" fill="#263238"/>
              <path id="Trazado_653968" data-name="Trazado 653968" d="M206.786,53.618c-.033-.021.189-.214.548-.058a.705.705,0,0,1,.406.509.721.721,0,0,1-1.2.6.706.706,0,0,1-.165-.63c.09-.382.377-.444.375-.4.025.037-.156.15-.169.434a.527.527,0,0,0,.15.408.469.469,0,0,0,.739-.37.526.526,0,0,0-.238-.364c-.235-.159-.434-.082-.449-.124" transform="translate(-90.203 -23.385)" fill="#263238"/>
              <path id="Trazado_653969" data-name="Trazado 653969" d="M106.343,96.193a1.147,1.147,0,0,1,.157-.248l.493-.674c.221-.288.484-.645.771-1.072s.636-.9.977-1.449c.714-1.08,1.5-2.411,2.323-3.912s1.657-3.192,2.48-4.991c1.641-3.6,2.949-6.941,3.913-9.352l1.152-2.851.328-.769a1.1,1.1,0,0,1,.133-.261,1.142,1.142,0,0,1-.078.283l-.276.789-1.064,2.885c-.915,2.43-2.194,5.787-3.84,9.4-.825,1.8-1.682,3.49-2.509,5s-1.646,2.826-2.386,3.9c-.354.546-.712,1.013-1.017,1.43s-.578.768-.813,1.046l-.538.642a1.115,1.115,0,0,1-.2.211" transform="translate(-46.483 -30.866)" fill="#263238"/>
              <path id="Trazado_653970" data-name="Trazado 653970" d="M120.176,57.173a2.216,2.216,0,0,1-.27-.453l-.672-1.3.138.027c-.867.8-2.092,1.912-3.521,3.193l-.1.087-.093-.1c-.674-.717-1.353-1.546-2.029-2.428-1.655-2.182-3.032-4.236-4.076-5.686L108.315,48.8a3.991,3.991,0,0,1-.443-.64,3.945,3.945,0,0,1,.533.569c.322.384.78.947,1.319,1.663,1.09,1.422,2.495,3.46,4.142,5.631.673.878,1.342,1.7,2,2.418l-.19-.012c1.437-1.263,2.681-2.343,3.579-3.108l.092-.079.047.105.6,1.337a2.216,2.216,0,0,1,.185.493" transform="translate(-47.151 -21.05)" fill="#263238"/>
              <path id="Trazado_653971" data-name="Trazado 653971" d="M136.295,68.106a.882.882,0,0,1-.074.253l-.266.7c-.236.609-.594,1.483-1.049,2.558-.909,2.151-2.223,5.1-3.756,8.313s-2.988,6.1-4.067,8.165c-.539,1.035-.983,1.869-1.3,2.441l-.369.656a.908.908,0,0,1-.146.22.9.9,0,0,1,.093-.247l.32-.681,1.215-2.482c1.031-2.093,2.455-4.985,3.988-8.2s2.874-6.142,3.83-8.27l1.134-2.52.317-.682a.888.888,0,0,1,.129-.23" transform="translate(-54.756 -29.77)" fill="#263238"/>
              <g id="Grupo_947475" data-name="Grupo 947475" transform="translate(44.293 60.464)" opacity="0.3">
                <g id="Grupo_947474" data-name="Grupo 947474">
                  <g id="Grupo_947473" data-name="Grupo 947473" clip-path="url(#clip-path-12)">
                    <path id="Trazado_653972" data-name="Trazado 653972" d="M104.866,107.648a1.525,1.525,0,0,0-1.226-.193c-9.945,1.305-15.52,3.421-24.951,6.837l25.669-5.484c.551-.211.827-.876.508-1.161" transform="translate(-78.689 -107.417)"/>
                  </g>
                </g>
              </g>
              <path id="Trazado_653973" data-name="Trazado 653973" d="M133.95,59.43a3.424,3.424,0,0,1-.16,1.2,8.662,8.662,0,0,1-1.224,2.73l-.118.174-.121-.171c-.107-.152-.219-.313-.327-.481a11.538,11.538,0,0,1-1.25-2.6l.214.014a10.229,10.229,0,0,1-.9,1.654,10.325,10.325,0,0,1,.694-1.76l.111-.254.1.267a13.834,13.834,0,0,0,1.276,2.517c.1.164.214.321.317.471l-.239,0a12.935,12.935,0,0,0,1.625-3.767" transform="translate(-56.85 -25.977)" fill="#263238"/>
              <g id="Grupo_947478" data-name="Grupo 947478" transform="translate(77.409 38.124)" opacity="0.3">
                <g id="Grupo_947477" data-name="Grupo 947477">
                  <g id="Grupo_947476" data-name="Grupo 947476" clip-path="url(#clip-path-13)">
                    <path id="Trazado_653974" data-name="Trazado 653974" d="M137.673,76.97a8.274,8.274,0,0,0,4.307-9.24,74.681,74.681,0,0,0-4.459,9.051" transform="translate(-137.521 -67.729)"/>
                  </g>
                </g>
              </g>
              <g id="Grupo_947481" data-name="Grupo 947481" transform="translate(61.03 27.543)" opacity="0.3">
                <g id="Grupo_947480" data-name="Grupo 947480">
                  <g id="Grupo_947479" data-name="Grupo 947479" clip-path="url(#clip-path-14)">
                    <path id="Trazado_653975" data-name="Trazado 653975" d="M108.548,48.946a49.935,49.935,0,0,0,7.225,11.822,21.766,21.766,0,0,0,3.375-3.551l1.268,1.057q-.327-1.03-.655-2.061c-.039-.124-.1-.267-.228-.29a.362.362,0,0,0-.267.109l-3.366,2.63a71.891,71.891,0,0,1-7.479-9.731" transform="translate(-108.422 -48.932)"/>
                  </g>
                </g>
              </g>
              <path id="Trazado_653976" data-name="Trazado 653976" d="M85.342,103.009a4.954,4.954,0,0,1-1.281-.27,23.85,23.85,0,0,1-5.772-2.526,4.967,4.967,0,0,1-1.067-.758c.047-.076,1.743.968,3.987,1.944s4.156,1.524,4.133,1.61" transform="translate(-33.754 -43.471)" fill="#263238"/>
              <path id="Trazado_653977" data-name="Trazado 653977" d="M90.075,99.634a1.924,1.924,0,0,1-.54,0c-.346-.02-.845-.066-1.461-.136-1.23-.139-2.925-.393-4.776-.782s-3.5-.843-4.687-1.213c-.591-.185-1.066-.344-1.39-.466a1.916,1.916,0,0,1-.5-.216,16.556,16.556,0,0,1,1.943.482c1.193.318,2.847.736,4.689,1.125s3.524.673,4.743.864a16.644,16.644,0,0,1,1.973.344" transform="translate(-33.538 -42.318)" fill="#263238"/>
              <g id="Grupo_947484" data-name="Grupo 947484" transform="translate(43.653 54.648)" opacity="0.3">
                <g id="Grupo_947483" data-name="Grupo 947483">
                  <g id="Grupo_947482" data-name="Grupo 947482" clip-path="url(#clip-path-15)">
                    <path id="Trazado_653978" data-name="Trazado 653978" d="M77.552,97.142A18.634,18.634,0,0,0,91.809,99.95a70.051,70.051,0,0,1-14.257-2.865" transform="translate(-77.552 -97.084)"/>
                  </g>
                </g>
              </g>
              <path id="Trazado_653979" data-name="Trazado 653979" d="M56.543,50.217c-2.68-.827-11.175,2.862-11.175,2.862S30.943,58.932,27.94,61.645s-17.55,14.4-17.55,14.4L17.3,81.6,34.3,69.919l20.834-4.844s2.333-.8,5.026-5.067-.942-8.963-3.622-9.791" transform="translate(-4.542 -21.898)" fill="#efefef"/>
              <path id="Trazado_653980" data-name="Trazado 653980" d="M93.908,62.282c-.046-.03.506-.76,1.1-2.086a10.175,10.175,0,0,0,.738-2.423,7.7,7.7,0,0,0-.1-3.069,6.115,6.115,0,0,0-1.4-2.7,5.5,5.5,0,0,0-2.062-1.4,6.013,6.013,0,0,0-2.3-.333c0-.01.053-.026.159-.05a3.043,3.043,0,0,1,.473-.062,4.629,4.629,0,0,1,1.736.249,5.511,5.511,0,0,1,2.19,1.41,6.224,6.224,0,0,1,1.491,2.817,7.71,7.71,0,0,1,.078,3.184,9.662,9.662,0,0,1-.816,2.465,10.868,10.868,0,0,1-.887,1.5,2.307,2.307,0,0,1-.405.5" transform="translate(-39.291 -21.921)" fill="#263238"/>
              <g id="Grupo_947487" data-name="Grupo 947487" transform="translate(43.388 42.56)" opacity="0.3">
                <g id="Grupo_947486" data-name="Grupo 947486">
                  <g id="Grupo_947485" data-name="Grupo 947485" clip-path="url(#clip-path-16)">
                    <path id="Trazado_653981" data-name="Trazado 653981" d="M77.08,78.163a10.858,10.858,0,0,0,5.49-.29,22.276,22.276,0,0,0,4.062-2.265Z" transform="translate(-77.08 -75.609)"/>
                  </g>
                </g>
              </g>
              <path id="Trazado_653982" data-name="Trazado 653982" d="M22.69,100.089c-.036-.013.126-.248.5-.187a.687.687,0,0,1,.505.382.7.7,0,0,1-.981.862.688.688,0,0,1-.315-.551c-.012-.381.241-.512.25-.475.033.03-.1.182-.044.449a.512.512,0,0,0,.243.341.453.453,0,0,0,.6-.525.509.509,0,0,0-.307-.284c-.257-.094-.426.024-.451-.014" transform="translate(-9.792 -43.664)" fill="#263238"/>
              <path id="Trazado_653983" data-name="Trazado 653983" d="M25.328,96.778a25.355,25.355,0,0,1-3-2.422,25.391,25.391,0,0,1-2.8-2.643,25.485,25.485,0,0,1,3,2.423,25.444,25.444,0,0,1,2.8,2.643" transform="translate(-8.535 -40.087)" fill="#263238"/>
              <path id="Trazado_653984" data-name="Trazado 653984" d="M10.391,87.389a.589.589,0,0,1,.132.086l.369.276,1.4,1.086,5.08,4.028-.13-.005,14.2-9.7,2.924-1.987.025-.017.03-.006c6.256-1.171,11.7-2.63,15.621-3.6,1.959-.491,3.534-.877,4.622-1.131l1.251-.284a2.8,2.8,0,0,1,.439-.08,2.761,2.761,0,0,1-.426.133l-1.239.333-4.6,1.217c-3.907,1.018-9.346,2.511-15.616,3.7l.055-.023L31.6,83.4,17.359,93.041l-.068.046-.062-.051-5.019-4.1L10.851,87.8l-.348-.3c-.078-.069-.115-.107-.111-.111" transform="translate(-4.542 -33.244)" fill="#263238"/>
              <g id="Grupo_947490" data-name="Grupo 947490" transform="translate(42.699 26.975)" opacity="0.3">
                <g id="Grupo_947489" data-name="Grupo 947489">
                  <g id="Grupo_947488" data-name="Grupo 947488" clip-path="url(#clip-path-17)">
                    <path id="Trazado_653985" data-name="Trazado 653985" d="M75.857,51.368a11.023,11.023,0,0,0,6.059.879c3.383-.492,5.972-2.583,8.061-1.538s6.64,7.2,8.793,8.92,7.228,0,7.228,0h-3.073l-4.351-3.3s-3.678-7.972-6.446-8.27a88.056,88.056,0,0,0-9.106,0Z" transform="translate(-75.857 -47.922)"/>
                  </g>
                </g>
              </g>
              <path id="Trazado_653986" data-name="Trazado 653986" d="M94.867,53.778c-.271.75-1.778.974-2.777.56A6.511,6.511,0,0,1,89.928,52.3c-2.243-3.117-3.89-6.628-6.879-9.039-2.079-1.677-5.129-2.221-7.8-2.344s-5.333.312-8,.326c-6.387.033-7.046-1.095-11.947-3.208l-3.6,2.288,2.065,4.035s11.312,3.532,15.992,2.6c4.769-.95,7.969-2.168,10.348-1.29,5.082,1.877,7.434,8.428,10.389,9.67a7.167,7.167,0,0,0,5.318.061Z" transform="translate(-22.598 -16.627)" fill="#455a64"/>
              <path id="Trazado_653987" data-name="Trazado 653987" d="M127.059,65.473l.236-2.25.857-.553,1.128.1.61,1.027s-.085,2.474-2.035,2.655Z" transform="translate(-55.539 -27.394)" fill="#455a64"/>
              <path id="Trazado_653988" data-name="Trazado 653988" d="M128.5,68.141c-.058.056-.386-.187-.732-.544a2.4,2.4,0,0,0-.433-.391c-.118-.075-.216-.092-.221-.136s.106-.1.3-.057a1.248,1.248,0,0,1,.569.379c.346.357.579.692.521.749" transform="translate(-55.563 -29.285)" fill="#263238"/>
              <path id="Trazado_653989" data-name="Trazado 653989" d="M129.87,65.668c-.073.045-.457-.492-1.071-1s-1.207-.794-1.175-.875a3.048,3.048,0,0,1,2.246,1.873" transform="translate(-55.785 -27.878)" fill="#263238"/>
              <path id="Trazado_653990" data-name="Trazado 653990" d="M145.565,8.959a2.39,2.39,0,0,0,1.1-2.488,2.391,2.391,0,0,0-2.013-1.832,2.837,2.837,0,0,0-.778-2.633,2.836,2.836,0,0,0-2.659-.684,3.129,3.129,0,0,0-3.693-1.1,2.289,2.289,0,0,0-2.6.485,2.288,2.288,0,0,0-.3,2.63l8.868,9.56a2.316,2.316,0,0,0,2.815-1.032,2.316,2.316,0,0,0-.744-2.9" transform="translate(-58.722 0)" fill="#263238"/>
              <path id="Trazado_653991" data-name="Trazado 653991" d="M128.424,3.919l-.473-.132c-5.185-1.12-9.033,2.659-10.009,7.874l-3.1,15.071,7.049,8,1.507,2.068,2.686-5.81s5.117.6,6.541-4.288c.687-2.361,1.707-7.336,2.577-11.851a9.486,9.486,0,0,0-6.775-10.936" transform="translate(-50.197 -1.569)" fill="#ae7461"/>
              <path id="Trazado_653992" data-name="Trazado 653992" d="M130.3,49.433a12.347,12.347,0,0,1-5.9-3.667s.151,4.244,5.168,5.163Z" transform="translate(-54.375 -20.005)" fill="#6f4439"/>
              <path id="Trazado_653993" data-name="Trazado 653993" d="M145.048,30.075a.727.727,0,0,1-.872.519.7.7,0,0,1-.546-.832.727.727,0,0,1,.871-.52.7.7,0,0,1,.547.833" transform="translate(-62.774 -12.774)" fill="#263238"/>
              <path id="Trazado_653994" data-name="Trazado 653994" d="M145.809,26.419c-.112.068-.534-.473-1.288-.681s-1.412.016-1.467-.1c-.029-.052.105-.193.4-.3a2,2,0,0,1,1.206-.034,1.919,1.919,0,0,1,.993.656c.183.242.215.429.161.458" transform="translate(-62.529 -11.028)" fill="#263238"/>
              <path id="Trazado_653995" data-name="Trazado 653995" d="M133.172,26.862a.727.727,0,0,1-.871.519.7.7,0,0,1-.547-.833.727.727,0,0,1,.871-.52.7.7,0,0,1,.547.833" transform="translate(-57.583 -11.37)" fill="#263238"/>
              <path id="Trazado_653996" data-name="Trazado 653996" d="M132.578,23.013c-.112.067-.535-.473-1.288-.68s-1.411.016-1.467-.1c-.029-.052.1-.193.4-.3a1.99,1.99,0,0,1,1.206-.034,1.919,1.919,0,0,1,.994.656c.182.242.215.429.161.458" transform="translate(-56.745 -9.539)" fill="#263238"/>
              <path id="Trazado_653997" data-name="Trazado 653997" d="M136.821,30.267a5.152,5.152,0,0,1,1.286.119c.2.033.391.046.459-.077a1.014,1.014,0,0,0,.03-.606q-.078-.774-.162-1.624a26.174,26.174,0,0,1-.213-4.188,26.187,26.187,0,0,1,.55,4.161q.071.851.136,1.626a1.158,1.158,0,0,1-.11.783.5.5,0,0,1-.395.194,1.353,1.353,0,0,1-.339-.046,5.115,5.115,0,0,1-1.241-.343" transform="translate(-59.806 -10.443)" fill="#263238"/>
              <path id="Trazado_653998" data-name="Trazado 653998" d="M133.778,17.942c-.131.184-.857-.122-1.771-.261-.911-.157-1.7-.1-1.762-.313-.028-.1.15-.261.494-.379a3.113,3.113,0,0,1,2.692.437c.288.221.407.427.348.516" transform="translate(-56.93 -7.368)" fill="#263238"/>
              <path id="Trazado_653999" data-name="Trazado 653999" d="M146.569,22.386c-.18.135-.65-.187-1.272-.369-.615-.2-1.185-.205-1.257-.418-.029-.1.1-.25.378-.348a1.916,1.916,0,0,1,2.038.634c.172.238.2.434.114.5" transform="translate(-62.959 -9.253)" fill="#263238"/>
              <path id="Trazado_654000" data-name="Trazado 654000" d="M116.466,25.458a1.382,1.382,0,0,0-1.081-1.682c-.939-.167-2.1.07-2.566,1.977-.824,3.382,2.742,3.512,2.772,3.417.02-.065.543-2.293.875-3.711" transform="translate(-49.26 -10.373)" fill="#ae7461"/>
              <path id="Trazado_654001" data-name="Trazado 654001" d="M116.1,28.6c-.012-.014-.069.027-.18.048a.606.606,0,0,1-.443-.1,1.5,1.5,0,0,1-.356-1.473,2.009,2.009,0,0,1,.37-.8.7.7,0,0,1,.554-.344.309.309,0,0,1,.308.246c.022.106-.016.168,0,.178s.087-.039.093-.186a.389.389,0,0,0-.082-.244.459.459,0,0,0-.305-.165.852.852,0,0,0-.743.374,2.06,2.06,0,0,0-.435.893,1.577,1.577,0,0,0,.5,1.671.651.651,0,0,0,.561.042c.126-.058.162-.129.151-.138" transform="translate(-50.198 -11.257)" fill="#6f4439"/>
              <path id="Trazado_654002" data-name="Trazado 654002" d="M135.445,5.7a1.253,1.253,0,0,0-.051-.274,2.244,2.244,0,0,0-1.416-1.418,8.6,8.6,0,0,0-1.025-.811A3.138,3.138,0,0,0,131.126,1.1a3.137,3.137,0,0,0-3.075.5c-.143-.019-.287-.033-.431-.047a3.095,3.095,0,0,0-4.889.024,2.3,2.3,0,0,0-2.476.139,2.3,2.3,0,0,0-.841,2.332,2.135,2.135,0,0,0-1.586,1.323,1.242,1.242,0,0,0,.882,1.555,33.146,33.146,0,0,0-1.3,5.206c-.347,1.975.816,2.688.74,3.158-.667,4.1,1.422,2.379,4.175-5.413a.937.937,0,0,0,.71-.494c.1-.222.123-.509.326-.647.243-.164.562,0,.835.1a2.222,2.222,0,0,0,2.648-.917.932.932,0,0,0,1.174.448,4.994,4.994,0,0,0,1.184-.723,1.432,1.432,0,0,1,1.311-.256c.238.1.429.316.684.363.451.083.809-.373,1-.791a2.01,2.01,0,0,1,.668-.961,2.524,2.524,0,0,1,.868,0c.167.066.332.147.493.218a1.676,1.676,0,0,0,.222.072,2.542,2.542,0,0,1,.281.215c1.282,1.128,1.722,4.559,1.722,4.559a6.088,6.088,0,0,0-1-5.367" transform="translate(-51.292 -0.164)" fill="#263238"/>
              <path id="Trazado_654003" data-name="Trazado 654003" d="M133.51,8.5s0,.021-.018.061-.035.1-.071.173a2.186,2.186,0,0,1-.423.579,2.49,2.49,0,0,1-.964.586,2.314,2.314,0,0,1-1.482.01l.078-.059a1.26,1.26,0,0,1-.325.907,3.607,3.607,0,0,1-.8.665,2.592,2.592,0,0,1-.482.28,1.217,1.217,0,0,1-.587.05,1.27,1.27,0,0,1-.972-.687h.135a2.608,2.608,0,0,1-1.55,1.444,1.9,1.9,0,0,1-1.2.055,3.431,3.431,0,0,1-1.019-.54l.1-.015a2.741,2.741,0,0,1-1.081.815,1.46,1.46,0,0,1-1.257-.006,1.917,1.917,0,0,1-1.021-1.841l.066.056a1.792,1.792,0,0,1-1.2-.151,1.946,1.946,0,0,1-.7-.581,1.68,1.68,0,0,1-.261-.514.8.8,0,0,1-.037-.2,2.072,2.072,0,0,0,.344.675,1.933,1.933,0,0,0,.694.541,1.718,1.718,0,0,0,1.136.124l.073-.019-.007.075a1.809,1.809,0,0,0,.974,1.713,1.326,1.326,0,0,0,1.144-.006,2.62,2.62,0,0,0,1.019-.775l.043-.055.057.04a3.323,3.323,0,0,0,.975.515,1.754,1.754,0,0,0,1.11-.053,2.466,2.466,0,0,0,1.464-1.359l.065-.153.07.151a1.129,1.129,0,0,0,.858.606,1.079,1.079,0,0,0,.518-.04,2.537,2.537,0,0,0,.454-.262,3.5,3.5,0,0,0,.78-.633,1.142,1.142,0,0,0,.306-.818l-.006-.087.083.029a2.237,2.237,0,0,0,1.415.011,2.476,2.476,0,0,0,.947-.545,2.7,2.7,0,0,0,.557-.766" transform="translate(-51.768 -3.716)" fill="#455a64"/>
              <path id="Trazado_654004" data-name="Trazado 654004" d="M133.2,36.323a.517.517,0,0,0-.278-.1c-.167.007-.281.167-.355.317a1.977,1.977,0,0,0-.088,1.62.972.972,0,0,0,.421.455,1.448,1.448,0,0,0,1.872-.5l.465-.668c-.439-.262-1.6-.867-2.038-1.129" transform="translate(-57.849 -15.834)" fill="#6f4439"/>
              <path id="Trazado_654005" data-name="Trazado 654005" d="M135.149,37.27a1.629,1.629,0,0,1-.771-.283,9.058,9.058,0,0,0-1.757-.845l.159-.071c-.059.106-.119.218-.174.332a1.927,1.927,0,0,0-.243,1.113,1,1,0,0,0,.469.74c.471.269.856.3.84.354a1.461,1.461,0,0,1-.943-.173,1.188,1.188,0,0,1-.633-.878,2.085,2.085,0,0,1,.246-1.284c.059-.122.123-.238.184-.346l.057-.1.1.03a6.567,6.567,0,0,1,1.792.961,5.242,5.242,0,0,1,.672.451" transform="translate(-57.73 -15.661)" fill="#263238"/>
              <path id="Trazado_654006" data-name="Trazado 654006" d="M193.689,169.776l9.406,11.231,16.207-15.1c-1.536-1.46-12.816,3.241-12.816,3.241l-5.2-6Z" transform="translate(-84.663 -71.317)" fill="#263238"/>
              <path id="Trazado_654007" data-name="Trazado 654007" d="M206.263,180.552a.9.9,0,0,0,.246,1.182.868.868,0,0,0,1.173-.234.954.954,0,0,0-.267-1.25.9.9,0,0,0-1.193.378" transform="translate(-90.106 -78.75)" fill="#e0e0e0"/>
              <path id="Trazado_654008" data-name="Trazado 654008" d="M209.4,182.927l-1.288-1.354,16.139-13.921s1.017-.352,1.4.235Z" transform="translate(-90.967 -73.237)" fill="#e0e0e0"/>
              <path id="Trazado_654009" data-name="Trazado 654009" d="M216.078,173.219c.071.082-.291.486-.444,1.1-.169.613-.05,1.143-.152,1.179-.087.053-.41-.53-.212-1.274s.757-1.1.808-1.008" transform="translate(-94.069 -75.71)" fill="#e0e0e0"/>
              <path id="Trazado_654010" data-name="Trazado 654010" d="M220.577,171.66c.09.06-.128.514-.085,1.1.026.587.295,1.012.213,1.081-.063.082-.549-.331-.589-1.059s.388-1.194.46-1.121" transform="translate(-96.213 -75.031)" fill="#e0e0e0"/>
              <path id="Trazado_654011" data-name="Trazado 654011" d="M225.381,172.178c-.056.084-.535-.209-.735-.832s.009-1.14.1-1.1.082.48.254.988.449.867.377.948" transform="translate(-98.157 -74.413)" fill="#e0e0e0"/>
              <path id="Trazado_654012" data-name="Trazado 654012" d="M212.073,170.045c.034.1-.431.332-.85.779s-.636.913-.741.884-.032-.624.469-1.144,1.1-.618,1.122-.519" transform="translate(-91.987 -74.313)" fill="#e0e0e0"/>
              <path id="Trazado_654013" data-name="Trazado 654013" d="M206.783,167.195c.032.032-.236.372-.816.752a4.975,4.975,0,0,1-1.092.53,5.177,5.177,0,0,1-.7.187,1.354,1.354,0,0,1-.423.038.472.472,0,0,1-.428-.387.593.593,0,0,1,.178-.5,1.459,1.459,0,0,1,.343-.241,3.981,3.981,0,0,1,.666-.3,3.9,3.9,0,0,1,1.206-.205,1.847,1.847,0,0,1,1.091.214c-.011.059-.425-.018-1.076.051a4.442,4.442,0,0,0-1.1.267,4.063,4.063,0,0,0-.6.29c-.214.114-.361.249-.334.366.012.044.02.058.1.074a1.105,1.105,0,0,0,.31-.028,5.9,5.9,0,0,0,.657-.154,6.187,6.187,0,0,0,1.065-.43,7.729,7.729,0,0,1,.949-.522" transform="translate(-88.874 -73.026)" fill="#e0e0e0"/>
              <path id="Trazado_654014" data-name="Trazado 654014" d="M207.947,165.116c-.017.038-.438-.1-.945-.585a3.592,3.592,0,0,1-.969-1.677.917.917,0,0,1,.136-.892.519.519,0,0,1,.55-.09,1.5,1.5,0,0,1,.361.22,2.48,2.48,0,0,1,.509.546,2.557,2.557,0,0,1,.435,1.161,1.429,1.429,0,0,1-.2,1.1,9.2,9.2,0,0,0-.064-1.054,2.559,2.559,0,0,0-.454-1,2.291,2.291,0,0,0-.452-.455c-.186-.149-.379-.227-.428-.15a.635.635,0,0,0-.035.531,3.659,3.659,0,0,0,.208.627,4,4,0,0,0,.6.956c.42.5.781.714.75.766" transform="translate(-90.035 -70.738)" fill="#e0e0e0"/>
              <path id="Trazado_654015" data-name="Trazado 654015" d="M14.069,220.257,0,224.339l7.283,20.916c1.955-.818,2.2-13.036,2.2-13.036l7.584-2.339Z" transform="translate(0 -96.276)" fill="#263238"/>
              <path id="Trazado_654016" data-name="Trazado 654016" d="M13.239,229.169a.9.9,0,0,0-1.18-.251.87.87,0,0,0-.259,1.168.953.953,0,0,0,1.251.259.9.9,0,0,0,.135-1.245" transform="translate(-5.103 -100.009)" fill="#e0e0e0"/>
              <path id="Trazado_654017" data-name="Trazado 654017" d="M0,227.017l1.758-.633,6.236,20.381s-.088,1.072-.781,1.19Z" transform="translate(0 -98.955)" fill="#e0e0e0"/>
              <path id="Trazado_654018" data-name="Trazado 654018" d="M15.809,240.854c-.1.032-.328-.462-.831-.851s-1.026-.507-1.018-.615c-.013-.1.651-.161,1.252.32s.7,1.135.6,1.145" transform="translate(-6.102 -104.609)" fill="#e0e0e0"/>
              <path id="Trazado_654019" data-name="Trazado 654019" d="M15.4,245.744c-.091.058-.419-.324-.972-.52-.547-.213-1.044-.138-1.075-.241-.05-.091.524-.37,1.206-.113s.937.838.84.874" transform="translate(-5.835 -106.989)" fill="#e0e0e0"/>
              <path id="Trazado_654020" data-name="Trazado 654020" d="M13.093,250.073c-.054-.085.407-.405,1.058-.338s1.04.468.969.541-.472-.119-1.007-.166-.974.061-1.02-.037" transform="translate(-5.721 -109.157)" fill="#e0e0e0"/>
              <path id="Trazado_654021" data-name="Trazado 654021" d="M20.819,238.533c-.108-.01-.131-.528-.37-1.091s-.579-.951-.51-1.034c.053-.085.584.222.858.89s.12,1.258.023,1.236" transform="translate(-8.712 -103.33)" fill="#e0e0e0"/>
              <path id="Trazado_654022" data-name="Trazado 654022" d="M25.283,234.954a2.084,2.084,0,0,1-.36-1.049,5,5,0,0,1-.044-1.214,5.136,5.136,0,0,1,.11-.713,1.361,1.361,0,0,1,.136-.4.471.471,0,0,1,.527-.236.593.593,0,0,1,.39.366,1.445,1.445,0,0,1,.082.411,3.955,3.955,0,0,1,0,.729,3.909,3.909,0,0,1-.3,1.187c-.28.642-.6.94-.636.912-.05-.035.188-.382.387-1.005a4.437,4.437,0,0,0,.2-1.117,4.183,4.183,0,0,0-.024-.666c-.019-.242-.083-.431-.2-.454-.045-.007-.061-.005-.109.064a1.1,1.1,0,0,0-.1.295,5.753,5.753,0,0,0-.123.664,6.165,6.165,0,0,0-.036,1.148,7.68,7.68,0,0,1,.1,1.079" transform="translate(-10.867 -101.113)" fill="#e0e0e0"/>
              <path id="Trazado_654023" data-name="Trazado 654023" d="M25.267,236.939c-.028-.031.267-.361.916-.629a3.6,3.6,0,0,1,1.926-.211.917.917,0,0,1,.761.484.517.517,0,0,1-.14.539,1.5,1.5,0,0,1-.347.241,2.467,2.467,0,0,1-.705.247,2.548,2.548,0,0,1-1.238-.071c-.684-.22-.955-.6-.923-.624a9.1,9.1,0,0,0,.991.367,2.547,2.547,0,0,0,1.1-.012,2.28,2.28,0,0,0,.6-.23c.211-.11.361-.256.309-.332-.034-.1-.263-.223-.471-.247a3.673,3.673,0,0,0-.658-.062,3.986,3.986,0,0,0-1.116.161c-.624.185-.968.427-1,.377" transform="translate(-11.043 -103.18)" fill="#e0e0e0"/>
              <path id="Trazado_654024" data-name="Trazado 654024" d="M36.335,129.294s-1.353,6.671.57,11.915,3.68,6.585,3.68,6.585l1.649,19.075-1.649.5-26.348,9.889,3.548,13.673S52.5,179.042,55.118,176.42s2.854-5.811,3.553-11.929.5-26.934.5-26.934L45.391,122.836l-8.676,3.695" transform="translate(-6.223 -53.693)" fill="#263238"/>
              <path id="Trazado_654025" data-name="Trazado 654025" d="M55.771,126.859c.312,4.332,4.969,12.183,16.35,8.976s33.53-13.383,33.53-13.383l1.456.363,28.692,27.57L146.717,139.1l-30.267-30.667a11.641,11.641,0,0,0-9.587-3.5,6.96,6.96,0,0,0-.759.123c-2.083.481-36.869,8.015-36.869,8.015L65.559,114l-10.488,4.437Z" transform="translate(-24.072 -45.838)" fill="#263238"/>
              <path id="Trazado_654026" data-name="Trazado 654026" d="M149.765,122.813a4.242,4.242,0,0,1-.271,1.241,14.581,14.581,0,0,1-3.009,5.3,4.265,4.265,0,0,1-.925.87,36.3,36.3,0,0,0,2.455-3.508,36.308,36.308,0,0,0,1.75-3.907" transform="translate(-63.625 -53.682)" fill="#455a64"/>
              <path id="Trazado_654027" data-name="Trazado 654027" d="M70.33,134.56a5.6,5.6,0,0,1-.751,1.191,23.955,23.955,0,0,1-4.742,4.837,5.585,5.585,0,0,1-1.175.775,8.325,8.325,0,0,1,1.045-.936c.655-.561,1.542-1.356,2.464-2.294s1.7-1.842,2.244-2.509a8.365,8.365,0,0,1,.915-1.063" transform="translate(-27.827 -58.817)" fill="#455a64"/>
              <path id="Trazado_654028" data-name="Trazado 654028" d="M62.049,164.754a19.2,19.2,0,0,0,13.12.248" transform="translate(-27.122 -72.016)" fill="#263238"/>
              <path id="Trazado_654029" data-name="Trazado 654029" d="M75.169,165a1.814,1.814,0,0,1-.484.215,12.318,12.318,0,0,1-1.377.424,18,18,0,0,1-9.423-.178,12.822,12.822,0,0,1-1.361-.475,1.879,1.879,0,0,1-.475-.234c.017-.047.721.214,1.89.509a20.543,20.543,0,0,0,9.322.176c1.179-.25,1.892-.485,1.908-.437" transform="translate(-27.122 -72.012)" fill="#455a64"/>
              <path id="Trazado_654030" data-name="Trazado 654030" d="M66.1,113.911s.157-.05.468-.133l1.381-.363c.61-.151,1.358-.367,2.256-.567l3.1-.688L93.2,107.791c4.219-.914,8.828-1.954,13.829-3a11.511,11.511,0,0,1,7.671,1.577,14.873,14.873,0,0,1,3.176,2.687l3,3.031,26.5,26.827.1.1-.1.1-6.489,6.706-4.429,4.576-.1.105-.105-.1L107.559,122.82l.06.033-1.456-.364.086-.008c-7.815,3.543-15.08,6.63-21.611,9.185-3.268,1.272-6.351,2.415-9.251,3.343a41.532,41.532,0,0,1-4.224,1.171,17.622,17.622,0,0,1-3.982.373,11.353,11.353,0,0,1-6.37-2.064,10.934,10.934,0,0,1-3.287-3.744,10.589,10.589,0,0,1-1.07-2.917,6.479,6.479,0,0,1-.114-.791c-.02-.178-.024-.269-.024-.269s.019.089.045.267a7.731,7.731,0,0,0,.134.785,11.11,11.11,0,0,0,4.385,6.571,11.244,11.244,0,0,0,6.306,2.007,17.519,17.519,0,0,0,3.943-.386,41.764,41.764,0,0,0,4.2-1.182c2.89-.937,5.968-2.087,9.23-3.366,6.519-2.569,13.777-5.669,21.581-9.221l.042-.019.044.011,1.457.362.034.008.025.024,28.7,27.56-.207,0,4.429-4.577,6.49-6.706v.2l-26.477-26.848-2.992-3.036a14.613,14.613,0,0,0-3.122-2.653,11.274,11.274,0,0,0-7.5-1.559c-4.975,1.032-9.607,2.065-13.822,2.965l-19.906,4.281-3.11.663c-.9.192-1.65.4-2.261.541l-1.388.335c-.313.074-.475.105-.475.105" transform="translate(-24.616 -45.749)" fill="#455a64"/>
              <g id="Grupo_947493" data-name="Grupo 947493" transform="translate(37.553 88.429)" opacity="0.3">
                <g id="Grupo_947492" data-name="Grupo 947492">
                  <g id="Grupo_947491" data-name="Grupo 947491" clip-path="url(#clip-path-18)">
                    <path id="Trazado_654031" data-name="Trazado 654031" d="M66.715,158.177a12.377,12.377,0,0,0,8.219,2.778,28.009,28.009,0,0,0,7.2-1.375l0-2.484s-8.922,4-15.415,1.08" transform="translate(-66.715 -157.098)"/>
                  </g>
                </g>
              </g>
            </g>
          </g>
        </g>
      </g>
    </g>
  </g>
</svg>
