<svg xmlns="http://www.w3.org/2000/svg" xmlns:xlink="http://www.w3.org/1999/xlink" width="958.47" height="335.845" viewBox="0 0 958.47 335.845">
  <defs>
    <clipPath id="clip-path">
      <rect id="Rectángulo_336083" data-name="Rectángulo 336083" width="253.394" height="259.842" fill="none"/>
    </clipPath>
    <clipPath id="clip-path-2">
      <rect id="Rectángulo_336082" data-name="Rectángulo 336082" width="117.227" height="264.959" fill="none"/>
    </clipPath>
    <clipPath id="clip-path-4">
      <rect id="Rectángulo_336075" data-name="Rectángulo 336075" width="29.273" height="58.327" fill="none"/>
    </clipPath>
    <clipPath id="clip-path-5">
      <rect id="Rectángulo_336076" data-name="Rectángulo 336076" width="10.415" height="21.438" fill="none"/>
    </clipPath>
    <clipPath id="clip-path-6">
      <rect id="Rectángulo_336077" data-name="Rectángulo 336077" width="3.25" height="3.26" fill="none"/>
    </clipPath>
    <clipPath id="clip-path-7">
      <rect id="Rectángulo_336078" data-name="Rectángulo 336078" width="7.11" height="48.865" fill="none"/>
    </clipPath>
    <clipPath id="clip-path-8">
      <rect id="Rectángulo_336079" data-name="Rectángulo 336079" width="63.917" height="11.15" fill="none"/>
    </clipPath>
    <clipPath id="clip-path-9">
      <rect id="Rectángulo_336080" data-name="Rectángulo 336080" width="31.946" height="15.625" fill="none"/>
    </clipPath>
  </defs>
  <g id="Grupo_947855" data-name="Grupo 947855" transform="translate(-254.897 -3540.263)">
    <path id="Rectángulo_33996" data-name="Rectángulo 33996" d="M0,0H712.14a94,94,0,0,1,94,94v61.319a0,0,0,0,1,0,0H0a0,0,0,0,1,0,0V0A0,0,0,0,1,0,0Z" transform="translate(407.228 3668.353)" fill="#e2e8e0"/>
    <line id="Línea_166" data-name="Línea 166" x1="845.518" transform="translate(347.248 3825.504)" fill="none" stroke="#406834" stroke-linecap="round" stroke-width="4"/>
    <g id="Grupo_947580" data-name="Grupo 947580" transform="translate(352.236 3540.263) rotate(22)">
      <path id="Trazado_654630" data-name="Trazado 654630" d="M101.764,23.382l-4.2,18.476-.839,17.636L69.85,73.771l.84,21-12.6,10.918-23.515-1.68-7.558,22.478L.145,140.957v21l17.636,30.234,9.238,12.6H47.175l19.316,34.433,4.2,16.8,41.151,4.2,22.675-17.636,36.113-5.879,34.432-21.835L222.7,198.9V182.948l18.476-16.8h11.758l-13.437-8.4L215.432,96.036l-41.32-15.931-16.08-34.048H124.439l-4.347-18.476-9.93-6.719L99.828,1.193Z" transform="translate(-0.059 -0.481)" fill="#e0e0e0"/>
      <g id="Grupo_947579" data-name="Grupo 947579">
        <g id="Grupo_947578" data-name="Grupo 947578" clip-path="url(#clip-path)">
          <path id="Trazado_654631" data-name="Trazado 654631" d="M159.747,160.749,154.38,182.16l-6.712-13.975L141.942,241.4l10.021,18,10.021-6.953s2.864,20.86,4.091,21.678,13.5,7.771,13.5,7.771l9-4.908h9.817l17.588-7.363,3.273-18,5.727-7.771,4.908,4.09,2.455,9.408,6.135-7.772,4.09-11.861L235.2,214.564s-3.272,7.111-5.726,0-3.681-22.246-3.681-22.246l-6.135-19.633-7.771,10.634-3.273,5.727-5.318-7.771-1.227-11.044L200.024,159.6l-7.771-3.273v11.862l-3.682,6.544-7.362-8.589-1.636-7.771v-6.544l-9,12.27Z" transform="translate(-57.193 -61.174)" fill="#ebebeb"/>
          <path id="Trazado_654632" data-name="Trazado 654632" d="M88.679,255.426l12.457-24.6-17.054-11.6L73.85,204.9l-3.07-1.023s-1.023-49.8.682-55.936,4.775-13.984,8.527-8.868,7.43,15.86,9.817,11.767,6.214-28.821,6.214-28.821l5.116-23.534V74.953s10.218,25.588,12.517,26.573c2.036.872,2.49-27.627,2.49-27.627l3.07-10.76,4.328-23.556s1.745,22.683,3.78,25.591a25.821,25.821,0,0,0,6.4,6.4c1.163.582,3.2-13.377,3.2-14.832V48.89s5.916,33.152,7.757,30.535,1.84-12.5,1.84-12.5V51.8l4.653-3.2,16.286,2.326,14.54,15.413s9.6,43.622,11.633,40.423,5.235-19.484,5.235-19.484l13.959,16.867,2.617,77.647-7.412,42.693,13.223-8.386L240.833,198.9V182.949l-11.438-72.7,4.172-14.214-41.32-15.931L176.167,46.058H142.574l-4.347-18.476-9.93-6.718L117.964,1.194,119.9,23.382l-4.2,18.476-.84,17.636L87.986,73.772l.84,21-12.6,10.917-23.515-1.68-7.558,22.479,1.4,6.451-1.4,71.848H65.311l19.316,34.433Z" transform="translate(-18.194 -0.481)" fill="#ebebeb"/>
          <path id="Trazado_654633" data-name="Trazado 654633" d="M225.2,367.43l1.853-10.623,15.435.157-1.829-6,.084-8.19,5.332,2.26,6.649,10.769-8.375-26.853.115-11.34,6.682-6.547,12.822,9.267,7.554,31.507.115-11.267,2.9-6.586,3.137,1.292,4.784,12.869-21.148,13.411Z" transform="translate(-90.738 -125.335)" fill="#f5f5f5"/>
          <path id="Trazado_654634" data-name="Trazado 654634" d="M225.2,367.295l36.095-5.986-.041.016,21.135-13.431-.053.159-4.793-12.866.079.082-3.137-1.29.186-.075-2.9,6.587.012-.058c-.035,3.555-.072,7.376-.11,11.267l-.013,1.227-.286-1.193c-2.185-9.106-4.5-18.747-6.876-28.661l-.682-2.845.06.09-12.82-9.267.2-.015-6.684,6.546.045-.107q-.061,5.791-.119,11.34l-.007-.045c2.985,9.589,5.787,18.593,8.359,26.857l.31,1-.548-.888-6.639-10.775.056.048-5.33-2.265.158-.1c-.033,2.89-.064,5.609-.094,8.189l0-.031c.66,2.178,1.254,4.14,1.82,6.007l.037.124-.128,0-15.434-.189.062-.051c-1.226,6.795-1.837,10.18-1.915,10.612,0,0,.033-.226.109-.681s.191-1.143.34-2.034c.306-1.809.758-4.472,1.342-7.919l.009-.053h.054l15.434.126-.091.121c-.571-1.865-1.171-3.825-1.838-6l0-.015v-.016c.023-2.58.048-5.3.073-8.19l0-.17.156.066,5.335,2.253.035.015.02.033,6.659,10.763-.238.108c-2.582-8.261-5.395-17.262-8.391-26.848l-.007-.022v-.023q.055-5.547.112-11.34v-.063l.045-.044,6.681-6.549.093-.091.105.076,12.822,9.265.047.034.014.056L264.8,323l6.868,28.663-.3.033c.041-3.891.082-7.712.119-11.267v-.03l.013-.027,2.905-6.584.057-.128.13.054,3.136,1.294.058.023.021.059,4.776,12.871.038.1-.091.057-21.161,13.391-.019.012-.021,0-26.509,4.251-7.151,1.137-1.849.291c-.415.064-.622.092-.622.092" transform="translate(-90.738 -125.2)" fill="#263238"/>
          <path id="Trazado_654635" data-name="Trazado 654635" d="M102.1,364.645l3.054-7.964,2.63-1.052,2.367,5.523v11.309l6.576-28.141,10.783-7.627,5.523,5.523v9.468l-7.89,23.408,6.312-9.994,4.471-1.841v6.838l-1.578,5h12.887l2.367,14.2,9.712,1.13-6.392,4.972-41.151-4.2-4.2-16.8Z" transform="translate(-41.139 -135.664)" fill="#fafafa"/>
          <path id="Trazado_654636" data-name="Trazado 654636" d="M26.961,204.3,17.689,191.73v0L.023,161.509l-.01-.017v-.02c0-6.281-.008-13.361-.013-21v-.052l.045-.024,26.867-14.486-.048.057,7.549-22.482.027-.081.085.006,23.516,1.672-.086.029L70.55,94.193l-.043.1c-.261-6.49-.55-13.659-.845-21l0-.081.072-.038L96.6,58.893l-.072.114c.259-5.445.545-11.5.837-17.636v-.013l0-.012c1.3-5.722,2.738-12.055,4.2-18.477l0,.044c-.6-6.9-1.266-14.492-1.939-22.188L99.56,0,99.9.644l10.336,19.668-.048-.054,9.931,6.717.049.033.013.057,4.348,18.476-.148-.117,33.593,0h.1l.042.088,16.082,34.047-.085-.079,12.29,4.738,29.03,11.193.064.024.025.064,24.058,61.719-.061-.073,13.436,8.4.442.276H241.115l.1-.038-18.478,16.794.047-.107c0,5.4,0,10.711,0,15.957v.063l-.047.042L205.1,214.482l-.009.008-.01.006-34.437,21.828-.022.014-.026,0-36.114,5.868.053-.023-22.681,17.628-.035.027-.043,0L70.622,255.62l-.062-.007-.015-.06-4.19-16.8.008.019L47.077,204.325l.04.023L26.961,204.3l20.156-.046h.026l.014.024L66.5,238.7l.005.01,0,.01c1.266,5.049,2.615,10.435,4.209,16.794l-.077-.067,41.153,4.18-.078.023L134.385,242l.024-.019.03,0,36.11-5.889-.048.018,34.428-21.843-.019.014,17.633-15.96-.047.106c0-5.245,0-10.553,0-15.957V182.4l.047-.043,18.474-16.8.042-.038h.057l11.758,0-.079.276-13.438-8.4-.043-.027-.018-.047c-7.782-19.956-15.825-40.583-24.066-61.716l.088.088L186.286,84.508,174,79.769l-.058-.022-.027-.057-16.08-34.048.14.088-33.593,0h-.121l-.027-.117-4.345-18.476.062.09-9.93-6.72-.031-.021-.017-.033L99.64.781,99.915.7c.671,7.7,1.331,15.284,1.932,22.189l0,.023,0,.021c-1.46,6.421-2.9,12.754-4.2,18.475l0-.024c-.294,6.139-.583,12.191-.844,17.636l0,.078-.069.036L69.852,73.4l.068-.119c.292,7.337.577,14.505.835,21l0,.06-.045.039-12.6,10.914-.037.032-.049,0-23.514-1.687.113-.075-7.567,22.476-.013.038-.036.019L.128,140.553l.045-.076c0,7.634-.009,14.715-.013,21l-.01-.037,17.609,30.249,0,0,9.2,12.622" fill="#263238"/>
          <path id="Trazado_654637" data-name="Trazado 654637" d="M.279,223.407c1.24,11.169,5.686,22.586,10.528,32.727-1.016,0,6.1-32.682,6.1-32.682l6.869,18.477s7.673-27.622,9.757-36.879Z" transform="translate(-0.112 -82.621)" fill="#ebebeb"/>
          <path id="Trazado_654638" data-name="Trazado 654638" d="M139.547,3.4s.022.124.048.369.061.618.107,1.085c.088.967.216,2.372.38,4.174.317,3.636.773,8.874,1.336,15.335l0,.017,0,.019c-1.2,5.238-2.622,11.432-4.182,18.232l0-.025c-.262,5.578-.549,11.689-.85,18.074l0,.088-.078.042-4.737,2.5L109.429,74.993l.076-.132c.3,7.963.571,15.051.791,20.864l0,.051-.038.033-9.572,8.327L98.1,106.37l-.676.573c-.153.128-.236.187-.236.187s.07-.075.217-.21l.657-.6,2.554-2.277,9.508-8.4-.036.084c-.241-5.812-.534-12.9-.864-20.861l0-.09.079-.042,22.127-11.706,4.737-2.5-.082.13c.308-6.384.6-12.495.872-18.073v-.013l0-.013,4.237-18.219,0,.035c-.52-6.464-.941-11.7-1.234-15.343-.138-1.8-.245-3.21-.319-4.178q-.048-.7-.075-1.088c-.015-.245-.014-.371-.014-.371" transform="translate(-39.158 -1.369)" fill="#ff725e"/>
          <path id="Trazado_654639" data-name="Trazado 654639" d="M292.745,118.114a1.045,1.045,0,0,1-.183-.053l-.534-.179-2.062-.719-7.73-2.743-26.865-9.627-.057-.021-.026-.056L246.534,85.8,239.46,70.484l.136.087-33.4-.063h-.068l-.016-.066c-.771-3.135-1.382-5.619-1.8-7.333-.2-.842-.358-1.494-.467-1.949-.049-.213-.087-.379-.115-.5a.942.942,0,0,1-.031-.172.972.972,0,0,1,.054.166l.137.5.511,1.938c.44,1.71,1.078,4.187,1.882,7.314l-.084-.066,33.4-.063h.1l.04.087,7.085,15.313,8.736,18.922-.083-.076,26.826,9.733,7.7,2.822,2.047.762.525.2a1.086,1.086,0,0,1,.175.076" transform="translate(-82.073 -24.371)" fill="#ff725e"/>
        </g>
      </g>
    </g>
    <g id="Grupo_947577" data-name="Grupo 947577" transform="translate(348.425 3587.335)">
      <g id="Grupo_947576" data-name="Grupo 947576" clip-path="url(#clip-path-2)">
        <g id="Grupo_947575" data-name="Grupo 947575">
          <g id="Grupo_947574" data-name="Grupo 947574" clip-path="url(#clip-path-2)">
            <path id="Trazado_654569" data-name="Trazado 654569" d="M64.274,113.026l28.389-9.879L84.2,71.048l8.727-3.037s18.084,29.637,19.223,39.964S80.2,131.07,80.2,131.07Z" transform="translate(5.046 5.339)" fill="#ffbe9d"/>
            <path id="Trazado_654570" data-name="Trazado 654570" d="M99.857,97.9a9.956,9.956,0,0,1-2.538,1.153c-1.608.6-3.856,1.359-6.341,2.173l-6.355,2.1a24.284,24.284,0,0,1-2.632.877,9.55,9.55,0,0,1,2.492-1.249c1.592-.656,3.831-1.442,6.319-2.257s4.751-1.51,6.387-2.016a22.092,22.092,0,0,1,2.666-.777" transform="translate(6.437 7.685)" fill="#eb996e"/>
            <path id="Trazado_654571" data-name="Trazado 654571" d="M88.164,54.8c-.535-.676-.48-.875-1.031-1.02s-1.867-.7-2.294-.476-.734,1.048-.734,1.048-1.472-1.318-2.514-1.149-1.44.621-1.46.979a2.085,2.085,0,0,0-1.732-.545c-1.041.17-1.771.66-1.77,1.391a3.815,3.815,0,0,0-1.319.011,2.715,2.715,0,0,0-.7.379,1.5,1.5,0,0,0-.464,1.769l.555,1.356s-1.21.454-1.268.967a2.731,2.731,0,0,0,.209,1.375,24.561,24.561,0,0,1,1.313,3.621,4,4,0,0,0,1.032,1.753l5.315,2.8a8.22,8.22,0,0,1,.9.718c.586.535.826,1.883,1.1,2.629.9,2.5,3.619,8.674,3.619,8.674l9.12-3.932L92.6,69.174,91.49,66.59a7.717,7.717,0,0,0-.085-2.984,33.525,33.525,0,0,0-1.173-3.344c-.265-.618-1.533-4.781-2.067-5.457" transform="translate(5.764 4.176)" fill="#ffbe9d"/>
            <path id="Trazado_654572" data-name="Trazado 654572" d="M77.524,56.878a8.264,8.264,0,0,1-1.1-1.869l-.018-.108c.021.182.059.119.051.14l-.04-.008a.919.919,0,0,0-.15-.006,3.091,3.091,0,0,0-.367.036,5.251,5.251,0,0,0-.794.174,1.306,1.306,0,0,0-.855,1.262l-.023-.1c.208.468.4.962.6,1.47.72,1.9,1.294,3.638,1.714,4.894a10.3,10.3,0,0,1,.605,2.065,6.944,6.944,0,0,1-.977-1.926c-.517-1.225-1.152-2.946-1.866-4.833-.193-.5-.383-.993-.577-1.451l-.023-.053v-.049A1.805,1.805,0,0,1,74.95,54.77a5.044,5.044,0,0,1,.9-.153,3.285,3.285,0,0,1,.425-.014,1.325,1.325,0,0,1,.225.028.571.571,0,0,1,.136.047c.043.047.142.023.166.269l-.018-.108a8.291,8.291,0,0,1,.74,2.038" transform="translate(5.786 4.286)" fill="#eb996e"/>
            <path id="Trazado_654573" data-name="Trazado 654573" d="M80.708,56.108c-.152.043-.392-.346-.656-.815s-.466-.879-.349-.986.542.176.84.712.313,1.05.165,1.089" transform="translate(6.254 4.262)" fill="#eb996e"/>
            <path id="Trazado_654574" data-name="Trazado 654574" d="M84.141,55.991c-.159-.008-.269-.347-.424-.72s-.3-.7-.191-.813.512.1.713.6.053.944-.1.93" transform="translate(6.554 4.273)" fill="#eb996e"/>
            <path id="Trazado_654575" data-name="Trazado 654575" d="M91.091,102.454c-.15.04-2.165-7.089-4.5-15.92S82.487,70.509,82.637,70.47s2.163,7.087,4.5,15.921,4.106,16.023,3.956,16.063" transform="translate(6.487 5.532)" fill="#ff725e"/>
            <path id="Trazado_654576" data-name="Trazado 654576" d="M67.891,52.147l-5.852-3.064L61.493,53.2l6.183,3.069c.355.395,41.389,20.467,41.389,20.467l1.3-2.78Z" transform="translate(4.827 3.853)" fill="#455a64"/>
            <path id="Trazado_654577" data-name="Trazado 654577" d="M74.682,22.467c.38-6.9-4.034-13.036-8.232-18.52-1.5-1.961-3.434-4.126-5.894-3.937a5.2,5.2,0,0,0-3.9,2.863,19.783,19.783,0,0,0-1.57,4.778c-1.4,5.472-3.8,10.628-5.852,15.889s-3.8,10.761-3.8,16.411S47.395,51.472,51.7,55.122c3.953,3.352,10.046,4.3,14.466,1.754,3.363-.56,5.39-4.447,5.539-7.94.156-3.653-1-7.273-.8-10.924.3-5.342,3.481-10.2,3.775-15.544" transform="translate(3.567 0)" fill="#ff725e"/>
            <g id="Grupo_947558" data-name="Grupo 947558" transform="translate(48.999)" opacity="0.8">
              <g id="Grupo_947557" data-name="Grupo 947557">
                <g id="Grupo_947556" data-name="Grupo 947556" clip-path="url(#clip-path-4)">
                  <path id="Trazado_654578" data-name="Trazado 654578" d="M74.682,22.467c.38-6.9-4.034-13.036-8.232-18.52-1.5-1.961-3.434-4.126-5.894-3.937a5.2,5.2,0,0,0-3.9,2.863,19.783,19.783,0,0,0-1.57,4.778c-1.4,5.472-3.8,10.628-5.852,15.889s-3.8,10.761-3.8,16.411S47.395,51.472,51.7,55.122c3.953,3.352,10.046,4.3,14.466,1.754,3.363-.56,5.39-4.447,5.539-7.94.156-3.653-1-7.273-.8-10.924.3-5.342,3.481-10.2,3.775-15.544" transform="translate(-45.432 0)" fill="#fff"/>
                </g>
              </g>
            </g>
            <path id="Trazado_654579" data-name="Trazado 654579" d="M68.174,45.853C68,41.53,67.107,37.228,67.4,32.912c.168-2.525.742-5.039.524-7.559s-1.455-5.174-3.8-6.122a4.812,4.812,0,0,0-6.477,3.31c-.347,1.407-.059,2.949-.616,4.286-.888,2.132-3.6,3.027-4.552,5.129a6.449,6.449,0,0,0,.232,4.761,15.773,15.773,0,0,1,1.33,4.68c.081,2.627-1.619,5.028-1.722,7.655a7.875,7.875,0,0,0,4.289,6.907,13.067,13.067,0,0,0,8.336,1.073c5.005-3.407,3.407-6.856,3.233-11.179" transform="translate(4.091 1.483)" fill="#ff725e"/>
            <g id="Grupo_947561" data-name="Grupo 947561" transform="translate(60.387 34.646)" opacity="0.3">
              <g id="Grupo_947560" data-name="Grupo 947560">
                <g id="Grupo_947559" data-name="Grupo 947559" clip-path="url(#clip-path-5)">
                  <path id="Trazado_654580" data-name="Trazado 654580" d="M66.053,45.3c-.583-2.462-1.991-4.671-2.555-7.139a25.3,25.3,0,0,0-.816-3.707,3.386,3.386,0,0,0-2.733-2.33,3.183,3.183,0,0,0-2.935,2.654,9.548,9.548,0,0,0,.371,4.248,8.9,8.9,0,0,1,.3,4.248c-.347,1.349-1.3,2.487-1.6,3.849a5.607,5.607,0,0,0,2.477,5.446,5,5,0,0,0,2.717.981,4.685,4.685,0,0,0,4.455-2.475,8.351,8.351,0,0,0,.318-5.778" transform="translate(-55.991 -32.124)" fill="#fff"/>
                </g>
              </g>
            </g>
            <g id="Grupo_947564" data-name="Grupo 947564" transform="translate(64.472 26.121)" opacity="0.3">
              <g id="Grupo_947563" data-name="Grupo 947563">
                <g id="Grupo_947562" data-name="Grupo 947562" clip-path="url(#clip-path-6)">
                  <path id="Trazado_654581" data-name="Trazado 654581" d="M60.609,24.421a1.636,1.636,0,1,0,.408-.159" transform="translate(-59.779 -24.22)" fill="#fff"/>
                </g>
              </g>
            </g>
            <path id="Trazado_654582" data-name="Trazado 654582" d="M62.93,7.119s-2.364,2.647-2.271,4.7A2.324,2.324,0,0,0,62.6,14.2l.575-3.543Z" transform="translate(4.762 0.559)" fill="#ff725e"/>
            <path id="Trazado_654583" data-name="Trazado 654583" d="M73.721,58.875a24.878,24.878,0,0,1-4.842-2.086A24.925,24.925,0,0,1,64.284,54.2a24.9,24.9,0,0,1,4.844,2.087,24.9,24.9,0,0,1,4.593,2.589" transform="translate(5.046 4.254)" fill="#ff725e"/>
            <path id="Trazado_654584" data-name="Trazado 654584" d="M40.383,49.369a9.468,9.468,0,0,1-.4-1.621c-.233-1.049-.478-2.587-.7-4.5a60.037,60.037,0,0,1-.37-6.744,67.353,67.353,0,0,1,.561-8.255,67.558,67.558,0,0,1,1.656-8.109,60.046,60.046,0,0,1,2.152-6.4c.717-1.784,1.363-3.2,1.867-4.15a9.544,9.544,0,0,1,.815-1.456,9.5,9.5,0,0,1-.618,1.55c-.44.974-1.028,2.408-1.694,4.2s-1.366,3.956-2.021,6.394a73.6,73.6,0,0,0-1.6,8.05,73.618,73.618,0,0,0-.6,8.183c-.018,2.524.071,4.8.247,6.7s.351,3.442.516,4.5a9.516,9.516,0,0,1,.183,1.658" transform="translate(3.055 0.639)" fill="#ff725e"/>
            <path id="Trazado_654585" data-name="Trazado 654585" d="M35.225,36.535a6.955,6.955,0,0,1-.266-2.111,34.291,34.291,0,0,1,1.1-10.167,6.978,6.978,0,0,1,.713-2c.164.045-.67,3.165-1.087,7.107-.438,3.938-.293,7.164-.463,7.174" transform="translate(2.742 1.747)" fill="#ff725e"/>
            <path id="Trazado_654586" data-name="Trazado 654586" d="M77.028,25.029c-.173-.038.583-3.127.514-7-.039-3.877-.88-6.943-.709-6.985A6.244,6.244,0,0,1,77.5,13.02a23.725,23.725,0,0,1,.139,10.014,6.206,6.206,0,0,1-.61,2" transform="translate(6.03 0.867)" fill="#ff725e"/>
            <path id="Trazado_654587" data-name="Trazado 654587" d="M80.161,25.462c-.175-.053,1.1-3.466,1.274-7.884.22-4.418-.737-7.931-.559-7.968a7.5,7.5,0,0,1,.687,2.273A23.842,23.842,0,0,1,81.05,23.26a7.542,7.542,0,0,1-.889,2.2" transform="translate(6.292 0.754)" fill="#ff725e"/>
            <path id="Trazado_654588" data-name="Trazado 654588" d="M37.107,57.695l.489-.124a9.169,9.169,0,0,1,7.5-4.479A11.893,11.893,0,0,1,53.425,56.2c1.581,1.4,2.829,3.145,4.418,4.537s3.7,2.438,5.767,2c.252.77-1.185,1.226-1.1,2.032a.944.944,0,0,0,.815.712,10.122,10.122,0,0,0,1.7-.012,1.362,1.362,0,0,1,1.349.829,1.656,1.656,0,0,1-.068.821,14.678,14.678,0,0,1-3.353,6.572,7.677,7.677,0,0,1-6.72,2.45A12.225,12.225,0,0,1,51.1,73.256q-4.412-3.538-8.824-7.075a19.853,19.853,0,0,1-3.758-3.6,6.7,6.7,0,0,1-1.412-4.887" transform="translate(2.908 4.167)" fill="#263238"/>
            <path id="Trazado_654589" data-name="Trazado 654589" d="M40,57.971a9.666,9.666,0,0,0-4.108-2.037,5.743,5.743,0,0,0-4.422.846,12.815,12.815,0,0,0-2.7,3.332,5.352,5.352,0,0,1-3.329,2.538,1.249,1.249,0,0,0-.707.225c-.324.307-.09.9.317,1.09a2.079,2.079,0,0,0,1.313-.013A4.68,4.68,0,0,1,23.6,65.513a2.023,2.023,0,0,0,2.481,1.431,20.952,20.952,0,0,0-.813,5.077,7.031,7.031,0,0,0,1.654,4.757c1.284,1.389,3.375,2.166,3.935,3.974" transform="translate(1.853 4.382)" fill="#263238"/>
            <path id="Trazado_654590" data-name="Trazado 654590" d="M51.962,117.952,29,117.656l2.565-19.579s-1.57-.335-1.675-8.853-.5-22.99-.5-22.99A29.533,29.533,0,0,1,59.1,69.972l1.261.972Z" transform="translate(2.276 5.011)" fill="#ffbe9d"/>
            <path id="Trazado_654591" data-name="Trazado 654591" d="M55.628,80.16c.145-.063,5.845-1.731,5.659,4.093S55.3,88.687,55.3,88.52s.332-8.361.332-8.361" transform="translate(4.341 6.272)" fill="#ffbe9d"/>
            <path id="Trazado_654592" data-name="Trazado 654592" d="M30.653,79.026c-.145-.063-5.329-1.462-5.143,4.361S31.5,87.822,31.5,87.655s-.848-8.629-.848-8.629" transform="translate(2.002 6.189)" fill="#ffbe9d"/>
            <path id="Trazado_654593" data-name="Trazado 654593" d="M59.647,80.826c-.868,4.879-.7,7.444-1.5,10.7-1.273,5.158-3.83,9.112-8.471,11.689s-10.917,2.529-14.9-.977c-2.765-2.434-4.726-5.183-5.137-8.847s-1.488-10.545-1.514-14.232c-.047-6.649.176-12.611.176-12.611l18.97-3.437L58.062,69.54Z" transform="translate(2.207 4.955)" fill="#263238"/>
            <path id="Trazado_654594" data-name="Trazado 654594" d="M39.209,103.079a6.147,6.147,0,0,0,3.324.294,6.155,6.155,0,0,0,3.181-1.013c-.055-.146-1.458.294-3.239.483-1.778.2-3.244.081-3.266.235" transform="translate(3.078 8.033)" fill="#263238"/>
            <path id="Trazado_654595" data-name="Trazado 654595" d="M58.927,89.7c.555-5,.916-10.72,1.7-15.991.293-1.979,1-4.831.821-6.823s-.722-1.391-1.6-3.2c-1.1-2.263-5.318-3.772-7.785-4.268s-2.772-2.63-4.662-.971a6.158,6.158,0,0,0-11.228,2.6,4.277,4.277,0,0,0-7.057,4.291,4.186,4.186,0,0,0-2.819,6.407c.879,1.355,2.463,2.1,3.433,3.393a4.867,4.867,0,0,1,.291,5.257" transform="translate(2.012 4.374)" fill="#263238"/>
            <path id="Trazado_654596" data-name="Trazado 654596" d="M33.85,86.264A11.137,11.137,0,0,0,37.4,95.655,32.294,32.294,0,0,1,35,91.194a32.269,32.269,0,0,1-1.152-4.93" transform="translate(2.647 6.772)" fill="#455a64"/>
            <path id="Trazado_654597" data-name="Trazado 654597" d="M31.517,82.325a8.987,8.987,0,0,0,1.6,8.794,25.64,25.64,0,0,1-1.447-4.279,25.779,25.779,0,0,1-.152-4.515" transform="translate(2.432 6.463)" fill="#455a64"/>
            <path id="Trazado_654598" data-name="Trazado 654598" d="M54.613,64.088a13.009,13.009,0,0,0-5.917-5.3,7.594,7.594,0,0,0-7.622.959" transform="translate(3.225 4.568)" fill="#263238"/>
            <path id="Trazado_654599" data-name="Trazado 654599" d="M53.264,76.417a4.8,4.8,0,0,1,.187-1.718,22.177,22.177,0,0,0,.439-4.037,8.963,8.963,0,0,0-.869-3.86c-.455-.917-.916-1.39-.84-1.468.046-.061.648.3,1.254,1.232a7.772,7.772,0,0,1,1.129,4.089,14.364,14.364,0,0,1-.649,4.153c-.307,1.024-.563,1.632-.65,1.609" transform="translate(4.096 5.128)" fill="#455a64"/>
            <path id="Trazado_654600" data-name="Trazado 654600" d="M49.551,77.785c-.168-.093.3-1.246.756-2.692s.743-2.656.934-2.635.194,1.322-.291,2.84-1.244,2.578-1.4,2.487" transform="translate(3.887 5.688)" fill="#455a64"/>
            <path id="Trazado_654601" data-name="Trazado 654601" d="M32.807,77.076a4.9,4.9,0,0,1-1.3-2.082,10.277,10.277,0,0,1,2.226-11.147,4.9,4.9,0,0,1,2-1.418c.065.091-.7.626-1.653,1.742A10.929,10.929,0,0,0,31.95,74.83c.451,1.4.951,2.186.857,2.245" transform="translate(2.413 4.9)" fill="#455a64"/>
            <path id="Trazado_654602" data-name="Trazado 654602" d="M52.734,56.108a8.272,8.272,0,0,1-1.872-.788A11.012,11.012,0,0,0,46.287,54.2a5.532,5.532,0,0,0-4.147,1.75,12.422,12.422,0,0,0-1.062,1.659c-.071.006-.1-.876.692-1.961a5.105,5.105,0,0,1,1.767-1.481,6.208,6.208,0,0,1,2.742-.643,9.63,9.63,0,0,1,4.8,1.373c1.1.636,1.7,1.141,1.657,1.214" transform="translate(3.222 4.202)" fill="#455a64"/>
            <path id="Trazado_654603" data-name="Trazado 654603" d="M27.833,61.225c-.073-.026.064-.677.676-1.539A6.257,6.257,0,0,1,35.9,57.536c.978.4,1.443.876,1.395.938-.057.09-.6-.229-1.547-.486a6.671,6.671,0,0,0-6.869,2c-.66.724-.95,1.286-1.046,1.239" transform="translate(2.184 4.482)" fill="#455a64"/>
            <path id="Trazado_654604" data-name="Trazado 654604" d="M33.632,81.2c-.022-.081.937-.335,2.469-1.022a19.716,19.716,0,0,0,5.614-3.8l1.1-1.069-.6,1.418a12.742,12.742,0,0,0-.822,2.766c-.095.477-.17,1.083.009,1.163.129.148.65-.112,1.084-.418a17.405,17.405,0,0,0,3.9-3.456l1.011-1.21-.462,1.5c-.462,1.5-.892,2.9-1.281,4.169l-.438-.266a25.859,25.859,0,0,0,3.717-4.686A4.869,4.869,0,0,1,48.28,77.8a15.781,15.781,0,0,1-2.7,3.552l-.712.709.275-.975c.359-1.277.755-2.687,1.181-4.2l.549.291A17.254,17.254,0,0,1,42.85,80.8a5.675,5.675,0,0,1-.754.436,1.092,1.092,0,0,1-1.1-.046,1.135,1.135,0,0,1-.374-1.005,7.658,7.658,0,0,1,.116-.814,12.966,12.966,0,0,1,.9-2.9l.5.349a18.041,18.041,0,0,1-5.9,3.7,8.036,8.036,0,0,1-2.612.675" transform="translate(2.64 5.912)" fill="#455a64"/>
            <path id="Trazado_654605" data-name="Trazado 654605" d="M44.616,60.063a2.986,2.986,0,0,0-1.835-1.417,5.218,5.218,0,0,0-2.36-.056,8.447,8.447,0,0,0-4.948,2.867c-.286.34-.54.866-.236,1.191a.971.971,0,0,0,.65.223,36.283,36.283,0,0,0,8.575-.3" transform="translate(2.755 4.591)" fill="#263238"/>
            <path id="Trazado_654606" data-name="Trazado 654606" d="M64.716,62.187a1.142,1.142,0,0,1-.371.331,3.069,3.069,0,0,1-1.35.481,4.681,4.681,0,0,1-2.247-.33A7.02,7.02,0,0,1,58.3,60.927c-.781-.792-1.5-1.76-2.359-2.694a19.545,19.545,0,0,0-3.028-2.683,12.148,12.148,0,0,0-3.971-1.923,9.488,9.488,0,0,0-4.681.059,9.1,9.1,0,0,0-5.506,3.7l-.192.306-.239-.271a4.548,4.548,0,0,0-2.952-1.517,5.722,5.722,0,0,0-3.062.545c-1.881.84-2.681,2.6-3.581,3.824-.446.626-.789,1.2-1.194,1.676a2.813,2.813,0,0,1-1.3.874,2.343,2.343,0,0,1-.97.082.771.771,0,0,1-.326-.08,4.289,4.289,0,0,0,1.238-.173,2.736,2.736,0,0,0,1.154-.874c.355-.452.693-1.067,1.112-1.694.418-.643.84-1.338,1.374-2.111a6.241,6.241,0,0,1,2.285-1.938,6.154,6.154,0,0,1,3.315-.633,5.045,5.045,0,0,1,3.306,1.666l-.432.036a9.553,9.553,0,0,1,5.827-3.967,9.931,9.931,0,0,1,4.955-.049,12.486,12.486,0,0,1,4.135,2.035,19.448,19.448,0,0,1,3.072,2.791c.867.974,1.563,1.948,2.3,2.733a5.538,5.538,0,0,0,4.383,2.128,3.928,3.928,0,0,0,1.742-.594" transform="translate(1.959 4.145)" fill="#ff725e"/>
            <path id="Trazado_654607" data-name="Trazado 654607" d="M35.19,76.051a4.846,4.846,0,0,1-.959-1.949,10.884,10.884,0,0,1,1.825-10.02A4.88,4.88,0,0,1,37.64,62.6c.063.066-.53.64-1.264,1.719a11.935,11.935,0,0,0-1.762,9.68c.306,1.269.657,2.016.576,2.056" transform="translate(2.648 4.914)" fill="#ff725e"/>
            <path id="Trazado_654608" data-name="Trazado 654608" d="M54.054,66.595a16.643,16.643,0,0,1-1.37-1.543,14.422,14.422,0,0,0-8.513-4.492,16.55,16.55,0,0,1-2.046-.259,5.052,5.052,0,0,1,2.09-.136,12.573,12.573,0,0,1,8.77,4.628,5.055,5.055,0,0,1,1.068,1.8" transform="translate(3.307 4.721)" fill="#ff725e"/>
            <path id="Trazado_654609" data-name="Trazado 654609" d="M30.689,108.426c-1.378.2-18.463,7.032-20.836,11.339-1.2,2.184-4.961,33.618-4.961,33.618l20.48.788s-4.135,34.113-3.15,37.07c0,0-1.85,9.351-2.493,11.225-1.448,4.216-4,24.977-4,24.977s69.513.938,69.118.347-1.777-21.109-1.777-21.109l-2.135-86.426-12.6-11.916-11.645-.9Z" transform="translate(0.384 8.434)" fill="#0083d3"/>
            <path id="Trazado_654610" data-name="Trazado 654610" d="M5.773,152.614a1.636,1.636,0,0,1,.434-.03H7.46l4.7.081,16.312.445-.273.264c.013-3.46-.1-7.236-.346-11.167-.152-2.331-.34-4.605-.569-6.8q-.184-1.64-.362-3.223a26.05,26.05,0,0,0-.485-3.047,43.656,43.656,0,0,0-1.627-5.472,9.152,9.152,0,0,0-3.04-3.763,10.4,10.4,0,0,0-6.738-1.933,19.5,19.5,0,0,0-2.6.452,7.667,7.667,0,0,1,2.586-.67A10.417,10.417,0,0,1,22,119.582a9.492,9.492,0,0,1,3.237,3.9,42.551,42.551,0,0,1,1.705,5.54,26.019,26.019,0,0,1,.512,3.1q.186,1.585.377,3.232c.238,2.2.43,4.479.582,6.818.248,3.941.351,7.739.316,11.2l0,.276-.271-.011-16.307-.647-4.694-.234-1.25-.084a1.6,1.6,0,0,1-.43-.059" transform="translate(0.453 9.24)" fill="#263238"/>
            <path id="Trazado_654611" data-name="Trazado 654611" d="M83.3,103.205l14.822,17.936L81.46,131.609l-18.91-18.4,1.251-4.535Z" transform="translate(4.91 8.102)" fill="#0083d3"/>
            <g id="Grupo_947567" data-name="Grupo 947567" transform="translate(23.126 137.986)" opacity="0.3">
              <g id="Grupo_947566" data-name="Grupo 947566">
                <g id="Grupo_947565" data-name="Grupo 947565" clip-path="url(#clip-path-7)">
                  <path id="Trazado_654612" data-name="Trazado 654612" d="M25.2,127.942l1.9,20.789a5.472,5.472,0,0,1-.4,3.346c-.591.978-2.146,1.427-2.877.548l-2.371,24.182a86.049,86.049,0,0,0,6.047-18.6,52.7,52.7,0,0,0,.936-6.289c.645-8.077-1.3-16.112-3.229-23.981" transform="translate(-21.443 -127.942)"/>
                </g>
              </g>
            </g>
            <path id="Trazado_654613" data-name="Trazado 654613" d="M9.78,225.991a8.986,8.986,0,0,1,2.807,5.756,15.1,15.1,0,0,0,.247,2.6c.388,1.457,1.543,2.585,2.105,3.984a2.871,2.871,0,0,1,.179,1.878,1.533,1.533,0,0,1-1.387,1.134,1.874,1.874,0,0,1-1.276-.676c-1.3-1.382-1.523-3.556-2.9-4.859" transform="translate(0.75 17.741)" fill="#ffbe9d"/>
            <path id="Trazado_654614" data-name="Trazado 654614" d="M9.552,235.808c.018-.023.321.174.711.683a13.922,13.922,0,0,1,1.27,2.341,6.988,6.988,0,0,0,.937,1.5c.385.468.978.9,1.545.715a1.493,1.493,0,0,0,.912-1.58,4.9,4.9,0,0,0-.846-2.167,17.118,17.118,0,0,1-1.269-2.184,6.048,6.048,0,0,1-.432-2.361A9.507,9.507,0,0,0,11.676,229a14.133,14.133,0,0,0-1.9-3.01c.022-.025.313.173.754.629a8.335,8.335,0,0,1,1.5,2.222,9.369,9.369,0,0,1,.86,3.887,5.647,5.647,0,0,0,.422,2.165A17.886,17.886,0,0,0,14.562,237a5.328,5.328,0,0,1,.917,2.432,2.014,2.014,0,0,1-1.311,2.1,1.565,1.565,0,0,1-1.235-.176,2.916,2.916,0,0,1-.819-.734,7.07,7.07,0,0,1-.94-1.627,19.432,19.432,0,0,0-1.091-2.387c-.318-.525-.563-.771-.53-.806" transform="translate(0.75 17.741)" fill="#eb996e"/>
            <path id="Trazado_654615" data-name="Trazado 654615" d="M8.028,150.108s-3.782,21.637-3.97,23.522S.67,234.136.67,234.136s-1.506,13.007,0,15.646A6.793,6.793,0,0,0,6.1,253.175c1.163,0,7.312-4.1,7.312-4.1l-1.856-14.426-1.022-2.706,1.812-9.549,10.985-49.222,2.431-22.355Z" transform="translate(0 11.784)" fill="#ffbe9d"/>
            <path id="Trazado_654616" data-name="Trazado 654616" d="M4.207,224.734A11.206,11.206,0,0,1,5.582,236.14l6.967.887a1.554,1.554,0,0,1,1.057.423,1.06,1.06,0,0,1-.266,1.4,3.018,3.018,0,0,1-1.471.528q-2.881.485-5.784.823" transform="translate(0.33 17.642)" fill="#ffbe9d"/>
            <path id="Trazado_654617" data-name="Trazado 654617" d="M6.085,240.205a4.628,4.628,0,0,1,1.125-.271c.727-.137,1.783-.318,3.087-.53.642-.118,1.388-.191,2.11-.367a1.692,1.692,0,0,0,.9-.5.789.789,0,0,0,.12-.888c-.157-.246-.573-.321-1.025-.368l-1.391-.169-2.925-.367-2.54-.328-.372-.049.155-.342a11.283,11.283,0,0,0,.369-8.213,19.572,19.572,0,0,0-1.493-3.077,2.857,2.857,0,0,1,.618.693,9.824,9.824,0,0,1,1.215,2.261,11.235,11.235,0,0,1-.207,8.568l-.216-.39,2.541.319,2.923.379,1.39.183a1.83,1.83,0,0,1,1.386.61,1.276,1.276,0,0,1-.165,1.487,2.128,2.128,0,0,1-1.171.645c-.8.171-1.5.212-2.165.308-1.317.162-2.382.284-3.12.354a4.534,4.534,0,0,1-1.152.054" transform="translate(0.33 17.642)" fill="#eb996e"/>
            <path id="Trazado_654618" data-name="Trazado 654618" d="M12.94,242.193a3.229,3.229,0,0,0,1.5-.641,1.113,1.113,0,0,0,.206-1.481c-.407-.458-2.093.064-2.678.247a9.01,9.01,0,0,0,2.014-.975.922.922,0,0,0,.159-1.124,1.133,1.133,0,0,0-1.221-.333,26.656,26.656,0,0,1-6.975,1.29" transform="translate(0.467 18.671)" fill="#ffbe9d"/>
            <path id="Trazado_654619" data-name="Trazado 654619" d="M5.948,239.2c0-.083,1-.125,2.589-.442.793-.155,1.732-.372,2.763-.654.523-.143,1.036-.3,1.623-.479a1.5,1.5,0,0,1,1.069.126,1.032,1.032,0,0,1,.554,1.033,1.323,1.323,0,0,1-.443.853,3.854,3.854,0,0,1-.705.4c-.456.212-.9.388-1.333.548l-.173-.5a5.759,5.759,0,0,1,2.519-.36.783.783,0,0,1,.54.441,1.136,1.136,0,0,1,.092.6,1.471,1.471,0,0,1-.445.887,2.381,2.381,0,0,1-1.2.538c-.293.051-.453.054-.461.025s.142-.092.413-.194a2.6,2.6,0,0,0,1.011-.6,1.15,1.15,0,0,0,.288-.689c.012-.259-.106-.551-.345-.567a5.927,5.927,0,0,0-2.255.429.265.265,0,0,1-.333-.174.272.272,0,0,1,.161-.329c.414-.163.851-.344,1.281-.551a3.515,3.515,0,0,0,.588-.336.789.789,0,0,0,.241-.479c.086-.42-.489-.684-.932-.567-.534.16-1.107.318-1.625.445a26.786,26.786,0,0,1-2.829.546,7.122,7.122,0,0,1-2.654.05" transform="translate(0.467 18.651)" fill="#eb996e"/>
            <g id="Grupo_947570" data-name="Grupo 947570" transform="translate(20.112 210.901)" opacity="0.3">
              <g id="Grupo_947569" data-name="Grupo 947569">
                <g id="Grupo_947568" data-name="Grupo 947568" clip-path="url(#clip-path-8)">
                  <path id="Trazado_654620" data-name="Trazado 654620" d="M81.984,199.532,18.648,195.55C37.829,201.6,57.775,206.045,77.876,206.7a33.352,33.352,0,0,0,4.688-.729s-.709-6.749-.58-6.438" transform="translate(-18.648 -195.55)"/>
                </g>
              </g>
            </g>
            <path id="Trazado_654621" data-name="Trazado 654621" d="M20.552,112.108s19.19,7.21,20.874,9.068c4.064,4.482,8.245,10.1,8.245,21.516v42.949a6.468,6.468,0,0,1-6.721,6.468l-21.808-.867a26.324,26.324,0,0,0-2.493,11.225s26.568,3.7,38.906,5.782,26.938-.542,26.938-.542l-4.643-87.449L59.215,107.83l-3.613-.39s2.354,2.74.063,4.3C52.576,113.847,42,113.057,42,113.057L28.231,108.84Z" transform="translate(1.464 8.434)" fill="#263238"/>
            <path id="Trazado_654622" data-name="Trazado 654622" d="M55.078,113.144A12.669,12.669,0,0,0,49.2,124.609c.973,18.835,3.822,73.678,4.011,74.244.228.684,11.623,8.232,18.681,9.02,4.436.5,14.709-.869,21.726-1.952a8.592,8.592,0,0,0,7.271-8.367l.177-11.284s4.572-1.768,4.761-2.241c.557-1.4.315-13.8.134-20.716a7.529,7.529,0,0,0-4.255-6.588l-2.029-.978s0-22.953-.5-35.151a10.379,10.379,0,0,0-10.693-9.952c-6.939.222-31.074,1.087-33.324,2.453l-.08.049" transform="translate(3.861 8.685)" fill="#455a64"/>
            <path id="Trazado_654623" data-name="Trazado 654623" d="M94.875,113.18a1.3,1.3,0,0,1-.307.033l-.9.044-3.476.141-5.5.269c-2.141.135-4.58.274-7.243.669a58.936,58.936,0,0,0-8.658,1.521,10.019,10.019,0,0,0-4.187,2.263c-1.237,1.107-1.667,2.831-2.022,4.551a50.56,50.56,0,0,0-.727,11.1c.123,3.886.25,7.908.381,12.027.481,16.47.917,31.376,1.233,42.214.131,5.371.235,9.731.31,12.794.024,1.48.042,2.643.056,3.479v.906a1.258,1.258,0,0,1-.019.308,1.233,1.233,0,0,1-.038-.306c-.015-.236-.033-.533-.056-.9-.039-.836-.093-2-.161-3.476-.118-3.062-.284-7.419-.489-12.788-.358-10.835-.852-25.737-1.4-42.2-.127-4.12-.25-8.142-.37-12.026a50.56,50.56,0,0,1,.77-11.223,16.45,16.45,0,0,1,.714-2.589,8,8,0,0,1,.612-1.2,6.765,6.765,0,0,1,.857-1.014,10.446,10.446,0,0,1,4.4-2.355,57.862,57.862,0,0,1,8.739-1.468c2.688-.373,5.137-.485,7.281-.59s3.995-.143,5.507-.174l3.48-.036.906.012a1.219,1.219,0,0,1,.308.024" transform="translate(4.809 8.882)" fill="#263238"/>
            <path id="Trazado_654624" data-name="Trazado 654624" d="M98.8,152.945c.013.154-8.093.932-18.1,1.735s-18.136,1.331-18.149,1.177,8.092-.932,18.1-1.736,18.134-1.33,18.147-1.176" transform="translate(4.91 12.005)" fill="#263238"/>
            <path id="Trazado_654625" data-name="Trazado 654625" d="M102.812,156.295a3.775,3.775,0,0,1-.684.113l-1.983.233-7.4.778L67.405,159.9l.245-.308c.468,3.418.218,7.045.395,10.717a19.4,19.4,0,0,0,2.249,8.833,9.521,9.521,0,0,0,6.551,4.91,22.246,22.246,0,0,0,3.98.343l3.814.032c2.459,0,4.748-.071,6.826-.258a32.474,32.474,0,0,0,9.6-2.153c.545-.209,1.012-.434,1.415-.631a11.237,11.237,0,0,0,1.012-.518,5.738,5.738,0,0,1,.839-.428,16.6,16.6,0,0,1-3.18,1.777,31.225,31.225,0,0,1-9.645,2.348c-2.092.212-4.395.306-6.861.328l-3.822,0a22.529,22.529,0,0,1-4.075-.33,9.4,9.4,0,0,1-3.973-1.729,11.246,11.246,0,0,1-2.954-3.415,19.85,19.85,0,0,1-2.332-9.078c-.177-3.722.074-7.327-.375-10.674l-.038-.283.284-.026,25.351-2.286,7.42-.618,1.993-.141a3.737,3.737,0,0,1,.692-.016" transform="translate(5.265 12.269)" fill="#263238"/>
            <path id="Trazado_654626" data-name="Trazado 654626" d="M66.171,112.232a15.35,15.35,0,0,0-3.328,1.62,16.482,16.482,0,0,0-5.978,7.918c-1.553,3.995-1.786,9.177-1.47,14.821.294,5.678.618,11.911.958,18.454.634,13.078,1.208,24.913,1.626,33.541.179,4.254.326,7.713.428,10.167q.057,1.744.088,2.765a6.173,6.173,0,0,1-.008.966,6.24,6.24,0,0,1-.106-.961q-.071-1.019-.193-2.76c-.147-2.45-.353-5.908-.607-10.158-.461-8.626-1.093-20.458-1.79-33.532-.325-6.545-.633-12.78-.915-18.46-.288-5.661-.017-10.926,1.617-14.987a16.406,16.406,0,0,1,6.229-7.959,12.028,12.028,0,0,1,2.509-1.2l.7-.19a.8.8,0,0,1,.242-.045" transform="translate(4.3 8.81)" fill="#263238"/>
            <path id="Trazado_654627" data-name="Trazado 654627" d="M104.723,160.256c.018.154-8.27,1.268-18.509,2.488s-18.56,2.085-18.578,1.931,8.269-1.268,18.511-2.488,18.558-2.085,18.576-1.931" transform="translate(5.31 12.579)" fill="#263238"/>
            <path id="Trazado_654628" data-name="Trazado 654628" d="M73.888,135.518l15.436-1.705V126.48l-4.771,4.9L83.8,128.2l-4.734,3.777v-2.841Z" transform="translate(5.8 9.929)" fill="#fff"/>
            <g id="Grupo_947573" data-name="Grupo 947573" transform="translate(73.828 187.929)" opacity="0.3">
              <g id="Grupo_947572" data-name="Grupo 947572">
                <g id="Grupo_947571" data-name="Grupo 947571" clip-path="url(#clip-path-9)">
                  <path id="Trazado_654629" data-name="Trazado 654629" d="M100.244,181.227A71.646,71.646,0,0,1,75.1,182.42c-3.438-.523-5.641-4.837-6.65-8.17.3,3.662.121,10.922,2.994,13.207a10.518,10.518,0,0,0,7.227,2.415A66.867,66.867,0,0,0,93.957,187.8a11.53,11.53,0,0,0,4.653-2.032,4.445,4.445,0,0,0,1.634-4.545" transform="translate(-68.454 -174.25)"/>
                </g>
              </g>
            </g>
          </g>
        </g>
      </g>
    </g>
  </g>
</svg>
