<svg xmlns="http://www.w3.org/2000/svg" xmlns:xlink="http://www.w3.org/1999/xlink" width="55" height="55" viewBox="0 0 55 55">
  <defs>
    <clipPath id="clip-path">
      <rect id="Rectángulo_336200" data-name="Rectángulo 336200" width="41.093" height="39.194" transform="translate(0 0)" fill="none"/>
    </clipPath>
  </defs>
  <g id="Grupo_154217" data-name="Grupo 154217" transform="translate(-285 -1924)">
    <circle id="Elipse_4813" data-name="Elipse 4813" cx="27.5" cy="27.5" r="27.5" transform="translate(285 1924)" fill="#4d793f"/>
    <g id="Grupo_947822" data-name="Grupo 947822" transform="translate(291.628 1930.738)">
      <g id="Grupo_947821" data-name="Grupo 947821" transform="translate(0 0.001)" clip-path="url(#clip-path)">
        <path id="Trazado_655631" data-name="Trazado 655631" d="M0,23.682c.621-2.387,2.133-4.32,3.315-6.414C6.018,12.48,8.8,7.739,11.546,2.975a5.64,5.64,0,0,1,9.867-.127c1.722,2.956,3.426,5.925,5.137,8.888q1.3,2.249,2.593,4.5a1.023,1.023,0,0,0,.416.4,8.606,8.606,0,0,1,4.585,6.515,8.231,8.231,0,0,1-.954,5.293.441.441,0,0,0,.111.664,10.219,10.219,0,0,1,.863.836,1.249,1.249,0,0,0,1.221.548,1.053,1.053,0,0,1,.884.4c1.458,1.414,2.92,2.825,4.369,4.249a1.351,1.351,0,0,1,.024,2c-.5.536-1.012,1.066-1.533,1.585a1.376,1.376,0,0,1-2.062,0C35.646,37.356,34.23,35.974,32.8,34.6a1.4,1.4,0,0,1-.452-1.516.3.3,0,0,0-.118-.368c-.425-.406-.855-.808-1.265-1.23-.15-.155-.24-.159-.417-.034a8.7,8.7,0,0,1-11.334-1.078.783.783,0,0,0-.622-.264c-4.251.007-8.5-.023-12.752.014A5.679,5.679,0,0,1,.284,26.3,4.427,4.427,0,0,0,0,25.366Z" transform="translate(0 0)" fill="#fff"/>
        <path id="Trazado_655632" data-name="Trazado 655632" d="M27.937,19.326A8.723,8.723,0,0,0,21.69,23.48c-.108.175-.167.2-.351.071a1.958,1.958,0,0,0-2.38.009,2.013,2.013,0,0,0,1.21,3.626c.257,0,.3.04.274.3a9.017,9.017,0,0,0,.173,2.359c-.1.005-.194.014-.287.014H9.46a1.754,1.754,0,0,1-1.738-.979,1.78,1.78,0,0,1,.132-1.783q2.775-4.786,5.534-9.582,2.588-4.481,5.177-8.961a1.737,1.737,0,0,1,3.2.006Q24.784,13.78,27.8,19.005c.057.1.15.188.142.321" transform="translate(-3.642 -3.62)" fill="#4d793f"/>
        <path id="Trazado_655633" data-name="Trazado 655633" d="M28.566,17.026a7.535,7.535,0,0,0-1.372-.163c-.234.01-.272-.184-.354-.325q-2.95-5.1-5.9-10.2c-.193-.334-.381-.672-.58-1a3.015,3.015,0,0,0-5.288.025Q11.294,11.864,7.542,18.39c-1.1,1.9-2.2,3.8-3.292,5.709a3.021,3.021,0,0,0,2.113,4.6,3.7,3.7,0,0,0,.679.034q5.594,0,11.188,0c.26,0,.4.053.493.317a8.45,8.45,0,0,0,.45.927c-.1.089-.212.048-.311.048q-5.975,0-11.95,0A4.331,4.331,0,0,1,3.159,23.4q3.1-5.359,6.194-10.723C10.9,10,12.426,7.313,13.991,4.649a4.3,4.3,0,0,1,6.5-1.155,4.182,4.182,0,0,1,.973,1.161Q25,10.775,28.532,16.9a.74.74,0,0,1,.033.129" transform="translate(-1.203 -1.203)" fill="#4d793f"/>
        <path id="Trazado_655634" data-name="Trazado 655634" d="M35.013,40.178a7.407,7.407,0,1,1,7.379,7.436,7.4,7.4,0,0,1-7.379-7.436" transform="translate(-16.914 -15.831)" fill="#4d793f"/>
        <path id="Trazado_655635" data-name="Trazado 655635" d="M66.68,61.453c.066.054.131.1.187.152q2.1,2.039,4.2,4.077c.124.119.131.19.007.316q-.706.711-1.391,1.443c-.14.149-.221.117-.352-.01Q67.25,65.4,65.158,63.384c-.118-.114-.2-.2-.041-.358.483-.481.953-.974,1.429-1.462.037-.037.081-.067.133-.111" transform="translate(-31.414 -29.686)" fill="#4d793f"/>
        <path id="Trazado_655636" data-name="Trazado 655636" d="M61.935,57.852c.067.055.118.093.163.136.41.4.81.806,1.233,1.189.256.232,0,.311-.1.423s-.2.34-.427.1c-.365-.386-.763-.74-1.139-1.115-.066-.066-.229-.118-.153-.237a4.573,4.573,0,0,1,.425-.5" transform="translate(-29.704 -27.947)" fill="#4d793f"/>
        <path id="Trazado_655637" data-name="Trazado 655637" d="M31.295,40.351a.7.7,0,1,1-.723.7.709.709,0,0,1,.723-.7" transform="translate(-14.768 -19.493)" fill="#4d793f"/>
        <path id="Trazado_655638" data-name="Trazado 655638" d="M31.961,21.964c-.054,1.281-.1,2.563-.168,3.844a1.7,1.7,0,0,1-3.377.085c-.079-.9-.1-1.814-.134-2.721-.062-1.575-.121-3.151-.17-4.726-.04-1.294.735-1.97,2.2-1.941a1.767,1.767,0,0,1,1.77,2.015c-.028.573-.041,1.148-.066,1.722s-.054,1.148-.081,1.721Z" transform="translate(-13.58 -7.972)" fill="#fff"/>
        <path id="Trazado_655639" data-name="Trazado 655639" d="M43.391,34.794a6.376,6.376,0,1,1-6.411,6.359,6.384,6.384,0,0,1,6.411-6.359" transform="translate(-17.864 -16.808)" fill="#fff"/>
        <path id="Trazado_655640" data-name="Trazado 655640" d="M31.881,23.195c-.045,1.2-.1,2.4-.132,3.6-.009.3-.1.513-.421.51s-.394-.233-.4-.523c-.08-2.376-.169-4.752-.255-7.127-.018-.5.077-.589.612-.592.651,0,.719.053.718.566,0,1.188,0,2.377,0,3.565h-.117" transform="translate(-14.814 -9.21)" fill="#4d793f"/>
        <path id="Trazado_655641" data-name="Trazado 655641" d="M39.545,42.36a5.066,5.066,0,1,1,5.043,5.086,5.088,5.088,0,0,1-5.043-5.086" transform="translate(-19.103 -18.008)" fill="#4d793f"/>
      </g>
    </g>
  </g>
</svg>
