<svg xmlns="http://www.w3.org/2000/svg" xmlns:xlink="http://www.w3.org/1999/xlink" width="55" height="55" viewBox="0 0 55 55">
  <defs>
    <clipPath id="clip-path">
      <rect id="Rectángulo_336202" data-name="Rectángulo 336202" width="38.639" height="42.998" fill="none"/>
    </clipPath>
  </defs>
  <g id="Grupo_154216" data-name="Grupo 154216" transform="translate(-285 -1990)">
    <circle id="Elipse_4814" data-name="Elipse 4814" cx="27.5" cy="27.5" r="27.5" transform="translate(285 1990)" fill="#4d793f"/>
    <g id="Grupo_947826" data-name="Grupo 947826" transform="translate(294 1996)">
      <g id="Grupo_947825" data-name="Grupo 947825" clip-path="url(#clip-path)">
        <path id="Trazado_655662" data-name="Trazado 655662" d="M11.169,43a1.15,1.15,0,0,1-.52-1.163,36.348,36.348,0,0,0,.126-4.943A18.544,18.544,0,0,0,8.5,28.846c-.678-1.231-1.4-2.441-1.97-3.728a14.428,14.428,0,0,1-1.184-6.234c0-.221,0-.442,0-.664-1.076.317-1.076.317-1.926-.534L2,16.261a.843.843,0,0,1-.183-1.1.514.514,0,0,1,.036-.075A1.77,1.77,0,0,0,1.9,12.914a.432.432,0,0,0-.286-.261c-.321-.088-.634-.205-.949-.314a.847.847,0,0,1-.658-.9c0-.909.006-1.819,0-2.728a.862.862,0,0,1,.592-.868.291.291,0,0,1,.08-.024,1.766,1.766,0,0,0,1.6-1.47.546.546,0,0,0-.006-.466c-.165-.291-.3-.6-.454-.894a.837.837,0,0,1,.169-1.068c.651-.654,1.3-1.309,1.959-1.959A.825.825,0,0,1,4.972,1.8a.436.436,0,0,1,.073.041,1.785,1.785,0,0,0,2.173.067c.137-.08.246-.135.292-.31.084-.321.2-.635.313-.949A.844.844,0,0,1,8.732,0q1.343,0,2.686,0a.851.851,0,0,1,.915.64c.009.026.009.055.017.081.391,1.133.393,1.127,1.547,1.578a.37.37,0,0,0,.347-.029c.322-.166.645-.33.971-.488a.791.791,0,0,1,.965.146A23.3,23.3,0,0,1,18.205,4a.978.978,0,0,0,1,.4,16.06,16.06,0,0,1,14.6,7.22A9.86,9.86,0,0,1,35.494,16.8a8.51,8.51,0,0,1-.252,2.576,1.3,1.3,0,0,0,.219,1.131c.865,1.318,1.716,2.645,2.572,3.969a3.047,3.047,0,0,1,.555,2.3,2.6,2.6,0,0,1-2.266,2.1c-.464.094-.927.193-1.392.281-.224.042-.307.138-.3.388.013,1.273-.006,2.546-.006,3.82a4.713,4.713,0,0,1-4.778,4.572,10.948,10.948,0,0,0-2.168.172A1.794,1.794,0,0,0,26.2,39.535a8.789,8.789,0,0,0-.249,2.367,1.062,1.062,0,0,1-.594,1.1Z" transform="translate(0 0)" fill="#fff"/>
        <path id="Trazado_655663" data-name="Trazado 655663" d="M27.359,14.444a11.833,11.833,0,0,1,4.03-.164,14.747,14.747,0,0,1,7.987,3.529,10.69,10.69,0,0,1,3.709,5.919,7.473,7.473,0,0,1-.07,3.528,2.547,2.547,0,0,0,.4,2.179q1.312,2.018,2.616,4.04a3.5,3.5,0,0,1,.195.322.959.959,0,0,1-.747,1.545c-.763.159-1.527.315-2.288.486a.868.868,0,0,0-.8.993c0,1.413-.061,2.83.014,4.239a3.092,3.092,0,0,1-3.233,3.307,9.023,9.023,0,0,0-2.291.2A3.535,3.535,0,0,0,33.9,47.754c-.074.482-.131.968-.162,1.455-.013.208-.079.248-.27.248q-5.688-.008-11.375,0c-.275,0-.233-.132-.229-.307.037-1.426.1-2.849.037-4.279a20.4,20.4,0,0,0-2.475-8.859A39.853,39.853,0,0,1,17.5,32.5a13.129,13.129,0,0,1-.972-6.122.406.406,0,0,1,.456.35c.075.281.2.55.275.831a.858.858,0,0,0,.762.723c.2.019.162.145.174.263a11.2,11.2,0,0,0,1.468,4.578,3.779,3.779,0,0,0,3.774,2.119A3.924,3.924,0,0,0,26.677,32.1a6.08,6.08,0,0,0,.181-1.45,3.012,3.012,0,0,1,.655-1.9.83.83,0,0,0-.113-1.284.841.841,0,0,0-1.234.263,4.416,4.416,0,0,0-1,2.821,4.039,4.039,0,0,1-.412,1.86,1.885,1.885,0,0,1-1.671,1.15,1.959,1.959,0,0,1-1.777-1,9.686,9.686,0,0,1-1.423-4.27c.336,0,.669,0,1,0a.853.853,0,0,0,.909-.648c.009-.026.009-.055.018-.082.4-1.149.4-1.144,1.551-1.576a.381.381,0,0,1,.348.041c.324.163.645.33.972.486a.792.792,0,0,0,.964-.156q1.019-1,2.02-2.017a.822.822,0,0,0,.158-1,.668.668,0,0,0-.06-.11,1.654,1.654,0,0,1-.111-2.02c.138-.224.232-.41.5-.478a8.337,8.337,0,0,0,.833-.267.854.854,0,0,0,.627-.885c-.011-.588,0-1.175-.006-1.763,0-.176.009-.288.238-.277a10.611,10.611,0,0,1,6.26,2.133,2.718,2.718,0,0,1,.456.489,1.574,1.574,0,0,1-.821,2.666c-.833.268-1.676.51-2.515.759a.851.851,0,1,0,.415,1.65c.922-.263,1.849-.518,2.753-.835a3.225,3.225,0,0,0,1.626-5.118,7.348,7.348,0,0,0-3.5-2.481,12.285,12.285,0,0,0-5.439-.924,4.021,4.021,0,0,1-1.208-.279c-.118-.027-.122-.146-.157-.231-.122-.3-.234-.594-.362-.923" transform="translate(-9.46 -8.134)" fill="#4d793f"/>
        <path id="Trazado_655664" data-name="Trazado 655664" d="M12.32,20.738c-.779,0-.81.009-1.02-.747a1.293,1.293,0,0,0-1.071-1.023,3.807,3.807,0,0,1-1.223-.521,1.1,1.1,0,0,0-1.213-.015c-.8.428-.81.412-1.43-.208-.521-.521-.546-.534-.174-1.192a1.289,1.289,0,0,0-.012-1.477,3.875,3.875,0,0,1-.5-1.232,1.145,1.145,0,0,0-.877-.9c-.858-.255-.852-.274-.852-1.158,0-.723-.006-.744.681-.938A1.346,1.346,0,0,0,5.72,10.214a3.536,3.536,0,0,1,.5-1.186,1.126,1.126,0,0,0,.026-1.25c-.426-.789-.407-.8.222-1.428C6.984,5.835,7,5.8,7.628,6.17a1.335,1.335,0,0,0,1.551-.023,3.617,3.617,0,0,1,1.156-.464,1.17,1.17,0,0,0,.93-.9c.244-.848.269-.841,1.166-.841.707,0,.738-.008.929.693A1.348,1.348,0,0,0,14.48,5.717a3.445,3.445,0,0,1,1.146.489,1.15,1.15,0,0,0,1.288.033c.78-.422.792-.4,1.426.234.5.505.533.521.167,1.16a1.3,1.3,0,0,0,.015,1.514,3.72,3.72,0,0,1,.5,1.233,1.111,1.111,0,0,0,.85.872c.874.267.87.281.87,1.187,0,.7.007.729-.661.913a1.362,1.362,0,0,0-1.118,1.135,3.322,3.322,0,0,1-.488,1.146,1.146,1.146,0,0,0-.023,1.288c.421.767.4.779-.217,1.395-.527.528-.544.556-1.191.185a1.3,1.3,0,0,0-1.514.024,3.958,3.958,0,0,1-1.272.512,1.018,1.018,0,0,0-.8.76c-.016.053-.025.109-.043.162-.262.78-.262.78-1.091.78" transform="translate(-2.264 -2.261)" fill="#4d793f"/>
        <path id="Trazado_655665" data-name="Trazado 655665" d="M46.882,41.291a.807.807,0,0,1-.851-.824.847.847,0,0,1,.831-.86.88.88,0,0,1,.863.842.827.827,0,0,1-.843.842" transform="translate(-26.406 -22.721)" fill="#fff"/>
        <path id="Trazado_655666" data-name="Trazado 655666" d="M17.974,22.2a4.188,4.188,0,0,1-4.181-4.176,4.2,4.2,0,1,1,8.4.035A4.187,4.187,0,0,1,17.974,22.2" transform="translate(-7.912 -7.919)" fill="#fff"/>
        <path id="Trazado_655667" data-name="Trazado 655667" d="M22.771,20.23a2.516,2.516,0,1,1-5.033-.019,2.516,2.516,0,0,1,5.033.019" transform="translate(-10.175 -10.173)" fill="#4d793f"/>
      </g>
    </g>
  </g>
</svg>
