<svg xmlns="http://www.w3.org/2000/svg" xmlns:xlink="http://www.w3.org/1999/xlink" width="52.887" height="55.92" viewBox="0 0 52.887 55.92">
  <defs>
    <clipPath id="clip-path">
      <rect id="Rectángulo_336193" data-name="Rectángulo 336193" width="52.887" height="55.92" fill="none"/>
    </clipPath>
  </defs>
  <g id="Grupo_947781" data-name="Grupo 947781" transform="translate(0 0)">
    <g id="Grupo_947780" data-name="Grupo 947780" transform="translate(0 0)" clip-path="url(#clip-path)">
      <path id="Trazado_655524" data-name="Trazado 655524" d="M31.257,0a5.054,5.054,0,0,1,2.3,1.558q3.456,3.491,6.925,6.968a4.041,4.041,0,0,1,1.261,3.062c-.038,4.948-.013,9.9-.021,14.845a1.9,1.9,0,0,0,.255.973,11.43,11.43,0,0,1,0,11.8c-.226.4-.234.634.118.951.607.547,1.17,1.144,1.738,1.733a.721.721,0,0,0,.663.263,1.6,1.6,0,0,1,1.368.533c2.147,2.148,4.3,4.29,6.443,6.447a1.675,1.675,0,0,1-.017,2.552c-.711.73-1.435,1.447-2.16,2.162a1.61,1.61,0,0,1-2.561,0q-2.725-2.715-5.443-5.439c-.1-.1-.19-.211-.361-.4a12.427,12.427,0,0,1-.081,1.441,3.253,3.253,0,0,1-3.362,2.8c-.391.007-.537.063-.564.514a3.2,3.2,0,0,1-3.4,3.138c-10.315,0-20.631-.021-30.945.021A3.4,3.4,0,0,1,0,52.536Q.043,29.913,0,7.291A3.291,3.291,0,0,1,3.38,3.9c.473.023.608-.094.6-.586A3.191,3.191,0,0,1,6.4.1.956.956,0,0,0,6.583,0Z" transform="translate(0 0)" fill="#e6571e"/>
      <path id="Trazado_655525" data-name="Trazado 655525" d="M44.317,26.273A11.455,11.455,0,0,0,40.09,23.3a11.763,11.763,0,0,0-6.729-.632,4.638,4.638,0,0,1-.869.059q-6.387.005-12.773,0c-.741,0-1.026.164-1.041.593s.268.6,1.012.6h9.938c.024.149-.1.167-.185.219a10.041,10.041,0,0,0-2.9,2.525.71.71,0,0,1-.65.286c-2.129-.009-4.258,0-6.387-.01-.429,0-.776.072-.821.57-.036.4.273.626.835.626q2.675.005,5.35,0h.589a12.529,12.529,0,0,0-1.151,2.741c-.071.271-.274.234-.472.234-1.437,0-2.875,0-4.313,0a.777.777,0,0,0-.7.222.559.559,0,0,0-.094.61.583.583,0,0,0,.606.362c1.365-.007,2.73.017,4.094-.014.431-.01.537.108.443.511a7.723,7.723,0,0,0-.07,2.012c.013.4-.072.529-.5.519-1.291-.031-2.584-.012-3.876-.01-.3,0-.581.039-.7.384-.165.455.117.8.709.81,1.328.013,2.657.028,3.985-.009.451-.013.624.12.717.554a11.751,11.751,0,0,0,.887,2.449H20.841c-.491,0-.983.008-1.474,0-.423-.009-.682.2-.678.6s.276.6.692.6c1.929-.005,3.858.006,5.786-.01a.94.94,0,0,1,.891.438,11.713,11.713,0,0,0,15.565,3.17c.271-.164.431-.188.666.066.655.706,1.594,1.272,1.948,2.1a7.406,7.406,0,0,1,.078,2.753,3.744,3.744,0,0,1-.094,1.19,1.976,1.976,0,0,1-1.656,1.455,4.03,4.03,0,0,1-.651.05q-15.284,0-30.569,0A2.106,2.106,0,0,1,9,50.323a2.6,2.6,0,0,1-.062-.646q0-22.708,0-45.416a2.048,2.048,0,0,1,2.209-2.205q11.6,0,23.2-.012c.462,0,.6.093.6.589-.03,2.62-.014,5.24-.014,7.86,0,.79.152.939.962.94,2.639,0,5.277.009,7.915-.009.412,0,.519.113.518.519-.013,4.731-.009,9.461-.009,14.33" transform="translate(-3.778 -0.864)" fill="#fff"/>
      <path id="Trazado_655526" data-name="Trazado 655526" d="M2.085,33.579c0-7.513.017-15.026-.019-22.539A2.139,2.139,0,0,1,4.413,8.8c.293.021.388.105.356.381a3.233,3.233,0,0,0,0,.382q0,21.366,0,42.732A3.349,3.349,0,0,0,6.85,55.728a4.33,4.33,0,0,0,1.658.245h28.27c.688,0,.851.227.664.921a2.054,2.054,0,0,1-2.163,1.53H6.79c-.836,0-1.673,0-2.51,0a2.007,2.007,0,0,1-2.194-2.2q0-11.325,0-22.649" transform="translate(-0.873 -3.717)" fill="#fff"/>
      <path id="Trazado_655527" data-name="Trazado 655527" d="M58.668,59.617l-1.826,1.792c-.769-.877-1.62-1.7-2.457-2.534a.788.788,0,0,0-1.148-.1,10.568,10.568,0,1,1,4.411-11.049A10.221,10.221,0,0,1,56.2,55.8c-.525.819-.522.858.182,1.559.76.755,1.527,1.5,2.291,2.256" transform="translate(-15.517 -16.683)" fill="#fff"/>
      <path id="Trazado_655528" data-name="Trazado 655528" d="M35.784,31.835h-9a3.233,3.233,0,0,1-.436-.008.595.595,0,0,1,.008-1.181,2.382,2.382,0,0,1,.272,0h18.44a1.709,1.709,0,0,1,.327.008.6.6,0,0,1,.045,1.164,1.855,1.855,0,0,1-.488.021H35.784" transform="translate(-10.918 -12.953)" fill="#e6571e"/>
      <path id="Trazado_655529" data-name="Trazado 655529" d="M17.776,32.093c-.309,0-.618,0-.926,0a1.33,1.33,0,0,1-1.441-1.362,9.966,9.966,0,0,1,0-1.253,1.34,1.34,0,0,1,1.364-1.337c.689-.022,1.38-.023,2.069,0a1.313,1.313,0,0,1,1.329,1.407c.005.381.012.763,0,1.144a1.363,1.363,0,0,1-1.415,1.4c-.327.007-.654,0-.981,0" transform="translate(-6.506 -11.89)" fill="#e6571e"/>
      <path id="Trazado_655530" data-name="Trazado 655530" d="M17.8,42.748c.346,0,.692-.009,1.036,0a1.316,1.316,0,0,1,1.343,1.344c.01.419.016.838,0,1.255a1.34,1.34,0,0,1-1.232,1.358,10.563,10.563,0,0,1-2.339,0,1.212,1.212,0,0,1-1.152-1.117,7.161,7.161,0,0,1-.012-1.63,1.334,1.334,0,0,1,1.43-1.208c.309,0,.618,0,.928,0" transform="translate(-6.51 -18.071)" fill="#e6571e"/>
      <path id="Trazado_655531" data-name="Trazado 655531" d="M17.79,61.249c-.346,0-.691.014-1.036,0a1.306,1.306,0,0,1-1.34-1.291,8.565,8.565,0,0,1,0-1.361,1.336,1.336,0,0,1,1.4-1.3c.671-.01,1.344-.013,2.015,0a1.312,1.312,0,0,1,1.344,1.339c.011.4.013.8,0,1.2a1.368,1.368,0,0,1-1.4,1.414c-.327.014-.653,0-.98,0v0" transform="translate(-6.505 -24.219)" fill="#e6571e"/>
      <path id="Trazado_655532" data-name="Trazado 655532" d="M17.763,75.768c-.309,0-.618,0-.926,0a1.327,1.327,0,0,1-1.425-1.321,9.229,9.229,0,0,1,0-1.307,1.327,1.327,0,0,1,1.32-1.323c.707-.032,1.417-.034,2.124,0a1.313,1.313,0,0,1,1.318,1.42c0,.381.013.763,0,1.144a1.363,1.363,0,0,1-1.426,1.386c-.327,0-.654,0-.981,0" transform="translate(-6.505 -30.351)" fill="#e6571e"/>
      <path id="Trazado_655533" data-name="Trazado 655533" d="M29.841,75.388c-1.073,0-2.146-.007-3.218,0-.432,0-.8-.1-.791-.6s.372-.606.8-.606q3.191,0,6.381,0a1.707,1.707,0,0,1,.272.011.573.573,0,0,1,.548.629.548.548,0,0,1-.61.556H29.841Z" transform="translate(-10.921 -31.364)" fill="#e6571e"/>
      <path id="Trazado_655534" data-name="Trazado 655534" d="M41.225,51.911a8,8,0,1,1,7.934,8.021,8.058,8.058,0,0,1-7.934-8.021" transform="translate(-17.428 -18.556)" fill="#e6571e"/>
      <path id="Trazado_655535" data-name="Trazado 655535" d="M18.7,30.212h.054c1.234,0,1.226,0,1.12,1.262-.02.235-.1.316-.324.313-.578-.008-1.157,0-1.736,0-.183,0-.328-.038-.331-.257,0-.362,0-.723,0-1.085,0-.2.134-.231.294-.231H18.7" transform="translate(-7.391 -12.772)" fill="#fffefe"/>
      <path id="Trazado_655536" data-name="Trazado 655536" d="M18.681,44.816c1.236,0,1.227,0,1.173,1.223-.013.284-.107.388-.382.384q-.817-.013-1.634,0c-.278,0-.37-.114-.386-.391-.071-1.217-.079-1.216,1.228-1.216" transform="translate(-7.368 -18.946)" fill="#fdfdfd"/>
      <path id="Trazado_655537" data-name="Trazado 655537" d="M18.695,59.362h.054c1.232,0,1.224,0,1.129,1.253-.018.229-.085.324-.316.322-.579-.008-1.157,0-1.736,0-.148,0-.319,0-.327-.2-.016-.4-.016-.795,0-1.191.008-.2.188-.182.33-.184.289,0,.578,0,.868,0" transform="translate(-7.392 -25.095)" fill="#fffefe"/>
      <path id="Trazado_655538" data-name="Trazado 655538" d="M18.616,75.461h-.054c-1.256,0-1.249,0-1.127-1.261.022-.232.1-.321.328-.319.579,0,1.158,0,1.737,0,.177,0,.328.033.327.26q0,.542,0,1.085c0,.2-.126.233-.288.232-.307,0-.615,0-.922,0" transform="translate(-7.349 -31.234)" fill="#fffefe"/>
      <path id="Trazado_655539" data-name="Trazado 655539" d="M56.927,52.808a6.81,6.81,0,1,1-6.814-6.85,6.9,6.9,0,0,1,6.814,6.85" transform="translate(-18.308 -19.429)" fill="#fff"/>
      <path id="Trazado_655540" data-name="Trazado 655540" d="M49.216,55.857a.619.619,0,0,1,1.087-.434c.386.434.773.867,1.139,1.317.173.212.279.258.49.029,1.132-1.227,2.289-2.431,3.416-3.663.272-.3.532-.376.835-.127a.531.531,0,0,1,.053.853c-.6.655-1.209,1.3-1.815,1.955-.743.8-1.482,1.6-2.232,2.385-.468.493-.753.479-1.2-.044q-.762-.888-1.512-1.787c-.125-.15-.292-.286-.259-.484" transform="translate(-20.805 -22.335)" fill="#e6571e"/>
    </g>
  </g>
</svg>
