<svg xmlns="http://www.w3.org/2000/svg" xmlns:xlink="http://www.w3.org/1999/xlink" width="55" height="55" viewBox="0 0 55 55">
  <defs>
    <clipPath id="clip-path">
      <rect id="Rectángulo_336199" data-name="Rectángulo 336199" width="46.721" height="32.691" fill="none"/>
    </clipPath>
  </defs>
  <g id="Grupo_947851" data-name="Grupo 947851" transform="translate(-285 -2866)">
    <g id="Grupo_154216" data-name="Grupo 154216" transform="translate(0 876)">
      <circle id="Elipse_4814" data-name="Elipse 4814" cx="27.5" cy="27.5" r="27.5" transform="translate(285 1990)" fill="#4d793f"/>
    </g>
    <g id="Grupo_947820" data-name="Grupo 947820" transform="translate(290 2874)">
      <g id="Grupo_947819" data-name="Grupo 947819" transform="translate(0 0)" clip-path="url(#clip-path)">
        <path id="Trazado_655618" data-name="Trazado 655618" d="M0,21.447a6.184,6.184,0,0,0,.252-1.538A23.221,23.221,0,0,1,4.9,9.051c.055-.072.108-.145.2-.267L3.364,8.307a1.132,1.132,0,0,1-.551-2.017Q4.529,4.555,6.265,2.84A1.14,1.14,0,0,1,8.3,3.422c.149.553.3,1.106.461,1.7a24,24,0,0,1,4.077-2.619c.284-.143.569-.283.862-.405a.661.661,0,0,1,.912.329.651.651,0,0,1-.29.895,11.07,11.07,0,0,1-1.013.5c-.2.09-.212.176-.1.366.864,1.477,1.725,2.957,2.562,4.449.156.277.289.219.5.117a16.226,16.226,0,0,1,14.088-.04c.326.154.476.139.658-.186.792-1.413,1.595-2.821,2.427-4.211.2-.333.109-.434-.186-.579a22.341,22.341,0,0,0-7.535-2.207,22.1,22.1,0,0,0-8.382.7c-.506.142-.894-.03-1-.425-.123-.442.1-.755.64-.911A23.383,23.383,0,0,1,46.145,18.16a21.633,21.633,0,0,1,.575,5.053c-.008.632-.239.869-.886.869q-3.353,0-6.706,0c-.661,0-.882-.228-.9-.908a14.869,14.869,0,0,0-29.2-3.759,15.788,15.788,0,0,0-.547,3.816c-.017.608-.253.849-.863.85-2.251,0-4.5-.006-6.752.008A.978.978,0,0,1,0,23.637v-.73a.93.93,0,0,0,0-.639Z" transform="translate(0 0)" fill="#fff"/>
        <path id="Trazado_655619" data-name="Trazado 655619" d="M0,41.342a.527.527,0,0,1,0,.639Z" transform="translate(0 -19.074)" fill="#18181c"/>
        <path id="Trazado_655620" data-name="Trazado 655620" d="M30.9,42.368c-2.677,0-5.354-.044-8.028.018a1.72,1.72,0,0,1-1.541-2.679c3.421-5.858,6.795-11.743,10.188-17.616a1.666,1.666,0,0,1,3.106,0c3.386,5.865,6.754,11.739,10.168,17.586a1.7,1.7,0,0,1-.951,2.641,4.455,4.455,0,0,1-1.452.023.617.617,0,0,1-.556-.714.63.63,0,0,1,.637-.638c.212-.018.426-.01.638-.011.689,0,.753-.105.419-.685l-4.068-7.041L33.44,22.831c-.307-.532-.436-.529-.75.016l-10.044,17.4c-.387.671-.345.739.452.739H38.88a4.709,4.709,0,0,1,.5.012.628.628,0,0,1,.618.655.656.656,0,0,1-.573.707,1.731,1.731,0,0,1-.41.011H30.9" transform="translate(-9.708 -9.702)" fill="#fff"/>
        <path id="Trazado_655621" data-name="Trazado 655621" d="M76.172,48.265a3.334,3.334,0,1,1-3.327,3.306,3.313,3.313,0,0,1,3.327-3.306" transform="translate(-33.608 -22.268)" fill="#fff"/>
        <path id="Trazado_655622" data-name="Trazado 655622" d="M43.661,33.527c-.1,1.625-.171,3.064-.27,4.5a1.742,1.742,0,0,1-3.459-.012c-.1-1.438-.19-2.877-.259-4.317a2.021,2.021,0,0,1,1.972-2.163,2,2,0,0,1,2.016,1.989" transform="translate(-18.303 -14.551)" fill="#fff"/>
        <path id="Trazado_655623" data-name="Trazado 655623" d="M4.836,48.266a3.317,3.317,0,0,1,3.34,3.575,3.358,3.358,0,0,1-3.56,3.089,3.374,3.374,0,0,1-3.091-3.7.75.75,0,0,1,.763-.742.728.728,0,0,1,.63.848A1.95,1.95,0,1,0,4.5,49.676a.694.694,0,0,1-.825-.4.647.647,0,0,1,.164-.787.822.822,0,0,1,.5-.2c.166-.018.334-.017.5-.024" transform="translate(-0.696 -22.268)" fill="#fff"/>
        <path id="Trazado_655624" data-name="Trazado 655624" d="M43.658,50.324a2.022,2.022,0,1,1-4.044,0,2.022,2.022,0,1,1,4.044,0" transform="translate(-18.277 -22.279)" fill="#fff"/>
        <path id="Trazado_655625" data-name="Trazado 655625" d="M69.93,26.726c-.852,0-1.7-.007-2.554,0-.225,0-.3-.047-.323-.293a16.183,16.183,0,0,0-7.312-12.59c-.228-.156-.263-.249-.123-.487.852-1.449,1.7-2.9,2.52-4.368.163-.29.282-.252.5-.107a22.128,22.128,0,0,1,10.146,17.5c.02.313-.087.351-.348.347-.836-.012-1.672,0-2.508,0" transform="translate(-27.467 -4.048)" fill="#4d793f"/>
        <path id="Trazado_655626" data-name="Trazado 655626" d="M5.452,26.712c-.851,0-1.7,0-2.554,0-.223,0-.315-.037-.3-.3A21.951,21.951,0,0,1,7.524,13.524a.5.5,0,0,1,.644-.217,11.184,11.184,0,0,0,1.272.331A1.092,1.092,0,0,0,10.792,12.4a14.449,14.449,0,0,0-.37-1.448.419.419,0,0,1,.16-.5c.723-.58,1.473-1.12,2.247-1.628.192-.126.263-.1.371.092.857,1.5,1.719,2.994,2.6,4.48.154.261.01.327-.162.443a16.213,16.213,0,0,0-6.9,9.853,14.5,14.5,0,0,0-.4,2.647c-.019.329-.122.392-.423.384-.82-.021-1.642-.007-2.463-.007" transform="translate(-1.198 -4.034)" fill="#4d793f"/>
        <path id="Trazado_655627" data-name="Trazado 655627" d="M11.695,11.741l-3.957-1.06L10.632,7.8l1.063,3.944" transform="translate(-3.57 -3.597)" fill="#4d793f"/>
        <path id="Trazado_655628" data-name="Trazado 655628" d="M77.337,50.825a1.951,1.951,0,1,1-1.949,1.943,1.977,1.977,0,0,1,1.949-1.943" transform="translate(-34.782 -23.449)" fill="#4d793f"/>
        <path id="Trazado_655629" data-name="Trazado 655629" d="M43.432,35.494c-.062,1.151-.129,2.3-.185,3.452-.012.247-.114.436-.356.442-.272.007-.373-.191-.385-.457-.062-1.333-.137-2.665-.2-4-.025-.5.164-.754.557-.762.413-.009.607.25.589.778-.006.182,0,.364,0,.546h-.017" transform="translate(-19.516 -15.765)" fill="#4d793f"/>
        <path id="Trazado_655630" data-name="Trazado 655630" d="M43.459,51.483a.642.642,0,0,1-1.282.036.641.641,0,1,1,1.282-.036" transform="translate(-19.459 -23.457)" fill="#4d793f"/>
      </g>
    </g>
  </g>
</svg>
