<svg xmlns="http://www.w3.org/2000/svg" xmlns:xlink="http://www.w3.org/1999/xlink" width="50.203" height="53.92" viewBox="0 0 50.203 53.92">
  <defs>
    <clipPath id="clip-path">
      <rect id="Rectángulo_336196" data-name="Rectángulo 336196" width="50.203" height="53.92" fill="none"/>
    </clipPath>
  </defs>
  <g id="Grupo_947787" data-name="Grupo 947787" transform="translate(0 0)" opacity="0.5">
    <g id="Grupo_947786" data-name="Grupo 947786" transform="translate(0 0)" clip-path="url(#clip-path)">
      <path id="Trazado_655574" data-name="Trazado 655574" d="M64.462,74.473c-.1-.187-.313-.127-.467-.174a4.805,4.805,0,0,1-2.734-2.007.724.724,0,0,0-.718-.368c-1.193.018-2.386.007-3.58.007-.123,0-.246.006-.368,0a.821.821,0,0,1-.871-.794A.793.793,0,0,1,56.6,70.3c1.14-.017,2.281-.013,3.422,0,.315,0,.494-.022.4-.419a5.2,5.2,0,0,1,.084-1.522H58.7c-1,0-2,0-3,0a.817.817,0,0,1-.892-.769.8.8,0,0,1,.894-.811c1.667-.006,3.335-.013,5,.005a.906.906,0,0,0,.835-.377A4.468,4.468,0,0,1,63.643,64.9a.432.432,0,0,0,.345-.487q-.012-6.923-.008-13.847c0-.643-.126-.757-.785-.757q-6.871,0-13.741,0c-.61,0-.783.168-.783.776q0,9.45,0,18.9c0,.643.163.807.81.81,1.193.006,2.386,0,3.579,0,.123,0,.247-.007.369,0a.792.792,0,0,1,.82.834.775.775,0,0,1-.816.785c-1.439.018-2.88.052-4.316-.014a2.111,2.111,0,0,1-2.028-2.244q0-9.556,0-19.111a2.185,2.185,0,0,1,2.388-2.376q6.87-.006,13.74,0a2.218,2.218,0,0,1,2.391,2.394c0,4.493.009,8.985-.01,13.477,0,.42.11.556.517.623a4.926,4.926,0,0,1,.142,9.714c-.041.009-.073.058-.109.089Z" transform="translate(-20.09 -20.554)" fill="#e6571e"/>
      <path id="Trazado_655575" data-name="Trazado 655575" d="M23.224,26.859a3.268,3.268,0,0,1-1.667-.569c-.992-.64-1.819-.169-2.692.206-.173.074-.212.224-.272.362-.249.576-.5,1.154-.729,1.737a1.785,1.785,0,0,1-1.753,1.184q-1.237.03-2.474,0a1.793,1.793,0,0,1-1.748-1.195c-.183-.452-.381-.9-.568-1.35A2.11,2.11,0,0,0,8.689,26.12c-.486.195-.966.4-1.452.594a1.714,1.714,0,0,1-1.94-.371c-.646-.62-1.282-1.25-1.9-1.9a1.675,1.675,0,0,1-.365-1.893c.189-.469.358-.949.586-1.4a1.624,1.624,0,0,0,.021-1.433A1.983,1.983,0,0,0,2.218,18.3a6.5,6.5,0,0,1-1.205-.5,1.585,1.585,0,0,1-.992-1.433q-.04-1.472,0-2.946a1.6,1.6,0,0,1,1.027-1.464c.635-.288,1.283-.549,1.932-.8a.794.794,0,0,1,1.113.374.808.808,0,0,1-.507,1.105c-.542.24-1.089.468-1.643.678a.452.452,0,0,0-.336.506c.018.719.019,1.44,0,2.159a.442.442,0,0,0,.348.488c.569.218,1.121.482,1.689.7a1.9,1.9,0,0,1,1.12,1.112c1,2.521,1.04,1.751-.058,4.422a.736.736,0,0,0,.193.994,14.08,14.08,0,0,1,1.267,1.262.553.553,0,0,0,.762.165c.565-.271,1.16-.48,1.741-.718a1.524,1.524,0,0,1,1.176-.058c.647.258,1.293.52,1.929.806a1.587,1.587,0,0,1,.791.879c.252.594.511,1.186.741,1.789a.45.45,0,0,0,.5.343c.719-.016,1.439-.018,2.158,0a.454.454,0,0,0,.5-.335c.23-.584.493-1.155.722-1.74a1.831,1.831,0,0,1,1.082-1.073c2.538-1.018,1.772-1.037,4.322.006a.874.874,0,0,0,1.2-.239,14.416,14.416,0,0,1,1.221-1.234.476.476,0,0,0,.128-.64c-.269-.586-.494-1.191-.737-1.789a1.762,1.762,0,0,1,0-1.379c.006-.016.016-.031.023-.047,1.072-2.539.567-2.038,3.191-3.135.415-.174.6-.362.561-.831a12.1,12.1,0,0,1,0-1.789.585.585,0,0,0-.472-.679c-.526-.186-1.035-.419-1.549-.636a3.125,3.125,0,0,1-.374-.189,4.324,4.324,0,0,1-1.329-3.879c.226-.567.443-1.138.69-1.7a.462.462,0,0,0-.1-.606c-.518-.5-1.029-1.006-1.526-1.526a.451.451,0,0,0-.6-.1c-.588.264-1.189.5-1.788.737a1.866,1.866,0,0,1-1.432-.01c-.017-.006-.032-.015-.048-.022C17.206,4.271,17.639,4.8,16.58,2.2c-.194-.476-.423-.686-.953-.634a10.056,10.056,0,0,1-1.683,0,.575.575,0,0,0-.681.475c-.087.282-.276.537-.337.822-.375,1.754-1.859,2.118-3.242,2.586a1.589,1.589,0,0,1-1.128-.128c-.559-.244-1.135-.452-1.691-.7a.479.479,0,0,0-.642.116c-.48.512-.982,1-1.489,1.489a.471.471,0,0,0-.12.605c.25.576.484,1.159.712,1.744.217.557.056,1.029-.389,1.193-.475.175-.861-.035-1.1-.612-.261-.628-.5-1.263-.772-1.888a1.705,1.705,0,0,1,.4-2.019c.591-.6,1.19-1.193,1.786-1.788a1.732,1.732,0,0,1,2.021-.4,5.255,5.255,0,0,1,.821.336,2.253,2.253,0,0,0,2.53-.006,1.127,1.127,0,0,0,.6-.592c.209-.573.467-1.128.709-1.688A1.684,1.684,0,0,1,13.6,0q1.29.009,2.58,0A1.678,1.678,0,0,1,17.81,1.035c.242.5.436,1.027.651,1.543a2.195,2.195,0,0,0,2.558,1.094c.5-.2,1-.413,1.5-.617a1.7,1.7,0,0,1,1.976.39c.613.6,1.224,1.207,1.824,1.824A1.692,1.692,0,0,1,26.727,7.2a5.755,5.755,0,0,1-.365.868,2.319,2.319,0,0,0,0,2.539,1.208,1.208,0,0,0,.638.627c.539.2,1.062.443,1.594.662a1.712,1.712,0,0,1,1.166,1.7q0,1.29,0,2.58a1.711,1.711,0,0,1-1.122,1.676c-.527.23-1.049.48-1.592.666a1.276,1.276,0,0,0-.7.693,2.21,2.21,0,0,0,.009,2.441,5.612,5.612,0,0,1,.4.966,1.624,1.624,0,0,1-.332,1.76c-.658.705-1.349,1.381-2.045,2.049a1.568,1.568,0,0,1-1.15.438" transform="translate(0 -0.001)" fill="#e6571e"/>
      <path id="Trazado_655576" data-name="Trazado 655576" d="M64.869,17.484a4.761,4.761,0,0,1-1.381-.461,1.064,1.064,0,0,0-1.358.558c-.736,1.729-.736,1.729-2.584,1.729-.158,0-.316-.008-.474,0a1.555,1.555,0,0,1-1.684-1.128c-.178-.468-.249-1.026-.889-1.183a.824.824,0,0,0-.687.021,2.117,2.117,0,0,1-3.133-.665c-.144-.2-.35-.345-.51-.53a1.308,1.308,0,0,1-.265-1.415c.115-.292.228-.584.346-.875a1.046,1.046,0,0,0-.594-1.421c-.225-.095-.446-.2-.675-.284a1.386,1.386,0,0,1-.99-1.441c.008-.509.006-1.018,0-1.526a1.384,1.384,0,0,1,.933-1.379c.24-.1.482-.2.723-.3a1.037,1.037,0,0,0,.584-1.456c-.658-1.628-.649-1.674.595-2.917.186-.186.369-.376.559-.557a1.365,1.365,0,0,1,1.543-.327c.244.1.484.2.725.3a1.045,1.045,0,0,0,1.55-.652c.1-.241.192-.487.308-.721A1.369,1.369,0,0,1,58.844,0q.789.017,1.578,0a1.379,1.379,0,0,1,1.362.881c.112.237.205.481.307.723a1.06,1.06,0,0,0,1.523.621c.243-.1.482-.2.725-.3a1.362,1.362,0,0,1,1.546.314q.588.565,1.155,1.152a1.363,1.363,0,0,1,.33,1.543c-.1.261-.209.518-.314.776a1.045,1.045,0,0,0,.613,1.482c.273.115.548.226.814.357a1.31,1.31,0,0,1,.8,1.246c0,.561,0,1.123,0,1.684a1.35,1.35,0,0,1-.826,1.29c-.249.124-.512.221-.769.33a1.053,1.053,0,0,0-.632,1.519c.118.29.224.585.339.877a1.144,1.144,0,0,1-.217,1.228c-.464.524-.971,1.011-1.483,1.489a1.112,1.112,0,0,1-.831.271" transform="translate(-21.329 0)" fill="#e6571e"/>
      <path id="Trazado_655577" data-name="Trazado 655577" d="M20.709,13.737A7.012,7.012,0,1,1,13.7,20.755a7.024,7.024,0,0,1,7.011-7.018" transform="translate(-5.844 -5.861)" fill="#e6571e"/>
      <path id="Trazado_655578" data-name="Trazado 655578" d="M32.322,64.926c-2.35,0-4.561,0-6.771,0-.72,0-1.021-.3-1.021-1.021q-.007-4.343,0-8.687c0-.593.257-.949.706-1.018.522-.079.923.344.925,1.01.007,1.913,0,3.826,0,5.739,0,.667.014,1.334-.006,2-.009.3.091.386.388.384,1.876-.012,3.752-.006,5.69-.006a4.76,4.76,0,0,0-.877-.838c-.464-.435-.539-.839-.2-1.229s.767-.393,1.243.011q1.265,1.072,2.516,2.159a.817.817,0,0,1,0,1.381c-.841.743-1.694,1.473-2.549,2.2a.826.826,0,0,1-1.215-.022.8.8,0,0,1,.166-1.2c.3-.265.6-.518,1.007-.863" transform="translate(-10.465 -23.121)" fill="#e6571e"/>
      <path id="Trazado_655579" data-name="Trazado 655579" d="M64.417,76.967c-.965,0-1.93.014-2.9,0-.736-.014-1.144-.547-.89-1.122a.809.809,0,0,1,.792-.5c2.018,0,4.036-.01,6.054,0a.809.809,0,1,1-.008,1.616c-1.017.025-2.035.007-3.053.007Z" transform="translate(-25.837 -32.141)" fill="#e6571e"/>
      <path id="Trazado_655580" data-name="Trazado 655580" d="M64.468,55.979c-.982,0-1.965.007-2.947,0-.605-.006-.974-.321-.971-.8s.384-.8.975-.8q2.921,0,5.841,0c.612,0,.949.292.948.8s-.319.788-.952.794c-.965.009-1.929,0-2.894,0" transform="translate(-25.834 -23.201)" fill="#e6571e"/>
      <path id="Trazado_655581" data-name="Trazado 655581" d="M64.441,61.242c-.965,0-1.93,0-2.894,0-.592,0-.979-.314-1-.785-.019-.49.368-.819,1-.821q2.894-.008,5.789,0c.646,0,.961.265.972.774.011.528-.336.829-.978.832-.964,0-1.929,0-2.894,0" transform="translate(-25.834 -25.442)" fill="#e6571e"/>
      <path id="Trazado_655582" data-name="Trazado 655582" d="M64.469,66.462c-.982,0-1.965.007-2.947,0-.6-.006-.974-.325-.97-.8s.39-.8.975-.8q2.921-.007,5.841,0c.607,0,.947.3.947.81s-.315.789-.952.8c-.964.009-1.929,0-2.894,0" transform="translate(-25.835 -27.669)" fill="#e6571e"/>
      <path id="Trazado_655583" data-name="Trazado 655583" d="M64.468,70.123c.965,0,1.929-.006,2.894,0,.635.006.952.28.952.792s-.337.8-.948.8q-2.921.005-5.841,0c-.59,0-.972-.32-.975-.8s.364-.792.971-.8c.982-.009,1.965,0,2.947,0" transform="translate(-25.834 -29.918)" fill="#e6571e"/>
      <path id="Trazado_655584" data-name="Trazado 655584" d="M54.1,75.333c.333,0,.666-.017,1,0a.822.822,0,0,1,.816.8.759.759,0,0,1-.742.8,19.722,19.722,0,0,1-2.147-.009.74.74,0,0,1-.709-.821.8.8,0,0,1,.788-.765c.33-.028.664-.005,1-.006" transform="translate(-22.321 -32.138)" fill="#e6571e"/>
      <path id="Trazado_655585" data-name="Trazado 655585" d="M54.127,80.626c.315,0,.63-.008.944,0a.791.791,0,1,1,.028,1.578c-.664.014-1.33.015-1.993,0a.788.788,0,1,1,.025-1.576c.332-.012.665,0,1,0" transform="translate(-22.319 -34.398)" fill="#e6571e"/>
      <path id="Trazado_655586" data-name="Trazado 655586" d="M54.1,66.442c-.349,0-.7.016-1.048,0a.739.739,0,0,1-.732-.745.777.777,0,0,1,.709-.831c.715-.035,1.434-.032,2.149,0a.794.794,0,0,1-.03,1.587.921.921,0,0,1-.1.007H54.1v-.012" transform="translate(-22.323 -27.663)" fill="#e6571e"/>
      <path id="Trazado_655587" data-name="Trazado 655587" d="M54.125,71.721c-.332,0-.665.012-1,0a.82.82,0,0,1-.819-.789.776.776,0,0,1,.8-.8c.681-.021,1.363-.021,2.045,0a.778.778,0,0,1,.771.769.823.823,0,0,1-.8.809c-.331.018-.665,0-1,0" transform="translate(-22.318 -29.917)" fill="#e6571e"/>
      <path id="Trazado_655588" data-name="Trazado 655588" d="M54.1,54.378c.35,0,.7-.015,1.049,0a.827.827,0,0,1,.778.778.776.776,0,0,1-.744.795c-.716.026-1.433.023-2.149,0a.723.723,0,0,1-.714-.759.8.8,0,0,1,.835-.818H54.1" transform="translate(-22.322 -23.199)" fill="#e6571e"/>
      <path id="Trazado_655589" data-name="Trazado 655589" d="M54.156,59.645c.332,0,.666-.019,1,0a.8.8,0,0,1,.773.772.816.816,0,0,1-.745.81c-.716.03-1.434.033-2.15,0a.777.777,0,0,1-.708-.832.738.738,0,0,1,.733-.744c.366-.02.734,0,1.1,0v0" transform="translate(-22.322 -25.445)" fill="#e6571e"/>
      <path id="Trazado_655590" data-name="Trazado 655590" d="M73.142,82.9a3.329,3.329,0,1,1,6.656.091,3.329,3.329,0,1,1-6.656-.091" transform="translate(-31.207 -33.964)" fill="#fff"/>
      <path id="Trazado_655591" data-name="Trazado 655591" d="M55.16,14.364a2.858,2.858,0,0,0-1.63-2.51,1.188,1.188,0,0,1-.81-1.6c.035-.15.13-.191.242-.24a3.7,3.7,0,0,1,.482-.2c1.189-.313,1.434-1.331,1.7-2.309a2.084,2.084,0,0,0-.382-1.441.562.562,0,0,1,.175-.8,3.219,3.219,0,0,0,.447-.446.31.31,0,0,1,.452-.083c.134.079.3.106.432.183,1.077.616,2,.1,2.888-.431.445-.263.55-.8.719-1.251a.63.63,0,0,1,.712-.5c.881.036.882.01,1.22.821a2.576,2.576,0,0,0,3.368,1.4c.032-.013.066-.024.1-.035.243-.083.525-.35.713-.234a5.141,5.141,0,0,1,.91.866c.132.138-.021.264-.061.385a8.859,8.859,0,0,0-.407,1.128A2.8,2.8,0,0,0,67.9,9.725c.048.02.095.045.142.068.264.126.682.135.76.394a3.519,3.519,0,0,1,.029,1.2c-.018.267-.3.272-.484.325a2.568,2.568,0,0,0-1.762,1.765,2.36,2.36,0,0,0,.145,1.959c.153.322.342.639-.1.947-.374.26-.583.808-1.2.4-1.022-.671-1.977-.227-2.9.275a2,2,0,0,0-.834,1.35c-.195.667-.7.4-1.1.463a.551.551,0,0,1-.708-.484c-.26-1.185-1.193-1.6-2.205-1.913a2.014,2.014,0,0,0-1.6.346c-.6.345-.781-.169-1.116-.419s-.354-.514-.17-.891a2.384,2.384,0,0,0,.37-1.148" transform="translate(-22.466 -1.168)" fill="#fff"/>
      <path id="Trazado_655592" data-name="Trazado 655592" d="M21.946,27.335a5.4,5.4,0,1,1,5.389-5.422,5.39,5.39,0,0,1-5.389,5.422" transform="translate(-7.064 -7.052)" fill="#fff"/>
      <path id="Trazado_655593" data-name="Trazado 655593" d="M77.1,85.823a.678.678,0,0,1-.492-.183,10.261,10.261,0,0,1-.853-.855.721.721,0,0,1,.026-1.042.707.707,0,0,1,1.034-.1c.3.259.432.125.625-.078a7.8,7.8,0,0,1,.716-.695.713.713,0,0,1,1,.045.686.686,0,0,1,.147.989,13.913,13.913,0,0,1-1.819,1.815.52.52,0,0,1-.385.105" transform="translate(-32.231 -35.278)" fill="#e6571e"/>
      <path id="Trazado_655594" data-name="Trazado 655594" d="M63.293,18.028A4.7,4.7,0,1,1,65.88,9.383a.859.859,0,0,1,.5.9.8.8,0,0,1-1.3.493,3.167,3.167,0,0,0-2.4-.473,3.1,3.1,0,1,0,3.65,3.774,3.479,3.479,0,0,0,.082-1.146.758.758,0,0,1,.673-.943.808.808,0,0,1,.918.785,4.709,4.709,0,0,1-4.707,5.256" transform="translate(-25.006 -3.681)" fill="#e6571e"/>
    </g>
  </g>
</svg>
