<svg xmlns="http://www.w3.org/2000/svg" xmlns:xlink="http://www.w3.org/1999/xlink" width="55" height="55" viewBox="0 0 55 55">
  <defs>
    <clipPath id="clip-path">
      <rect id="Rectángulo_336208" data-name="Rectángulo 336208" width="37.213" height="40.754" fill="none"/>
    </clipPath>
  </defs>
  <g id="Grupo_893408" data-name="Grupo 893408" transform="translate(5245 8940)">
    <path id="Trazado_622580" data-name="Trazado 622580" d="M27.5,0A27.5,27.5,0,1,1,0,27.5,27.5,27.5,0,0,1,27.5,0Z" transform="translate(-5245 -8940)" fill="#4d793f"/>
    <g id="Grupo_947838" data-name="Grupo 947838" transform="translate(-5238 -8932.877)">
      <g id="Grupo_947837" data-name="Grupo 947837" transform="translate(0 0)" clip-path="url(#clip-path)">
        <path id="Trazado_655786" data-name="Trazado 655786" d="M21.623,0a4.859,4.859,0,0,1,2.251,1.144c.1.1.255.048.383.048,3.25,0,6.5.044,9.751-.016a3.111,3.111,0,0,1,3.2,3.23c-.023,3.436-.006,6.872-.006,10.307q0,11.422,0,22.844a3.019,3.019,0,0,1-2.462,3.151,3.1,3.1,0,0,1-.632.043q-13.133,0-26.267,0a2.993,2.993,0,0,1-3.076-3.012c-.011-.384,0-.769,0-1.154,0-.606,0-.6-.587-.61A4.11,4.11,0,0,1,.55,33.86,4.087,4.087,0,0,1,0,31.974c-.034-.51.2-.771.712-.771,2,0,4.006-.013,6.01.01.38,0,.438-.116.438-.459Q7.148,17.641,7.154,4.527c0-.795.152-.945.949-.945,2.8,0,5.6-.005,8.4.009.271,0,.358-.085.409-.324.061-.281.16-.553.252-.863-.117-.005-.228-.015-.339-.015-2.945,0-5.89.017-8.835-.01a1.909,1.909,0,0,0-2,2.007c.027,8.2.013,16.4.013,24.6,0,.106,0,.213,0,.318-.018.457-.248.715-.629.709-.365-.005-.585-.255-.607-.69,0-.066,0-.133,0-.2q0-12.358,0-24.715A3.033,3.033,0,0,1,6.646,1.409a2.955,2.955,0,0,1,1.161-.218c3.3,0,6.606,0,9.909.006a.784.784,0,0,0,.569-.2A3.769,3.769,0,0,1,20.227.074c.053-.008.1-.012.122-.074Z" transform="translate(0 0)" fill="#fff"/>
        <path id="Trazado_655787" data-name="Trazado 655787" d="M45.119,25.138c0,4.365-.021,8.729.011,13.093a3.063,3.063,0,0,1-2.618,3.088,3.016,3.016,0,0,1-3.307-2.653c-.045-.783-.173-.9-.964-.9q-8.954,0-17.909.008c-.327,0-.41-.07-.41-.405q.016-12.815,0-25.629c0-.33.075-.411.407-.409,2.534.016,5.067.012,7.6,0,.282,0,.415.029.4.371-.028.8-.007.8-.816.83a3.032,3.032,0,0,0-2.771,2.915.609.609,0,0,0,.668.663q7.1,0,14.208,0a.618.618,0,0,0,.675-.732,3,3,0,0,0-3.035-2.848c-.537,0-.537,0-.537-.54,0-.654,0-.654.662-.654h7.2c.529,0,.529,0,.529.509V25.138" transform="translate(-11.538 -6.561)" fill="#4d793f"/>
        <path id="Trazado_655788" data-name="Trazado 655788" d="M33.059,5.658h.4c2.9,0,5.809.024,8.714-.012a1.928,1.928,0,0,1,2.058,2.028q-.036,16.572,0,33.144a1.922,1.922,0,0,1-2.022,2.021q-12.971-.025-25.942,0a1.871,1.871,0,0,1-2.019-2.015c.032-.449.012-.9,0-1.353,0-.169.042-.247.22-.226a2.359,2.359,0,0,0,.278,0q12.016,0,24.032,0a4.15,4.15,0,0,0,4.181-3.311,4.854,4.854,0,0,0,.107-1.1q0-13.548,0-27.1c0-.71-.176-.883-.892-.883-2.812,0-5.623-.005-8.435.008-.277,0-.39-.068-.436-.343a7.587,7.587,0,0,0-.245-.859" transform="translate(-8.249 -3.27)" fill="#4d793f"/>
        <path id="Trazado_655789" data-name="Trazado 655789" d="M29.5,79.358h-.371q-11.461,0-22.922,0A3.026,3.026,0,0,1,3.183,77.3a.54.54,0,0,1-.032-.327h.431q12.138,0,24.275-.007c.3,0,.46.044.522.387A3.891,3.891,0,0,0,29.5,79.358" transform="translate(-1.817 -44.574)" fill="#4d793f"/>
        <path id="Trazado_655790" data-name="Trazado 655790" d="M34.564,9.989a1.8,1.8,0,0,1,1.674-1.164c.357-.02.716,0,1.074-.005.5,0,.721-.217.728-.727.009-.716,0-1.432,0-2.148a2.96,2.96,0,0,1,5.9-.4c.058.818.016,1.643.021,2.465,0,.61.2.8.806.812a7.108,7.108,0,0,1,1.347.05,1.773,1.773,0,0,1,1.324,1.116Z" transform="translate(-20.018 -1.657)" fill="#4d793f"/>
        <path id="Trazado_655791" data-name="Trazado 655791" d="M35.612,35.6h3.3c.093,0,.186,0,.279,0a.648.648,0,0,1,.665.6.639.639,0,0,1-.643.626c-.436.021-.875.007-1.312.007H32.373c-.106,0-.213.006-.318,0a.66.66,0,0,1-.666-.607.642.642,0,0,1,.682-.625c.451-.012.9,0,1.353,0h2.188" transform="translate(-18.179 -20.618)" fill="#fff"/>
        <path id="Trazado_655792" data-name="Trazado 655792" d="M35.623,46.952c1.167,0,2.334-.005,3.5,0,.561,0,.888.444.665.88a.652.652,0,0,1-.623.354q-3.541,0-7.081,0a.645.645,0,0,1-.695-.617.654.654,0,0,1,.733-.615c1.167-.005,2.334,0,3.5,0" transform="translate(-18.179 -27.192)" fill="#fff"/>
        <path id="Trazado_655793" data-name="Trazado 655793" d="M35.649,58.3h3.262c.093,0,.186,0,.279,0a.65.65,0,0,1,.667.6.64.64,0,0,1-.641.628c-.41.021-.822.007-1.233.007H32.373c-.106,0-.213.006-.318,0a.658.658,0,0,1-.667-.646.645.645,0,0,1,.681-.586c.437-.011.875,0,1.313,0h2.268" transform="translate(-18.178 -33.763)" fill="#fff"/>
        <path id="Trazado_655794" data-name="Trazado 655794" d="M56.081,59.088a.71.71,0,0,1-.439-.2c-.383-.386-.775-.763-1.151-1.155a.583.583,0,0,1-.023-.879.593.593,0,0,1,.881.035c.029.027.056.057.086.083.228.2.408.6.662.569s.444-.38.66-.594c.4-.4.8-.809,1.211-1.208.334-.327.67-.347.938-.067a.6.6,0,0,1-.074.911c-.746.754-1.5,1.5-2.248,2.252a.806.806,0,0,1-.5.253" transform="translate(-31.436 -32.129)" fill="#fff"/>
        <path id="Trazado_655795" data-name="Trazado 655795" d="M56.082,47.743a.756.756,0,0,1-.451-.214c-.372-.377-.754-.747-1.123-1.127a.589.589,0,0,1-.053-.88.6.6,0,0,1,.909.032c.242.223.485.64.716.632.306-.011.52-.438.775-.684.382-.368.748-.752,1.128-1.122a.608.608,0,1,1,.866.84c-.754.765-1.518,1.52-2.276,2.281a.794.794,0,0,1-.492.242" transform="translate(-31.438 -25.558)" fill="#fff"/>
        <path id="Trazado_655796" data-name="Trazado 655796" d="M59.087,33.385a.807.807,0,0,1-.244.5c-.761.758-1.516,1.521-2.281,2.276a.586.586,0,0,1-.937.016q-.574-.55-1.125-1.124a.6.6,0,1,1,.839-.861,6.939,6.939,0,0,1,.561.562c.143.165.232.14.374-.006.574-.589,1.159-1.166,1.741-1.746a.584.584,0,0,1,.685-.16.647.647,0,0,1,.386.544" transform="translate(-31.436 -18.991)" fill="#fff"/>
        <path id="Trazado_655797" data-name="Trazado 655797" d="M47.367,9.256a1.791,1.791,0,1,1,1.821-1.8,1.807,1.807,0,0,1-1.821,1.8" transform="translate(-26.39 -3.287)" fill="#fff"/>
        <path id="Trazado_655798" data-name="Trazado 655798" d="M49.653,9.118a.572.572,0,1,1-.558-.6.594.594,0,0,1,.558.6" transform="translate(-28.094 -4.935)" fill="#4d793f"/>
      </g>
    </g>
  </g>
</svg>
