<svg xmlns="http://www.w3.org/2000/svg" xmlns:xlink="http://www.w3.org/1999/xlink" width="51.061" height="55.92" viewBox="0 0 51.061 55.92">
  <defs>
    <clipPath id="clip-path">
      <rect id="Rectángulo_336194" data-name="Rectángulo 336194" width="51.061" height="55.92" fill="none"/>
    </clipPath>
  </defs>
  <g id="Grupo_947783" data-name="Grupo 947783" transform="translate(0 0)" opacity="0.5">
    <g id="Grupo_947782" data-name="Grupo 947782" transform="translate(0 0)" clip-path="url(#clip-path)">
      <path id="Trazado_655541" data-name="Trazado 655541" d="M29.671,0a6.667,6.667,0,0,1,3.089,1.57c.141.14.349.065.526.066,4.46,0,8.921.061,13.38-.023a4.269,4.269,0,0,1,4.4,4.433c-.032,4.714-.008,9.429-.008,14.143q0,15.673,0,31.345a4.142,4.142,0,0,1-3.379,4.323,4.259,4.259,0,0,1-.867.059q-18.021,0-36.042,0a4.106,4.106,0,0,1-4.22-4.133c-.015-.527,0-1.056,0-1.583,0-.832,0-.823-.806-.837a5.64,5.64,0,0,1-4.98-2.9A5.608,5.608,0,0,1,0,43.873c-.047-.7.275-1.058.977-1.058,2.748,0,5.5-.018,8.246.013.521.006.6-.159.6-.629q-.019-17.993-.01-35.987c0-1.09.208-1.3,1.3-1.3,3.841,0,7.681-.008,11.523.012.371,0,.491-.117.561-.445.083-.385.219-.759.345-1.184-.16-.008-.312-.02-.465-.02-4.041,0-8.081.023-12.123-.014A2.619,2.619,0,0,0,8.22,6.017c.036,11.249.018,22.5.018,33.748,0,.146,0,.292,0,.437-.025.627-.34.981-.863.972-.5-.008-.8-.351-.833-.946,0-.091,0-.182,0-.273q0-16.956,0-33.912A4.162,4.162,0,0,1,9.12,1.934a4.055,4.055,0,0,1,1.593-.3c4.532.006,9.064,0,13.6.009a1.076,1.076,0,0,0,.781-.277A5.172,5.172,0,0,1,27.755.1c.073-.011.143-.016.168-.1Z" transform="translate(0 0)" fill="#e6571e"/>
      <path id="Trazado_655542" data-name="Trazado 655542" d="M54.5,30.277c0,5.989-.029,11.978.016,17.966a4.2,4.2,0,0,1-3.593,4.237,4.138,4.138,0,0,1-4.538-3.641c-.062-1.075-.238-1.239-1.323-1.239q-12.287,0-24.574.011c-.448,0-.563-.1-.562-.556q.022-17.584,0-35.166c0-.453.1-.564.558-.561,3.477.021,6.953.017,10.43,0,.386,0,.57.039.554.509-.039,1.1-.009,1.1-1.12,1.139a4.16,4.16,0,0,0-3.8,4,.836.836,0,0,0,.917.91q9.748.005,19.495,0a.848.848,0,0,0,.926-1,4.11,4.11,0,0,0-4.164-3.908c-.737,0-.737,0-.737-.741,0-.9,0-.9.908-.9h9.884c.725,0,.725,0,.725.7V30.277" transform="translate(-8.418 -4.787)" fill="#fafafa"/>
      <path id="Trazado_655543" data-name="Trazado 655543" d="M40.062,5.662h.55c3.986,0,7.971.032,11.956-.016a2.646,2.646,0,0,1,2.824,2.782q-.049,22.739,0,45.478a2.637,2.637,0,0,1-2.775,2.774q-17.8-.035-35.6,0a2.568,2.568,0,0,1-2.771-2.765c.043-.616.016-1.237,0-1.856-.005-.232.057-.338.3-.31a3.236,3.236,0,0,0,.382,0q16.488,0,32.976,0a5.694,5.694,0,0,0,5.736-4.543,6.66,6.66,0,0,0,.147-1.516q0-18.59,0-37.179c0-.974-.241-1.212-1.224-1.212-3.858,0-7.716-.007-11.574.01-.381,0-.535-.094-.6-.47a10.41,10.41,0,0,0-.336-1.179" transform="translate(-6.018 -2.386)" fill="#fafafa"/>
      <path id="Trazado_655544" data-name="Trazado 655544" d="M39.309,80.249H38.8q-15.726,0-31.453,0A4.152,4.152,0,0,1,3.2,77.422a.742.742,0,0,1-.043-.449h.591q16.655,0,33.309-.009c.418,0,.631.061.716.531a5.338,5.338,0,0,0,1.535,2.755" transform="translate(-1.326 -32.52)" fill="#fafafa"/>
      <path id="Trazado_655545" data-name="Trazado 655545" d="M34.564,12.642a2.474,2.474,0,0,1,2.3-1.6c.49-.028.982,0,1.474-.008.686-.005.99-.3,1-1,.012-.982,0-1.965,0-2.947a4.062,4.062,0,0,1,8.1-.548c.08,1.123.022,2.255.029,3.383.005.837.278,1.1,1.106,1.114a9.752,9.752,0,0,1,1.848.069,2.432,2.432,0,0,1,1.816,1.532Z" transform="translate(-14.605 -1.209)" fill="#fafafa"/>
      <path id="Trazado_655546" data-name="Trazado 655546" d="M37.184,35.6h4.53c.127,0,.255-.006.382,0a.89.89,0,0,1,.913.827.877.877,0,0,1-.882.859c-.6.028-1.2.009-1.8.009H32.739c-.146,0-.292.008-.436,0a.9.9,0,0,1-.914-.833.881.881,0,0,1,.936-.857c.618-.016,1.237,0,1.856,0h3" transform="translate(-13.263 -15.043)" fill="#e6571e"/>
      <path id="Trazado_655547" data-name="Trazado 655547" d="M37.2,46.953c1.6,0,3.2-.008,4.8,0,.77,0,1.218.61.912,1.207a.9.9,0,0,1-.855.485q-4.858.005-9.716,0a.885.885,0,0,1-.953-.847.9.9,0,0,1,1.006-.844c1.6-.008,3.2,0,4.8,0" transform="translate(-13.263 -19.839)" fill="#e6571e"/>
      <path id="Trazado_655548" data-name="Trazado 655548" d="M37.235,58.3h4.476c.128,0,.255-.006.382,0a.891.891,0,0,1,.916.825.878.878,0,0,1-.88.862C41.566,60.017,41,60,40.437,60h-7.7c-.146,0-.292.008-.437,0a.9.9,0,0,1-.916-.886.886.886,0,0,1,.934-.8c.6-.016,1.2,0,1.8,0h3.111" transform="translate(-13.262 -24.633)" fill="#e6571e"/>
      <path id="Trazado_655549" data-name="Trazado 655549" d="M56.752,60.432a.975.975,0,0,1-.6-.275c-.525-.53-1.063-1.047-1.579-1.585a.8.8,0,0,1-.031-1.206.814.814,0,0,1,1.209.047c.04.037.077.079.118.114.312.27.56.821.908.781.329-.038.61-.521.906-.815.556-.55,1.1-1.11,1.661-1.657.458-.449.919-.476,1.287-.092a.826.826,0,0,1-.1,1.25c-1.023,1.035-2.057,2.059-3.084,3.091a1.105,1.105,0,0,1-.691.348" transform="translate(-22.936 -23.441)" fill="#e6571e"/>
      <path id="Trazado_655550" data-name="Trazado 655550" d="M56.752,49.087a1.038,1.038,0,0,1-.619-.294c-.51-.518-1.034-1.024-1.541-1.546a.808.808,0,0,1-.073-1.207.817.817,0,0,1,1.248.043c.331.307.666.878.983.867.42-.015.713-.6,1.063-.939.524-.505,1.027-1.032,1.548-1.539a.834.834,0,1,1,1.188,1.153c-1.034,1.049-2.082,2.086-3.122,3.13a1.09,1.09,0,0,1-.674.333" transform="translate(-22.937 -18.647)" fill="#e6571e"/>
      <path id="Trazado_655551" data-name="Trazado 655551" d="M60.876,33.606a1.108,1.108,0,0,1-.335.685c-1.045,1.039-2.081,2.088-3.13,3.122a.8.8,0,0,1-1.285.023q-.788-.754-1.544-1.543a.827.827,0,1,1,1.151-1.181,9.52,9.52,0,0,1,.77.771c.2.226.319.192.513-.008.787-.808,1.59-1.6,2.39-2.4a.8.8,0,0,1,.94-.219.888.888,0,0,1,.53.746" transform="translate(-22.935 -13.855)" fill="#e6571e"/>
      <path id="Trazado_655552" data-name="Trazado 655552" d="M48.037,10.589a2.457,2.457,0,1,1,2.5-2.472,2.48,2.48,0,0,1-2.5,2.472" transform="translate(-19.254 -2.398)" fill="#e6571e"/>
      <path id="Trazado_655553" data-name="Trazado 655553" d="M50.079,9.341a.785.785,0,1,1-.765-.82.815.815,0,0,1,.765.82" transform="translate(-20.497 -3.6)" fill="#fafafa"/>
    </g>
  </g>
</svg>
