<svg xmlns="http://www.w3.org/2000/svg" xmlns:xlink="http://www.w3.org/1999/xlink" width="55" height="55" viewBox="0 0 55 55">
  <defs>
    <clipPath id="clip-path">
      <rect id="Rectángulo_336204" data-name="Rectángulo 336204" width="40.539" height="40.525" fill="none"/>
    </clipPath>
  </defs>
  <g id="Grupo_947852" data-name="Grupo 947852" transform="translate(-285 -2796)">
    <g id="Grupo_154217" data-name="Grupo 154217" transform="translate(0 872)">
      <circle id="Elipse_4813" data-name="Elipse 4813" cx="27.5" cy="27.5" r="27.5" transform="translate(285 1924)" fill="#4d793f"/>
    </g>
    <g id="Grupo_947830" data-name="Grupo 947830" transform="translate(293.207 2805.475)">
      <g id="Grupo_947829" data-name="Grupo 947829" clip-path="url(#clip-path)">
        <path id="Trazado_655679" data-name="Trazado 655679" d="M31.378,29.748c0,.613-.008,1.225,0,1.837,0,.211-.05.334-.272.36-.065.007-.126.061-.191.067a2,2,0,0,0-1.848,1.7.465.465,0,0,0,.033.374c.212.409.414.823.64,1.226a.292.292,0,0,1-.064.418q-1.555,1.535-3.09,3.089c-.138.139-.249.188-.415.067a1.5,1.5,0,0,0-.218-.108,3.644,3.644,0,0,0-1.234-.582c-.4-.021-.818.31-1.234.47a.422.422,0,0,0-.282.3c-.128.428-.283.848-.4,1.277a.312.312,0,0,1-.36.276q-2.184-.015-4.369,0c-.2,0-.306-.053-.338-.251a1.693,1.693,0,0,0-.075-.231c-.418-1.323-.42-1.317-1.713-1.836a.39.39,0,0,0-.372.052c-.412.206-.826.41-1.227.635a.269.269,0,0,1-.385-.055q-1.552-1.566-3.117-3.119c-.123-.121-.185-.224-.067-.381a1.551,1.551,0,0,0,.128-.253,3.635,3.635,0,0,0,.568-1.236c.018-.4-.314-.817-.472-1.234a.42.42,0,0,0-.316-.269c-.414-.126-.82-.281-1.237-.392-.222-.059-.3-.145-.3-.384.012-1.443.01-2.885,0-4.328,0-.209.048-.333.268-.364A1.737,1.737,0,0,0,9.7,26.8c1.309-.411,1.3-.413,1.781-1.723.075-.207.009-.238-.165-.237-.354,0-.708-.012-1.061.005A.3.3,0,0,1,9.9,24.6a4.556,4.556,0,0,0-.51-1.4c-.282-.368-.91-.3-1.308-.571a1.723,1.723,0,0,0-2.236.067c-.353.274-.594.152-.882-.148-.923-.963-1.873-1.9-2.827-2.831a.37.37,0,0,1-.083-.523,4.3,4.3,0,0,0,.607-1.273c.069-.455-.367-.841-.515-1.285a.51.51,0,0,1-.02-.079,1.716,1.716,0,0,0-1.634-1.53c-.387-.054-.5-.261-.492-.659.029-1.36.017-2.722.006-4.083,0-.225.044-.36.28-.4a2.383,2.383,0,0,0,1.96-1.758,2.209,2.209,0,0,0-.124-2.365c-.222-.3-.138-.5.119-.748C3.22,4.072,4.178,3.105,5.13,2.133a.371.371,0,0,1,.523-.087,4.38,4.38,0,0,0,1.273.608c.457.072.841-.366,1.285-.514A1.947,1.947,0,0,1,8.591,2c.708-.074.953-.555,1.13-1.164C9.965,0,9.993.005,10.846.005c1.225,0,2.45.007,3.675-.005.251,0,.407.037.451.319a2.332,2.332,0,0,0,1.708,1.9A2.24,2.24,0,0,0,19.117,2.1c.271-.2.452-.136.685.1.955.988,1.932,1.956,2.914,2.918a.369.369,0,0,1,.086.523c-.2.367-.382.747-.565,1.124-.051.1-.131.2-.065.342.109.231.165.421.505.207a8.491,8.491,0,0,1,2.154-.932.414.414,0,0,0,.345-.345.741.741,0,0,1,.04-.115c.16-.443.2-1.061.513-1.281s.918-.064,1.393-.065c1.034,0,2.069.005,3.1-.006.234,0,.382.035.425.3A1.984,1.984,0,0,0,32.4,6.754a.505.505,0,0,1,.22.1,1.522,1.522,0,0,0,1.911-.04c.612-.378.64-.333,1.161.188.895.9,1.784,1.8,2.69,2.68.19.185.241.344.088.554a1.913,1.913,0,0,0-.089,2.524.172.172,0,0,1,.023.078,1.728,1.728,0,0,0,1.658,1.555c.364.052.483.243.474.633-.032,1.36-.017,2.722-.007,4.083,0,.234-.035.382-.3.425a1.98,1.98,0,0,0-1.879,1.753.246.246,0,0,1-.046.112,1.6,1.6,0,0,0,.049,2.12c.291.4.184.659-.157.982-.948.9-1.862,1.833-2.775,2.768-.185.189-.343.241-.554.087a1.954,1.954,0,0,0-2.531-.1c-.263.191-.754.166-.9.395-.163.252-.054.681-.058,1.033s0,.708,0,1.062" transform="translate(0 0)" fill="#fff"/>
        <path id="Trazado_655680" data-name="Trazado 655680" d="M45.44,73.533c-.332-.169-.68-.322-1-.518a.6.6,0,0,0-.7,0,7.247,7.247,0,0,1-1.835.751.491.491,0,0,0-.4.383c-.115.416-.16.977-.446,1.184s-.835.065-1.268.069c-.463,0-.926-.008-1.388.005-.182.006-.295-.053-.313-.229a1.8,1.8,0,0,0-1.661-1.737.832.832,0,0,1-.369-.163,1.362,1.362,0,0,0-1.856.067c-.322.249-.552.154-.813-.132-.486-.533-1.007-1.033-1.526-1.534-.155-.149-.2-.277-.067-.45a1.739,1.739,0,0,0,.055-2.3,1.452,1.452,0,0,1-.24-.641c-.078-.6-.448-.836-.994-.978-.792-.206-.783-.237-.783-1.073,0-.6.009-1.2,0-1.8-.005-.22.032-.361.279-.4A1.715,1.715,0,0,0,31.75,62.5a2.76,2.76,0,0,1,.441-.952.708.708,0,0,0,0-.816c-.187-.324-.53-.674-.452-1.007.072-.306.465-.54.722-.8.353-.359.721-.7,1.063-1.073.154-.166.294-.233.482-.085a1.733,1.733,0,0,0,2.266.068,3.245,3.245,0,0,1,1.141-.406.381.381,0,0,0,.326-.314.3.3,0,0,1,.007-.04c.158-.416.136-1.014.466-1.215s.871-.055,1.32-.058.872.011,1.306-.005c.2-.007.318.048.34.247a1.779,1.779,0,0,0,1.637,1.714,1.373,1.373,0,0,1,.591.259,1.1,1.1,0,0,0,1.394,0c.688-.414.709-.38,1.283.2.442.442.88.891,1.33,1.325a.291.291,0,0,1,.065.419,2.932,2.932,0,0,0-.547,1.16c-.008.386.331.775.493,1.172a10.3,10.3,0,0,1,.37,1.072.474.474,0,0,0,.37.37c.415.119.962.159,1.192.443.248.307.06.86.071,1.3.011.422-.015.845.009,1.266.015.268-.073.4-.338.436a1.633,1.633,0,0,0-1.58,1.512,1.069,1.069,0,0,1-.222.518,1.306,1.306,0,0,0,.049,1.785c.262.343.2.591-.123.88-.529.468-1.008.992-1.51,1.491-.074.073-.129.181-.268.17" transform="translate(-19.356 -36.19)" fill="#4d793f"/>
        <path id="Trazado_655681" data-name="Trazado 655681" d="M15.272,23.3l-2.1,2.1c.007.065-.012.057-.018.016a1.544,1.544,0,0,0-1.45-1.376,6.055,6.055,0,0,1-2.022-.925.459.459,0,0,0-.514-.039c-.4.2-.807.611-1.194.516-.363-.089-.633-.562-.942-.868-.329-.326-.648-.661-.986-.978a.274.274,0,0,1-.062-.385c.205-.4.553-.8.548-1.2s-.38-.782-.577-1.18a7.792,7.792,0,0,1-.661-1.87.547.547,0,0,0-.429-.459c-.4-.124-.942-.134-1.14-.45-.184-.3-.049-.792-.052-1.2,0-.476.006-.953,0-1.429,0-.184.027-.3.233-.356a2.887,2.887,0,0,0,1.235-.463c.275-.285.278-.825.425-1.245a8.8,8.8,0,0,1,.9-1.862.426.426,0,0,0,.02-.478c-.192-.4-.613-.816-.515-1.194s.58-.654.9-.972.643-.628.949-.956A.278.278,0,0,1,8.2,5.967c.41.206.828.557,1.24.553.395,0,.78-.394,1.18-.594a7.624,7.624,0,0,1,1.832-.645.545.545,0,0,0,.461-.427c.12-.4.134-.942.448-1.141.293-.186.791-.051,1.2-.053.476,0,.953.005,1.429,0,.181,0,.3.022.359.229a2.9,2.9,0,0,0,.461,1.236c.284.276.824.281,1.243.427a8.767,8.767,0,0,1,1.863.9.364.364,0,0,0,.474.017.186.186,0,0,1,.036-.018c.391-.181.81-.543,1.166-.49.338.051.612.536.911.833.338.335.668.68,1.014,1.007a.274.274,0,0,1,.069.384c-.207.4-.553.8-.549,1.2s.378.782.574,1.18a7.934,7.934,0,0,1,.662,1.87.542.542,0,0,0,.425.463c.4.118.942.135,1.142.447.187.292.053.79.055,1.2,0,.49-.006.98,0,1.47a.274.274,0,0,1-.227.319,2.976,2.976,0,0,0-1.237.461c-.276.284-.282.823-.428,1.243a7.443,7.443,0,0,1-.776,1.652c-.2.311-.309.59.016.937H20.959a8.483,8.483,0,0,0,2.318-6.029A8.243,8.243,0,0,0,20.7,8.668a8.452,8.452,0,0,0-9.971-1.375,8.524,8.524,0,0,0,4.546,16" transform="translate(-2.356 -2.346)" fill="#4d793f"/>
        <path id="Trazado_655682" data-name="Trazado 655682" d="M71.683,36.257a8.382,8.382,0,0,0,5.943-3.7,8.511,8.511,0,0,0-5.459-13.083,8.283,8.283,0,0,0-5.563.818.807.807,0,0,1-1.183-.445c-.1-.252-.013-.356.192-.475a9.249,9.249,0,0,1,2.549-1.034.585.585,0,0,0,.523-.462c.1-.39.165-.908.436-1.1s.782-.063,1.188-.067c.462,0,.926.016,1.388-.008.269-.014.4.073.442.336a1.632,1.632,0,0,0,1.507,1.525,5.481,5.481,0,0,1,2.02.926.434.434,0,0,0,.513.016c.306-.174.634-.307.943-.476a.3.3,0,0,1,.416.071q.853.879,1.732,1.732a.3.3,0,0,1,.069.416c-.2.383-.535.778-.533,1.167s.363.756.548,1.142a8.587,8.587,0,0,1,.69,1.946.515.515,0,0,0,.4.434c.4.118.95.167,1.139.447.2.3.069.835.074,1.267.005.463-.007.926,0,1.388.005.194-.044.307-.25.339a1.772,1.772,0,0,0-1.648,1.641,5.26,5.26,0,0,1-.882,1.907.443.443,0,0,0-.024.513c.206.38.576.818.509,1.16-.073.369-.565.657-.879.976s-.641.63-.949.956a.291.291,0,0,1-.414.077,3.342,3.342,0,0,0-1.17-.54c-.4-.032-.745.381-1.136.555a9.791,9.791,0,0,1-1.908.678c-.631.137-.823.038-1.044-.543-.062-.162-.122-.326-.188-.5" transform="translate(-42.441 -10.819)" fill="#4d793f"/>
        <path id="Trazado_655683" data-name="Trazado 655683" d="M26.721,24.705c0-.558.011-1.116-.006-1.674-.006-.221.067-.278.275-.266.4.023.821.062,1-.415s-.164-.723-.444-1q-2.384-2.379-4.763-4.762c-.5-.5-.773-.5-1.269,0q-2.468,2.467-4.938,4.934a.731.731,0,0,0-.258.865.647.647,0,0,0,.773.383c.435-.072.5.119.491.506-.027,1.02-.019,2.041,0,3.061,0,.268-.044.349-.34.376a1,1,0,0,1-1.02-.535,7.182,7.182,0,1,1,13.023-5.161,7.071,7.071,0,0,1-1.385,5.448,1.4,1.4,0,0,1-1.079.225c-.1-.066-.055-.174-.056-.264,0-.571,0-1.143,0-1.714" transform="translate(-9.719 -9.695)" fill="#4d793f"/>
        <path id="Trazado_655684" data-name="Trazado 655684" d="M75.379,42.157c.645-.608.185-.986-.26-1.366-.12-.1-.248-.2-.373-.3l.059-.1c1.123,0,2.246-.016,3.368.009.356.008.442-.078.44-.438q-.025-4.492,0-8.984c0-.316-.074-.4-.395-.4-2.368.015-4.737,0-7.105.015-.285,0-.381-.063-.355-.354a3.69,3.69,0,0,0,0-.937c-.076-.451.165-.611.521-.759a7.172,7.172,0,1,1,4.245,13.635.557.557,0,0,1-.139-.029" transform="translate(-45.919 -18.172)" fill="#4d793f"/>
        <path id="Trazado_655685" data-name="Trazado 655685" d="M70.8,50.836c0-1.39,0-2.733,0-4.075,0-.218.119-.2.259-.2,2,0,4,.006,6-.005.246,0,.282.086.281.3q-.014,2,0,4c0,.2-.026.285-.26.282q-1.715-.02-3.43,0c-.215,0-.311-.13-.434-.249-.283-.273-.533-.7-.859-.774-.352-.076-.715.315-1.085.48-.145.064-.284.141-.469.233" transform="translate(-45.956 -30.223)" fill="#4d793f"/>
        <path id="Trazado_655686" data-name="Trazado 655686" d="M29.366,37.253c.993,0,1.987.007,2.98-.006.233,0,.293.065.291.294q-.017,1.673,0,3.347c0,.232-.064.289-.293.292-1.02.012-1.02.019-1.02-.988,0-.463-.009-.926,0-1.388.006-.2-.058-.249-.252-.248q-1.715.013-3.429,0c-.2,0-.251.058-.248.251.011.694-.006,1.388.01,2.082.005.234-.067.288-.294.291-1.019.012-1.019.019-1.019-.989,0-.884.008-1.769-.006-2.653,0-.234.067-.292.294-.29.993.013,1.987.005,2.98.005" transform="translate(-16.937 -24.179)" fill="#4d793f"/>
        <path id="Trazado_655687" data-name="Trazado 655687" d="M32.338,26.887H25.1l2.1-2.1q.664-.663,1.328-1.326c.089-.089.156-.23.321-.065,1.144,1.154,2.295,2.3,3.485,3.49" transform="translate(-16.294 -15.138)" fill="#4d793f"/>
        <path id="Trazado_655688" data-name="Trazado 655688" d="M74.026,40.413c-.98,0-1.96-.006-2.94,0-.214,0-.3-.031-.305-.279-.014-1.033-.024-1.033,1.017-1.033,1.7,0,3.4.014,5.1-.011.378-.006.438.111.429.449-.024.868-.008.869-.9.869Z" transform="translate(-45.944 -25.378)" fill="#4d793f"/>
        <path id="Trazado_655689" data-name="Trazado 655689" d="M32.1,52.169a6.943,6.943,0,0,1-8,.035c.02-.012.04-.034.059-.034H32.1" transform="translate(-15.644 -33.865)" fill="#4d793f"/>
        <path id="Trazado_655690" data-name="Trazado 655690" d="M64.517,43.716V48.5c-.227.033-.268-.127-.318-.286-.108-.348-.212-.7-.334-1.042-.082-.232-.057-.539-.479-.527-.127,0-.328-.307-.194-.566a11.242,11.242,0,0,0,.862-2.1c.063-.222.258-.247.463-.268" transform="translate(-40.992 -28.378)" fill="#4d793f"/>
        <path id="Trazado_655691" data-name="Trazado 655691" d="M34.238,44.714c.627,0,.627,0,.627.64,0,.667,0,.667-.681.667-.626,0-.626,0-.626-.64,0-.667,0-.667.68-.667" transform="translate(-21.784 -29.026)" fill="#4d793f"/>
        <path id="Trazado_655692" data-name="Trazado 655692" d="M45.9,54.839c-.106.5-.167.934-.734,1.027a1.636,1.636,0,0,0-.6.247.581.581,0,0,1-.8-.1A9.969,9.969,0,0,0,45.9,54.839" transform="translate(-28.417 -35.598)" fill="#4d793f"/>
        <path id="Trazado_655693" data-name="Trazado 655693" d="M44.474,77.715a7.188,7.188,0,1,1,7.185-7.161,7.171,7.171,0,0,1-7.185,7.161" transform="translate(-24.202 -41.116)" fill="#fff"/>
        <path id="Trazado_655694" data-name="Trazado 655694" d="M52.771,72.953a5.88,5.88,0,1,1-5.851-5.889,5.925,5.925,0,0,1,5.851,5.889" transform="translate(-26.622 -43.534)" fill="#4d793f"/>
        <path id="Trazado_655695" data-name="Trazado 655695" d="M52.788,75.926a5.893,5.893,0,0,1-.855-.006,1.968,1.968,0,0,1,.056-3.886c.227-.027.318-.08.278-.3a.225.225,0,0,1,0-.041c.011-1.079.011-1.075,1.1-.983.158.013.224.054.2.212a.886.886,0,0,0,0,.122,2.594,2.594,0,0,0,.02.85c.106.287.486.148.732.263a2.049,2.049,0,0,1,1.194,1.5c.045.2.04.378-.265.335a2.813,2.813,0,0,0-.57,0c-.268.018-.476.007-.576-.327a.558.558,0,0,0-.567-.326c-.408-.007-.816-.013-1.224,0a.651.651,0,1,0,0,1.3c.421.014.843,0,1.265,0a1.96,1.96,0,0,1,.269,3.9c-.282.032-.276.144-.283.348-.011.32.15.746-.069.93-.185.156-.6.025-.907.053-.271.025-.372-.071-.326-.334a.267.267,0,0,0,0-.041,2.536,2.536,0,0,0-.019-.809c-.1-.281-.462-.135-.7-.244a2.067,2.067,0,0,1-1.231-1.515c-.044-.2-.038-.378.266-.335a2.763,2.763,0,0,0,.57,0c.269-.019.475,0,.576.328a.559.559,0,0,0,.568.325c.408.007.816.013,1.224,0a.652.652,0,1,0,0-1.3c-.244-.012-.489,0-.734,0v-.013" transform="translate(-32.651 -45.873)" fill="#fff"/>
      </g>
    </g>
  </g>
</svg>
