<svg xmlns="http://www.w3.org/2000/svg" xmlns:xlink="http://www.w3.org/1999/xlink" width="55" height="55" viewBox="0 0 55 55">
  <defs>
    <clipPath id="clip-path">
      <rect id="Rectángulo_336206" data-name="Rectángulo 336206" width="36.19" height="36.19" transform="translate(0 0)" fill="none"/>
    </clipPath>
  </defs>
  <g id="Grupo_947852" data-name="Grupo 947852" transform="translate(-201 -2945)">
    <g id="Grupo_154216" data-name="Grupo 154216" transform="translate(-84 955)">
      <circle id="Elipse_4814" data-name="Elipse 4814" cx="27.5" cy="27.5" r="27.5" transform="translate(285 1990)" fill="#4d793f"/>
    </g>
    <g id="Grupo_947834" data-name="Grupo 947834" transform="translate(210.273 2954.273)">
      <g id="Grupo_947833" data-name="Grupo 947833" transform="translate(0 0)" clip-path="url(#clip-path)">
        <path id="Trazado_655735" data-name="Trazado 655735" d="M20.243,36.256H.5c-.379-.112-.39-.408-.39-.732q0-16.836,0-33.672c0-.364,0-.729,0-1.093,0-.467.173-.64.637-.643.917,0,1.833,0,2.75,0H19.859c.623,0,.788.137.847.769.024.253.128.358.375.348.129-.006.258,0,.388,0H35.148a2.672,2.672,0,0,1,.666.046.622.622,0,0,1,.436.421v33a.675.675,0,0,1-.68.458c-.164.011-.329.007-.493.007H21.47c-.106,0-.211,0-.317,0-.4.01-.42.024-.445.414a.661.661,0,0,1-.465.672" transform="translate(-0.069 -0.072)" fill="#fff"/>
        <path id="Trazado_655736" data-name="Trazado 655736" d="M36.181,1.629a1.082,1.082,0,0,0-.919-.359c-4.782.011-9.564,0-14.346.014-.294,0-.4-.045-.39-.373.029-.655-.169-.833-.82-.833H.919C.247.077.078.249.078.933Q.078,18.1.071,35.268a1.043,1.043,0,0,0,.359.916H.007Q.007,18.245,0,.306C0,.051.054,0,.307,0Q18.1.012,35.9,0c.243,0,.3.048.288.29-.024.445-.007.893-.007,1.339" transform="translate(0 0)" fill="#fff"/>
        <path id="Trazado_655737" data-name="Trazado 655737" d="M54.589,95.261a.82.82,0,0,0,.36-.84c-.046-.29.057-.367.354-.367,3.876.011,7.751.007,11.627.007.916,0,1.832-.016,2.748.008a1.058,1.058,0,0,0,.919-.36c0,.423-.018.847.007,1.269.014.244-.048.29-.289.289q-7.51-.013-15.02-.007Z" transform="translate(-34.415 -59.078)" fill="#fff"/>
        <path id="Trazado_655738" data-name="Trazado 655738" d="M3.451,20.279q0-8.232-.006-16.465c0-.281.048-.372.355-.371q8.672.016,17.345,0c.293,0,.362.068.362.361q-.012,16.5,0,33c0,.309-.093.353-.371.352q-8.655-.013-17.31,0c-.306,0-.384-.066-.383-.379q.017-8.25.008-16.5" transform="translate(-2.171 -2.171)" fill="#4d793f"/>
        <path id="Trazado_655739" data-name="Trazado 655739" d="M55.555,22.355q0-7.634-.007-15.268c0-.3.064-.388.381-.387q6.857.018,13.715,0c.3,0,.36.081.36.368q-.012,15.285,0,30.57c0,.288-.062.369-.36.368q-6.875-.016-13.751,0c-.283,0-.345-.078-.344-.35q.012-7.651.006-15.3" transform="translate(-35.019 -4.224)" fill="#4d793f"/>
        <path id="Trazado_655740" data-name="Trazado 655740" d="M8.323,59.525a7.235,7.235,0,1,1,7.225,7.233,7.259,7.259,0,0,1-7.225-7.233" transform="translate(-5.247 -32.975)" fill="#fff"/>
        <path id="Trazado_655741" data-name="Trazado 655741" d="M15.091,14.012c-.721.4-1.377.761-2.024,1.133a1.414,1.414,0,0,1-.766.2c-.47-.013-.94-.009-1.41,0a.736.736,0,0,1-.732-.442c-.565-1.139-1.136-2.275-1.7-3.413a.647.647,0,0,1,.054-.784.638.638,0,0,1,.773-.128c.862.327,1.728.643,2.588.975a.592.592,0,0,0,.532-.013c.456-.234.921-.45,1.38-.672.016-.13-.088-.169-.147-.23q-.964-.98-1.935-1.952A.664.664,0,0,1,11.445,8a.69.69,0,0,1,.593-.477c.672-.152,1.343-.309,2.011-.478a1.135,1.135,0,0,1,.932.148c.867.533,1.754,1.035,2.622,1.566a.5.5,0,0,0,.545.03c.7-.349,1.413-.673,2.113-1.024a1.426,1.426,0,0,1,1.467.042c.251.15.509.289.769.42a1.243,1.243,0,0,1-.028,2.336c-.946.457-1.879.943-2.825,1.4a.714.714,0,0,0-.431.528c-.181.748-.413,1.485-.6,2.23a.873.873,0,0,1-.48.609l-2.163,1.075a.657.657,0,0,1-.757,0,.735.735,0,0,1-.235-.728c.051-.536.076-1.075.115-1.675" transform="translate(-5.263 -4.418)" fill="#fff"/>
        <path id="Trazado_655742" data-name="Trazado 655742" d="M13.834,35.13H8.687a1.9,1.9,0,0,1-2.02-2.252c.013-.137.054-.19.187-.181.082.006.164,0,.247,0a1.741,1.741,0,0,1,.695.026c.218.108.053.4.1.615A.619.619,0,0,0,8.5,33.9c.117.008.235.006.352.006q5.111,0,10.223,0a1.864,1.864,0,0,1,1.964,1.274,1.806,1.806,0,0,1-1.676,2.343c-1.128.017-2.256,0-3.384.005-.679,0-.876.178-.854.843.01.3-.069.405-.364.36a2.553,2.553,0,0,0-.387,0c-.524,0-.518,0-.5-.533a1.864,1.864,0,0,1,1.972-1.882c1.092.036,2.186.011,3.278.007.5,0,.791-.244.774-.621-.016-.349-.283-.569-.711-.569q-2.679,0-5.358,0" transform="translate(-4.194 -20.599)" fill="#fff"/>
        <path id="Trazado_655743" data-name="Trazado 655743" d="M7.913,26.8c0,.646,0,.646-.634.646-.579,0-.579,0-.579-.594,0-.648,0-.648.632-.648.581,0,.581,0,.581.6" transform="translate(-4.224 -16.523)" fill="#fff"/>
        <path id="Trazado_655744" data-name="Trazado 655744" d="M58.793,16.855q0-3.031,0-6.061c0-.642.2-.846.838-.846H70.026c.616,0,.82.205.821.825q0,6.114,0,12.228c0,.587-.218.816-.8.817q-5.233,0-10.465,0c-.561,0-.788-.236-.788-.8q0-3.083,0-6.167" transform="translate(-37.065 -6.271)" fill="#fff"/>
        <path id="Trazado_655745" data-name="Trazado 655745" d="M66.033,68.54c1.692,0,3.384,0,5.076-.005.257,0,.368.038.364.336-.013.91,0,.91-.915.91-3.185,0-6.369,0-9.553.006-.293,0-.407-.045-.4-.375.024-.872.007-.872.878-.872Z" transform="translate(-38.208 -43.207)" fill="#fff"/>
        <path id="Trazado_655746" data-name="Trazado 655746" d="M65.8,61.609c-1.7,0-3.406,0-5.109.005-.232,0-.35-.037-.317-.3.037-.3-.128-.7.07-.873.169-.148.557-.054.848-.054,3.183,0,6.366,0,9.549-.007.29,0,.446.04.394.375-.043.275.12.647-.069.809-.158.136-.516.044-.785.044q-2.291,0-4.581,0" transform="translate(-38.041 -38.051)" fill="#fff"/>
        <path id="Trazado_655747" data-name="Trazado 655747" d="M65.8,76.683c1.7,0,3.4.006,5.107-.006.259,0,.366.054.329.325-.038.288.126.673-.068.841-.164.142-.537.047-.818.047-3.2,0-6.41,0-9.615.008-.292,0-.4-.066-.359-.362.039-.274-.12-.643.065-.8.157-.136.513-.048.781-.049q2.289,0,4.579,0" transform="translate(-38.046 -48.327)" fill="#fff"/>
        <path id="Trazado_655748" data-name="Trazado 655748" d="M68.88,53.438c-1.116,0-2.233,0-3.349,0-.206,0-.3-.037-.28-.267.027-.3-.091-.7.061-.883s.572-.058.874-.059c2-.006,4,0,5.993-.009.252,0,.369.042.33.32s.124.672-.065.841c-.16.143-.535.05-.815.051-.917,0-1.833,0-2.75,0" transform="translate(-41.125 -32.901)" fill="#fff"/>
        <path id="Trazado_655749" data-name="Trazado 655749" d="M68.173,85.508c0,.574,0,.574-.588.574-.62,0-.62,0-.62-.613s0-.61.623-.61c.584,0,.584,0,.584.649" transform="translate(-42.218 -53.498)" fill="#fff"/>
        <path id="Trazado_655750" data-name="Trazado 655750" d="M74.681,85.488c0,.594,0,.594-.6.594s-.6,0-.6-.594c0-.629,0-.629.636-.629.567,0,.567,0,.567.629" transform="translate(-46.323 -53.498)" fill="#fff"/>
        <path id="Trazado_655751" data-name="Trazado 655751" d="M80.6,84.858c.584,0,.584,0,.584.582,0,.641,0,.641-.63.641-.583,0-.583,0-.583-.581,0-.643,0-.643.629-.643" transform="translate(-50.416 -53.497)" fill="#fff"/>
        <path id="Trazado_655752" data-name="Trazado 655752" d="M30.754,73.74c.3,0,.609.009.913,0,.181-.008.258.042.232.234a14.917,14.917,0,0,1-.264,1.623c-.039.159-.1.187-.232.159a12.559,12.559,0,0,0-1.67-.2c-.137-.011-.177-.054-.176-.187.006-.48.008-.96,0-1.44,0-.164.072-.194.213-.191.328.007.656,0,.984,0" transform="translate(-18.634 -46.486)" fill="#4d793f"/>
        <path id="Trazado_655753" data-name="Trazado 655753" d="M21.022,73.74c.316,0,.633.01.948,0,.188-.008.241.061.237.242-.01.456-.008.913,0,1.37,0,.144-.033.2-.19.21a12.474,12.474,0,0,0-1.635.19c-.111.023-.21.044-.252-.139-.125-.548-.194-1.1-.269-1.658-.024-.179.05-.22.213-.215.316.01.632,0,.948,0" transform="translate(-12.518 -46.485)" fill="#4d793f"/>
        <path id="Trazado_655754" data-name="Trazado 655754" d="M30.718,66.985c-.317,0-.634-.01-.95,0-.176.008-.215-.057-.212-.22q.015-.686,0-1.373c0-.167.058-.236.219-.237a10.4,10.4,0,0,0,1.708-.193c.133-.023.173.03.191.133a14.4,14.4,0,0,1,.232,1.7c.01.175-.065.188-.2.186-.328-.007-.657,0-.985,0" transform="translate(-18.633 -40.953)" fill="#4d793f"/>
        <path id="Trazado_655755" data-name="Trazado 655755" d="M21,67c-.282,0-.565-.02-.844.006s-.356-.055-.312-.323c.082-.5.145-.994.218-1.491.022-.153.058-.236.268-.2a8.691,8.691,0,0,0,1.6.178c.188,0,.268.068.261.272-.015.445-.016.892,0,1.337.007.2-.077.229-.245.224-.316-.01-.633,0-.95,0" transform="translate(-12.503 -40.966)" fill="#4d793f"/>
        <path id="Trazado_655756" data-name="Trazado 655756" d="M11.739,65.789a6.02,6.02,0,0,1,.82-2.556c.092-.158.172-.22.349-.123a1.547,1.547,0,0,0,.484.2c.379.058.452.248.356.594a6.243,6.243,0,0,0-.207,1.561c0,.234-.068.354-.346.337-.478-.028-.958-.008-1.455-.008" transform="translate(-7.401 -39.757)" fill="#4d793f"/>
        <path id="Trazado_655757" data-name="Trazado 655757" d="M40.54,65.781c-.525,0-1.017-.01-1.509.005-.2.006-.273-.058-.28-.247a11.681,11.681,0,0,0-.256-1.911c-.031-.155.018-.205.148-.25a6.147,6.147,0,0,0,.749-.288c.179-.089.239-.015.32.122a6.039,6.039,0,0,1,.828,2.57" transform="translate(-24.263 -39.749)" fill="#4d793f"/>
        <path id="Trazado_655758" data-name="Trazado 655758" d="M40.462,73.877a6.094,6.094,0,0,1-.911,2.431c-.08.124-.157.111-.261.071-.12-.046-.238-.095-.359-.138-.573-.205-.579-.207-.442-.783a7.55,7.55,0,0,0,.193-1.39c.011-.231.071-.362.351-.344.409.027.822.011,1.233,0,.154,0,.224.044.2.147" transform="translate(-24.218 -46.478)" fill="#4d793f"/>
        <path id="Trazado_655759" data-name="Trazado 655759" d="M12.7,73.737c.842,0,.855,0,.946.829a9.772,9.772,0,0,0,.216,1.2c.047.2.033.341-.211.375a1.381,1.381,0,0,0-.264.09c-.6.211-.6.215-.9-.335a6.229,6.229,0,0,1-.654-1.908c-.036-.2.029-.273.235-.258s.421,0,.632,0" transform="translate(-7.456 -46.483)" fill="#4d793f"/>
        <path id="Trazado_655760" data-name="Trazado 655760" d="M31.266,58.134c-.529.057-1.007.107-1.484.161-.154.018-.232-.008-.229-.2.012-.681,0-1.362,0-2.109a3.941,3.941,0,0,1,1.709,2.146" transform="translate(-18.631 -35.297)" fill="#4d793f"/>
        <path id="Trazado_655761" data-name="Trazado 655761" d="M21.618,58.215A4.234,4.234,0,0,1,23.06,56.2c.166-.113.263-.138.258.128q-.018.914,0,1.829c0,.2-.067.242-.242.221-.473-.057-.948-.106-1.459-.162" transform="translate(-13.629 -35.379)" fill="#4d793f"/>
        <path id="Trazado_655762" data-name="Trazado 655762" d="M31.186,82.175a3.851,3.851,0,0,1-1.62,1.95c0-.693,0-1.323,0-1.953,0-.1,0-.176.149-.168a7.951,7.951,0,0,1,1.472.171" transform="translate(-18.639 -51.698)" fill="#4d793f"/>
        <path id="Trazado_655763" data-name="Trazado 655763" d="M21.815,82.172a8.928,8.928,0,0,1,1.444-.162c.142-.006.183.037.181.172,0,.628,0,1.256,0,1.947a3.91,3.91,0,0,1-1.624-1.957" transform="translate(-13.753 -51.702)" fill="#4d793f"/>
        <path id="Trazado_655764" data-name="Trazado 655764" d="M16.542,58.686a5.083,5.083,0,0,1,1.228-.952c-.178.373-.336.675-.466.99-.071.173-.146.212-.314.126a3.826,3.826,0,0,0-.448-.164" transform="translate(-10.429 -36.397)" fill="#4d793f"/>
        <path id="Trazado_655765" data-name="Trazado 655765" d="M37.154,58.734a.5.5,0,0,1-.094.075c-.54.226-.538.225-.783-.313-.085-.186-.182-.365-.321-.64a4.2,4.2,0,0,1,1.2.878" transform="translate(-22.668 -36.474)" fill="#4d793f"/>
        <path id="Trazado_655766" data-name="Trazado 655766" d="M16.942,83.525c.022-.048.024-.064.031-.066.528-.186.527-.186.788.34.075.152.162.3.281.513a4.6,4.6,0,0,1-1.1-.788" transform="translate(-10.681 -52.544)" fill="#4d793f"/>
        <path id="Trazado_655767" data-name="Trazado 655767" d="M37.151,83.414a2.912,2.912,0,0,1-1.057.712c.124-.264.249-.526.371-.791.051-.111.119-.111.223-.066.126.054.263.084.463.145" transform="translate(-22.755 -52.478)" fill="#4d793f"/>
        <path id="Trazado_655768" data-name="Trazado 655768" d="M19.4,18.03c.047-.6.081-1.14.134-1.677a.761.761,0,0,0-.276-.813.731.731,0,0,0-.82.082c-.885.5-1.771,1-2.664,1.489-.46.252-.966.08-1.45.107-.088,0-.109-.109-.145-.181l-.839-1.675c.511.187.987.335,1.44.536a1.242,1.242,0,0,0,1.132-.049c2.65-1.28,5.308-2.542,7.961-3.817a.431.431,0,0,1,.475.014c.267.166.551.3.871.478l-2.107,1.051c-.418.208-.834.42-1.255.622a.952.952,0,0,0-.555.672c-.184.736-.414,1.46-.6,2.2a.667.667,0,0,1-.428.534c-.279.108-.541.263-.878.43" transform="translate(-8.411 -7.546)" fill="#4d793f"/>
        <path id="Trazado_655769" data-name="Trazado 655769" d="M21.416,10.658c.448-.108.773-.189,1.1-.26a.253.253,0,0,1,.16.043c.692.407,1.382.816,2.107,1.245-.488.233-.942.447-1.392.668-.093.045-.157.063-.244-.022-.551-.54-1.109-1.073-1.731-1.673" transform="translate(-13.501 -6.554)" fill="#4d793f"/>
        <path id="Trazado_655770" data-name="Trazado 655770" d="M66.267,21.732c-.582-.874-1.171-1.694-1.69-2.556-.387-.645-1-.686-1.4.015-.294.519-.656,1-.987,1.495a.264.264,0,0,1-.056.045c-.1-.067-.049-.17-.049-.251,0-2.291,0-4.581-.01-6.871,0-.294.076-.37.369-.368,2.971.011,5.943.007,8.914.005.2,0,.35-.023.348.276C71.7,15.858,71.7,18.2,71.7,20.533a.728.728,0,0,1-.018.108.827.827,0,0,1-.255-.339c-.506-.8-1.006-1.608-1.511-2.41-.36-.572-.877-.576-1.234-.007q-1.1,1.755-2.2,3.514c-.061.1-.126.193-.219.333" transform="translate(-39.133 -8.347)" fill="#4d793f"/>
        <path id="Trazado_655771" data-name="Trazado 655771" d="M66.887,42.113c-1.491,0-2.982-.007-4.473.007-.267,0-.333-.068-.329-.331.013-.847,0-.847.834-.847,2.806,0,5.612.006,8.417-.009.321,0,.389.089.381.392-.021.787-.006.788-.781.788Z" transform="translate(-39.14 -25.805)" fill="#4d793f"/>
        <path id="Trazado_655772" data-name="Trazado 655772" d="M78.4,29.379,80.29,32.4H76.514L78.4,29.379" transform="translate(-48.237 -18.522)" fill="#4d793f"/>
        <path id="Trazado_655773" data-name="Trazado 655773" d="M64.852,32.505,66.1,34.368H63.615l1.237-1.863" transform="translate(-40.105 -20.492)" fill="#4d793f"/>
        <path id="Trazado_655774" data-name="Trazado 655774" d="M70.376,16.456a1.819,1.819,0,1,1-1.822,1.818,1.856,1.856,0,0,1,1.822-1.818" transform="translate(-43.219 -10.374)" fill="#fff"/>
        <path id="Trazado_655775" data-name="Trazado 655775" d="M73.071,20.4a.576.576,0,1,1-.562-.579.556.556,0,0,1,.562.579" transform="translate(-45.341 -12.497)" fill="#4d793f"/>
      </g>
    </g>
  </g>
</svg>
