<svg xmlns="http://www.w3.org/2000/svg" xmlns:xlink="http://www.w3.org/1999/xlink" width="55" height="55" viewBox="0 0 55 55">
  <defs>
    <clipPath id="clip-path">
      <rect id="Rectángulo_336207" data-name="Rectángulo 336207" width="33.576" height="43.84" fill="none"/>
    </clipPath>
  </defs>
  <g id="Grupo_947855" data-name="Grupo 947855" transform="translate(4352 7492)">
    <g id="Grupo_893407" data-name="Grupo 893407" transform="translate(893 1579)">
      <circle id="Elipse_4817" data-name="Elipse 4817" cx="27.5" cy="27.5" r="27.5" transform="translate(-5245 -9071)" fill="#4d793f"/>
    </g>
    <g id="Grupo_947836" data-name="Grupo 947836" transform="translate(-4341.288 -7487.188)">
      <g id="Grupo_947835" data-name="Grupo 947835" clip-path="url(#clip-path)">
        <path id="Trazado_655776" data-name="Trazado 655776" d="M7.943,62.573c-.536-.459-.421-1.084-.422-1.677q0-1.923,0-3.845c0-.639.237-.873.871-.882.325-.005.761.106.945-.06.218-.2.058-.641.068-.977.013-.413,0-.826,0-1.239.01-.577.236-.8.8-.822.323-.013.762.145.936-.071s.062-.624.062-.949q0-2.542,0-5.084c0-.085,0-.171,0-.256.021-.477.287-.791.664-.79s.644.317.659.794c.014.413,0,.826,0,1.239,0,1.581.007,3.161-.006,4.742,0,.29.064.387.372.384q2.819-.022,5.639,0c.338,0,.432-.109.386-.413a.944.944,0,0,1,0-.214,2.2,2.2,0,0,0-.769-2.059,3.466,3.466,0,0,1-.829-4.106,3.65,3.65,0,0,1,3.232-2.414,3.746,3.746,0,0,1,3.788,2.02c.279.48.2.864-.186,1.063-.361.187-.674.042-.957-.444a2.58,2.58,0,0,0-4.767.546,2.57,2.57,0,0,0,1.472,3.049,2.6,2.6,0,0,0,3.249-1.08c.083-.149.152-.306.245-.448a.627.627,0,0,1,.85-.23.6.6,0,0,1,.286.8,3.6,3.6,0,0,1-1.342,1.719.589.589,0,0,0-.3.59c.027.454.014.911,0,1.367,0,.18.048.249.239.248,2.037-.006,4.073-.009,6.109,0,.353,0,.255-.229.255-.4q.006-4.636,0-9.271c0-.2-.008-.4-.012-.6A8.489,8.489,0,0,0,12.66,41.5a12.049,12.049,0,0,0-.13,2.169,3.231,3.231,0,0,1-.045.507.585.585,0,0,1-.588.518.608.608,0,0,1-.648-.5,3.523,3.523,0,0,1-.041-.977,9.663,9.663,0,0,1,3.412-7.555,9.378,9.378,0,0,1,8.045-2.237,9.742,9.742,0,0,1,7.969,7.752,10.848,10.848,0,0,1,.2,2.164c0,3.09.007,6.181-.006,9.271,0,.352.049.487.452.478,1.3-.029,1.352.042,1.352,1.364a12.642,12.642,0,0,1-.01,1.281c-.041.4.118.486.471.446a4.241,4.241,0,0,1,.726,0,.669.669,0,0,1,.7.707c.01,1.637,0,3.275.01,4.913,0,.361-.308.509-.429.78H25.376c-.427-.268-.573-.535-.487-.893.092-.389.386-.6.915-.6,2.15-.015,4.3,0,6.45-.007.849,0,.849,0,.849-.833,0-.684,0-1.367,0-2.051,0-.555-.048-.595-.617-.6-.085,0-.171,0-.256,0H9.76c-.826,0-.826,0-.827.82,0,.67,0,1.339,0,2.008,0,.643.019.661.68.661H22.172c.256,0,.513-.008.769.006.5.026.783.226.872.6.085.358-.061.624-.488.892Z" transform="translate(-4.23 -18.733)" fill="#fff"/>
        <path id="Trazado_655777" data-name="Trazado 655777" d="M25,93.791c-.029-.155.12-.169.191-.247a.643.643,0,0,0-.41-1.118c-.128,0-.256,0-.384,0-4.485,0-8.97-.007-13.455.01-.393,0-.466-.111-.456-.472.027-.911.031-1.823,0-2.733-.014-.414.071-.546.524-.545q10.081.026,20.162.012c1.111,0,2.221.008,3.332-.005.278,0,.4.042.4.365q-.033,1.515,0,3.032c.006.3-.107.341-.367.34-2.335-.009-4.67,0-7.005-.008-.361,0-.689.026-.835.427a.643.643,0,0,0,.342.821c.023.015.014.08.019.122Z" transform="translate(-5.905 -49.952)" fill="#4d793f"/>
        <path id="Trazado_655778" data-name="Trazado 655778" d="M37.836,0a1.1,1.1,0,0,1,.413.955q-.013,5.14-.006,10.28c0,.057,0,.114,0,.171-.021.5-.295.822-.685.808s-.64-.322-.64-.808q-.009-5.311,0-10.622A.971.971,0,0,1,37.323,0Z" transform="translate(-20.792)" fill="#fff"/>
        <path id="Trazado_655779" data-name="Trazado 655779" d="M22.623,15.255a.675.675,0,0,1-.366.588.593.593,0,0,1-.678-.054,1.172,1.172,0,0,1-.282-.37q-2.553-4.587-5.1-9.177a2.035,2.035,0,0,1-.151-.349.579.579,0,0,1,.266-.7.562.562,0,0,1,.745.042,1.574,1.574,0,0,1,.3.411q2.526,4.529,5.048,9.061a1.971,1.971,0,0,1,.224.544" transform="translate(-9.017 -2.859)" fill="#fff"/>
        <path id="Trazado_655780" data-name="Trazado 655780" d="M52.376,5.739a1.469,1.469,0,0,1-.187.505q-2.554,4.587-5.106,9.175c-.275.493-.57.622-.956.436s-.459-.582-.2-1.055q1.276-2.307,2.561-4.608t2.565-4.605c.265-.473.6-.608.968-.411a.705.705,0,0,1,.352.562" transform="translate(-25.784 -2.866)" fill="#fff"/>
        <path id="Trazado_655781" data-name="Trazado 655781" d="M10.946,25.81a.638.638,0,0,1-.837.5,2.366,2.366,0,0,1-.387-.171Q5.158,23.721.6,21.3a1.978,1.978,0,0,1-.357-.228.6.6,0,0,1-.148-.8.6.6,0,0,1,.727-.3,1.686,1.686,0,0,1,.386.175Q5.784,22.572,10.365,25a.871.871,0,0,1,.582.81" transform="translate(0 -11.235)" fill="#fff"/>
        <path id="Trazado_655782" data-name="Trazado 655782" d="M52.479,26.361a.671.671,0,0,1-.6-.423.591.591,0,0,1,.156-.7,1.851,1.851,0,0,1,.394-.247q4.559-2.423,9.12-4.841a1.976,1.976,0,0,1,.344-.166.639.639,0,0,1,.614,1.1,2.207,2.207,0,0,1-.361.223Q57.6,23.722,53.059,26.13a2.547,2.547,0,0,1-.58.231" transform="translate(-29.19 -11.234)" fill="#fff"/>
        <path id="Trazado_655783" data-name="Trazado 655783" d="M43.324,39.71a2.13,2.13,0,0,1,.325.12,8.535,8.535,0,0,1,4.2,4.675c.183.512.007.939-.428,1.009a.616.616,0,0,1-.735-.438,7.4,7.4,0,0,0-3.648-4.1.634.634,0,0,1-.371-.771.656.656,0,0,1,.659-.494" transform="translate(-24.015 -22.367)" fill="#fff"/>
        <path id="Trazado_655784" data-name="Trazado 655784" d="M25.118,83.325c-3.29,0-6.579-.007-9.868.009-.359,0-.473-.087-.433-.442.051-.445-.186-1.049.095-1.3.248-.222.838-.069,1.278-.069q9.377,0,18.754-.01c.378,0,.495.09.456.463A6.076,6.076,0,0,0,35.4,83c.017.26-.058.336-.326.333-1.253-.015-2.506-.007-3.759-.007H25.118" transform="translate(-8.32 -45.889)" fill="#4d793f"/>
        <path id="Trazado_655785" data-name="Trazado 655785" d="M36.649,75.146a2.893,2.893,0,0,0,1.15.031c.158-.035.246-.014.228.173-.008.085,0,.171,0,.256,0,1.1,0,1.091-1.085,1.064-.214,0-.307-.046-.3-.281.017-.409,0-.82,0-1.244" transform="translate(-20.639 -42.326)" fill="#4d793f"/>
      </g>
    </g>
  </g>
</svg>
