<svg xmlns="http://www.w3.org/2000/svg" xmlns:xlink="http://www.w3.org/1999/xlink" width="53.929" height="53.92" viewBox="0 0 53.929 53.92">
  <defs>
    <clipPath id="clip-path">
      <rect id="Rectángulo_336197" data-name="Rectángulo 336197" width="53.929" height="53.92" fill="none"/>
    </clipPath>
  </defs>
  <g id="Grupo_947789" data-name="Grupo 947789" transform="translate(0 0)" opacity="0.5">
    <g id="Grupo_947788" data-name="Grupo 947788" transform="translate(0 0)" clip-path="url(#clip-path)">
      <path id="Trazado_655595" data-name="Trazado 655595" d="M53.923,2.427v36.92a11.356,11.356,0,0,1-1.1,3.2c-.167.39-.143.631.248.858a1.789,1.789,0,0,1,.854,1.309v7.573a2,2,0,0,1-2.287,1.629H39.488a2.257,2.257,0,0,1-2.408-1.831,4.107,4.107,0,0,1-.146-1.143c0-1.613,0-3.226,0-4.839a3.2,3.2,0,0,1,1-2.61.48.48,0,0,0,.095-.658q-1.7-3.384-3.385-6.775c-.218-.439-.572-.446-.97-.445q-6.522,0-13.044,0c-.4,0-.807-.006-1.21.005a.416.416,0,0,0-.469.389A22.611,22.611,0,0,1,17.6,40.7a.914.914,0,0,0,.287,1.188,2.371,2.371,0,0,1,.852,1.953c-.016,2.508-.01,5.014,0,7.521a2.657,2.657,0,0,1-.465,1.585,2.1,2.1,0,0,1-1.858.977c-4.1-.019-8.205-.009-12.308-.01a2.4,2.4,0,0,1-2.513-2.442c-.026-.894-.005-1.787-.006-2.681,0-1.6.011-3.191-.005-4.786A2.743,2.743,0,0,1,2.1,42.276a2.022,2.022,0,0,0,.334-1.133A12.291,12.291,0,0,0,1.419,35.4c-.3-.71-.513-1.453-.775-2.18A10.919,10.919,0,0,1,0,29.308c.036-2.366.02-4.734.007-7.1A4.835,4.835,0,0,1,2.833,17.5a.806.806,0,0,0,.441-.86q-.008-3.681,0-7.363c0-1.945,0-3.891,0-5.837A3.494,3.494,0,0,1,5.02.332,4.189,4.189,0,0,1,6.164.008H51.293a2.968,2.968,0,0,1,2.63,2.419" transform="translate(0 -0.003)" fill="#e6571e"/>
      <path id="Trazado_655596" data-name="Trazado 655596" d="M88.533,70.658a2.835,2.835,0,0,0-1.3-1.447c-.245-.113-.122-.253-.071-.38.236-.581.5-1.152.722-1.736s.434-1.2.65-1.8Z" transform="translate(-34.61 -25.95)" fill="#fefefe"/>
      <path id="Trazado_655597" data-name="Trazado 655597" d="M87.753,2.424A3.829,3.829,0,0,0,85.123.005c.8,0,1.6.008,2.394,0,.193,0,.246.04.241.238-.014.728,0,1.457,0,2.186" transform="translate(-33.83 0)" fill="#fefefe"/>
      <path id="Trazado_655598" data-name="Trazado 655598" d="M44.3,33.654c-.26-.448-.518-.9-.78-1.344a3.035,3.035,0,0,0-3.113-1.583,2.911,2.911,0,0,0-2.436,2.651c-.033.233-.1.3-.315.281-.192-.015-.386,0-.578,0q-10.151,0-20.3.008a1.2,1.2,0,0,1-.911-.374,2.818,2.818,0,0,1-.961-2.366,15.786,15.786,0,0,0-.09-3.67,3.309,3.309,0,0,0-.377-1.189,2.984,2.984,0,0,1-.349-1.708q.009-7.363,0-14.726c0-.992.245-1.233,1.247-1.233H53.316c.977,0,1.221.237,1.221,1.2q0,10.15.01,20.3c0,.431-.088.546-.522.423a1.9,1.9,0,0,0-1.277.17c-.217.095-.316.054-.471-.121a2.373,2.373,0,0,0-2.39-.855c-.325.069-.381-.036-.376-.331q.024-1.34,0-2.682c-.006-.295.076-.39.377-.38.648.022,1.3.018,1.946,0s1.045-.369,1.04-.876-.426-.854-1.051-.86-1.229-.028-1.84.01c-.357.022-.472-.1-.536-.431a2.429,2.429,0,0,0-1.94-2.028A2.5,2.5,0,0,0,44.5,23.864c-.077.451-.242.541-.666.536-2.279-.022-4.558-.008-6.837-.013a.938.938,0,0,0-.913.5.791.791,0,0,0,.09.888,1.112,1.112,0,0,0,1,.357c1.946,0,3.892-.005,5.838,0,.45,0,1.038-.2,1.312.083s.078.865.08,1.316c.008,2.032,0,4.064,0,6.1l-.1.025" transform="translate(-5.6 -3.338)" fill="#fafafa"/>
      <path id="Trazado_655599" data-name="Trazado 655599" d="M63,40.676q0-2.945,0-5.89a3.978,3.978,0,0,1,.011-.472.731.731,0,0,1,.782-.691.721.721,0,0,1,.815.649,3.912,3.912,0,0,1,.024.577q0,5,0,9.993c0,.14-.005.281,0,.421.033.633.337.966.875.961s.853-.356.859-.976c.01-1.017,0-2.033,0-3.05,0-.663.27-.986.81-.99s.818.31.824.982c.01,1,0,2,0,3,0,.424.083.813.538.983a.855.855,0,0,0,1.187-.847c.02-.788,0-1.578.007-2.366.005-.578.284-.886.792-.9a.767.767,0,0,1,.849.848c.026.77,0,1.543.012,2.313.01.677.313,1.014.871,1s.839-.369.844-1.038c0-.491-.009-.982,0-1.473a.82.82,0,0,1,1.635-.086.558.558,0,0,1,.014.1c-.03,2.786.112,5.575-.08,8.358a8.041,8.041,0,0,1-.859,2.513,14.108,14.108,0,0,0-.575,1.456c-.077.256-.2.281-.408.281q-4.944,0-9.888,0a.435.435,0,0,1-.44-.284q-2.907-5.849-5.816-11.7a1.221,1.221,0,0,1,.49-1.789c.682-.337,1.284-.111,1.737.667q1.105,1.9,2.2,3.81c.459.8.7.962,1.212.833S63,47.446,63,46.566v-5.89" transform="translate(-22.458 -13.363)" fill="#fafafa"/>
      <path id="Trazado_655600" data-name="Trazado 655600" d="M54.032,29.03v-.6c0-7.029-.024-14.058.018-21.087A2.771,2.771,0,0,0,51.18,4.465q-19.09.058-38.181,0A2.765,2.765,0,0,0,10.153,7.31c.061,4.557.021,9.115.021,13.672V21.6A3.688,3.688,0,0,0,8.5,21.382v-.543q0-7.993,0-15.986C8.5,3.43,9.124,2.8,10.543,2.8H53.668c1.393,0,2.023.625,2.023,2.016q0,11.858.008,23.716c0,.387-.051.559-.484.409a2.407,2.407,0,0,0-1.182.087" transform="translate(-3.378 -1.114)" fill="#fafafa"/>
      <path id="Trazado_655601" data-name="Trazado 655601" d="M4.564,31.986v6c0,1.1,0,2.208,0,3.312a.875.875,0,0,0,.848.939.861.861,0,0,0,.838-.943c.007-1.928,0-3.856.005-5.784,0-.275-.079-.62.2-.771A.907.907,0,0,1,7.4,34.9,3.313,3.313,0,0,1,8.764,37.76c.039,1.138.026,2.278,0,3.417a2.527,2.527,0,0,0,.6,1.74c.519.616,1.077,1.2,1.6,1.812a4.875,4.875,0,0,1,1.165,3.18c.007.514.158.915.689,1.027a.782.782,0,0,0,.989-.618c.067-.24.234-.171.372-.171,1.227-.005,2.455.017,3.681-.014.426-.011.41.184.354.473a16.586,16.586,0,0,1-.587,2.277,21.59,21.59,0,0,0-.827,2.8c-.048.238-.136.306-.373.306q-5.338-.011-10.675,0c-.335,0-.355-.146-.351-.407a11.225,11.225,0,0,0-.561-4.646c-.41-.977-.7-2-1.061-3a13.8,13.8,0,0,1-.918-5.381c.076-1.714.01-3.435.019-5.152a4.335,4.335,0,0,1,.686-2.539,2.57,2.57,0,0,1,.993-.881" transform="translate(-1.135 -12.712)" fill="#fafafa"/>
      <path id="Trazado_655602" data-name="Trazado 655602" d="M12.491,71.385q2.838,0,5.676,0c.739,0,1,.265,1,1.016q0,3.6,0,7.2c0,.728-.277,1.011-1.018,1.012q-5.7.007-11.4,0c-.753,0-1.038-.3-1.039-1.059q-.006-3.548,0-7.094c0-.812.262-1.073,1.06-1.074q2.864,0,5.729,0" transform="translate(-2.265 -28.37)" fill="#fafafa"/>
      <path id="Trazado_655603" data-name="Trazado 655603" d="M71.189,74.177q2.863,0,5.727,0c.741,0,1.02.263,1.024,1q.014,2.758,0,5.515c0,.741-.286,1.024-1.02,1.025q-5.727.008-11.453,0c-.716,0-.976-.275-.977-.991q-.006-2.785,0-5.568c0-.718.265-.982.973-.983q2.863-.005,5.727,0" transform="translate(-25.628 -29.48)" fill="#fafafa"/>
      <path id="Trazado_655604" data-name="Trazado 655604" d="M19.82,53.2h.562q9.886,0,19.771-.011a.74.74,0,0,1,.825.51c.142.368.34.715.544,1.133h-.565q-10.017,0-20.034.012c-.4,0-.583-.107-.678-.494A10.865,10.865,0,0,0,19.82,53.2" transform="translate(-7.877 -21.137)" fill="#fafafa"/>
      <path id="Trazado_655605" data-name="Trazado 655605" d="M26.134,28.911q-3.994,0-7.988,0c-1.029,0-1.293-.247-1.273-1.263.029-1.417-.073-2.833.089-4.251a9.279,9.279,0,0,1,18.254-.733,14.955,14.955,0,0,1,.236,3.552c0,.508,0,1.016,0,1.524-.006.862-.3,1.168-1.171,1.17q-3.469.007-6.937,0H26.134" transform="translate(-6.704 -6.119)" fill="#e6571e"/>
      <path id="Trazado_655606" data-name="Trazado 655606" d="M54.935,13.709c1.155,0,2.311-.01,3.467.007.306,0,.455-.051.516-.395a2.52,2.52,0,0,1,4.974-.042c.065.315.155.464.522.441.645-.04,1.3-.016,1.943-.01a.886.886,0,0,1,.97.873.862.862,0,0,1-.961.819c-.613.008-1.229.037-1.838-.01-.443-.035-.581.12-.662.54a2.449,2.449,0,0,1-2.207,1.985,2.532,2.532,0,0,1-2.66-1.7c-.1-.262,0-.659-.231-.769a2.311,2.311,0,0,0-.93-.047c-2.155,0-4.31,0-6.464,0a.833.833,0,0,1-.932-.729A.819.819,0,0,1,51,13.768a1.443,1.443,0,0,1,.515-.056c1.138,0,2.277,0,3.416,0" transform="translate(-20.045 -4.445)" fill="#e6571e"/>
      <path id="Trazado_655607" data-name="Trazado 655607" d="M61.923,25.2c-1.419,0-2.839.01-4.257-.007-.316,0-.448.074-.516.4a2.522,2.522,0,0,1-4.986-.028c-.055-.255-.13-.427-.432-.369a1.059,1.059,0,0,1-.21,0c-.7-.015-1.1-.329-1.1-.857s.427-.888,1.1-.847c.46.028.6-.127.685-.572a2.518,2.518,0,0,1,4.914.005c.083.438.235.571.69.567,2.838-.025,5.676-.014,8.515-.011a.9.9,0,0,1,1,.849c.006.5-.372.833-.983.862-.122.006-.245,0-.368,0H61.923" transform="translate(-20.039 -8.331)" fill="#e6571e"/>
      <path id="Trazado_655608" data-name="Trazado 655608" d="M34.776,24.986c-.251,0-.494-.011-.736,0a.9.9,0,0,0-.9.849.887.887,0,0,0,.824.863c.273.045.667-.124.791.089.139.239.028.612.07.921.069.5-.072.69-.629.66-1.031-.055-2.067-.027-3.1-.009-.316.005-.483-.055-.494-.412A2.453,2.453,0,0,0,30.06,26.5c-.217-.276-.152-.426.074-.633.362-.33.707-.681,1.043-1.038a.868.868,0,0,0,.061-1.264.822.822,0,0,0-1.252.049c-.457.434-.9.882-1.343,1.333a.492.492,0,0,1-.537.16,3.362,3.362,0,0,0-4.2,2.875c-.054.33-.157.381-.448.377q-1.682-.024-3.365,0c-.313,0-.468-.066-.412-.4a1.43,1.43,0,0,0,0-.21c.008-.314-.081-.683.054-.926.145-.262.545-.072.83-.123a.858.858,0,0,0-.054-1.713c-.81-.072-.823-.075-.628-.86a7.906,7.906,0,0,1,1.223-2.7c.191-.269.312-.263.5-.028a2.2,2.2,0,0,0,.3.3.85.85,0,0,0,1.219-1.184c-.165-.2-.508-.422-.477-.575.059-.3.44-.4.7-.566a6.992,6.992,0,0,1,2.373-.925c.662-.124.661-.128.677.525.016.635.354,1,.909.974.516-.021.789-.365.808-1.019.018-.613.017-.606.632-.49A7.528,7.528,0,0,1,31.7,19.706c.242.169.254.283.033.462a2.368,2.368,0,0,0-.33.338.838.838,0,0,0,.027,1.18.849.849,0,0,0,1.185.019c.014-.011.027-.023.04-.034.606-.516.607-.517,1.042.185a7.4,7.4,0,0,1,1.076,3.131" transform="translate(-7.815 -7.302)" fill="#fafafa"/>
      <path id="Trazado_655609" data-name="Trazado 655609" d="M31.217,33.857c-.453,0-.908-.021-1.359.007-.327.02-.329-.125-.283-.371a1.677,1.677,0,0,1,3.271.065c.031.224-.027.312-.269.3-.453-.017-.907,0-1.36,0" transform="translate(-11.745 -12.804)" fill="#fff"/>
      <path id="Trazado_655610" data-name="Trazado 655610" d="M68.9,15.678c0,.331.025.665-.006.994a.75.75,0,0,1-.829.689.729.729,0,0,1-.764-.707c-.033-.644-.03-1.293,0-1.937a.806.806,0,0,1,1.588-.033,9.58,9.58,0,0,1,.007.994h0" transform="translate(-26.736 -5.576)" fill="#fafafa"/>
      <path id="Trazado_655611" data-name="Trazado 655611" d="M57.72,25.491c0,.314.02.63,0,.942a.762.762,0,0,1-.812.711.751.751,0,0,1-.788-.735c-.023-.61-.022-1.221,0-1.832a.766.766,0,0,1,.814-.771.774.774,0,0,1,.792.742c.022.313,0,.628,0,.942h0" transform="translate(-22.294 -9.462)" fill="#fafafa"/>
    </g>
  </g>
</svg>
